<svg xmlns="http://www.w3.org/2000/svg" xmlns:xlink="http://www.w3.org/1999/xlink" width="1366" zoomAndPan="magnify" viewBox="0 0 1024.5 149.999998" height="200" preserveAspectRatio="xMidYMid meet" version="1.0"><defs><clipPath id="1e42cb7ff3"><path d="M 477 24 L 1020 24 L 1020 82.496094 L 477 82.496094 Z M 477 24 " clip-rule="nonzero"/></clipPath></defs><g clip-path="url(#1e42cb7ff3)"><path fill="#869676" d="M 479.125 36.761719 C 487.09375 23.929688 507.738281 42.121094 515.027344 51.269531 C 521.289062 40.835938 537.867188 15.046875 547.109375 35.46875 C 549.632812 41.042969 549.234375 46.296875 547.109375 51.191406 L 568.710938 51.191406 C 569.125 51.023438 569.605469 51.019531 570.097656 51.191406 L 645.722656 51.191406 C 645.796875 50.988281 645.90625 50.808594 646.035156 50.648438 C 645.625 49.832031 645.714844 48.804688 646.757812 48.261719 C 676.449219 32.921875 708.46875 24.902344 741.875 24.464844 C 743.898438 24.4375 744.328125 27.011719 742.84375 28.046875 C 726.496094 39.488281 708.4375 47.195312 689.488281 51.191406 L 713.964844 51.191406 C 714.382812 51.023438 714.855469 51.019531 715.351562 51.191406 L 790.984375 51.191406 C 791.046875 50.988281 791.15625 50.808594 791.285156 50.648438 C 790.878906 49.832031 790.972656 48.804688 792.011719 48.261719 C 821.699219 32.921875 853.71875 24.902344 887.125 24.464844 C 889.152344 24.4375 889.578125 27.011719 888.097656 28.046875 C 871.746094 39.488281 853.691406 47.195312 834.742188 51.191406 L 859.222656 51.191406 C 859.632812 51.023438 860.109375 51.019531 860.605469 51.191406 L 959.476562 51.191406 C 959.53125 50.824219 959.695312 50.457031 960.097656 50.144531 C 970.246094 42.128906 981.554688 36.039062 994.148438 32.882812 C 999.675781 31.496094 1015.519531 27.230469 1019.296875 34.035156 C 1022.867188 40.480469 1011.675781 48.085938 1007.324219 49.945312 C 1005.277344 50.820312 1003.097656 51.488281 1000.875 52.066406 C 1009.316406 54.40625 1014.734375 58.644531 1011.035156 66.109375 C 1007.167969 73.910156 995.179688 73.988281 988.035156 72.777344 C 976.605469 70.839844 964.902344 64.828125 957.355469 55.992188 C 957.09375 55.691406 956.984375 55.363281 956.921875 55.039062 L 894.4375 55.039062 C 912.652344 58.253906 929.90625 64.421875 944.222656 77.707031 C 945.425781 78.820312 944.511719 81.039062 942.867188 80.988281 C 927.589844 80.480469 911.960938 79.96875 897.308594 75.171875 C 885.257812 71.226562 875.4375 63.414062 864.488281 57.414062 C 864.40625 57.398438 864.320312 57.382812 864.234375 57.363281 C 863.730469 57.273438 863.414062 57.019531 863.183594 56.71875 C 862.160156 56.171875 861.113281 55.660156 860.0625 55.152344 C 860.035156 55.148438 860.015625 55.132812 859.988281 55.125 C 859.9375 55.097656 859.882812 55.0625 859.824219 55.039062 L 749.175781 55.039062 C 767.394531 58.253906 784.648438 64.421875 798.96875 77.707031 C 800.175781 78.824219 799.257812 81.039062 797.617188 80.988281 C 782.335938 80.480469 766.710938 79.972656 752.058594 75.171875 C 740.003906 71.226562 730.179688 63.414062 719.234375 57.414062 C 719.144531 57.398438 719.070312 57.382812 718.980469 57.363281 C 718.476562 57.273438 718.152344 57.019531 717.929688 56.71875 C 716.898438 56.175781 715.863281 55.660156 714.808594 55.152344 C 714.785156 55.148438 714.761719 55.136719 714.738281 55.125 C 714.675781 55.097656 714.632812 55.0625 714.574219 55.039062 L 603.925781 55.039062 C 622.148438 58.253906 639.394531 64.421875 653.71875 77.707031 C 654.921875 78.824219 654.003906 81.039062 652.363281 80.988281 C 637.082031 80.480469 621.457031 79.972656 606.804688 75.171875 C 594.75 71.226562 584.925781 63.414062 573.980469 57.414062 C 573.894531 57.398438 573.8125 57.382812 573.726562 57.363281 C 573.226562 57.273438 572.898438 57.019531 572.675781 56.71875 C 571.648438 56.175781 570.601562 55.664062 569.554688 55.160156 C 569.53125 55.148438 569.507812 55.136719 569.484375 55.125 C 569.425781 55.097656 569.371094 55.0625 569.320312 55.039062 L 545.023438 55.039062 C 537.222656 67.179688 519.46875 76.714844 510.519531 82.453125 C 509.847656 82.882812 509.207031 82.800781 508.703125 82.488281 C 508.046875 82.785156 507.261719 82.785156 506.578125 82.207031 C 497.480469 74.480469 488.007812 66.328125 482.417969 55.566406 C 479.980469 50.890625 475.886719 41.976562 479.125 36.761719 M 620.511719 69.542969 C 620.511719 69.511719 620.535156 69.492188 620.535156 69.460938 C 619.679688 69.171875 618.824219 68.910156 617.964844 68.632812 C 617.957031 68.738281 617.945312 68.855469 617.921875 68.964844 C 618.785156 69.160156 619.644531 69.359375 620.511719 69.542969 Z M 590.582031 60.949219 C 590.34375 60.890625 590.113281 60.832031 589.875 60.777344 C 590.144531 60.859375 590.410156 60.949219 590.675781 61.027344 C 590.636719 61.007812 590.617188 60.972656 590.582031 60.949219 Z M 682.957031 40.660156 C 688.4375 39.453125 693.914062 38.246094 699.394531 37.035156 C 698.960938 36.863281 698.644531 36.558594 698.429688 36.160156 C 693.242188 37.488281 688.082031 39.023438 682.957031 40.660156 Z M 662.339844 45.199219 C 662.339844 45.199219 662.34375 45.199219 662.332031 45.199219 C 662.339844 45.199219 662.34375 45.199219 662.339844 45.199219 Z M 734.632812 28.730469 C 734.703125 28.6875 734.777344 28.640625 734.847656 28.601562 C 734.75 28.605469 734.648438 28.605469 734.5625 28.613281 C 734.582031 28.652344 734.621094 28.683594 734.632812 28.730469 Z M 661.140625 49.394531 C 659.554688 49.734375 657.976562 50.085938 656.398438 50.433594 C 658.257812 50.46875 660.105469 50.511719 661.949219 50.480469 C 661.535156 50.210938 661.257812 49.851562 661.140625 49.394531 Z M 765.765625 69.542969 C 765.765625 69.511719 765.789062 69.492188 765.789062 69.460938 C 764.929688 69.171875 764.074219 68.910156 763.21875 68.632812 C 763.210938 68.738281 763.199219 68.855469 763.183594 68.964844 C 764.039062 69.160156 764.902344 69.359375 765.765625 69.542969 Z M 735.839844 60.949219 C 735.601562 60.890625 735.367188 60.832031 735.128906 60.777344 C 735.394531 60.859375 735.664062 60.949219 735.925781 61.027344 C 735.890625 61.007812 735.871094 60.972656 735.839844 60.949219 Z M 828.207031 40.660156 C 833.6875 39.453125 839.167969 38.246094 844.648438 37.035156 C 844.214844 36.863281 843.894531 36.558594 843.683594 36.160156 C 838.492188 37.488281 833.339844 39.023438 828.207031 40.660156 Z M 807.59375 45.199219 C 807.59375 45.199219 807.59375 45.199219 807.589844 45.199219 C 807.59375 45.199219 807.59375 45.199219 807.59375 45.199219 Z M 879.890625 28.730469 C 879.957031 28.6875 880.03125 28.640625 880.097656 28.601562 C 880.003906 28.605469 879.910156 28.605469 879.816406 28.613281 C 879.832031 28.652344 879.875 28.683594 879.890625 28.730469 Z M 806.394531 49.394531 C 804.808594 49.734375 803.230469 50.085938 801.652344 50.433594 C 803.507812 50.46875 805.351562 50.511719 807.203125 50.480469 C 806.789062 50.210938 806.511719 49.851562 806.394531 49.394531 Z M 911.015625 69.542969 C 911.015625 69.511719 911.042969 69.492188 911.042969 69.460938 C 910.191406 69.171875 909.328125 68.910156 908.476562 68.632812 C 908.46875 68.738281 908.457031 68.855469 908.433594 68.964844 C 909.292969 69.160156 910.15625 69.359375 911.015625 69.542969 Z M 881.089844 60.949219 C 880.855469 60.890625 880.625 60.832031 880.386719 60.777344 C 880.652344 60.859375 880.914062 60.949219 881.179688 61.027344 C 881.152344 61.007812 881.121094 60.972656 881.089844 60.949219 Z M 987.992188 49.890625 C 992.578125 49.46875 998.117188 48.855469 1002.691406 47.484375 C 1004.585938 46.734375 1006.496094 45.976562 1008.394531 45.222656 C 1012.226562 37.351562 1011.785156 33.824219 1007.074219 34.640625 C 1000.65625 33.429688 990.625 37.679688 984.726562 40.019531 C 978.386719 42.542969 972.628906 45.777344 967.140625 49.652344 C 972.273438 49.363281 980.070312 49.246094 987.757812 49.902344 C 987.832031 49.894531 987.910156 49.902344 987.992188 49.890625 Z M 973.972656 63.90625 C 980.066406 66.941406 991.3125 71.882812 998.160156 69.105469 C 1002.105469 69.542969 1003.234375 67.386719 1001.53125 62.628906 C 1003.789062 58.171875 1003.054688 55.96875 999.359375 56.007812 C 997.035156 54.386719 991.1875 54.554688 988.527344 54.183594 C 988.289062 54.144531 988.058594 54.132812 987.832031 54.097656 C 983.484375 54.394531 979.117188 54.40625 974.875 54.277344 L 974.875 55.039062 L 961.746094 55.039062 C 965.289062 58.699219 969.347656 61.601562 973.972656 63.90625 Z M 898.332031 71.460938 C 905.601562 73.875 913.144531 75.167969 920.757812 75.925781 C 916.5 75.128906 912.261719 74.242188 908.03125 73.285156 C 907.730469 73.40625 907.394531 73.480469 907.011719 73.433594 C 900.527344 72.554688 894.625 70.058594 888.871094 67.148438 C 888.542969 67.066406 888.226562 66.972656 887.902344 66.886719 C 891.234375 68.660156 894.667969 70.253906 898.332031 71.460938 Z M 753.078125 71.460938 C 760.351562 73.875 767.886719 75.167969 775.503906 75.925781 C 771.25 75.128906 767.007812 74.242188 762.78125 73.285156 C 762.472656 73.40625 762.148438 73.480469 761.757812 73.433594 C 755.273438 72.554688 749.375 70.058594 743.617188 67.148438 C 743.292969 67.066406 742.972656 66.972656 742.648438 66.886719 C 745.976562 68.660156 749.410156 70.253906 753.078125 71.460938 Z M 607.820312 71.460938 C 615.097656 73.875 622.632812 75.167969 630.253906 75.925781 C 625.996094 75.128906 621.753906 74.242188 617.53125 73.285156 C 617.21875 73.40625 616.894531 73.480469 616.503906 73.433594 C 610.011719 72.554688 604.113281 70.058594 598.363281 67.148438 C 598.039062 67.066406 597.714844 66.972656 597.394531 66.886719 C 600.722656 68.660156 604.164062 70.253906 607.820312 71.460938 Z M 486.691406 55.296875 C 491.992188 64.800781 500.566406 72.066406 508.765625 79.023438 C 517.945312 73.148438 528.964844 67.546875 536.378906 59.414062 C 539.316406 56.660156 541.363281 53.402344 542.523438 49.636719 C 547.019531 41.910156 541.617188 38.667969 526.320312 39.910156 C 522.53125 42.5 519.21875 51.730469 516.851562 55.699219 C 516.101562 56.964844 514.292969 56.925781 513.53125 55.699219 C 509.511719 49.238281 504.609375 44.046875 497.71875 40.578125 C 491.097656 35.582031 486.207031 37.710938 483.039062 46.949219 C 483.882812 49.914062 485.101562 52.699219 486.691406 55.296875 Z M 486.691406 55.296875 " fill-opacity="1" fill-rule="evenodd"/></g><path fill="#869676" d="M 4.167969 34.03125 C 7.226562 27.09375 24.398438 31.652344 29.316406 32.882812 C 41.914062 36.039062 53.21875 42.125 63.375 50.144531 C 63.769531 50.457031 63.9375 50.824219 63.988281 51.191406 L 162.859375 51.191406 C 163.355469 51.019531 163.835938 51.027344 164.25 51.191406 L 188.726562 51.191406 C 169.773438 47.195312 151.726562 39.488281 135.371094 28.046875 C 133.890625 27.007812 134.3125 24.441406 136.339844 24.464844 C 169.742188 24.902344 201.769531 32.921875 231.453125 48.261719 C 232.496094 48.804688 232.589844 49.832031 232.179688 50.648438 C 232.304688 50.808594 232.421875 50.992188 232.480469 51.191406 L 308.113281 51.191406 C 308.609375 51.019531 309.085938 51.027344 309.5 51.191406 L 333.976562 51.191406 C 315.027344 47.195312 296.984375 39.488281 280.625 28.046875 C 279.144531 27.007812 279.566406 24.441406 281.589844 24.464844 C 315 24.902344 347.023438 32.921875 376.707031 48.261719 C 377.757812 48.804688 377.839844 49.832031 377.433594 50.648438 C 377.5625 50.808594 377.667969 50.992188 377.738281 51.191406 L 453.371094 51.191406 C 453.867188 51.019531 454.347656 51.027344 454.753906 51.191406 L 480.164062 51.191406 L 480.164062 55.039062 L 454.144531 55.039062 C 454.09375 55.0625 454.039062 55.09375 453.988281 55.113281 C 453.960938 55.132812 453.933594 55.144531 453.910156 55.15625 C 452.863281 55.65625 451.816406 56.167969 450.789062 56.710938 C 450.570312 57.019531 450.246094 57.273438 449.734375 57.363281 C 449.652344 57.378906 449.570312 57.402344 449.484375 57.414062 C 438.539062 63.414062 428.726562 71.222656 416.667969 75.167969 C 402.015625 79.96875 386.378906 80.476562 371.109375 80.984375 C 369.464844 81.039062 368.535156 78.828125 369.75 77.703125 C 384.070312 64.417969 401.328125 58.253906 419.550781 55.039062 L 308.890625 55.039062 C 308.839844 55.0625 308.785156 55.09375 308.734375 55.113281 C 308.710938 55.132812 308.679688 55.144531 308.65625 55.15625 C 307.605469 55.65625 306.5625 56.167969 305.535156 56.71875 C 305.3125 57.019531 304.984375 57.273438 304.484375 57.363281 C 304.394531 57.378906 304.320312 57.402344 304.230469 57.414062 C 293.289062 63.414062 283.464844 71.222656 271.410156 75.167969 C 256.761719 79.96875 241.121094 80.476562 225.851562 80.984375 C 224.210938 81.039062 223.285156 78.828125 224.496094 77.703125 C 238.816406 64.417969 256.078125 58.25 274.300781 55.039062 L 163.640625 55.039062 C 163.585938 55.0625 163.527344 55.089844 163.480469 55.113281 C 163.457031 55.132812 163.433594 55.144531 163.402344 55.15625 C 162.347656 55.65625 161.304688 56.167969 160.28125 56.71875 C 160.058594 57.019531 159.742188 57.273438 159.230469 57.359375 C 159.140625 57.378906 159.066406 57.402344 158.976562 57.414062 C 148.027344 63.414062 138.214844 71.222656 126.15625 75.167969 C 111.507812 79.96875 95.871094 80.476562 80.597656 80.984375 C 78.960938 81.039062 78.03125 78.828125 79.242188 77.703125 C 93.5625 64.417969 110.816406 58.25 129.039062 55.035156 L 66.539062 55.035156 C 66.480469 55.363281 66.375 55.6875 66.117188 55.988281 C 58.542969 64.847656 46.882812 70.800781 35.433594 72.773438 C 28.167969 74.027344 16.402344 73.875 12.429688 66.105469 C 8.605469 58.640625 14.09375 54.40625 22.621094 52.074219 C 20.382812 51.488281 18.199219 50.824219 16.140625 49.941406 C 11.257812 47.851562 1.179688 40.816406 4.167969 34.03125 M 115.03125 68.964844 C 115.007812 68.851562 114.996094 68.746094 114.996094 68.632812 C 114.136719 68.910156 113.277344 69.171875 112.425781 69.460938 C 112.425781 69.488281 112.449219 69.515625 112.449219 69.542969 C 113.316406 69.359375 114.175781 69.160156 115.03125 68.964844 Z M 142.375 60.949219 C 142.34375 60.972656 142.320312 61.007812 142.285156 61.027344 C 142.554688 60.949219 142.824219 60.859375 143.082031 60.777344 C 142.847656 60.832031 142.609375 60.890625 142.375 60.949219 Z M 179.78125 36.160156 C 179.574219 36.554688 179.25 36.871094 178.824219 37.042969 C 184.296875 38.246094 189.777344 39.453125 195.25 40.660156 C 190.125 39.019531 184.972656 37.488281 179.78125 36.160156 Z M 217.078125 49.394531 C 216.953125 49.855469 216.683594 50.210938 216.269531 50.480469 C 218.113281 50.507812 219.964844 50.46875 221.820312 50.433594 C 220.234375 50.085938 218.65625 49.738281 217.078125 49.394531 Z M 143.652344 28.613281 C 143.5625 28.605469 143.46875 28.605469 143.367188 28.601562 C 143.4375 28.640625 143.507812 28.6875 143.574219 28.730469 C 143.589844 28.683594 143.632812 28.652344 143.652344 28.613281 Z M 215.871094 45.199219 C 215.878906 45.199219 215.878906 45.199219 215.878906 45.199219 C 215.878906 45.199219 215.878906 45.199219 215.875 45.199219 Z M 260.289062 68.964844 C 260.265625 68.851562 260.253906 68.746094 260.253906 68.632812 C 259.390625 68.910156 258.535156 69.171875 257.679688 69.460938 C 257.675781 69.488281 257.703125 69.515625 257.703125 69.542969 C 258.570312 69.359375 259.425781 69.160156 260.289062 68.964844 Z M 287.632812 60.949219 C 287.601562 60.972656 287.574219 61.007812 287.539062 61.027344 C 287.808594 60.949219 288.078125 60.859375 288.34375 60.777344 C 288.101562 60.832031 287.871094 60.890625 287.632812 60.949219 Z M 325.042969 36.160156 C 324.828125 36.554688 324.503906 36.871094 324.078125 37.042969 C 329.550781 38.246094 335.03125 39.453125 340.503906 40.660156 C 335.382812 39.019531 330.238281 37.488281 325.042969 36.160156 Z M 362.324219 49.394531 C 362.214844 49.855469 361.933594 50.210938 361.519531 50.480469 C 363.363281 50.507812 365.214844 50.46875 367.074219 50.433594 C 365.488281 50.085938 363.910156 49.738281 362.324219 49.394531 Z M 288.898438 28.613281 C 288.816406 28.605469 288.722656 28.605469 288.621094 28.601562 C 288.6875 28.640625 288.761719 28.6875 288.832031 28.730469 C 288.847656 28.683594 288.886719 28.652344 288.898438 28.613281 Z M 361.125 45.199219 L 361.132812 45.199219 C 361.128906 45.199219 361.125 45.199219 361.125 45.199219 Z M 405.542969 68.964844 C 405.519531 68.851562 405.507812 68.746094 405.503906 68.632812 C 404.644531 68.910156 403.785156 69.171875 402.933594 69.460938 C 402.929688 69.488281 402.953125 69.515625 402.953125 69.542969 C 403.824219 69.359375 404.679688 69.160156 405.542969 68.964844 Z M 432.886719 60.949219 C 432.847656 60.972656 432.828125 61.007812 432.789062 61.027344 C 433.0625 60.949219 433.328125 60.859375 433.597656 60.777344 C 433.355469 60.832031 433.121094 60.890625 432.886719 60.949219 Z M 425.863281 66.941406 C 425.609375 67.015625 425.355469 67.085938 425.101562 67.148438 C 419.347656 70.058594 413.453125 72.558594 406.960938 73.433594 C 406.582031 73.480469 406.246094 73.410156 405.941406 73.285156 C 401.578125 74.277344 397.191406 75.1875 392.789062 76.003906 C 400.570312 75.269531 408.273438 73.976562 415.644531 71.464844 C 419.21875 70.246094 422.59375 68.679688 425.863281 66.941406 Z M 280.609375 66.941406 C 280.355469 67.015625 280.101562 67.085938 279.847656 67.148438 C 274.089844 70.058594 268.195312 72.558594 261.710938 73.433594 C 261.320312 73.480469 260.992188 73.410156 260.6875 73.285156 C 256.320312 74.277344 251.933594 75.1875 247.535156 76.003906 C 255.316406 75.269531 263.015625 73.976562 270.390625 71.464844 C 273.96875 70.246094 277.34375 68.679688 280.609375 66.941406 Z M 135.355469 66.941406 C 135.101562 67.015625 134.851562 67.085938 134.597656 67.148438 C 128.84375 70.058594 122.941406 72.558594 116.457031 73.433594 C 116.070312 73.480469 115.734375 73.410156 115.433594 73.285156 C 111.066406 74.277344 106.683594 75.1875 102.285156 76.003906 C 110.066406 75.269531 117.761719 73.976562 125.132812 71.464844 C 128.714844 70.246094 132.089844 68.679688 135.355469 66.941406 Z M 24.113281 56.007812 C 18.164062 58.589844 18.671875 67.5 25.308594 69.105469 C 37.382812 72.019531 53.070312 63.894531 61.683594 55.039062 L 48.59375 55.039062 L 48.59375 54.277344 C 44.101562 54.417969 39.484375 54.382812 34.898438 54.035156 C 31.265625 54.40625 26.5 54.972656 24.113281 56.007812 Z M 31.398438 49.375 C 33.074219 49.589844 34.742188 49.738281 36.421875 49.871094 C 43.914062 49.28125 51.441406 49.386719 56.394531 49.664062 C 51.863281 46.4375 47.101562 43.613281 41.996094 41.316406 C 37.9375 39.488281 20.667969 32.042969 16.390625 34.640625 C 13.464844 33.917969 12.960938 35.664062 14.882812 39.882812 C 13.429688 44.832031 15.390625 47.367188 20.777344 47.484375 C 24.214844 48.53125 27.851562 48.929688 31.398438 49.375 Z M 31.398438 49.375 " fill-opacity="1" fill-rule="evenodd"/><path stroke-linecap="butt" transform="matrix(0.749634, 0, 0, 0.749634, 415.597177, 59.497307)" fill="none" stroke-linejoin="miter" d="M 0.000638774 1.999357 L 7.347973 1.999357 " stroke="#869676" stroke-width="4" stroke-opacity="1" stroke-miterlimit="4"/></svg>