<svg xmlns="http://www.w3.org/2000/svg" xmlns:xlink="http://www.w3.org/1999/xlink" width="1366" zoomAndPan="magnify" viewBox="0 0 1024.5 576" height="768" preserveAspectRatio="xMidYMid meet" version="1.0"><defs><clipPath id="a7cc90ea33"><path d="M 291 0.140625 L 733 0.140625 L 733 203 L 291 203 Z M 291 0.140625 " clip-rule="nonzero"/></clipPath><clipPath id="ddd9338a3a"><path d="M 223.417969 144 L 800.636719 144 L 800.636719 575.859375 L 223.417969 575.859375 Z M 223.417969 144 " clip-rule="nonzero"/></clipPath></defs><g clip-path="url(#a7cc90ea33)"><path fill="#869676" d="M 312.207031 154.046875 C 312.359375 162.726562 314.210938 185.921875 328.828125 200.523438 C 329.359375 201.050781 329.96875 201.457031 330.65625 201.742188 C 331.347656 202.027344 332.066406 202.167969 332.8125 202.167969 C 333.144531 202.171875 333.472656 202.140625 333.796875 202.082031 C 404.636719 189.484375 442.542969 160.738281 454.855469 149.785156 C 456.929688 151.726562 459.289062 153.214844 461.929688 154.257812 C 464.570312 155.300781 467.3125 155.824219 470.152344 155.828125 L 553.898438 155.828125 C 556.742188 155.828125 559.480469 155.304688 562.125 154.265625 C 564.765625 153.222656 567.128906 151.734375 569.203125 149.796875 C 581.488281 160.742188 619.410156 189.496094 690.265625 202.105469 C 690.589844 202.164062 690.921875 202.191406 691.253906 202.191406 C 692 202.191406 692.71875 202.050781 693.410156 201.765625 C 694.097656 201.480469 694.710938 201.074219 695.238281 200.542969 C 709.851562 185.945312 711.703125 162.742188 711.859375 154.070312 C 718.550781 149.304688 732.9375 135.121094 732.699219 101.402344 C 732.9375 67.628906 718.550781 53.425781 711.859375 48.660156 C 711.707031 39.980469 709.855469 16.78125 695.238281 2.1875 C 694.585938 1.535156 693.820312 1.070312 692.941406 0.792969 C 692.0625 0.519531 691.171875 0.460938 690.265625 0.625 C 619.441406 13.222656 581.527344 41.960938 569.21875 52.921875 C 567.140625 50.976562 564.78125 49.480469 562.136719 48.433594 C 559.488281 47.386719 556.746094 46.859375 553.898438 46.855469 L 470.152344 46.855469 C 467.3125 46.859375 464.570312 47.378906 461.925781 48.421875 C 459.28125 49.46875 456.921875 50.957031 454.84375 52.898438 C 442.542969 41.941406 404.644531 13.195312 333.804688 0.59375 C 332.894531 0.425781 332.003906 0.480469 331.125 0.757812 C 330.242188 1.035156 329.480469 1.5 328.828125 2.152344 C 314.210938 16.757812 312.363281 39.953125 312.207031 48.628906 C 305.519531 53.394531 291.128906 67.578125 291.367188 101.296875 C 291.128906 135.078125 305.519531 149.277344 312.207031 154.046875 Z M 700.457031 46.375 C 687.667969 47.054688 655.933594 50.757812 627.601562 70.355469 C 627.296875 70.566406 627.015625 70.804688 626.757812 71.070312 C 626.5 71.335938 626.269531 71.625 626.066406 71.9375 C 625.867188 72.246094 625.699219 72.574219 625.5625 72.917969 C 625.425781 73.261719 625.324219 73.617188 625.257812 73.980469 C 625.191406 74.347656 625.160156 74.714844 625.164062 75.085938 C 625.171875 75.453125 625.214844 75.820312 625.292969 76.183594 C 625.371094 76.546875 625.480469 76.898438 625.628906 77.238281 C 625.777344 77.578125 625.957031 77.898438 626.167969 78.203125 C 626.378906 78.507812 626.617188 78.789062 626.882812 79.046875 C 627.148438 79.304688 627.4375 79.535156 627.75 79.734375 C 628.058594 79.933594 628.386719 80.101562 628.730469 80.238281 C 629.078125 80.375 629.429688 80.476562 629.796875 80.542969 C 630.160156 80.609375 630.527344 80.640625 630.898438 80.632812 C 631.269531 80.625 631.632812 80.582031 631.996094 80.503906 C 632.359375 80.425781 632.710938 80.3125 633.050781 80.167969 C 633.390625 80.019531 633.710938 79.839844 634.015625 79.628906 C 663.519531 59.21875 698.191406 57.652344 704.851562 57.511719 C 708.734375 60.039062 721.621094 70.730469 721.414062 101.402344 C 721.636719 132.421875 708.394531 142.980469 704.75 145.296875 C 697.847656 145.152344 663.386719 143.488281 634.023438 123.179688 C 633.71875 122.96875 633.398438 122.789062 633.058594 122.640625 C 632.71875 122.496094 632.367188 122.382812 632.007812 122.304688 C 631.644531 122.226562 631.277344 122.183594 630.90625 122.175781 C 630.535156 122.167969 630.167969 122.199219 629.804688 122.265625 C 629.441406 122.332031 629.085938 122.433594 628.742188 122.570312 C 628.398438 122.707031 628.070312 122.875 627.757812 123.074219 C 627.445312 123.273438 627.15625 123.503906 626.890625 123.761719 C 626.625 124.019531 626.386719 124.300781 626.175781 124.605469 C 625.964844 124.910156 625.785156 125.230469 625.640625 125.570312 C 625.492188 125.914062 625.378906 126.261719 625.300781 126.625 C 625.222656 126.988281 625.179688 127.355469 625.175781 127.722656 C 625.167969 128.09375 625.199219 128.460938 625.265625 128.828125 C 625.332031 129.191406 625.433594 129.546875 625.570312 129.890625 C 625.707031 130.234375 625.875 130.5625 626.078125 130.871094 C 626.277344 131.183594 626.507812 131.472656 626.765625 131.738281 C 627.023438 132.003906 627.304688 132.242188 627.609375 132.453125 C 655.921875 152.035156 687.660156 155.757812 700.460938 156.445312 C 700.027344 164.445312 698.023438 179.910156 689.195312 190.453125 C 620.390625 177.570312 584.507812 148.484375 575.375 140.140625 C 576.09375 137.910156 576.449219 135.625 576.453125 133.28125 L 576.453125 69.414062 C 576.453125 67.074219 576.09375 64.789062 575.378906 62.5625 C 584.480469 54.199219 620.152344 25.199219 689.195312 12.265625 C 698.042969 22.835938 700.039062 38.386719 700.457031 46.359375 Z M 470.152344 58.132812 L 553.898438 58.132812 C 554.640625 58.136719 555.375 58.207031 556.097656 58.355469 C 556.824219 58.5 557.53125 58.714844 558.214844 58.996094 C 558.898438 59.28125 559.546875 59.628906 560.164062 60.039062 C 560.777344 60.449219 561.347656 60.917969 561.871094 61.441406 C 562.394531 61.964844 562.863281 62.535156 563.273438 63.148438 C 563.683594 63.765625 564.03125 64.414062 564.316406 65.097656 C 564.597656 65.78125 564.8125 66.488281 564.960938 67.214844 C 565.105469 67.9375 565.175781 68.671875 565.179688 69.414062 L 565.179688 133.273438 C 565.175781 134.011719 565.101562 134.742188 564.953125 135.46875 C 564.808594 136.191406 564.59375 136.894531 564.308594 137.578125 C 564.023438 138.261719 563.675781 138.910156 563.265625 139.523438 C 562.851562 140.136719 562.386719 140.707031 561.863281 141.226562 C 561.339844 141.75 560.769531 142.214844 560.15625 142.625 C 559.539062 143.039062 558.890625 143.382812 558.207031 143.667969 C 557.523438 143.949219 556.820312 144.164062 556.097656 144.308594 C 555.371094 144.453125 554.640625 144.527344 553.898438 144.527344 L 470.152344 144.527344 C 469.414062 144.527344 468.679688 144.453125 467.953125 144.308594 C 467.226562 144.164062 466.523438 143.949219 465.839844 143.664062 C 465.15625 143.382812 464.507812 143.035156 463.890625 142.621094 C 463.277344 142.210938 462.707031 141.742188 462.183594 141.21875 C 461.660156 140.695312 461.191406 140.125 460.78125 139.511719 C 460.367188 138.894531 460.019531 138.246094 459.738281 137.5625 C 459.453125 136.878906 459.238281 136.175781 459.09375 135.449219 C 458.949219 134.722656 458.875 133.988281 458.875 133.25 L 458.875 69.414062 C 458.875 68.671875 458.949219 67.9375 459.09375 67.214844 C 459.238281 66.488281 459.453125 65.78125 459.738281 65.097656 C 460.019531 64.414062 460.367188 63.765625 460.78125 63.148438 C 461.191406 62.535156 461.660156 61.964844 462.183594 61.441406 C 462.707031 60.917969 463.277344 60.449219 463.890625 60.039062 C 464.507812 59.628906 465.15625 59.28125 465.839844 58.996094 C 466.523438 58.714844 467.226562 58.5 467.953125 58.355469 C 468.679688 58.207031 469.414062 58.136719 470.152344 58.132812 Z M 319.339844 57.382812 C 326.304688 57.460938 360.613281 59.179688 390.023438 79.523438 C 390.328125 79.734375 390.648438 79.910156 390.988281 80.058594 C 391.328125 80.207031 391.679688 80.320312 392.042969 80.398438 C 392.402344 80.476562 392.769531 80.515625 393.140625 80.523438 C 393.511719 80.527344 393.878906 80.5 394.242188 80.433594 C 394.605469 80.367188 394.960938 80.265625 395.304688 80.128906 C 395.648438 79.992188 395.976562 79.824219 396.285156 79.625 C 396.597656 79.421875 396.886719 79.195312 397.152344 78.9375 C 397.417969 78.679688 397.65625 78.398438 397.867188 78.09375 C 398.078125 77.789062 398.257812 77.46875 398.402344 77.128906 C 398.550781 76.789062 398.664062 76.4375 398.742188 76.074219 C 398.820312 75.714844 398.863281 75.347656 398.867188 74.976562 C 398.875 74.605469 398.84375 74.238281 398.777344 73.875 C 398.710938 73.511719 398.609375 73.15625 398.472656 72.8125 C 398.335938 72.46875 398.167969 72.140625 397.96875 71.832031 C 397.765625 71.519531 397.539062 71.230469 397.28125 70.964844 C 397.023438 70.699219 396.742188 70.460938 396.4375 70.25 C 368.121094 50.65625 336.371094 46.976562 323.589844 46.28125 C 324.003906 38.296875 325.988281 22.8125 334.863281 12.230469 C 403.65625 25.113281 439.539062 54.191406 448.679688 62.539062 C 447.960938 64.773438 447.605469 67.066406 447.605469 69.414062 L 447.605469 133.273438 C 447.605469 135.613281 447.964844 137.902344 448.683594 140.132812 C 439.585938 148.488281 403.921875 177.496094 334.871094 190.425781 C 326.019531 179.84375 324.023438 164.3125 323.601562 156.339844 C 336.402344 155.652344 368.140625 151.933594 396.457031 132.347656 C 396.761719 132.136719 397.042969 131.898438 397.300781 131.632812 C 397.558594 131.367188 397.785156 131.078125 397.988281 130.765625 C 398.1875 130.457031 398.355469 130.128906 398.492188 129.785156 C 398.628906 129.4375 398.730469 129.085938 398.796875 128.722656 C 398.863281 128.355469 398.890625 127.988281 398.886719 127.621094 C 398.878906 127.25 398.835938 126.882812 398.761719 126.523438 C 398.683594 126.160156 398.570312 125.808594 398.421875 125.46875 C 398.273438 125.128906 398.097656 124.808594 397.886719 124.503906 C 397.675781 124.199219 397.4375 123.917969 397.171875 123.660156 C 396.90625 123.402344 396.617188 123.175781 396.304688 122.972656 C 395.992188 122.773438 395.667969 122.605469 395.320312 122.46875 C 394.976562 122.332031 394.625 122.230469 394.257812 122.164062 C 393.894531 122.097656 393.527344 122.070312 393.160156 122.074219 C 392.789062 122.082031 392.421875 122.121094 392.058594 122.199219 C 391.699219 122.277344 391.347656 122.390625 391.007812 122.539062 C 390.667969 122.683594 390.347656 122.863281 390.042969 123.074219 C 360.542969 143.476562 325.875 145.070312 319.207031 145.195312 C 315.324219 142.667969 302.433594 131.980469 302.640625 101.300781 C 302.425781 70.140625 315.78125 59.632812 319.351562 57.382812 Z M 319.339844 57.382812 " fill-opacity="1" fill-rule="nonzero"/></g><g clip-path="url(#ddd9338a3a)"><path fill="#869676" d="M 800.261719 315.054688 C 800.082031 314.09375 799.683594 313.234375 799.054688 312.480469 C 798.429688 311.726562 797.660156 311.171875 796.746094 310.820312 L 684.410156 267.542969 L 779.199219 232.441406 C 779.539062 232.316406 779.863281 232.160156 780.171875 231.972656 C 780.480469 231.785156 780.769531 231.566406 781.035156 231.324219 C 781.304688 231.082031 781.546875 230.8125 781.761719 230.523438 C 781.976562 230.234375 782.164062 229.925781 782.320312 229.601562 C 782.476562 229.273438 782.601562 228.9375 782.695312 228.585938 C 782.785156 228.238281 782.84375 227.882812 782.867188 227.519531 C 782.890625 227.160156 782.878906 226.800781 782.835938 226.441406 C 782.789062 226.082031 782.710938 225.730469 782.597656 225.386719 L 757.242188 148.425781 C 757.125 148.074219 756.976562 147.734375 756.792969 147.414062 C 756.613281 147.089844 756.402344 146.789062 756.160156 146.511719 C 755.917969 146.230469 755.652344 145.976562 755.359375 145.746094 C 755.066406 145.519531 754.757812 145.324219 754.425781 145.15625 C 754.09375 144.988281 753.75 144.855469 753.394531 144.757812 C 753.039062 144.660156 752.675781 144.59375 752.304688 144.566406 C 751.9375 144.539062 751.570312 144.550781 751.199219 144.59375 C 750.832031 144.640625 750.472656 144.71875 750.121094 144.835938 C 749.769531 144.953125 749.433594 145.101562 749.113281 145.28125 C 748.789062 145.464844 748.488281 145.675781 748.207031 145.917969 C 747.925781 146.160156 747.671875 146.425781 747.445312 146.71875 C 747.214844 147.007812 747.019531 147.320312 746.851562 147.652344 C 746.6875 147.980469 746.554688 148.324219 746.453125 148.679688 C 746.355469 149.039062 746.292969 149.402344 746.261719 149.769531 C 746.234375 150.140625 746.246094 150.507812 746.289062 150.875 C 746.335938 151.242188 746.414062 151.601562 746.53125 151.953125 L 770.183594 223.734375 L 666.496094 262.144531 C 665.960938 262.34375 665.464844 262.617188 665.011719 262.96875 C 664.558594 263.320312 664.167969 263.726562 663.839844 264.195312 C 663.511719 264.667969 663.261719 265.171875 663.085938 265.71875 C 662.914062 266.265625 662.824219 266.824219 662.820312 267.394531 C 662.816406 267.96875 662.898438 268.527344 663.0625 269.078125 C 663.230469 269.625 663.476562 270.136719 663.796875 270.609375 C 664.121094 271.082031 664.503906 271.496094 664.953125 271.851562 C 665.402344 272.207031 665.894531 272.488281 666.429688 272.695312 L 784.105469 318.035156 L 524.476562 551.292969 L 634.359375 233.28125 C 634.480469 232.929688 634.570312 232.570312 634.621094 232.203125 C 634.671875 231.835938 634.683594 231.46875 634.664062 231.097656 C 634.640625 230.726562 634.585938 230.363281 634.492188 230.003906 C 634.398438 229.648438 634.269531 229.300781 634.105469 228.96875 C 633.945312 228.632812 633.753906 228.320312 633.527344 228.023438 C 633.304688 227.730469 633.054688 227.457031 632.777344 227.210938 C 632.5 226.964844 632.203125 226.75 631.882812 226.5625 C 631.5625 226.375 631.226562 226.222656 630.875 226.101562 C 630.527344 225.980469 630.167969 225.894531 629.800781 225.84375 C 629.433594 225.792969 629.0625 225.78125 628.695312 225.800781 C 628.324219 225.824219 627.960938 225.882812 627.601562 225.976562 C 627.242188 226.070312 626.898438 226.199219 626.566406 226.363281 C 626.230469 226.523438 625.917969 226.71875 625.621094 226.941406 C 625.328125 227.167969 625.058594 227.417969 624.8125 227.695312 C 624.566406 227.972656 624.351562 228.273438 624.164062 228.59375 C 623.976562 228.914062 623.824219 229.246094 623.703125 229.597656 L 512.027344 552.777344 L 400.355469 229.578125 C 400.234375 229.230469 400.078125 228.894531 399.894531 228.574219 C 399.707031 228.257812 399.488281 227.957031 399.242188 227.679688 C 399 227.402344 398.726562 227.152344 398.433594 226.929688 C 398.136719 226.707031 397.824219 226.511719 397.492188 226.351562 C 397.160156 226.1875 396.8125 226.0625 396.457031 225.96875 C 396.097656 225.875 395.734375 225.816406 395.363281 225.792969 C 394.996094 225.769531 394.625 225.785156 394.261719 225.835938 C 393.894531 225.886719 393.535156 225.972656 393.183594 226.09375 C 392.835938 226.214844 392.5 226.367188 392.179688 226.554688 C 391.859375 226.742188 391.5625 226.957031 391.285156 227.203125 C 391.007812 227.449219 390.757812 227.71875 390.535156 228.011719 C 390.3125 228.308594 390.117188 228.621094 389.957031 228.953125 C 389.792969 229.289062 389.667969 229.632812 389.574219 229.992188 C 389.480469 230.347656 389.421875 230.710938 389.398438 231.082031 C 389.375 231.453125 389.390625 231.820312 389.441406 232.1875 C 389.492188 232.554688 389.578125 232.910156 389.695312 233.261719 L 499.574219 551.292969 L 239.949219 318.035156 L 357.625 272.695312 C 358.160156 272.488281 358.652344 272.207031 359.097656 271.851562 C 359.546875 271.496094 359.933594 271.082031 360.253906 270.609375 C 360.578125 270.136719 360.820312 269.625 360.988281 269.078125 C 361.15625 268.527344 361.238281 267.96875 361.234375 267.394531 C 361.230469 266.824219 361.140625 266.265625 360.96875 265.71875 C 360.792969 265.171875 360.542969 264.667969 360.214844 264.195312 C 359.886719 263.726562 359.492188 263.320312 359.039062 262.96875 C 358.585938 262.617188 358.09375 262.34375 357.554688 262.144531 L 253.886719 223.75 L 277.53125 151.96875 C 277.648438 151.617188 277.726562 151.257812 277.773438 150.886719 C 277.820312 150.519531 277.828125 150.152344 277.800781 149.785156 C 277.773438 149.414062 277.707031 149.050781 277.609375 148.695312 C 277.511719 148.335938 277.378906 147.992188 277.210938 147.664062 C 277.042969 147.332031 276.847656 147.019531 276.617188 146.730469 C 276.390625 146.4375 276.136719 146.171875 275.855469 145.929688 C 275.574219 145.6875 275.273438 145.476562 274.953125 145.292969 C 274.628906 145.113281 274.292969 144.960938 273.941406 144.847656 C 273.589844 144.730469 273.230469 144.648438 272.863281 144.605469 C 272.496094 144.558594 272.125 144.550781 271.757812 144.578125 C 271.386719 144.605469 271.023438 144.667969 270.667969 144.769531 C 270.3125 144.867188 269.96875 145 269.636719 145.167969 C 269.304688 145.335938 268.996094 145.53125 268.703125 145.757812 C 268.410156 145.988281 268.144531 146.242188 267.902344 146.523438 C 267.660156 146.804688 267.449219 147.105469 267.265625 147.425781 C 267.085938 147.75 266.9375 148.085938 266.820312 148.4375 L 241.460938 225.382812 C 241.347656 225.726562 241.269531 226.078125 241.222656 226.4375 C 241.175781 226.796875 241.167969 227.15625 241.191406 227.515625 C 241.214844 227.878906 241.273438 228.230469 241.363281 228.582031 C 241.457031 228.933594 241.578125 229.269531 241.738281 229.59375 C 241.894531 229.921875 242.078125 230.230469 242.296875 230.519531 C 242.511719 230.808594 242.753906 231.074219 243.019531 231.320312 C 243.289062 231.5625 243.578125 231.777344 243.886719 231.964844 C 244.195312 232.15625 244.519531 232.3125 244.855469 232.4375 L 339.648438 267.539062 L 227.3125 310.8125 C 227.085938 310.898438 226.871094 311 226.660156 311.113281 C 226.449219 311.230469 226.242188 311.355469 226.050781 311.496094 C 225.855469 311.636719 225.667969 311.789062 225.492188 311.953125 C 225.316406 312.117188 225.152344 312.289062 225 312.476562 C 224.847656 312.660156 224.703125 312.855469 224.574219 313.058594 C 224.449219 313.257812 224.332031 313.46875 224.230469 313.6875 C 224.128906 313.90625 224.042969 314.128906 223.96875 314.355469 C 223.894531 314.585938 223.835938 314.820312 223.792969 315.054688 C 223.75 315.292969 223.722656 315.527344 223.707031 315.769531 C 223.695312 316.007812 223.699219 316.25 223.714844 316.488281 C 223.734375 316.726562 223.765625 316.964844 223.8125 317.199219 C 223.863281 317.4375 223.925781 317.667969 224.003906 317.894531 C 224.078125 318.121094 224.171875 318.34375 224.277344 318.558594 C 224.382812 318.773438 224.503906 318.984375 224.636719 319.183594 C 224.765625 319.382812 224.914062 319.574219 225.070312 319.757812 C 225.226562 319.9375 225.394531 320.109375 225.574219 320.269531 L 508.171875 574.148438 C 509.269531 575.125 510.554688 575.636719 512.027344 575.683594 C 512.746094 575.703125 513.441406 575.578125 514.109375 575.316406 C 514.777344 575.050781 515.367188 574.664062 515.878906 574.160156 L 798.476562 320.277344 C 799.207031 319.625 799.734375 318.832031 800.050781 317.902344 C 800.371094 316.972656 800.441406 316.023438 800.261719 315.054688 Z M 800.261719 315.054688 " fill-opacity="1" fill-rule="nonzero"/></g><path fill="#869676" d="M 512.027344 240.367188 C 511.285156 240.367188 510.550781 240.4375 509.828125 240.582031 C 509.101562 240.726562 508.394531 240.941406 507.710938 241.222656 C 507.027344 241.507812 506.375 241.855469 505.761719 242.265625 C 505.144531 242.679688 504.574219 243.144531 504.050781 243.667969 C 503.527344 244.191406 503.0625 244.761719 502.648438 245.378906 C 502.238281 245.992188 501.890625 246.644531 501.605469 247.328125 C 501.324219 248.011719 501.109375 248.71875 500.964844 249.445312 C 500.820312 250.171875 500.75 250.902344 500.75 251.644531 C 500.75 252.382812 500.820312 253.117188 500.964844 253.84375 C 501.109375 254.570312 501.324219 255.277344 501.605469 255.960938 C 501.890625 256.644531 502.238281 257.292969 502.648438 257.910156 C 503.0625 258.527344 503.527344 259.09375 504.050781 259.617188 C 504.574219 260.140625 505.144531 260.609375 505.761719 261.019531 C 506.375 261.433594 507.027344 261.78125 507.710938 262.0625 C 508.394531 262.347656 509.101562 262.5625 509.828125 262.707031 C 510.550781 262.851562 511.285156 262.921875 512.027344 262.921875 C 512.765625 262.921875 513.5 262.851562 514.226562 262.707031 C 514.953125 262.5625 515.660156 262.347656 516.34375 262.0625 C 517.027344 261.78125 517.675781 261.433594 518.292969 261.019531 C 518.90625 260.609375 519.476562 260.140625 520 259.617188 C 520.523438 259.09375 520.992188 258.527344 521.402344 257.910156 C 521.816406 257.292969 522.164062 256.644531 522.445312 255.960938 C 522.730469 255.277344 522.945312 254.570312 523.089844 253.84375 C 523.234375 253.117188 523.304688 252.382812 523.304688 251.644531 C 523.304688 250.902344 523.230469 250.171875 523.085938 249.445312 C 522.941406 248.71875 522.726562 248.015625 522.441406 247.332031 C 522.160156 246.644531 521.8125 245.996094 521.398438 245.382812 C 520.988281 244.765625 520.519531 244.195312 519.996094 243.671875 C 519.472656 243.148438 518.90625 242.683594 518.289062 242.269531 C 517.671875 241.859375 517.023438 241.511719 516.339844 241.226562 C 515.65625 240.945312 514.953125 240.730469 514.226562 240.585938 C 513.5 240.441406 512.765625 240.367188 512.027344 240.367188 Z M 512.027344 240.367188 " fill-opacity="1" fill-rule="nonzero"/><path fill="#869676" d="M 512.027344 343.617188 C 511.285156 343.617188 510.550781 343.691406 509.828125 343.835938 C 509.101562 343.980469 508.394531 344.191406 507.710938 344.476562 C 507.027344 344.757812 506.375 345.105469 505.761719 345.519531 C 505.144531 345.929688 504.574219 346.398438 504.050781 346.921875 C 503.527344 347.445312 503.0625 348.015625 502.648438 348.628906 C 502.238281 349.246094 501.890625 349.894531 501.605469 350.578125 C 501.324219 351.265625 501.109375 351.96875 500.964844 352.695312 C 500.820312 353.421875 500.75 354.15625 500.75 354.894531 C 500.75 355.636719 500.820312 356.371094 500.964844 357.097656 C 501.109375 357.824219 501.324219 358.527344 501.605469 359.210938 C 501.890625 359.894531 502.238281 360.546875 502.648438 361.160156 C 503.0625 361.777344 503.527344 362.347656 504.050781 362.871094 C 504.574219 363.394531 505.144531 363.863281 505.761719 364.273438 C 506.375 364.683594 507.027344 365.03125 507.710938 365.316406 C 508.394531 365.597656 509.101562 365.8125 509.828125 365.957031 C 510.550781 366.101562 511.285156 366.175781 512.027344 366.175781 C 512.765625 366.175781 513.5 366.101562 514.226562 365.957031 C 514.953125 365.8125 515.660156 365.597656 516.34375 365.316406 C 517.027344 365.03125 517.675781 364.683594 518.292969 364.273438 C 518.90625 363.863281 519.476562 363.394531 520 362.871094 C 520.523438 362.347656 520.992188 361.777344 521.402344 361.160156 C 521.816406 360.546875 522.164062 359.894531 522.445312 359.210938 C 522.730469 358.527344 522.945312 357.824219 523.089844 357.097656 C 523.234375 356.371094 523.304688 355.636719 523.304688 354.894531 C 523.304688 354.15625 523.230469 353.421875 523.085938 352.695312 C 522.941406 351.96875 522.726562 351.265625 522.441406 350.582031 C 522.160156 349.898438 521.8125 349.25 521.398438 348.632812 C 520.988281 348.019531 520.519531 347.449219 519.996094 346.925781 C 519.472656 346.402344 518.90625 345.933594 518.289062 345.523438 C 517.671875 345.109375 517.023438 344.761719 516.339844 344.480469 C 515.65625 344.195312 514.953125 343.980469 514.226562 343.835938 C 513.5 343.691406 512.765625 343.617188 512.027344 343.617188 Z M 512.027344 343.617188 " fill-opacity="1" fill-rule="nonzero"/></svg>