<svg xmlns="http://www.w3.org/2000/svg" xmlns:xlink="http://www.w3.org/1999/xlink" width="500" zoomAndPan="magnify" viewBox="0 0 375 374.999991" height="500" preserveAspectRatio="xMidYMid meet" version="1.0"><defs><clipPath id="3608f8767f"><path d="M 78 183 L 203 183 L 203 367 L 78 367 Z M 78 183 " clip-rule="nonzero"/></clipPath><clipPath id="93ef6a506d"><path d="M 165.425781 -36.972656 L 385.796875 75.6875 L 210.324219 418.933594 L -10.046875 306.277344 Z M 165.425781 -36.972656 " clip-rule="nonzero"/></clipPath><clipPath id="f2704d8d51"><path d="M 165.425781 -36.972656 L 385.796875 75.6875 L 210.324219 418.933594 L -10.046875 306.277344 Z M 165.425781 -36.972656 " clip-rule="nonzero"/></clipPath><clipPath id="802d75199a"><path d="M 165.425781 -36.972656 L 385.796875 75.6875 L 210.324219 418.933594 L -10.046875 306.277344 Z M 165.425781 -36.972656 " clip-rule="nonzero"/></clipPath><clipPath id="ec3bb537e7"><path d="M 142 53 L 300 53 L 300 209 L 142 209 Z M 142 53 " clip-rule="nonzero"/></clipPath><clipPath id="700651f414"><path d="M 165.425781 -36.972656 L 385.796875 75.6875 L 210.324219 418.933594 L -10.046875 306.277344 Z M 165.425781 -36.972656 " clip-rule="nonzero"/></clipPath><clipPath id="3b0a3cfef0"><path d="M 165.425781 -36.972656 L 385.796875 75.6875 L 210.324219 418.933594 L -10.046875 306.277344 Z M 165.425781 -36.972656 " clip-rule="nonzero"/></clipPath><clipPath id="747150afa0"><path d="M 165.425781 -36.972656 L 385.796875 75.6875 L 210.324219 418.933594 L -10.046875 306.277344 Z M 165.425781 -36.972656 " clip-rule="nonzero"/></clipPath><clipPath id="a978c66c27"><path d="M 212 53 L 294 53 L 294 103 L 212 103 Z M 212 53 " clip-rule="nonzero"/></clipPath><clipPath id="5d18a86ea5"><path d="M 165.425781 -36.972656 L 385.796875 75.6875 L 210.324219 418.933594 L -10.046875 306.277344 Z M 165.425781 -36.972656 " clip-rule="nonzero"/></clipPath><clipPath id="134e445b9d"><path d="M 165.425781 -36.972656 L 385.796875 75.6875 L 210.324219 418.933594 L -10.046875 306.277344 Z M 165.425781 -36.972656 " clip-rule="nonzero"/></clipPath><clipPath id="637309af10"><path d="M 165.425781 -36.972656 L 385.796875 75.6875 L 210.324219 418.933594 L -10.046875 306.277344 Z M 165.425781 -36.972656 " clip-rule="nonzero"/></clipPath><clipPath id="04c50d2934"><path d="M 147 159 L 225 159 L 225 209 L 147 209 Z M 147 159 " clip-rule="nonzero"/></clipPath><clipPath id="0a658e10e4"><path d="M 165.425781 -36.972656 L 385.796875 75.6875 L 210.324219 418.933594 L -10.046875 306.277344 Z M 165.425781 -36.972656 " clip-rule="nonzero"/></clipPath><clipPath id="01bbaf7b68"><path d="M 165.425781 -36.972656 L 385.796875 75.6875 L 210.324219 418.933594 L -10.046875 306.277344 Z M 165.425781 -36.972656 " clip-rule="nonzero"/></clipPath><clipPath id="3087fe0ec8"><path d="M 165.425781 -36.972656 L 385.796875 75.6875 L 210.324219 418.933594 L -10.046875 306.277344 Z M 165.425781 -36.972656 " clip-rule="nonzero"/></clipPath><clipPath id="36adc948cb"><path d="M 144 92 L 292 92 L 292 190 L 144 190 Z M 144 92 " clip-rule="nonzero"/></clipPath><clipPath id="15e4a70aa1"><path d="M 165.425781 -36.972656 L 385.796875 75.6875 L 210.324219 418.933594 L -10.046875 306.277344 Z M 165.425781 -36.972656 " clip-rule="nonzero"/></clipPath><clipPath id="484c14957a"><path d="M 165.425781 -36.972656 L 385.796875 75.6875 L 210.324219 418.933594 L -10.046875 306.277344 Z M 165.425781 -36.972656 " clip-rule="nonzero"/></clipPath><clipPath id="f548ebb10e"><path d="M 165.425781 -36.972656 L 385.796875 75.6875 L 210.324219 418.933594 L -10.046875 306.277344 Z M 165.425781 -36.972656 " clip-rule="nonzero"/></clipPath><clipPath id="2c6a936ac7"><path d="M 171 61 L 300 61 L 300 140 L 171 140 Z M 171 61 " clip-rule="nonzero"/></clipPath><clipPath id="3aa81e2b96"><path d="M 165.425781 -36.972656 L 385.796875 75.6875 L 210.324219 418.933594 L -10.046875 306.277344 Z M 165.425781 -36.972656 " clip-rule="nonzero"/></clipPath><clipPath id="168fce5a65"><path d="M 165.425781 -36.972656 L 385.796875 75.6875 L 210.324219 418.933594 L -10.046875 306.277344 Z M 165.425781 -36.972656 " clip-rule="nonzero"/></clipPath><clipPath id="7dca994a42"><path d="M 165.425781 -36.972656 L 385.796875 75.6875 L 210.324219 418.933594 L -10.046875 306.277344 Z M 165.425781 -36.972656 " clip-rule="nonzero"/></clipPath><clipPath id="c1205fc319"><path d="M 100 9 L 337 9 L 337 253 L 100 253 Z M 100 9 " clip-rule="nonzero"/></clipPath><clipPath id="6eb4b9dd87"><path d="M 165.425781 -36.972656 L 385.796875 75.6875 L 210.324219 418.933594 L -10.046875 306.277344 Z M 165.425781 -36.972656 " clip-rule="nonzero"/></clipPath><clipPath id="8a6235cf79"><path d="M 165.425781 -36.972656 L 385.796875 75.6875 L 210.324219 418.933594 L -10.046875 306.277344 Z M 165.425781 -36.972656 " clip-rule="nonzero"/></clipPath><clipPath id="25f636a591"><path d="M 165.425781 -36.972656 L 385.796875 75.6875 L 210.324219 418.933594 L -10.046875 306.277344 Z M 165.425781 -36.972656 " clip-rule="nonzero"/></clipPath><clipPath id="1edfc5bfed"><path d="M 143 117 L 271 117 L 271 189 L 143 189 Z M 143 117 " clip-rule="nonzero"/></clipPath><clipPath id="45b19c8f55"><path d="M 165.425781 -36.972656 L 385.796875 75.6875 L 210.324219 418.933594 L -10.046875 306.277344 Z M 165.425781 -36.972656 " clip-rule="nonzero"/></clipPath><clipPath id="08c440c77b"><path d="M 165.425781 -36.972656 L 385.796875 75.6875 L 210.324219 418.933594 L -10.046875 306.277344 Z M 165.425781 -36.972656 " clip-rule="nonzero"/></clipPath><clipPath id="25b1cb5d81"><path d="M 165.425781 -36.972656 L 385.796875 75.6875 L 210.324219 418.933594 L -10.046875 306.277344 Z M 165.425781 -36.972656 " clip-rule="nonzero"/></clipPath><clipPath id="6b7e6b17c1"><path d="M 149 139 L 157 139 L 157 146 L 149 146 Z M 149 139 " clip-rule="nonzero"/></clipPath><clipPath id="bc9a6f64a4"><path d="M 165.425781 -36.972656 L 385.796875 75.6875 L 210.324219 418.933594 L -10.046875 306.277344 Z M 165.425781 -36.972656 " clip-rule="nonzero"/></clipPath><clipPath id="095f33c139"><path d="M 165.425781 -36.972656 L 385.796875 75.6875 L 210.324219 418.933594 L -10.046875 306.277344 Z M 165.425781 -36.972656 " clip-rule="nonzero"/></clipPath><clipPath id="f6f31b34cf"><path d="M 165.425781 -36.972656 L 385.796875 75.6875 L 210.324219 418.933594 L -10.046875 306.277344 Z M 165.425781 -36.972656 " clip-rule="nonzero"/></clipPath><clipPath id="6577717596"><path d="M 165 150 L 172 150 L 172 157 L 165 157 Z M 165 150 " clip-rule="nonzero"/></clipPath><clipPath id="3dc4d01c0a"><path d="M 165.425781 -36.972656 L 385.796875 75.6875 L 210.324219 418.933594 L -10.046875 306.277344 Z M 165.425781 -36.972656 " clip-rule="nonzero"/></clipPath><clipPath id="ee52a683eb"><path d="M 165.425781 -36.972656 L 385.796875 75.6875 L 210.324219 418.933594 L -10.046875 306.277344 Z M 165.425781 -36.972656 " clip-rule="nonzero"/></clipPath><clipPath id="8f70758658"><path d="M 165.425781 -36.972656 L 385.796875 75.6875 L 210.324219 418.933594 L -10.046875 306.277344 Z M 165.425781 -36.972656 " clip-rule="nonzero"/></clipPath><clipPath id="8d33141d29"><path d="M 178 160 L 185 160 L 185 167 L 178 167 Z M 178 160 " clip-rule="nonzero"/></clipPath><clipPath id="3718774302"><path d="M 165.425781 -36.972656 L 385.796875 75.6875 L 210.324219 418.933594 L -10.046875 306.277344 Z M 165.425781 -36.972656 " clip-rule="nonzero"/></clipPath><clipPath id="35de7651ca"><path d="M 165.425781 -36.972656 L 385.796875 75.6875 L 210.324219 418.933594 L -10.046875 306.277344 Z M 165.425781 -36.972656 " clip-rule="nonzero"/></clipPath><clipPath id="3ed2004eae"><path d="M 165.425781 -36.972656 L 385.796875 75.6875 L 210.324219 418.933594 L -10.046875 306.277344 Z M 165.425781 -36.972656 " clip-rule="nonzero"/></clipPath><clipPath id="61de8b1dbe"><path d="M 194 169 L 202 169 L 202 177 L 194 177 Z M 194 169 " clip-rule="nonzero"/></clipPath><clipPath id="9fd2a57f97"><path d="M 165.425781 -36.972656 L 385.796875 75.6875 L 210.324219 418.933594 L -10.046875 306.277344 Z M 165.425781 -36.972656 " clip-rule="nonzero"/></clipPath><clipPath id="8f7feb6bb8"><path d="M 165.425781 -36.972656 L 385.796875 75.6875 L 210.324219 418.933594 L -10.046875 306.277344 Z M 165.425781 -36.972656 " clip-rule="nonzero"/></clipPath><clipPath id="b56658b1c0"><path d="M 165.425781 -36.972656 L 385.796875 75.6875 L 210.324219 418.933594 L -10.046875 306.277344 Z M 165.425781 -36.972656 " clip-rule="nonzero"/></clipPath><clipPath id="45c49856a9"><path d="M 212 178 L 220 178 L 220 185 L 212 185 Z M 212 178 " clip-rule="nonzero"/></clipPath><clipPath id="a766097bdd"><path d="M 165.425781 -36.972656 L 385.796875 75.6875 L 210.324219 418.933594 L -10.046875 306.277344 Z M 165.425781 -36.972656 " clip-rule="nonzero"/></clipPath><clipPath id="c274df74a3"><path d="M 165.425781 -36.972656 L 385.796875 75.6875 L 210.324219 418.933594 L -10.046875 306.277344 Z M 165.425781 -36.972656 " clip-rule="nonzero"/></clipPath><clipPath id="a298b0d3c3"><path d="M 165.425781 -36.972656 L 385.796875 75.6875 L 210.324219 418.933594 L -10.046875 306.277344 Z M 165.425781 -36.972656 " clip-rule="nonzero"/></clipPath><clipPath id="5129db6159"><path d="M 229 184 L 237 184 L 237 192 L 229 192 Z M 229 184 " clip-rule="nonzero"/></clipPath><clipPath id="36fc385a56"><path d="M 165.425781 -36.972656 L 385.796875 75.6875 L 210.324219 418.933594 L -10.046875 306.277344 Z M 165.425781 -36.972656 " clip-rule="nonzero"/></clipPath><clipPath id="61b665ba84"><path d="M 165.425781 -36.972656 L 385.796875 75.6875 L 210.324219 418.933594 L -10.046875 306.277344 Z M 165.425781 -36.972656 " clip-rule="nonzero"/></clipPath><clipPath id="d00ef51a53"><path d="M 165.425781 -36.972656 L 385.796875 75.6875 L 210.324219 418.933594 L -10.046875 306.277344 Z M 165.425781 -36.972656 " clip-rule="nonzero"/></clipPath><clipPath id="2d9866f531"><path d="M 246 190 L 253 190 L 253 197 L 246 197 Z M 246 190 " clip-rule="nonzero"/></clipPath><clipPath id="639783710d"><path d="M 165.425781 -36.972656 L 385.796875 75.6875 L 210.324219 418.933594 L -10.046875 306.277344 Z M 165.425781 -36.972656 " clip-rule="nonzero"/></clipPath><clipPath id="f06a56fc8a"><path d="M 165.425781 -36.972656 L 385.796875 75.6875 L 210.324219 418.933594 L -10.046875 306.277344 Z M 165.425781 -36.972656 " clip-rule="nonzero"/></clipPath><clipPath id="990eacc6f1"><path d="M 165.425781 -36.972656 L 385.796875 75.6875 L 210.324219 418.933594 L -10.046875 306.277344 Z M 165.425781 -36.972656 " clip-rule="nonzero"/></clipPath><clipPath id="f637666ee0"><path d="M 150 98 L 287 98 L 287 175 L 150 175 Z M 150 98 " clip-rule="nonzero"/></clipPath><clipPath id="716474a008"><path d="M 165.425781 -36.972656 L 385.796875 75.6875 L 210.324219 418.933594 L -10.046875 306.277344 Z M 165.425781 -36.972656 " clip-rule="nonzero"/></clipPath><clipPath id="c637b6ed36"><path d="M 165.425781 -36.972656 L 385.796875 75.6875 L 210.324219 418.933594 L -10.046875 306.277344 Z M 165.425781 -36.972656 " clip-rule="nonzero"/></clipPath><clipPath id="08a881c2d7"><path d="M 165.425781 -36.972656 L 385.796875 75.6875 L 210.324219 418.933594 L -10.046875 306.277344 Z M 165.425781 -36.972656 " clip-rule="nonzero"/></clipPath><clipPath id="5f58e6ae00"><path d="M 157 84 L 294 84 L 294 158 L 157 158 Z M 157 84 " clip-rule="nonzero"/></clipPath><clipPath id="928c80334a"><path d="M 165.425781 -36.972656 L 385.796875 75.6875 L 210.324219 418.933594 L -10.046875 306.277344 Z M 165.425781 -36.972656 " clip-rule="nonzero"/></clipPath><clipPath id="e2a265e10f"><path d="M 165.425781 -36.972656 L 385.796875 75.6875 L 210.324219 418.933594 L -10.046875 306.277344 Z M 165.425781 -36.972656 " clip-rule="nonzero"/></clipPath><clipPath id="57fc11f16a"><path d="M 165.425781 -36.972656 L 385.796875 75.6875 L 210.324219 418.933594 L -10.046875 306.277344 Z M 165.425781 -36.972656 " clip-rule="nonzero"/></clipPath><clipPath id="5517ad32af"><path d="M 167 79 L 174 79 L 174 86 L 167 86 Z M 167 79 " clip-rule="nonzero"/></clipPath><clipPath id="1a1046e7bf"><path d="M 165.425781 -36.972656 L 385.796875 75.6875 L 210.324219 418.933594 L -10.046875 306.277344 Z M 165.425781 -36.972656 " clip-rule="nonzero"/></clipPath><clipPath id="fbca8a801a"><path d="M 165.425781 -36.972656 L 385.796875 75.6875 L 210.324219 418.933594 L -10.046875 306.277344 Z M 165.425781 -36.972656 " clip-rule="nonzero"/></clipPath><clipPath id="3136beb3c4"><path d="M 165.425781 -36.972656 L 385.796875 75.6875 L 210.324219 418.933594 L -10.046875 306.277344 Z M 165.425781 -36.972656 " clip-rule="nonzero"/></clipPath><clipPath id="44b8e5e2df"><path d="M 178 88 L 185 88 L 185 95 L 178 95 Z M 178 88 " clip-rule="nonzero"/></clipPath><clipPath id="1145bfd385"><path d="M 165.425781 -36.972656 L 385.796875 75.6875 L 210.324219 418.933594 L -10.046875 306.277344 Z M 165.425781 -36.972656 " clip-rule="nonzero"/></clipPath><clipPath id="02e196db91"><path d="M 165.425781 -36.972656 L 385.796875 75.6875 L 210.324219 418.933594 L -10.046875 306.277344 Z M 165.425781 -36.972656 " clip-rule="nonzero"/></clipPath><clipPath id="9d7ff53818"><path d="M 165.425781 -36.972656 L 385.796875 75.6875 L 210.324219 418.933594 L -10.046875 306.277344 Z M 165.425781 -36.972656 " clip-rule="nonzero"/></clipPath><clipPath id="cda77f210d"><path d="M 198 100 L 205 100 L 205 107 L 198 107 Z M 198 100 " clip-rule="nonzero"/></clipPath><clipPath id="1afd8aead4"><path d="M 165.425781 -36.972656 L 385.796875 75.6875 L 210.324219 418.933594 L -10.046875 306.277344 Z M 165.425781 -36.972656 " clip-rule="nonzero"/></clipPath><clipPath id="de75266c66"><path d="M 165.425781 -36.972656 L 385.796875 75.6875 L 210.324219 418.933594 L -10.046875 306.277344 Z M 165.425781 -36.972656 " clip-rule="nonzero"/></clipPath><clipPath id="dd50f5802a"><path d="M 165.425781 -36.972656 L 385.796875 75.6875 L 210.324219 418.933594 L -10.046875 306.277344 Z M 165.425781 -36.972656 " clip-rule="nonzero"/></clipPath><clipPath id="9899baf85a"><path d="M 216 110 L 223 110 L 223 118 L 216 118 Z M 216 110 " clip-rule="nonzero"/></clipPath><clipPath id="c10167ae3f"><path d="M 165.425781 -36.972656 L 385.796875 75.6875 L 210.324219 418.933594 L -10.046875 306.277344 Z M 165.425781 -36.972656 " clip-rule="nonzero"/></clipPath><clipPath id="ff22567aa2"><path d="M 165.425781 -36.972656 L 385.796875 75.6875 L 210.324219 418.933594 L -10.046875 306.277344 Z M 165.425781 -36.972656 " clip-rule="nonzero"/></clipPath><clipPath id="8ebd9518cb"><path d="M 165.425781 -36.972656 L 385.796875 75.6875 L 210.324219 418.933594 L -10.046875 306.277344 Z M 165.425781 -36.972656 " clip-rule="nonzero"/></clipPath><clipPath id="e163b9661a"><path d="M 233 120 L 241 120 L 241 128 L 233 128 Z M 233 120 " clip-rule="nonzero"/></clipPath><clipPath id="f7c331d58b"><path d="M 165.425781 -36.972656 L 385.796875 75.6875 L 210.324219 418.933594 L -10.046875 306.277344 Z M 165.425781 -36.972656 " clip-rule="nonzero"/></clipPath><clipPath id="02473aada5"><path d="M 165.425781 -36.972656 L 385.796875 75.6875 L 210.324219 418.933594 L -10.046875 306.277344 Z M 165.425781 -36.972656 " clip-rule="nonzero"/></clipPath><clipPath id="7bc370f5fd"><path d="M 165.425781 -36.972656 L 385.796875 75.6875 L 210.324219 418.933594 L -10.046875 306.277344 Z M 165.425781 -36.972656 " clip-rule="nonzero"/></clipPath><clipPath id="eb7e57d5cc"><path d="M 251 129 L 258 129 L 258 136 L 251 136 Z M 251 129 " clip-rule="nonzero"/></clipPath><clipPath id="7f2e2a2f16"><path d="M 165.425781 -36.972656 L 385.796875 75.6875 L 210.324219 418.933594 L -10.046875 306.277344 Z M 165.425781 -36.972656 " clip-rule="nonzero"/></clipPath><clipPath id="00db0f09d9"><path d="M 165.425781 -36.972656 L 385.796875 75.6875 L 210.324219 418.933594 L -10.046875 306.277344 Z M 165.425781 -36.972656 " clip-rule="nonzero"/></clipPath><clipPath id="34f892f0a6"><path d="M 165.425781 -36.972656 L 385.796875 75.6875 L 210.324219 418.933594 L -10.046875 306.277344 Z M 165.425781 -36.972656 " clip-rule="nonzero"/></clipPath><clipPath id="0a7182c50d"><path d="M 266 137 L 274 137 L 274 145 L 266 145 Z M 266 137 " clip-rule="nonzero"/></clipPath><clipPath id="c01caa52f8"><path d="M 165.425781 -36.972656 L 385.796875 75.6875 L 210.324219 418.933594 L -10.046875 306.277344 Z M 165.425781 -36.972656 " clip-rule="nonzero"/></clipPath><clipPath id="f43ed2b7b6"><path d="M 165.425781 -36.972656 L 385.796875 75.6875 L 210.324219 418.933594 L -10.046875 306.277344 Z M 165.425781 -36.972656 " clip-rule="nonzero"/></clipPath><clipPath id="0b3d46ee76"><path d="M 165.425781 -36.972656 L 385.796875 75.6875 L 210.324219 418.933594 L -10.046875 306.277344 Z M 165.425781 -36.972656 " clip-rule="nonzero"/></clipPath><clipPath id="54c5b07ff2"><path d="M 283 143 L 290 143 L 290 150 L 283 150 Z M 283 143 " clip-rule="nonzero"/></clipPath><clipPath id="76a40bbdfc"><path d="M 165.425781 -36.972656 L 385.796875 75.6875 L 210.324219 418.933594 L -10.046875 306.277344 Z M 165.425781 -36.972656 " clip-rule="nonzero"/></clipPath><clipPath id="700a730ba6"><path d="M 165.425781 -36.972656 L 385.796875 75.6875 L 210.324219 418.933594 L -10.046875 306.277344 Z M 165.425781 -36.972656 " clip-rule="nonzero"/></clipPath><clipPath id="85d3820b38"><path d="M 165.425781 -36.972656 L 385.796875 75.6875 L 210.324219 418.933594 L -10.046875 306.277344 Z M 165.425781 -36.972656 " clip-rule="nonzero"/></clipPath><clipPath id="51a1bab7d3"><path d="M 210 56 L 291 56 L 291 107 L 210 107 Z M 210 56 " clip-rule="nonzero"/></clipPath><clipPath id="35c6498337"><path d="M 165.425781 -36.972656 L 385.796875 75.6875 L 210.324219 418.933594 L -10.046875 306.277344 Z M 165.425781 -36.972656 " clip-rule="nonzero"/></clipPath><clipPath id="6ae739c860"><path d="M 165.425781 -36.972656 L 385.796875 75.6875 L 210.324219 418.933594 L -10.046875 306.277344 Z M 165.425781 -36.972656 " clip-rule="nonzero"/></clipPath><clipPath id="268597ec8a"><path d="M 165.425781 -36.972656 L 385.796875 75.6875 L 210.324219 418.933594 L -10.046875 306.277344 Z M 165.425781 -36.972656 " clip-rule="nonzero"/></clipPath><clipPath id="8bbd481c97"><path d="M 227 53 L 287 53 L 287 85 L 227 85 Z M 227 53 " clip-rule="nonzero"/></clipPath><clipPath id="819742828a"><path d="M 165.425781 -36.972656 L 385.796875 75.6875 L 210.324219 418.933594 L -10.046875 306.277344 Z M 165.425781 -36.972656 " clip-rule="nonzero"/></clipPath><clipPath id="0fbfab6eab"><path d="M 165.425781 -36.972656 L 385.796875 75.6875 L 210.324219 418.933594 L -10.046875 306.277344 Z M 165.425781 -36.972656 " clip-rule="nonzero"/></clipPath><clipPath id="ea800afd5e"><path d="M 165.425781 -36.972656 L 385.796875 75.6875 L 210.324219 418.933594 L -10.046875 306.277344 Z M 165.425781 -36.972656 " clip-rule="nonzero"/></clipPath></defs><g clip-path="url(#3608f8767f)"><g clip-path="url(#93ef6a506d)"><g clip-path="url(#f2704d8d51)"><g clip-path="url(#802d75199a)"><path fill="#f0839c" d="M 160.15625 281.285156 C 161.207031 279.328125 189.417969 231.566406 202.984375 198.539062 C 201.484375 196.820312 197.617188 194.441406 196.121094 192.71875 L 173.746094 183.804688 C 156.050781 216.132812 146.941406 238.226562 129.246094 270.554688 C 120.558594 287.582031 99.542969 272.789062 82.609375 304.519531 C 75.191406 318.425781 78.019531 336.699219 87.851562 349.03125 C 97.679688 361.359375 114.292969 367.671875 129.9375 365.6875 C 141.636719 364.207031 153 358.035156 159.277344 348.054688 C 165.554688 338.074219 165.851562 324.992188 164.253906 313.308594 C 163.066406 304.636719 153.203125 294.226562 160.15625 281.285156 Z M 138.761719 333.972656 C 134.117188 343.851562 123.859375 348.375 112.539062 343.839844 C 100.621094 339.070312 96.433594 328.242188 102.179688 316.132812 C 107.925781 304.027344 121.363281 300.886719 130.03125 306.085938 C 138.699219 311.28125 144.855469 321.019531 138.761719 333.972656 Z M 138.761719 333.972656 " fill-opacity="1" fill-rule="nonzero"/></g></g></g></g><g clip-path="url(#ec3bb537e7)"><g clip-path="url(#700651f414)"><g clip-path="url(#3b0a3cfef0)"><g clip-path="url(#747150afa0)"><path fill="#f8c9cd" d="M 253.746094 199.65625 C 241.113281 205.558594 226.851562 206.707031 212.941406 207.765625 C 205.894531 208.304688 198.695312 208.828125 191.847656 207.078125 C 184.238281 205.128906 177.582031 200.488281 171.78125 195.199219 C 155.582031 180.421875 144.8125 159.574219 143.136719 137.714844 C 141.460938 115.855469 149.164062 93.253906 164.546875 77.636719 C 185.566406 56.300781 218.292969 49.90625 247.917969 54.363281 C 256.175781 55.605469 264.558594 57.699219 271.320312 62.597656 C 277.792969 67.285156 282.292969 74.179688 286.140625 81.183594 C 292.46875 92.699219 297.492188 105.160156 298.789062 118.234375 C 300.28125 133.242188 297.261719 153.277344 291.125 167.328125 C 285.214844 180.871094 266.625 193.640625 253.746094 199.65625 Z M 253.746094 199.65625 " fill-opacity="1" fill-rule="nonzero"/></g></g></g></g><g clip-path="url(#a978c66c27)"><g clip-path="url(#5d18a86ea5)"><g clip-path="url(#134e445b9d)"><g clip-path="url(#637309af10)"><path fill="#f5aeb2" d="M 286.144531 81.179688 C 285 79.097656 283.792969 77.027344 282.5 75.019531 C 277.648438 74.921875 272.992188 74.414062 268.300781 72.773438 C 257.304688 68.921875 245.804688 62.457031 238.003906 53.304688 C 229.730469 52.757812 221.347656 53.042969 213.164062 54.28125 C 212.734375 55.550781 212.546875 56.960938 212.4375 57.882812 C 212.007812 61.476562 212.367188 65.242188 213.347656 68.71875 C 214.34375 72.242188 216.097656 75.851562 219.167969 78.011719 C 222.882812 80.632812 227.390625 80.011719 231.375 78.363281 C 231.75 78.207031 232.039062 78.601562 232.007812 78.933594 C 231.53125 84.015625 230.761719 90.203125 236.011719 93.128906 C 241.542969 96.214844 248.140625 92.640625 251.183594 87.742188 C 251.390625 87.40625 251.800781 87.394531 252.039062 87.699219 C 254.964844 91.441406 255.597656 97.40625 260.070312 99.78125 C 265.542969 102.6875 270.136719 98.246094 272.824219 93.855469 C 273.007812 93.554688 273.480469 93.464844 273.679688 93.8125 C 275.558594 97.101562 277.964844 100.847656 281.597656 102.382812 C 284.585938 103.644531 287.238281 102.460938 289.648438 100.652344 C 291.074219 99.578125 292.378906 98.3125 293.550781 96.945312 C 291.472656 91.527344 288.933594 86.261719 286.144531 81.179688 Z M 286.144531 81.179688 " fill-opacity="1" fill-rule="nonzero"/></g></g></g></g><g clip-path="url(#04c50d2934)"><g clip-path="url(#0a658e10e4)"><g clip-path="url(#01bbaf7b68)"><g clip-path="url(#3087fe0ec8)"><path fill="#f5aeb2" d="M 174.128906 182.785156 C 166.765625 177.367188 159.746094 171.175781 153.152344 164.84375 C 151.46875 163.226562 149.683594 161.511719 147.964844 159.691406 C 152.882812 173.183594 161.152344 185.503906 171.78125 195.199219 C 177.582031 200.488281 184.238281 205.128906 191.847656 207.078125 C 198.695312 208.828125 205.890625 208.304688 212.941406 207.765625 C 216.828125 207.472656 220.742188 207.164062 224.640625 206.753906 C 206.597656 201.644531 189.269531 193.921875 174.128906 182.785156 Z M 174.128906 182.785156 " fill-opacity="1" fill-rule="nonzero"/></g></g></g></g><g clip-path="url(#36adc948cb)"><g clip-path="url(#15e4a70aa1)"><g clip-path="url(#484c14957a)"><g clip-path="url(#f548ebb10e)"><path fill="#f5aeb2" d="M 146.378906 128.082031 C 146.746094 135.640625 149.847656 142.1875 157.488281 144.417969 C 164.515625 146.46875 172.074219 145.511719 178.503906 149.632812 C 184.132812 153.242188 186.546875 159.648438 189.34375 165.394531 C 192.421875 171.726562 197.160156 176.726562 204.585938 177.222656 C 210.867188 177.636719 216.921875 175.074219 223.183594 175.359375 C 226.132812 175.492188 229.105469 176.375 231.464844 178.171875 C 233.796875 179.941406 235.488281 182.421875 237.554688 184.472656 C 240.160156 187.066406 242.84375 188.746094 246.617188 188.535156 C 249.289062 188.386719 251.878906 187.59375 254.507812 187.152344 C 259.886719 186.246094 264.621094 188.125 269.832031 189.121094 C 270.273438 189.203125 270.699219 189.265625 271.125 189.316406 C 279.601562 183.148438 287.464844 175.5 291.015625 167.570312 C 281.925781 169.019531 272.699219 169.359375 263.492188 168.425781 C 252.425781 167.308594 241.609375 164.449219 231.210938 160.550781 C 219.761719 156.261719 208.5625 150.960938 198.433594 144.078125 C 179.199219 131.003906 164.582031 112.769531 153.21875 92.683594 C 149.433594 99.324219 146.65625 106.550781 144.941406 114.023438 C 147.183594 117.976562 146.179688 123.925781 146.378906 128.082031 Z M 146.378906 128.082031 " fill-opacity="1" fill-rule="nonzero"/></g></g></g></g><g clip-path="url(#2c6a936ac7)"><g clip-path="url(#3aa81e2b96)"><g clip-path="url(#168fce5a65)"><g clip-path="url(#7dca994a42)"><path fill="#f5aeb2" d="M 191.378906 98.792969 C 199.558594 107.476562 210.109375 113.777344 220.589844 119.292969 C 230.742188 124.636719 241.171875 129.390625 252.101562 132.933594 C 267.132812 137.804688 282.734375 140.117188 298.339844 139.300781 C 299.035156 133.554688 299.300781 127.84375 299.082031 122.574219 C 294.691406 122.671875 290.253906 122.246094 286.277344 121.878906 C 275.8125 120.917969 265.367188 119.621094 255.285156 116.535156 C 244.132812 113.125 233.222656 108.046875 223.34375 101.851562 C 214.160156 96.089844 207.144531 88.546875 200.246094 80.296875 C 195.53125 74.65625 190.671875 68.507812 188.09375 61.515625 C 182.226562 64.144531 176.691406 67.421875 171.625 71.367188 C 177.636719 80.921875 183.621094 90.554688 191.378906 98.792969 Z M 191.378906 98.792969 " fill-opacity="1" fill-rule="nonzero"/></g></g></g></g><g clip-path="url(#c1205fc319)"><g clip-path="url(#6eb4b9dd87)"><g clip-path="url(#8a6235cf79)"><g clip-path="url(#25f636a591)"><path fill="#f4abc5" d="M 335.734375 130.988281 C 332.671875 119.160156 314.828125 112.75 317.332031 100.796875 C 318.046875 97.378906 320.425781 94.597656 322.511719 91.800781 C 328.644531 83.589844 332.953125 73.425781 331.734375 63.246094 C 330.519531 53.066406 322.578125 43.332031 312.363281 42.46875 C 303.132812 41.683594 294.253906 47.851562 285.074219 46.605469 C 273.21875 45 266.71875 32.476562 258.328125 23.945312 C 250.214844 15.695312 238.972656 10.601562 227.421875 9.9375 C 222.714844 9.667969 217.71875 10.195312 213.871094 12.917969 C 206.324219 18.261719 205.40625 30.257812 197.28125 34.675781 C 189.890625 38.695312 139.871094 13.324219 130.976562 56.773438 C 128.992188 66.460938 135.707031 83.808594 132.636719 95.851562 C 129.570312 107.894531 109.601562 114.199219 103.308594 125.152344 C 98.761719 133.066406 100.15625 143.648438 105.769531 150.851562 C 111.382812 158.054688 128.382812 157.277344 132.789062 168.820312 C 137.195312 180.363281 137.070312 195.527344 138.722656 205.835938 C 140.375 216.148438 147.539062 226.335938 157.832031 228.09375 C 167.660156 229.769531 178.515625 223.738281 187.3125 228.429688 C 194.914062 232.484375 197.066406 242.667969 203.878906 247.9375 C 206.917969 250.289062 210.722656 251.5 214.539062 251.898438 C 227.148438 253.21875 240.132812 245.074219 244.429688 233.152344 C 245.941406 228.96875 246.523438 224.332031 249.152344 220.746094 C 254.347656 213.644531 265.019531 213.714844 273.472656 216.164062 C 281.925781 218.617188 290.40625 222.765625 299.09375 221.359375 C 311.28125 219.390625 319.597656 204.761719 315.050781 193.28125 C 313.394531 189.097656 310.378906 185.453125 309.398438 181.0625 C 307.238281 171.367188 315.40625 162.730469 322.796875 156.09375 C 330.1875 149.460938 338.222656 140.601562 335.734375 130.988281 Z M 299.765625 171.859375 C 293.117188 187.09375 272.210938 201.453125 257.726562 208.21875 C 243.515625 214.855469 227.480469 216.148438 211.839844 217.339844 C 203.910156 217.941406 195.816406 218.53125 188.117188 216.5625 C 179.5625 214.371094 172.078125 209.152344 165.550781 203.203125 C 147.332031 186.585938 135.222656 163.144531 133.339844 138.558594 C 131.457031 113.980469 140.117188 88.558594 157.417969 70.996094 C 181.058594 47.003906 217.859375 39.8125 251.175781 44.820312 C 260.460938 46.21875 269.886719 48.574219 277.492188 54.085938 C 284.769531 59.355469 289.832031 67.109375 294.160156 74.984375 C 301.277344 87.9375 306.925781 101.949219 308.386719 116.65625 C 310.0625 133.53125 306.667969 156.0625 299.765625 171.859375 Z M 299.765625 171.859375 " fill-opacity="1" fill-rule="nonzero"/></g></g></g></g><g clip-path="url(#1edfc5bfed)"><g clip-path="url(#45b19c8f55)"><g clip-path="url(#08c440c77b)"><g clip-path="url(#25b1cb5d81)"><path fill="#f086a7" d="M 144.417969 122.007812 C 154.675781 136.472656 169.285156 146.824219 184.292969 155.878906 C 200.632812 165.738281 217.75 173.988281 235.789062 180.242188 C 245.875 183.738281 256.171875 186.585938 266.613281 188.796875 C 270.453125 189.609375 271.703125 183.632812 267.847656 182.816406 C 249.78125 178.992188 232.179688 173.226562 215.382812 165.550781 C 206.898438 161.667969 198.660156 157.292969 190.621094 152.558594 C 183.425781 148.320312 176.3125 143.894531 169.660156 138.832031 C 162.085938 133.070312 155.085938 126.503906 149.5625 118.714844 C 147.289062 115.515625 142.140625 118.796875 144.417969 122.007812 Z M 144.417969 122.007812 " fill-opacity="1" fill-rule="nonzero"/></g></g></g></g><g clip-path="url(#6b7e6b17c1)"><g clip-path="url(#bc9a6f64a4)"><g clip-path="url(#095f33c139)"><g clip-path="url(#f6f31b34cf)"><path fill="#f086a7" d="M 154.503906 139.582031 C 154.453125 139.558594 154.402344 139.53125 154.351562 139.507812 C 150.851562 137.71875 148.066406 143.148438 151.574219 144.941406 C 151.621094 144.96875 151.671875 144.992188 151.722656 145.019531 C 155.222656 146.808594 158.007812 141.375 154.503906 139.582031 C 154.453125 139.558594 154.402344 139.53125 154.351562 139.507812 C 150.851562 137.71875 148.066406 143.148438 151.574219 144.941406 C 151.621094 144.96875 151.671875 144.992188 151.722656 145.019531 C 155.222656 146.808594 158.007812 141.375 154.503906 139.582031 Z M 154.503906 139.582031 " fill-opacity="1" fill-rule="nonzero"/></g></g></g></g><g clip-path="url(#6577717596)"><g clip-path="url(#3dc4d01c0a)"><g clip-path="url(#ee52a683eb)"><g clip-path="url(#8f70758658)"><path fill="#f086a7" d="M 166.761719 156.105469 C 170.261719 157.894531 173.046875 152.460938 169.542969 150.667969 C 166.042969 148.882812 163.257812 154.3125 166.761719 156.105469 Z M 166.761719 156.105469 " fill-opacity="1" fill-rule="nonzero"/></g></g></g></g><g clip-path="url(#8d33141d29)"><g clip-path="url(#3718774302)"><g clip-path="url(#35de7651ca)"><g clip-path="url(#3ed2004eae)"><path fill="#f086a7" d="M 183.355469 165.777344 C 183.367188 165.765625 183.378906 165.75 183.394531 165.738281 C 183.191406 165.910156 182.992188 166.078125 182.789062 166.246094 C 182.8125 166.230469 182.835938 166.214844 182.863281 166.199219 C 182.625 166.3125 182.390625 166.421875 182.15625 166.535156 C 182.1875 166.519531 182.21875 166.507812 182.253906 166.503906 C 181.996094 166.550781 181.742188 166.597656 181.484375 166.644531 C 181.519531 166.640625 181.554688 166.636719 181.59375 166.640625 C 181.332031 166.621094 181.066406 166.601562 180.804688 166.582031 C 180.84375 166.585938 180.878906 166.59375 180.917969 166.605469 C 180.660156 166.515625 180.402344 166.425781 180.144531 166.332031 C 180.175781 166.34375 180.207031 166.359375 180.234375 166.378906 C 180.007812 166.222656 179.785156 166.066406 179.5625 165.914062 C 179.585938 165.929688 179.605469 165.949219 179.625 165.972656 C 179.457031 165.769531 179.285156 165.566406 179.117188 165.363281 C 179.121094 165.371094 179.125 165.375 179.128906 165.382812 C 179.339844 165.738281 179.621094 166.019531 179.976562 166.21875 C 180.296875 166.484375 180.664062 166.65625 181.082031 166.726562 C 181.480469 166.824219 181.871094 166.820312 182.257812 166.710938 C 182.652344 166.671875 183.015625 166.535156 183.347656 166.308594 C 183.546875 166.136719 183.75 165.96875 183.953125 165.800781 C 184.328125 165.382812 184.574219 164.902344 184.691406 164.355469 C 184.710938 164.089844 184.730469 163.828125 184.75 163.566406 C 184.714844 163.035156 184.554688 162.542969 184.273438 162.089844 C 184.105469 161.871094 183.925781 161.652344 183.734375 161.453125 C 183.726562 161.441406 183.714844 161.433594 183.703125 161.421875 C 183.476562 161.246094 183.242188 161.089844 183 160.9375 C 182.988281 160.929688 182.976562 160.921875 182.960938 160.914062 C 182.832031 160.851562 182.617188 160.789062 182.539062 160.761719 C 182.453125 160.734375 182.253906 160.648438 182.113281 160.613281 C 182.097656 160.609375 182.082031 160.609375 182.066406 160.605469 C 181.792969 160.570312 181.515625 160.554688 181.238281 160.546875 C 181.207031 160.542969 181.179688 160.546875 181.148438 160.550781 C 180.878906 160.59375 180.609375 160.632812 180.347656 160.699219 C 180.332031 160.703125 180.316406 160.710938 180.300781 160.714844 C 180.046875 160.816406 179.800781 160.9375 179.558594 161.066406 C 179.546875 161.070312 179.535156 161.078125 179.523438 161.085938 C 179.292969 161.242188 179.089844 161.4375 178.886719 161.617188 C 178.871094 161.628906 178.863281 161.640625 178.851562 161.652344 C 178.554688 161.957031 178.351562 162.308594 178.25 162.710938 C 178.082031 163.082031 178.015625 163.472656 178.054688 163.886719 C 178.066406 164.289062 178.167969 164.664062 178.367188 165.007812 C 178.503906 165.382812 178.730469 165.699219 179.039062 165.964844 C 179.265625 166.121094 179.488281 166.277344 179.714844 166.433594 C 180.207031 166.683594 180.726562 166.792969 181.277344 166.761719 C 181.53125 166.714844 181.785156 166.667969 182.042969 166.617188 C 182.554688 166.453125 182.992188 166.171875 183.355469 165.777344 Z M 183.355469 165.777344 " fill-opacity="1" fill-rule="nonzero"/></g></g></g></g><g clip-path="url(#61de8b1dbe)"><g clip-path="url(#9fd2a57f97)"><g clip-path="url(#8f7feb6bb8)"><g clip-path="url(#b56658b1c0)"><path fill="#f086a7" d="M 196.371094 175.566406 C 196.613281 175.691406 196.859375 175.816406 197.105469 175.941406 C 197.472656 176.148438 197.859375 176.246094 198.269531 176.242188 C 198.664062 176.304688 199.050781 176.265625 199.433594 176.128906 C 199.824219 176.019531 200.160156 175.820312 200.441406 175.539062 C 200.777344 175.304688 201.035156 174.996094 201.210938 174.613281 C 201.300781 174.355469 201.394531 174.097656 201.484375 173.839844 C 201.589844 173.316406 201.558594 172.796875 201.398438 172.285156 C 201.285156 172.046875 201.175781 171.8125 201.0625 171.578125 C 200.765625 171.117188 200.371094 170.757812 199.882812 170.503906 C 199.636719 170.378906 199.390625 170.253906 199.148438 170.128906 C 198.78125 169.921875 198.390625 169.824219 197.980469 169.828125 C 197.585938 169.765625 197.199219 169.804688 196.816406 169.941406 C 196.425781 170.054688 196.089844 170.25 195.808594 170.53125 C 195.472656 170.765625 195.214844 171.078125 195.039062 171.457031 C 194.949219 171.714844 194.859375 171.972656 194.769531 172.230469 C 194.660156 172.757812 194.691406 173.273438 194.855469 173.785156 C 194.964844 174.023438 195.078125 174.257812 195.1875 174.492188 C 195.484375 174.957031 195.878906 175.3125 196.371094 175.566406 Z M 196.371094 175.566406 " fill-opacity="1" fill-rule="nonzero"/></g></g></g></g><g clip-path="url(#45c49856a9)"><g clip-path="url(#a766097bdd)"><g clip-path="url(#c274df74a3)"><g clip-path="url(#a298b0d3c3)"><path fill="#f086a7" d="M 214.261719 184.09375 C 214.421875 184.175781 214.585938 184.261719 214.75 184.34375 C 215.117188 184.550781 215.507812 184.648438 215.917969 184.644531 C 216.308594 184.707031 216.695312 184.671875 217.078125 184.53125 C 217.46875 184.421875 217.804688 184.222656 218.085938 183.945312 C 218.421875 183.707031 218.679688 183.398438 218.855469 183.015625 C 218.945312 182.757812 219.039062 182.5 219.128906 182.242188 C 219.234375 181.71875 219.207031 181.199219 219.042969 180.6875 C 218.929688 180.453125 218.820312 180.21875 218.710938 179.980469 C 218.410156 179.519531 218.015625 179.160156 217.527344 178.910156 C 217.363281 178.824219 217.199219 178.742188 217.039062 178.65625 C 216.671875 178.453125 216.28125 178.351562 215.871094 178.355469 C 215.476562 178.292969 215.089844 178.332031 214.707031 178.46875 C 214.316406 178.582031 213.980469 178.777344 213.699219 179.058594 C 213.363281 179.296875 213.105469 179.605469 212.929688 179.984375 C 212.839844 180.242188 212.75 180.5 212.660156 180.757812 C 212.550781 181.285156 212.582031 181.804688 212.746094 182.3125 C 212.855469 182.550781 212.96875 182.785156 213.078125 183.019531 C 213.375 183.484375 213.769531 183.839844 214.261719 184.09375 Z M 214.261719 184.09375 " fill-opacity="1" fill-rule="nonzero"/></g></g></g></g><g clip-path="url(#5129db6159)"><g clip-path="url(#36fc385a56)"><g clip-path="url(#61b665ba84)"><g clip-path="url(#d00ef51a53)"><path fill="#f086a7" d="M 235.191406 190.113281 C 235.203125 190.101562 235.21875 190.085938 235.230469 190.078125 C 235.027344 190.246094 234.828125 190.417969 234.625 190.585938 C 234.648438 190.566406 234.671875 190.550781 234.699219 190.539062 C 234.464844 190.648438 234.226562 190.761719 233.992188 190.871094 C 234.023438 190.855469 234.054688 190.847656 234.089844 190.839844 C 233.832031 190.886719 233.578125 190.933594 233.320312 190.984375 C 233.355469 190.976562 233.394531 190.976562 233.429688 190.976562 C 233.167969 190.957031 232.902344 190.9375 232.640625 190.917969 C 232.679688 190.921875 232.71875 190.929688 232.753906 190.941406 C 232.496094 190.851562 232.238281 190.761719 231.980469 190.671875 C 232.011719 190.683594 232.042969 190.699219 232.070312 190.714844 C 231.847656 190.5625 231.621094 190.40625 231.398438 190.25 C 231.421875 190.265625 231.441406 190.285156 231.460938 190.308594 C 231.292969 190.105469 231.121094 189.90625 230.953125 189.703125 C 230.957031 189.707031 230.960938 189.710938 230.964844 189.71875 C 231.175781 190.078125 231.457031 190.355469 231.8125 190.558594 C 232.132812 190.824219 232.5 190.992188 232.921875 191.0625 C 233.316406 191.160156 233.707031 191.15625 234.09375 191.050781 C 234.488281 191.007812 234.851562 190.875 235.183594 190.644531 C 235.386719 190.476562 235.585938 190.304688 235.789062 190.136719 C 236.164062 189.71875 236.410156 189.238281 236.527344 188.691406 C 236.546875 188.429688 236.566406 188.164062 236.585938 187.902344 C 236.550781 187.371094 236.394531 186.878906 236.109375 186.429688 C 235.941406 186.207031 235.765625 185.992188 235.574219 185.792969 C 235.5625 185.78125 235.550781 185.769531 235.539062 185.761719 C 235.316406 185.582031 235.078125 185.429688 234.839844 185.273438 C 234.824219 185.265625 234.8125 185.257812 234.796875 185.25 C 234.667969 185.1875 234.453125 185.128906 234.375 185.101562 C 234.289062 185.070312 234.089844 184.988281 233.949219 184.953125 C 233.933594 184.949219 233.917969 184.945312 233.902344 184.945312 C 233.628906 184.90625 233.351562 184.890625 233.074219 184.882812 C 233.046875 184.878906 233.015625 184.882812 232.984375 184.886719 C 232.714844 184.929688 232.445312 184.972656 232.183594 185.039062 C 232.167969 185.042969 232.152344 185.046875 232.136719 185.054688 C 231.882812 185.152344 231.636719 185.273438 231.394531 185.402344 C 231.382812 185.410156 231.371094 185.414062 231.359375 185.421875 C 231.132812 185.578125 230.925781 185.773438 230.722656 185.957031 C 230.710938 185.964844 230.699219 185.976562 230.6875 185.988281 C 230.390625 186.292969 230.1875 186.644531 230.085938 187.046875 C 229.917969 187.417969 229.851562 187.808594 229.890625 188.222656 C 229.902344 188.625 230.003906 189 230.203125 189.34375 C 230.34375 189.71875 230.566406 190.039062 230.878906 190.300781 C 231.101562 190.457031 231.328125 190.613281 231.550781 190.769531 C 232.042969 191.019531 232.5625 191.128906 233.113281 191.097656 C 233.367188 191.050781 233.625 191.003906 233.878906 190.957031 C 234.390625 190.789062 234.828125 190.507812 235.191406 190.113281 Z M 235.191406 190.113281 " fill-opacity="1" fill-rule="nonzero"/></g></g></g></g><g clip-path="url(#2d9866f531)"><g clip-path="url(#639783710d)"><g clip-path="url(#f06a56fc8a)"><g clip-path="url(#990eacc6f1)"><path fill="#f086a7" d="M 247.625 196.207031 C 251.125 197.996094 253.90625 192.5625 250.402344 190.769531 C 246.90625 188.984375 244.121094 194.414062 247.625 196.207031 Z M 247.625 196.207031 " fill-opacity="1" fill-rule="nonzero"/></g></g></g></g><g clip-path="url(#f637666ee0)"><g clip-path="url(#716474a008)"><g clip-path="url(#c637b6ed36)"><g clip-path="url(#08a881c2d7)"><path fill="#f086a7" d="M 150.960938 102.554688 C 152.628906 108.527344 154.550781 114.820312 158.496094 119.730469 C 162.484375 124.695312 167.898438 127.25 174.1875 127.804688 C 179.664062 128.285156 185.335938 127.53125 190.710938 128.851562 C 195.636719 130.058594 198.367188 133.769531 200.53125 138.097656 C 202.863281 142.761719 204.570312 147.734375 208.082031 151.699219 C 211.773438 155.863281 217.003906 157.402344 222.429688 157.351562 C 227.457031 157.308594 232.480469 155.917969 237.515625 156.324219 C 239.558594 156.484375 241.484375 156.988281 243.167969 158.164062 C 245.28125 159.648438 246.761719 161.882812 248.1875 163.984375 C 251.914062 169.488281 256.089844 175.03125 263.445312 174.832031 C 267.046875 174.734375 270.429688 173.234375 273.5 171.464844 C 274.644531 170.800781 275.78125 170.003906 277.160156 170.339844 C 278.652344 170.699219 279.953125 171.976562 281.070312 172.957031 C 284.027344 175.550781 288.152344 171.050781 285.195312 168.453125 C 282.683594 166.25 279.726562 164.015625 276.203125 164.136719 C 273.023438 164.242188 270.675781 166.332031 267.894531 167.542969 C 265.566406 168.558594 262.871094 169.242188 260.410156 168.273438 C 258.230469 167.414062 256.664062 165.476562 255.332031 163.617188 C 252.128906 159.152344 249.324219 153.933594 243.996094 151.695312 C 239.15625 149.65625 233.933594 150.132812 228.847656 150.714844 C 224.257812 151.234375 219.234375 151.980469 215.113281 149.703125 C 211.3125 147.601562 209.359375 142.765625 207.597656 138.890625 C 205.457031 134.1875 203.183594 129.167969 198.871094 126.042969 C 194.011719 122.523438 188.167969 122.054688 182.355469 121.988281 C 176.675781 121.921875 170.226562 122.304688 165.605469 118.386719 C 160.457031 114.023438 158.515625 106.921875 156.773438 100.679688 C 155.710938 96.882812 149.90625 98.773438 150.960938 102.554688 Z M 150.960938 102.554688 " fill-opacity="1" fill-rule="nonzero"/></g></g></g></g><g clip-path="url(#5f58e6ae00)"><g clip-path="url(#928c80334a)"><g clip-path="url(#e2a265e10f)"><g clip-path="url(#57fc11f16a)"><path fill="#f086a7" d="M 158.863281 89.597656 C 174.269531 101.734375 189.773438 113.933594 206.859375 123.65625 C 215.285156 128.445312 224.042969 132.691406 232.777344 136.894531 C 241.335938 141.019531 250.011719 144.929688 258.90625 148.273438 C 268.945312 152.046875 279.234375 155.132812 289.8125 156.96875 C 293.671875 157.640625 294.933594 151.664062 291.042969 150.988281 C 272.558594 147.777344 255.113281 140.75 238.238281 132.742188 C 229.695312 128.6875 221.164062 124.53125 212.859375 120.011719 C 204.503906 115.464844 196.507812 110.292969 188.773438 104.761719 C 179.976562 98.476562 171.480469 91.785156 162.988281 85.09375 C 161.695312 84.074219 159.84375 84.003906 158.675781 85.28125 C 157.625 86.433594 157.5625 88.574219 158.863281 89.597656 Z M 158.863281 89.597656 " fill-opacity="1" fill-rule="nonzero"/></g></g></g></g><g clip-path="url(#5517ad32af)"><g clip-path="url(#1a1046e7bf)"><g clip-path="url(#fbca8a801a)"><g clip-path="url(#3136beb3c4)"><path fill="#f086a7" d="M 168.742188 85.132812 C 168.824219 85.175781 168.90625 85.21875 168.988281 85.261719 C 169.355469 85.464844 169.742188 85.566406 170.152344 85.5625 C 170.546875 85.625 170.933594 85.585938 171.316406 85.449219 C 171.707031 85.335938 172.042969 85.140625 172.324219 84.859375 C 172.660156 84.621094 172.917969 84.3125 173.09375 83.933594 C 173.183594 83.675781 173.273438 83.417969 173.363281 83.160156 C 173.472656 82.632812 173.441406 82.113281 173.277344 81.605469 C 173.167969 81.367188 173.054688 81.132812 172.945312 80.898438 C 172.648438 80.433594 172.253906 80.078125 171.761719 79.824219 C 171.683594 79.78125 171.601562 79.742188 171.519531 79.699219 C 171.152344 79.492188 170.761719 79.394531 170.351562 79.398438 C 169.960938 79.335938 169.570312 79.371094 169.191406 79.511719 C 168.800781 79.621094 168.464844 79.820312 168.179688 80.101562 C 167.84375 80.335938 167.589844 80.644531 167.414062 81.027344 C 167.320312 81.285156 167.230469 81.542969 167.140625 81.800781 C 167.035156 82.324219 167.0625 82.84375 167.226562 83.355469 C 167.335938 83.589844 167.449219 83.828125 167.558594 84.0625 C 167.855469 84.527344 168.25 84.882812 168.742188 85.132812 Z M 168.742188 85.132812 " fill-opacity="1" fill-rule="nonzero"/></g></g></g></g><g clip-path="url(#44b8e5e2df)"><g clip-path="url(#1145bfd385)"><g clip-path="url(#02e196db91)"><g clip-path="url(#9d7ff53818)"><path fill="#f086a7" d="M 179.734375 94.460938 C 179.816406 94.503906 179.898438 94.546875 179.980469 94.585938 C 180.347656 94.792969 180.734375 94.894531 181.144531 94.886719 C 181.539062 94.949219 181.925781 94.914062 182.308594 94.773438 C 182.699219 94.664062 183.035156 94.46875 183.316406 94.1875 C 183.652344 93.949219 183.910156 93.640625 184.085938 93.257812 C 184.175781 93.003906 184.265625 92.742188 184.355469 92.488281 C 184.464844 91.960938 184.433594 91.441406 184.269531 90.929688 C 184.160156 90.695312 184.046875 90.460938 183.9375 90.222656 C 183.640625 89.761719 183.246094 89.40625 182.753906 89.152344 C 182.675781 89.109375 182.59375 89.066406 182.511719 89.027344 C 182.144531 88.820312 181.753906 88.71875 181.34375 88.726562 C 180.953125 88.664062 180.5625 88.699219 180.183594 88.839844 C 179.792969 88.949219 179.457031 89.144531 179.171875 89.425781 C 178.835938 89.664062 178.582031 89.972656 178.40625 90.355469 C 178.3125 90.609375 178.222656 90.867188 178.132812 91.125 C 178.027344 91.652344 178.054688 92.171875 178.21875 92.683594 C 178.328125 92.917969 178.441406 93.152344 178.550781 93.390625 C 178.847656 93.851562 179.242188 94.210938 179.734375 94.460938 Z M 179.734375 94.460938 " fill-opacity="1" fill-rule="nonzero"/></g></g></g></g><g clip-path="url(#cda77f210d)"><g clip-path="url(#1afd8aead4)"><g clip-path="url(#de75266c66)"><g clip-path="url(#dd50f5802a)"><path fill="#f086a7" d="M 200.058594 106.085938 C 200.140625 106.128906 200.222656 106.171875 200.304688 106.210938 C 200.671875 106.417969 201.058594 106.519531 201.46875 106.515625 C 201.863281 106.578125 202.25 106.539062 202.632812 106.398438 C 203.023438 106.289062 203.359375 106.09375 203.640625 105.8125 C 203.976562 105.574219 204.234375 105.265625 204.410156 104.886719 C 204.5 104.628906 204.589844 104.371094 204.683594 104.113281 C 204.789062 103.585938 204.757812 103.066406 204.59375 102.554688 C 204.484375 102.320312 204.371094 102.085938 204.261719 101.851562 C 203.964844 101.386719 203.570312 101.03125 203.082031 100.777344 C 203 100.734375 202.917969 100.695312 202.835938 100.652344 C 202.46875 100.445312 202.078125 100.347656 201.667969 100.351562 C 201.277344 100.289062 200.886719 100.324219 200.507812 100.464844 C 200.117188 100.574219 199.78125 100.773438 199.496094 101.050781 C 199.160156 101.289062 198.90625 101.597656 198.730469 101.980469 C 198.636719 102.238281 198.546875 102.496094 198.457031 102.753906 C 198.351562 103.277344 198.378906 103.796875 198.542969 104.308594 C 198.652344 104.542969 198.765625 104.777344 198.875 105.015625 C 199.171875 105.476562 199.566406 105.835938 200.058594 106.085938 Z M 200.058594 106.085938 " fill-opacity="1" fill-rule="nonzero"/></g></g></g></g><g clip-path="url(#9899baf85a)"><g clip-path="url(#c10167ae3f)"><g clip-path="url(#ff22567aa2)"><g clip-path="url(#8ebd9518cb)"><path fill="#f086a7" d="M 217.808594 116.707031 C 217.96875 116.789062 218.132812 116.871094 218.296875 116.957031 C 218.664062 117.164062 219.054688 117.261719 219.464844 117.257812 C 219.855469 117.320312 220.246094 117.28125 220.625 117.144531 C 221.015625 117.035156 221.351562 116.835938 221.632812 116.554688 C 221.96875 116.320312 222.226562 116.011719 222.402344 115.628906 C 222.496094 115.371094 222.585938 115.113281 222.675781 114.855469 C 222.78125 114.332031 222.753906 113.8125 222.589844 113.300781 C 222.480469 113.0625 222.367188 112.828125 222.257812 112.59375 C 221.957031 112.132812 221.5625 111.773438 221.074219 111.519531 C 220.910156 111.4375 220.746094 111.355469 220.585938 111.269531 C 220.21875 111.066406 219.828125 110.964844 219.417969 110.96875 C 219.023438 110.90625 218.636719 110.945312 218.253906 111.082031 C 217.863281 111.195312 217.527344 111.390625 217.246094 111.671875 C 216.910156 111.910156 216.65625 112.21875 216.476562 112.597656 C 216.386719 112.855469 216.296875 113.113281 216.207031 113.371094 C 216.097656 113.898438 216.128906 114.414062 216.292969 114.925781 C 216.402344 115.164062 216.515625 115.398438 216.625 115.632812 C 216.921875 116.09375 217.316406 116.453125 217.808594 116.707031 Z M 217.808594 116.707031 " fill-opacity="1" fill-rule="nonzero"/></g></g></g></g><g clip-path="url(#e163b9661a)"><g clip-path="url(#f7c331d58b)"><g clip-path="url(#02473aada5)"><g clip-path="url(#7bc370f5fd)"><path fill="#f086a7" d="M 235.5625 126.710938 C 235.644531 126.75 235.726562 126.792969 235.808594 126.835938 C 236.175781 127.039062 236.5625 127.140625 236.972656 127.136719 C 237.367188 127.199219 237.753906 127.160156 238.136719 127.023438 C 238.527344 126.910156 238.863281 126.714844 239.144531 126.433594 C 239.480469 126.195312 239.738281 125.886719 239.914062 125.507812 C 240.003906 125.25 240.09375 124.992188 240.183594 124.734375 C 240.292969 124.207031 240.261719 123.6875 240.097656 123.179688 C 239.988281 122.941406 239.875 122.707031 239.765625 122.472656 C 239.46875 122.007812 239.074219 121.652344 238.582031 121.398438 C 238.503906 121.359375 238.421875 121.316406 238.339844 121.273438 C 237.972656 121.066406 237.582031 120.96875 237.171875 120.972656 C 236.78125 120.910156 236.390625 120.949219 236.011719 121.085938 C 235.621094 121.195312 235.285156 121.394531 235 121.675781 C 234.664062 121.910156 234.410156 122.21875 234.234375 122.601562 C 234.140625 122.859375 234.050781 123.117188 233.960938 123.375 C 233.855469 123.898438 233.882812 124.417969 234.046875 124.929688 C 234.15625 125.164062 234.269531 125.402344 234.378906 125.636719 C 234.675781 126.097656 235.070312 126.457031 235.5625 126.710938 Z M 235.5625 126.710938 " fill-opacity="1" fill-rule="nonzero"/></g></g></g></g><g clip-path="url(#eb7e57d5cc)"><g clip-path="url(#7f2e2a2f16)"><g clip-path="url(#00db0f09d9)"><g clip-path="url(#34f892f0a6)"><path fill="#f086a7" d="M 253.578125 134.992188 C 257.074219 136.78125 259.859375 131.347656 256.355469 129.554688 C 252.855469 127.769531 250.074219 133.199219 253.578125 134.992188 Z M 253.578125 134.992188 " fill-opacity="1" fill-rule="nonzero"/></g></g></g></g><g clip-path="url(#0a7182c50d)"><g clip-path="url(#c01caa52f8)"><g clip-path="url(#f43ed2b7b6)"><g clip-path="url(#0b3d46ee76)"><path fill="#f086a7" d="M 272.621094 142.535156 C 272.660156 142.453125 272.703125 142.371094 272.746094 142.289062 C 272.949219 141.921875 273.050781 141.535156 273.046875 141.125 C 273.109375 140.730469 273.070312 140.34375 272.933594 139.960938 C 272.820312 139.570312 272.625 139.234375 272.34375 138.953125 C 272.105469 138.617188 271.796875 138.359375 271.417969 138.183594 C 271.160156 138.09375 270.902344 138.003906 270.644531 137.910156 C 270.117188 137.804688 269.597656 137.835938 269.085938 137.996094 C 268.851562 138.109375 268.617188 138.21875 268.378906 138.332031 C 267.917969 138.628906 267.5625 139.023438 267.308594 139.511719 C 267.265625 139.59375 267.226562 139.675781 267.183594 139.757812 C 266.976562 140.125 266.875 140.511719 266.882812 140.921875 C 266.820312 141.316406 266.855469 141.703125 266.996094 142.085938 C 267.105469 142.476562 267.304688 142.8125 267.585938 143.09375 C 267.820312 143.429688 268.128906 143.6875 268.511719 143.863281 C 268.769531 143.953125 269.027344 144.042969 269.285156 144.132812 C 269.8125 144.242188 270.328125 144.210938 270.839844 144.046875 C 271.078125 143.9375 271.3125 143.828125 271.546875 143.714844 C 272.007812 143.417969 272.367188 143.023438 272.621094 142.535156 Z M 272.621094 142.535156 " fill-opacity="1" fill-rule="nonzero"/></g></g></g></g><g clip-path="url(#54c5b07ff2)"><g clip-path="url(#76a40bbdfc)"><g clip-path="url(#700a730ba6)"><g clip-path="url(#85d3820b38)"><path fill="#f086a7" d="M 284.835938 148.808594 C 288.332031 150.597656 291.117188 145.164062 287.613281 143.371094 C 284.113281 141.585938 281.328125 147.015625 284.835938 148.808594 Z M 284.835938 148.808594 " fill-opacity="1" fill-rule="nonzero"/></g></g></g></g><g clip-path="url(#51a1bab7d3)"><g clip-path="url(#35c6498337)"><g clip-path="url(#6ae739c860)"><g clip-path="url(#268597ec8a)"><path fill="#f086a7" d="M 213.5 57.175781 C 208.878906 62.941406 209.007812 71.503906 214.121094 76.949219 C 218.933594 82.070312 227.550781 82.6875 233.230469 78.722656 C 231.683594 77.660156 230.136719 76.597656 228.59375 75.535156 C 227.863281 83.023438 229.429688 91.25 237.109375 94.546875 C 244.152344 97.570312 252.496094 94.398438 255.625 87.34375 C 253.859375 87.429688 252.097656 87.515625 250.332031 87.597656 C 251.867188 90.550781 253.296875 93.589844 254.976562 96.460938 C 256.636719 99.300781 258.984375 101.582031 262.230469 102.425781 C 265 103.144531 268.253906 102.59375 270.558594 100.882812 C 273.296875 98.847656 274.660156 95.964844 274.882812 92.609375 C 273.179688 93.417969 271.476562 94.226562 269.773438 95.03125 C 271.507812 96.640625 272.125 99.101562 273.257812 101.113281 C 274.632812 103.5625 276.851562 105.785156 279.691406 106.34375 C 282.410156 106.882812 285.160156 105.699219 286.96875 103.667969 C 289.039062 101.339844 289.652344 98.28125 290.035156 95.28125 C 290.246094 93.648438 289.367188 92.027344 287.664062 91.675781 C 286.140625 91.359375 284.265625 92.40625 284.054688 94.046875 C 283.84375 95.714844 282.921875 102.347656 279.871094 99.785156 C 278.59375 98.714844 277.96875 96.972656 277.277344 95.503906 C 276.402344 93.644531 275.421875 91.9375 273.898438 90.53125 C 271.753906 88.546875 268.953125 90.445312 268.785156 92.953125 C 268.574219 96.09375 264.765625 97.597656 262.308594 95.894531 C 260.707031 94.785156 259.832031 92.691406 258.964844 91.023438 C 257.800781 88.785156 256.640625 86.546875 255.476562 84.308594 C 254.421875 82.28125 251.078125 82.554688 250.1875 84.566406 C 248.355469 88.699219 243.6875 90.882812 239.449219 88.914062 C 234.746094 86.730469 234.125 81.386719 234.574219 76.769531 C 234.808594 74.351562 232.285156 71.941406 229.9375 73.582031 C 226.507812 75.976562 221.558594 75.753906 218.539062 72.75 C 215.59375 69.816406 215.433594 64.503906 218.003906 61.300781 C 219.03125 60.015625 219.085938 58.148438 217.8125 56.984375 C 216.65625 55.929688 214.535156 55.882812 213.5 57.175781 Z M 213.5 57.175781 " fill-opacity="1" fill-rule="nonzero"/></g></g></g></g><g clip-path="url(#8bbd481c97)"><g clip-path="url(#819742828a)"><g clip-path="url(#0fbfab6eab)"><g clip-path="url(#ea800afd5e)"><path fill="#f086a7" d="M 228.828125 58.898438 C 235.054688 66.058594 242.339844 72.605469 250.863281 76.914062 C 257.410156 80.222656 264.691406 82.507812 271.882812 83.910156 C 275.730469 84.660156 279.753906 85.191406 283.675781 84.851562 C 287.582031 84.511719 287.257812 78.414062 283.328125 78.753906 C 279.3125 79.101562 275.273438 78.425781 271.355469 77.5625 C 266.945312 76.59375 262.59375 75.285156 258.402344 73.605469 C 248.292969 69.558594 240.042969 62.554688 232.953125 54.398438 C 231.871094 53.152344 229.660156 53.46875 228.636719 54.585938 C 227.421875 55.917969 227.742188 57.648438 228.828125 58.898438 Z M 228.828125 58.898438 " fill-opacity="1" fill-rule="nonzero"/></g></g></g></g></svg>