<svg xmlns="http://www.w3.org/2000/svg" xmlns:xlink="http://www.w3.org/1999/xlink" width="1366" zoomAndPan="magnify" viewBox="0 0 1024.5 576" height="768" preserveAspectRatio="xMidYMid meet" version="1.0"><defs><clipPath id="a821bb23fa"><path d="M 0 0.140625 L 1024 0.140625 L 1024 575.859375 L 0 575.859375 Z M 0 0.140625 " clip-rule="nonzero"/></clipPath><clipPath id="c856700150"><path d="M 316 13 L 710 13 L 710 542 L 316 542 Z M 316 13 " clip-rule="nonzero"/></clipPath><clipPath id="2d5aa93d8c"><path d="M 539.214844 0.144531 L 797.726562 179.867188 L 478.925781 638.414062 L 220.417969 458.691406 Z M 539.214844 0.144531 " clip-rule="nonzero"/></clipPath><clipPath id="94948c2d6c"><path d="M 539.214844 0.144531 L 797.726562 179.867188 L 478.925781 638.414062 L 220.417969 458.691406 Z M 539.214844 0.144531 " clip-rule="nonzero"/></clipPath><clipPath id="8dd8685875"><path d="M 539.214844 0.144531 L 797.726562 179.867188 L 478.925781 638.414062 L 220.417969 458.691406 Z M 539.214844 0.144531 " clip-rule="nonzero"/></clipPath></defs><g clip-path="url(#a821bb23fa)"><path fill="#ffffff" d="M 0 0.140625 L 1024 0.140625 L 1024 575.859375 L 0 575.859375 Z M 0 0.140625 " fill-opacity="1" fill-rule="nonzero"/><path fill="#ffffff" d="M 0 0.140625 L 1024 0.140625 L 1024 575.859375 L 0 575.859375 Z M 0 0.140625 " fill-opacity="1" fill-rule="nonzero"/></g><g clip-path="url(#c856700150)"><g clip-path="url(#2d5aa93d8c)"><g clip-path="url(#94948c2d6c)"><g clip-path="url(#8dd8685875)"><path fill="#e5b6a3" d="M 682.410156 339.992188 C 672.464844 337.257812 645.027344 340.292969 625.984375 346.230469 C 605.113281 352.738281 581.242188 365.101562 563.566406 378.550781 C 562.046875 379.699219 560.152344 380.554688 559.195312 380.507812 C 558.261719 380.464844 551.558594 379.664062 544.292969 378.71875 C 537.027344 377.773438 528.566406 376.960938 525.492188 376.90625 C 512.796875 376.691406 500.625 379.820312 488.925781 386.300781 L 482.007812 390.136719 L 483.636719 387.796875 C 490.945312 377.289062 511.886719 351.347656 522.972656 339.058594 C 536.210938 324.386719 540.449219 320.320312 543.835938 319.042969 C 548.671875 317.222656 558.027344 316.179688 569.804688 316.160156 C 584.644531 316.136719 592.320312 315.53125 601.050781 313.714844 C 612.902344 311.25 631.433594 304.808594 632.949219 302.628906 C 633.925781 301.222656 633.71875 299.5625 632.460938 298.6875 C 631.246094 297.84375 599.1875 294.019531 591.03125 293.746094 C 582.773438 293.46875 575.601562 294.613281 569.019531 297.261719 C 566.113281 298.425781 563.886719 299.171875 564.070312 298.90625 C 564.242188 298.65625 567.582031 295.925781 571.488281 292.847656 C 595.34375 274.050781 621.910156 260.074219 651.660156 250.683594 C 664.152344 246.738281 686.578125 242.871094 699.019531 242.507812 C 704.582031 242.34375 709.257812 242.019531 709.425781 241.78125 C 710.007812 240.945312 707.546875 239.867188 703.902344 239.355469 C 696.636719 238.339844 684.71875 238.628906 674.953125 240.070312 C 671.863281 240.523438 669.894531 240.539062 670.519531 240.109375 C 684.433594 230.488281 689.296875 224.425781 693.785156 211.121094 C 694.765625 208.226562 695.949219 205.296875 696.425781 204.613281 C 697.507812 203.058594 697.03125 201.265625 695.3125 200.40625 C 693.648438 199.5625 689.132812 201.761719 683.269531 206.261719 C 677.484375 210.703125 673.011719 215.179688 665.289062 224.246094 C 657.246094 233.695312 654.289062 236.730469 649.898438 240.050781 C 645.832031 243.132812 629.417969 252.027344 622.519531 254.882812 C 595.992188 265.875 571.359375 282.261719 546.320312 305.585938 C 529.273438 321.460938 510.355469 342.257812 494.386719 362.671875 L 489.464844 368.953125 L 495.59375 356.515625 C 508.996094 329.304688 523.019531 296.152344 534.042969 265.597656 C 536.136719 259.792969 537.949219 254.90625 538.074219 254.730469 C 538.191406 254.5625 543.90625 253.871094 550.777344 253.199219 C 583.746094 249.957031 597.234375 244.234375 612.921875 226.824219 C 619.824219 219.171875 639.777344 190.964844 639.613281 189.09375 C 639.558594 188.421875 638.855469 187.417969 638.054688 186.859375 C 636.832031 186.007812 636.007812 186.136719 632.808594 187.683594 C 627.816406 190.101562 622.660156 192.082031 609.699219 196.578125 C 603.804688 198.625 596.046875 201.542969 592.464844 203.070312 C 576.570312 209.828125 560.628906 220.128906 549.179688 231.054688 C 544.8125 235.21875 542.875 236.652344 544.210938 234.730469 C 545.136719 233.398438 551.269531 210.335938 554.433594 196.28125 C 558.027344 180.28125 561.777344 159.300781 563.621094 144.714844 L 565.085938 133.195312 L 569.949219 126.199219 C 583.246094 107.058594 586.871094 90.683594 582.828125 68.050781 C 580.992188 57.808594 577.617188 49.289062 569.832031 35.3125 C 560.671875 18.859375 556.359375 13.644531 551.503906 13.144531 C 547.65625 12.746094 544.632812 14.664062 540.566406 20.074219 C 534.804688 27.730469 532.140625 36.535156 531.875 48.785156 C 531.71875 55.90625 534.730469 72.753906 537.800781 81.957031 C 540.015625 88.578125 550.097656 113.902344 556.3125 128.425781 L 558.949219 134.59375 L 556.757812 148.605469 C 553.90625 166.855469 550.4375 184.867188 550.164062 182.847656 C 550.101562 182.375 549.636719 178.90625 549.136719 175.144531 C 547.113281 159.96875 542.492188 146.480469 534.515625 132.480469 C 526.121094 117.738281 519.167969 109.414062 503.289062 95.09375 C 492.476562 85.339844 489.699219 83.285156 487.335938 83.296875 C 484.398438 83.304688 483.652344 85.410156 484.734375 90.628906 C 485.269531 93.203125 485.667969 99.492188 485.632812 104.589844 C 485.554688 117.21875 486.128906 123.757812 488.28125 134.386719 C 493.917969 162.277344 506.433594 180.144531 529.148438 192.722656 C 542.605469 200.183594 544.878906 201.730469 545.113281 203.59375 C 545.484375 206.5625 539.011719 229.226562 531.507812 251.234375 C 524.996094 270.320312 508.539062 312.460938 507.21875 313.433594 C 506.964844 313.609375 506.558594 310.773438 506.324219 307.125 C 506.082031 303.46875 505.042969 295.664062 504.007812 289.785156 C 498.804688 260.238281 486.21875 236.65625 459.257812 205.894531 C 448.574219 193.710938 446.585938 191.972656 443.898438 192.449219 C 440.449219 193.070312 439.6875 195.472656 440.121094 204.3125 C 440.339844 208.753906 440.492188 216.707031 440.460938 221.976562 C 440.339844 242.386719 445.027344 255.816406 456.878906 269.027344 C 458.867188 271.246094 465.5625 277.816406 471.757812 283.636719 C 484.507812 295.605469 490.445312 302.007812 496.246094 310.050781 L 500.253906 315.605469 L 500.347656 321.640625 C 500.472656 329.277344 500.375 329.695312 496.59375 337.808594 C 470.757812 393.25 439.191406 441.867188 402.617188 482.539062 C 394.863281 491.152344 381.777344 504.433594 376.71875 508.804688 L 372.238281 512.671875 L 376.296875 506.179688 C 381.25 498.285156 385.375 488.410156 388.589844 476.765625 C 390.457031 469.996094 391.15625 468.253906 392.109375 467.925781 C 394.789062 467.019531 403.46875 461.707031 408.230469 458.066406 C 416.789062 451.515625 421.023438 447.027344 427.714844 437.472656 C 436.082031 425.5 439.792969 416.839844 446.882812 392.71875 C 452.09375 374.980469 453.1875 372.113281 456.78125 367.019531 C 459.46875 363.195312 459.738281 362.546875 459.222656 361.148438 C 458.90625 360.277344 458.273438 359.3125 457.816406 358.996094 C 455.105469 357.113281 444.316406 362.613281 435.019531 370.621094 C 420.101562 383.46875 407.238281 401.523438 398.5 421.90625 L 396.085938 427.519531 L 396.042969 425.164062 C 395.777344 410.53125 392.875 393.484375 388.285156 379.601562 C 385.191406 370.253906 379.632812 356.878906 376.234375 350.597656 L 374.171875 346.789062 L 375.746094 341.484375 C 378.8125 331.203125 377.640625 320.398438 372.496094 311.355469 C 368.679688 304.640625 365.554688 301.425781 358.207031 296.636719 C 355.300781 294.738281 352.484375 294.890625 350.992188 297.039062 C 349.589844 299.050781 349.503906 304.332031 350.761719 310.644531 L 351.824219 315.988281 L 345.121094 311.371094 C 337.941406 306.425781 332.976562 304.289062 329.34375 304.570312 C 327.863281 304.683594 327.441406 304.972656 327.574219 305.757812 C 327.710938 306.554688 328.335938 306.953125 330.257812 307.484375 C 331.914062 307.941406 335.242188 309.875 340.082031 313.289062 C 347.882812 318.738281 351.746094 322.496094 357.136719 329.890625 C 360.085938 333.945312 367.5 346.316406 368.167969 348.3125 C 368.375 348.941406 369.308594 350.859375 370.246094 352.585938 C 374.078125 359.65625 383.449219 383.875 381.136719 380.742188 C 378.984375 377.820312 374.996094 373.605469 371.042969 370.085938 C 361.070312 361.199219 347.988281 356.027344 328.285156 353.171875 C 320.210938 352.003906 317.917969 352.242188 316.726562 354.363281 C 315.875 355.886719 316.003906 356.59375 317.636719 359.542969 C 326.675781 375.8125 335.582031 383.902344 355.019531 393.484375 C 373.03125 402.363281 381.636719 408.589844 386.167969 416.03125 C 388.808594 420.363281 388.996094 421.269531 388.882812 429.171875 C 388.671875 443.90625 386.46875 457.617188 381.476562 475.3125 C 377.011719 491.140625 374.960938 495.539062 366.179688 508.070312 C 355.351562 523.515625 346.605469 532.316406 343.832031 530.5625 C 343.617188 530.425781 342.8125 530.640625 342.039062 531.035156 C 340.925781 531.597656 340.574219 532.199219 340.324219 533.914062 C 340.148438 535.105469 339.855469 536.59375 339.664062 537.21875 C 339.472656 537.84375 339.714844 538.921875 340.203125 539.625 L 340.199219 539.625 C 341.570312 541.597656 342.597656 541.507812 346.699219 539.039062 C 348.792969 537.78125 350.933594 536.855469 351.441406 536.976562 C 352.980469 537.355469 368.609375 533.285156 377.785156 530.117188 C 399.617188 522.574219 424.683594 508.824219 447.386719 491.953125 C 464.898438 478.9375 477.042969 467.941406 517.542969 428.410156 L 527.578125 418.625 L 534.179688 416.28125 C 547.332031 411.632812 557.941406 404.832031 569.917969 393.355469 C 581.851562 381.917969 583.429688 379.527344 580.449219 377.457031 L 579.214844 376.601562 L 582.195312 374.59375 C 587.8125 370.8125 603.875 362.289062 611.449219 359.078125 C 633.433594 349.726562 654.144531 344.765625 677.074219 343.359375 C 681.386719 343.09375 684.433594 342.550781 684.84375 341.960938 C 685.640625 340.816406 685.757812 340.910156 682.410156 339.992188 Z M 569.003906 303.914062 C 579.542969 299.625 588.171875 299.121094 608.011719 301.628906 L 617.648438 302.847656 L 614.683594 303.847656 C 602.074219 308.109375 589.566406 310.15625 576.492188 310.09375 C 572.445312 310.078125 566.644531 310.125 563.59375 310.214844 C 560.546875 310.292969 557.617188 310.328125 557.082031 310.292969 C 555.777344 310.207031 562.863281 306.410156 569.003906 303.914062 Z M 661.046875 238.199219 C 661.578125 237.71875 665.367188 233.53125 669.46875 228.90625 C 676.835938 220.585938 685.40625 211.972656 687.1875 211.109375 C 688.664062 210.394531 685.3125 217.835938 682.191406 222.21875 C 680.558594 224.503906 677.726562 227.515625 675.34375 229.503906 C 671.851562 232.40625 658.339844 240.628906 661.046875 238.199219 Z M 566.632812 111.984375 C 567.246094 98.539062 566.917969 87.445312 565.675781 79.085938 C 564.226562 69.351562 560.859375 60.292969 558.980469 61.105469 C 558.632812 61.25 559.027344 65.300781 559.855469 70.089844 C 560.679688 74.882812 561.488281 82.347656 561.644531 86.667969 C 561.925781 94.371094 561.390625 110.914062 560.691406 116.199219 C 560.496094 117.664062 560.277344 118.816406 560.199219 118.761719 C 559.710938 118.394531 545.863281 82.726562 544.390625 78.046875 C 540.308594 65.070312 538.578125 50.570312 539.929688 40.726562 C 541.011719 32.878906 545.503906 23.320312 549.335938 20.703125 C 550.726562 19.746094 551 19.808594 552.703125 21.449219 C 557.449219 26.011719 569.632812 47.648438 573.207031 57.847656 C 577.691406 70.648438 578.796875 86.074219 576.046875 97.449219 C 574.835938 102.4375 571.125 111.898438 567.625 118.886719 L 566.1875 121.769531 Z M 532.628906 187.835938 C 526.09375 183.34375 519.125 178.238281 517.136719 176.496094 C 504.140625 165.113281 494.617188 143.476562 492.625 120.824219 C 491.789062 111.351562 492.015625 95.09375 492.972656 95.488281 C 494.710938 96.195312 510.921875 111.875 515.546875 117.324219 C 524.351562 127.683594 531.71875 140.167969 536.769531 153.273438 C 539.738281 160.96875 543.050781 177.140625 543.898438 188.113281 L 544.507812 196.003906 Z M 545.320312 244.871094 C 557.203125 230.535156 577.699219 215.671875 596.554688 207.722656 C 599.800781 206.351562 608.4375 203.09375 615.742188 200.480469 L 629.007812 195.734375 L 620.628906 207.121094 C 604.871094 228.527344 594.824219 237.167969 580.765625 241.40625 C 579.054688 241.925781 569.625 243.828125 559.8125 245.632812 L 541.976562 248.917969 Z M 499.089844 304.105469 C 498.964844 304.292969 498.808594 304.390625 498.761719 304.308594 C 498.703125 304.238281 498.121094 303.304688 497.46875 302.238281 C 494.113281 296.773438 486.558594 288.671875 469.863281 272.625 C 461.289062 264.386719 457.570312 259.910156 453.933594 253.429688 C 450.148438 246.691406 447.859375 238.5625 447.484375 230.574219 C 447.140625 223.050781 447.09375 203.691406 447.421875 203.605469 C 447.996094 203.445312 462.246094 220.429688 468.234375 228.386719 C 485.664062 251.578125 493.5625 269.34375 497.855469 294.996094 C 498.667969 299.824219 499.226562 303.921875 499.089844 304.105469 Z M 370.117188 339.152344 C 369.886719 338.96875 367.859375 335.988281 365.601562 332.527344 C 360.96875 325.429688 358.738281 319.320312 356.886719 308.6875 L 355.71875 302.015625 L 357.804688 303.464844 C 361 305.699219 365.140625 310.605469 367.484375 314.9375 C 370.132812 319.816406 371.746094 328.945312 371.042969 335.03125 L 371.035156 335.039062 C 370.75 337.480469 370.324219 339.347656 370.117188 339.152344 Z M 376.894531 397.90625 C 370.734375 393.648438 366.140625 390.9375 360.011719 387.964844 L 360.019531 387.953125 C 350.414062 383.292969 340.574219 377.136719 336.472656 373.210938 C 333.441406 370.3125 328.921875 364.613281 327.585938 362.003906 C 326.769531 360.414062 326.890625 360.40625 333.351562 361.511719 C 345.484375 363.582031 354.082031 366.851562 362.25 372.53125 C 371.621094 379.035156 377.058594 385.957031 383.300781 399.308594 L 385.371094 403.746094 Z M 392.953125 460.929688 C 393.070312 459.089844 399.578125 438.976562 402.480469 431.460938 C 408.300781 416.398438 411.042969 411.214844 420.179688 398.070312 C 428.746094 385.746094 431.152344 382.976562 440.140625 375.113281 C 447.5 368.664062 447.964844 368.578125 445.910156 374.058594 C 444.972656 376.570312 442.519531 384.277344 440.464844 391.179688 C 433.703125 413.914062 430.097656 422.335938 422.328125 433.511719 C 416.285156 442.210938 411.4375 447.175781 400.632812 455.746094 C 393.023438 461.78125 392.886719 461.871094 392.953125 460.929688 Z M 505.019531 430.648438 C 466.367188 468.496094 451.992188 480.933594 429.90625 495.617188 C 412.570312 507.144531 396.839844 515.445312 380.320312 521.792969 C 375.769531 523.542969 370.765625 525.308594 369.203125 525.714844 L 366.363281 526.453125 L 371.371094 522.554688 C 387.144531 510.273438 407.007812 489.867188 425.472656 466.980469 C 428.894531 462.738281 432.296875 458.886719 433.023438 458.414062 C 433.761719 457.945312 435.339844 456.144531 436.546875 454.410156 C 439.011719 450.863281 447.066406 443.316406 453.085938 438.914062 C 461.726562 432.589844 474.183594 427.238281 485.855469 424.816406 C 492.1875 423.503906 514.453125 420.695312 514.515625 421.195312 C 514.519531 421.273438 510.246094 425.53125 505.019531 430.648438 Z M 564.167969 390.421875 C 562.40625 391.867188 559.132812 394.570312 556.894531 396.429688 C 545.730469 405.703125 533.6875 411.765625 521.714844 414.140625 C 519.1875 414.644531 510.335938 415.824219 502.066406 416.757812 C 486.476562 418.519531 478.300781 420.25 469.757812 423.59375 C 467.015625 424.664062 461.882812 427.03125 458.34375 428.851562 L 451.917969 432.171875 L 458.738281 422.933594 C 475.070312 400.773438 493.960938 387.609375 513.871094 384.496094 C 522.433594 383.160156 530.109375 383.355469 543.660156 385.253906 C 549.304688 386.042969 556.101562 386.574219 558.765625 386.4375 C 564.410156 386.136719 566.746094 386.34375 567.121094 387.1875 C 567.253906 387.523438 565.933594 388.976562 564.167969 390.421875 Z M 564.167969 390.421875 " fill-opacity="1" fill-rule="nonzero"/></g></g></g></g></svg>