<svg xmlns="http://www.w3.org/2000/svg" xmlns:xlink="http://www.w3.org/1999/xlink" width="2400" zoomAndPan="magnify" viewBox="0 0 1800 1199.999942" height="1600" preserveAspectRatio="xMidYMid meet" version="1.0"><defs><filter x="0%" y="0%" width="100%" height="100%" id="b62f6b19d3"><feColorMatrix values="0 0 0 0 1 0 0 0 0 1 0 0 0 0 1 0 0 0 1 0" color-interpolation-filters="sRGB"/></filter><clipPath id="b9b08bdcfa"><path d="M 892 187 L 1109.355469 187 L 1109.355469 410 L 892 410 Z M 892 187 " clip-rule="nonzero"/></clipPath><mask id="074812e855"><g filter="url(#b62f6b19d3)"><rect x="-180" width="2160" fill="#000000" y="-119.999994" height="1439.999931" fill-opacity="0.45"/></g></mask><clipPath id="ac18ead14c"><path d="M 0.398438 1 L 133.359375 1 L 133.359375 305.441406 L 0.398438 305.441406 Z M 0.398438 1 " clip-rule="nonzero"/></clipPath><clipPath id="34338bdbd0"><rect x="0" width="134" y="0" height="306"/></clipPath><mask id="9e124f5d13"><g filter="url(#b62f6b19d3)"><rect x="-180" width="2160" fill="#000000" y="-119.999994" height="1439.999931" fill-opacity="0.45"/></g></mask><clipPath id="1fc8a2bdf0"><path d="M 1 1 L 121 1 L 121 133.839844 L 1 133.839844 Z M 1 1 " clip-rule="nonzero"/></clipPath><clipPath id="46029bada6"><rect x="0" width="122" y="0" height="134"/></clipPath><clipPath id="3b1469c721"><path d="M 690.855469 483 L 862 483 L 862 697 L 690.855469 697 Z M 690.855469 483 " clip-rule="nonzero"/></clipPath><mask id="392c07e92a"><g filter="url(#b62f6b19d3)"><rect x="-180" width="2160" fill="#000000" y="-119.999994" height="1439.999931" fill-opacity="0.45"/></g></mask><clipPath id="0ff0dfc35c"><path d="M 0.855469 1 L 171.839844 1 L 171.839844 213.71875 L 0.855469 213.71875 Z M 0.855469 1 " clip-rule="nonzero"/></clipPath><clipPath id="f3efb5b4eb"><rect x="0" width="172" y="0" height="214"/></clipPath><mask id="b5d416eb18"><g filter="url(#b62f6b19d3)"><rect x="-180" width="2160" fill="#000000" y="-119.999994" height="1439.999931" fill-opacity="0.45"/></g></mask><clipPath id="b470d8c4d0"><path d="M 0.28125 0.199219 L 139 0.199219 L 139 125.960938 L 0.28125 125.960938 Z M 0.28125 0.199219 " clip-rule="nonzero"/></clipPath><clipPath id="5701ee5ba2"><rect x="0" width="139" y="0" height="126"/></clipPath><mask id="7656bf7c17"><g filter="url(#b62f6b19d3)"><rect x="-180" width="2160" fill="#000000" y="-119.999994" height="1439.999931" fill-opacity="0.45"/></g></mask><clipPath id="023ec2e088"><path d="M 0.71875 0.480469 L 141 0.480469 L 141 272 L 0.71875 272 Z M 0.71875 0.480469 " clip-rule="nonzero"/></clipPath><clipPath id="b0b30548ec"><rect x="0" width="142" y="0" height="273"/></clipPath><mask id="1590d96ed2"><g filter="url(#b62f6b19d3)"><rect x="-180" width="2160" fill="#000000" y="-119.999994" height="1439.999931" fill-opacity="0.45"/></g></mask><clipPath id="bd7f08c1b2"><path d="M 1 0.71875 L 202.878906 0.71875 L 202.878906 192 L 1 192 Z M 1 0.71875 " clip-rule="nonzero"/></clipPath><clipPath id="16b0477940"><rect x="0" width="203" y="0" height="192"/></clipPath><mask id="79c636afc6"><g filter="url(#b62f6b19d3)"><rect x="-180" width="2160" fill="#000000" y="-119.999994" height="1439.999931" fill-opacity="0.45"/></g></mask><clipPath id="a1c76af5bd"><path d="M 1 0.160156 L 194.558594 0.160156 L 194.558594 220 L 1 220 Z M 1 0.160156 " clip-rule="nonzero"/></clipPath><clipPath id="e31326e53f"><rect x="0" width="195" y="0" height="220"/></clipPath><mask id="b9f4cb59bb"><g filter="url(#b62f6b19d3)"><rect x="-180" width="2160" fill="#000000" y="-119.999994" height="1439.999931" fill-opacity="0.45"/></g></mask><clipPath id="3708884359"><path d="M 0 0.160156 L 159.839844 0.160156 L 159.839844 142.71875 L 0 142.71875 Z M 0 0.160156 " clip-rule="nonzero"/></clipPath><clipPath id="59c0dd2e6b"><rect x="0" width="160" y="0" height="143"/></clipPath><mask id="8fc93cd498"><g filter="url(#b62f6b19d3)"><rect x="-180" width="2160" fill="#000000" y="-119.999994" height="1439.999931" fill-opacity="0.33"/></g></mask><clipPath id="d5c23357e6"><path d="M 1 0.519531 L 79 0.519531 L 79 150.519531 L 1 150.519531 Z M 1 0.519531 " clip-rule="nonzero"/></clipPath><clipPath id="158947cf5b"><rect x="0" width="80" y="0" height="151"/></clipPath><mask id="5d946a3db7"><g filter="url(#b62f6b19d3)"><rect x="-180" width="2160" fill="#000000" y="-119.999994" height="1439.999931" fill-opacity="0.33"/></g></mask><clipPath id="2f18fd71d3"><path d="M 0.519531 0.238281 L 85.71875 0.238281 L 85.71875 124.558594 L 0.519531 124.558594 Z M 0.519531 0.238281 " clip-rule="nonzero"/></clipPath><clipPath id="bd77daa371"><rect x="0" width="86" y="0" height="125"/></clipPath><mask id="aba524711c"><g filter="url(#b62f6b19d3)"><rect x="-180" width="2160" fill="#000000" y="-119.999994" height="1439.999931" fill-opacity="0.33"/></g></mask><clipPath id="e8f9a84211"><path d="M 0.320312 0.519531 L 106 0.519531 L 106 86.441406 L 0.320312 86.441406 Z M 0.320312 0.519531 " clip-rule="nonzero"/></clipPath><clipPath id="3d5778a547"><rect x="0" width="107" y="0" height="87"/></clipPath><mask id="229b4f5e9e"><g filter="url(#b62f6b19d3)"><rect x="-180" width="2160" fill="#000000" y="-119.999994" height="1439.999931" fill-opacity="0.33"/></g></mask><clipPath id="6a532429d8"><path d="M 0.800781 0.441406 L 55.519531 0.441406 L 55.519531 39.558594 L 0.800781 39.558594 Z M 0.800781 0.441406 " clip-rule="nonzero"/></clipPath><clipPath id="dd8d89a106"><rect x="0" width="56" y="0" height="40"/></clipPath><mask id="4f06a60c95"><g filter="url(#b62f6b19d3)"><rect x="-180" width="2160" fill="#000000" y="-119.999994" height="1439.999931" fill-opacity="0.33"/></g></mask><clipPath id="3242bfacd9"><path d="M 0 0.28125 L 96 0.28125 L 96 85.71875 L 0 85.71875 Z M 0 0.28125 " clip-rule="nonzero"/></clipPath><clipPath id="004e15f5f4"><rect x="0" width="97" y="0" height="86"/></clipPath><mask id="00703b875d"><g filter="url(#b62f6b19d3)"><rect x="-180" width="2160" fill="#000000" y="-119.999994" height="1439.999931" fill-opacity="0.33"/></g></mask><clipPath id="f21592484b"><path d="M 1 0.28125 L 52 0.28125 L 52 34.839844 L 1 34.839844 Z M 1 0.28125 " clip-rule="nonzero"/></clipPath><clipPath id="31537ffd39"><rect x="0" width="53" y="0" height="35"/></clipPath><mask id="97c23722e6"><g filter="url(#b62f6b19d3)"><rect x="-180" width="2160" fill="#000000" y="-119.999994" height="1439.999931" fill-opacity="0.33"/></g></mask><clipPath id="73e2c36ce9"><path d="M 1 0.679688 L 132.800781 0.679688 L 132.800781 107.71875 L 1 107.71875 Z M 1 0.679688 " clip-rule="nonzero"/></clipPath><clipPath id="744cc09e5e"><rect x="0" width="133" y="0" height="108"/></clipPath><mask id="5bb527b3e0"><g filter="url(#b62f6b19d3)"><rect x="-180" width="2160" fill="#000000" y="-119.999994" height="1439.999931" fill-opacity="0.33"/></g></mask><clipPath id="972df3cf9a"><path d="M 0.761719 0.441406 L 77 0.441406 L 77 60.679688 L 0.761719 60.679688 Z M 0.761719 0.441406 " clip-rule="nonzero"/></clipPath><clipPath id="bdad4b15fd"><rect x="0" width="78" y="0" height="61"/></clipPath></defs><path fill="#c0dbba" d="M 924.519531 301.285156 C 926.761719 252.296875 937.265625 202.675781 962.976562 160.917969 C 997.378906 105.046875 1058.101562 63.859375 1073.632812 0.113281 C 1066.40625 78.839844 1034.164062 155.078125 982.710938 215.101562 C 958.75 243.054688 929.585938 269.714844 921.921875 305.726562 " fill-opacity="1" fill-rule="nonzero"/><g clip-path="url(#b9b08bdcfa)"><path fill="#a9c4a3" d="M 892.464844 405.050781 C 904.40625 357.578125 932.5 314.328125 971.011719 284.117188 C 1015.425781 249.28125 1073.234375 231.0625 1109.15625 187.523438 C 1073.15625 246.1875 1028.769531 302.136719 968.75 335.828125 C 952.53125 344.9375 935.238281 352.378906 920.476562 363.703125 C 905.71875 375.023438 893.382812 391.285156 892.230469 409.851562 " fill-opacity="1" fill-rule="nonzero"/></g><path fill="#a9c4a3" d="M 868.441406 498.945312 C 877.007812 463.136719 880.03125 424.457031 866.359375 390.269531 C 860.695312 376.109375 852.359375 363.203125 843.917969 350.503906 C 803.601562 289.859375 757.800781 226.242188 757.90625 153.421875 C 748.996094 192.007812 742.644531 231.761719 746.796875 271.148438 C 750.953125 310.53125 766.558594 349.839844 795.898438 376.441406 C 812.304688 391.316406 832.351562 401.753906 848.660156 416.738281 C 864.96875 431.71875 877.6875 453.792969 872.652344 475.359375 " fill-opacity="1" fill-rule="nonzero"/><path fill="#c0dbba" d="M 861.714844 554.710938 C 864.75 518.523438 866.402344 477.867188 842.308594 450.695312 C 833.8125 441.113281 822.796875 434.167969 811.78125 427.640625 C 786.503906 412.652344 758.125 396.496094 749.339844 368.449219 C 753.0625 413.296875 780.554688 455.484375 820.078125 477 C 830.929688 482.90625 842.761719 487.457031 851.921875 495.75 C 861.082031 504.046875 867.023438 517.636719 861.984375 528.917969 " fill-opacity="1" fill-rule="nonzero"/><path fill="#c0dbba" d="M 863.480469 627.191406 C 864.328125 574.777344 905.445312 532.1875 947.695312 501.152344 C 989.945312 470.121094 1037.835938 442.808594 1064.34375 397.582031 C 1051.109375 464.125 1007.992188 524.136719 949.148438 557.910156 C 937.488281 564.601562 925.257812 570.3125 914.003906 577.660156 C 907.621094 581.847656 901.613281 586.519531 895.976562 591.671875 C 890.339844 596.824219 885.148438 602.390625 880.402344 608.371094 C 875.65625 614.351562 871.417969 620.671875 867.679688 627.332031 C 863.945312 633.992188 860.761719 640.902344 858.132812 648.070312 " fill-opacity="1" fill-rule="nonzero"/><path fill="#a9c4a3" d="M 860.605469 691.714844 C 859.9375 673.613281 874.179688 658.84375 887.390625 646.449219 C 905.464844 629.492188 923.839844 612.320312 945.816406 600.867188 C 955.988281 595.5625 966.808594 591.558594 976.871094 586.046875 C 994.359375 576.476562 1009.078125 562.648438 1023.585938 548.972656 C 1014.421875 577.464844 992.933594 600.023438 972.105469 621.515625 C 955.628906 638.511719 938.648438 655.875 917.199219 665.886719 C 897.921875 674.886719 874.082031 678.835938 862.59375 696.742188 " fill-opacity="1" fill-rule="nonzero"/><path fill="#a9c4a3" d="M 861.023438 696.78125 C 852.839844 652.378906 828.515625 611.128906 793.625 582.476562 C 779.542969 570.914062 763.890625 561.390625 749.6875 549.984375 C 743.511719 545.011719 737.632812 539.707031 732.058594 534.066406 C 726.480469 528.429688 721.242188 522.492188 716.335938 516.261719 C 711.433594 510.03125 706.894531 503.539062 702.726562 496.792969 C 698.558594 490.046875 694.78125 483.089844 691.402344 475.914062 C 698.691406 499.726562 705.976562 523.535156 713.265625 547.347656 C 723.398438 580.453125 734.894531 615.621094 761.964844 637.207031 C 778.636719 650.496094 799.476562 657.121094 818.59375 666.554688 C 837.707031 675.992188 856.550781 690.039062 862.367188 710.546875 " fill-opacity="1" fill-rule="nonzero"/><path fill="#c0dbba" d="M 866.734375 839.953125 C 867.410156 801.523438 850.695312 763.117188 822.105469 737.425781 C 789.113281 707.773438 741.871094 694.613281 715.675781 658.816406 C 730.0625 679.382812 740.632812 702.390625 754.617188 723.238281 C 768.601562 744.082031 787.027344 763.351562 810.878906 771.167969 C 821.378906 774.605469 832.59375 775.714844 842.832031 779.867188 C 853.070312 784.019531 862.726562 792.410156 863.769531 803.410156 " fill-opacity="1" fill-rule="nonzero"/><g mask="url(#074812e855)"><g transform="matrix(1, 0, 0, 1, 746, 158)"><g clip-path="url(#34338bdbd0)"><g clip-path="url(#ac18ead14c)"><path fill="#945e0a" d="M 8.710938 1.566406 C -1.769531 32.292969 0.550781 68.078125 1.078125 100.078125 C 1.519531 126.910156 3.785156 153.769531 15.253906 178.425781 C 27.324219 204.371094 48.632812 221.6875 71.117188 238.335938 C 82.335938 246.640625 93.726562 254.9375 103.875 264.550781 C 116.113281 276.148438 123.175781 289.117188 130.066406 304.289062 C 130.722656 305.742188 133.214844 305.597656 133.03125 303.734375 C 130.695312 280.066406 110.371094 258.492188 93.347656 243.398438 C 71.808594 224.296875 46.085938 208.160156 30.824219 183.078125 C 16.34375 159.289062 12.457031 130.039062 10.105469 102.777344 C 7.171875 68.804688 6.222656 35.769531 10.011719 1.851562 C 10.042969 1.675781 10.007812 1.511719 9.910156 1.363281 C 9.808594 1.214844 9.671875 1.125 9.496094 1.085938 C 9.324219 1.046875 9.160156 1.074219 9.007812 1.167969 C 8.855469 1.261719 8.757812 1.394531 8.710938 1.570312 Z M 8.710938 1.566406 " fill-opacity="1" fill-rule="nonzero"/></g></g></g></g><g mask="url(#9e124f5d13)"><g transform="matrix(1, 0, 0, 1, 745, 380)"><g clip-path="url(#46029bada6)"><g clip-path="url(#1fc8a2bdf0)"><path fill="#945e0a" d="M 1.355469 2.007812 C 3.601562 9.492188 8.800781 16 11.660156 23.367188 C 14.277344 30.101562 16.308594 37.054688 18.996094 43.761719 C 24.597656 57.746094 33.535156 69.527344 44.925781 79.335938 C 56.757812 89.523438 70.132812 96.957031 84.074219 103.824219 C 90.941406 107.210938 98.046875 110.382812 104.199219 115.011719 C 110.546875 119.785156 113.671875 125.773438 117.308594 132.601562 C 118.035156 133.964844 120.367188 133.511719 120.597656 132.007812 C 122.308594 120.753906 112.375 111.621094 104.03125 105.671875 C 90.253906 95.851562 74.636719 88.667969 60.550781 79.257812 C 44.320312 68.414062 32.347656 54.996094 24.382812 37.128906 C 19.449219 26.054688 14.628906 6.273438 2.296875 1.210938 C 2.03125 1.085938 1.789062 1.117188 1.566406 1.304688 C 1.34375 1.492188 1.269531 1.726562 1.351562 2.007812 Z M 1.355469 2.007812 " fill-opacity="1" fill-rule="nonzero"/></g></g></g></g><g clip-path="url(#3b1469c721)"><g mask="url(#392c07e92a)"><g transform="matrix(1, 0, 0, 1, 690, 483)"><g clip-path="url(#f3efb5b4eb)"><g clip-path="url(#0ff0dfc35c)"><path fill="#945e0a" d="M 0.945312 1.816406 C 4.425781 14.082031 9.101562 25.800781 11.996094 38.273438 C 14.902344 50.777344 17.289062 63.386719 20.84375 75.734375 C 24.03125 86.769531 28.339844 97.34375 33.773438 107.460938 C 39.207031 117.582031 45.644531 127.015625 53.085938 135.765625 C 68.5 153.925781 87.761719 168.015625 108.828125 179 C 118.875 184.238281 129.472656 188.269531 139.597656 193.339844 C 150.238281 198.667969 158.335938 206.40625 167.953125 213.113281 C 169.371094 214.101562 171.742188 212.570312 171.4375 210.875 C 167.761719 190.574219 141.253906 182.671875 125.03125 175.324219 C 113.902344 170.300781 103.261719 164.390625 93.113281 157.601562 C 82.964844 150.808594 73.449219 143.226562 64.558594 134.855469 C 45.570312 116.933594 33.046875 95.636719 25.683594 70.648438 C 19.09375 48.289062 16.453125 20.320312 1.96875 1.332031 C 1.890625 1.214844 1.78125 1.140625 1.644531 1.101562 C 1.511719 1.066406 1.378906 1.078125 1.25 1.140625 C 1.125 1.199219 1.03125 1.292969 0.972656 1.421875 C 0.917969 1.550781 0.90625 1.683594 0.945312 1.816406 Z M 0.945312 1.816406 " fill-opacity="1" fill-rule="nonzero"/></g></g></g></g></g><g mask="url(#b5d416eb18)"><g transform="matrix(1, 0, 0, 1, 719, 667)"><g clip-path="url(#5701ee5ba2)"><g clip-path="url(#b470d8c4d0)"><path fill="#945e0a" d="M 0.957031 2.234375 C 17.117188 30.679688 34.703125 59.382812 60.214844 80.507812 C 72.058594 90.3125 85.191406 97.097656 99.175781 103.292969 C 105.957031 106.300781 112.78125 109.367188 119.050781 113.363281 C 125.136719 117.238281 130.496094 122.328125 137 125.4375 C 137.082031 125.476562 137.167969 125.507812 137.257812 125.523438 C 137.347656 125.542969 137.4375 125.550781 137.53125 125.542969 C 137.621094 125.539062 137.710938 125.523438 137.796875 125.492188 C 137.886719 125.464844 137.96875 125.425781 138.042969 125.378906 C 138.121094 125.328125 138.191406 125.269531 138.253906 125.199219 C 138.316406 125.132812 138.367188 125.058594 138.410156 124.976562 C 138.453125 124.898438 138.484375 124.8125 138.503906 124.722656 C 138.523438 124.632812 138.535156 124.542969 138.53125 124.449219 C 139.054688 112.117188 126.121094 104.226562 116.328125 99.628906 C 101.742188 92.785156 86.410156 88.425781 72.773438 79.570312 C 43.058594 60.277344 22.855469 29.488281 2.878906 1 C 2.03125 -0.210938 0.234375 0.957031 0.957031 2.234375 Z M 0.957031 2.234375 " fill-opacity="1" fill-rule="nonzero"/></g></g></g></g><g mask="url(#7656bf7c17)"><g transform="matrix(1, 0, 0, 1, 930, 6)"><g clip-path="url(#b0b30548ec)"><g clip-path="url(#023ec2e088)"><path fill="#945e0a" d="M 139.78125 1.234375 C 130.957031 52.632812 113.183594 102.269531 87.804688 147.828125 C 75.039062 170.742188 60.273438 192.351562 43.296875 212.359375 C 29.15625 229.027344 6.507812 246.839844 1.054688 268.78125 C 0.480469 271.09375 3.75 272.917969 5.296875 270.980469 C 13.367188 260.878906 20.074219 250 28.695312 240.253906 C 37.4375 230.371094 45.972656 220.445312 53.902344 209.890625 C 68.835938 190.011719 82.476562 169.039062 94.214844 147.117188 C 118.476562 101.800781 133.929688 52.363281 140.894531 1.476562 C 140.992188 0.757812 139.90625 0.503906 139.777344 1.234375 Z M 139.78125 1.234375 " fill-opacity="1" fill-rule="nonzero"/></g></g></g></g><g mask="url(#1590d96ed2)"><g transform="matrix(1, 0, 0, 1, 892, 204)"><g clip-path="url(#16b0477940)"><g clip-path="url(#bd7f08c1b2)"><path fill="#945e0a" d="M 201.128906 1.199219 C 174.023438 42.890625 141.164062 79.5 101.722656 109.863281 C 83.488281 123.898438 63.648438 134.808594 44.304688 147.113281 C 27.707031 157.667969 9.113281 170.523438 1.261719 189.296875 C 0.605469 190.871094 2.667969 192.683594 3.886719 191.144531 C 18.703125 172.445312 36.125 160.683594 56.566406 148.816406 C 77.03125 136.9375 97.074219 124.542969 115.347656 109.417969 C 151.050781 79.875 181.308594 43.152344 202.308594 1.816406 C 202.703125 1.039062 201.585938 0.492188 201.128906 1.199219 Z M 201.128906 1.199219 " fill-opacity="1" fill-rule="nonzero"/></g></g></g></g><g mask="url(#79c636afc6)"><g transform="matrix(1, 0, 0, 1, 866, 404)"><g clip-path="url(#e31326e53f)"><g clip-path="url(#a1c76af5bd)"><path fill="#945e0a" d="M 193.890625 0.460938 C 184.4375 24.769531 174.878906 48.660156 161.058594 70.910156 C 147.03125 93.421875 130.101562 113.480469 110.269531 131.09375 C 90.710938 148.511719 69.238281 161.605469 46.644531 174.597656 C 29.789062 184.285156 4.46875 197.699219 1.300781 218.835938 C 1.265625 219.023438 1.289062 219.203125 1.375 219.371094 C 1.457031 219.542969 1.585938 219.671875 1.753906 219.757812 C 1.921875 219.847656 2.097656 219.875 2.285156 219.84375 C 2.472656 219.816406 2.632812 219.734375 2.769531 219.597656 C 12.289062 211.34375 19.675781 201.457031 30.023438 193.972656 C 39.972656 186.777344 50.808594 180.933594 61.492188 174.933594 C 83.386719 162.632812 103.914062 148.371094 121.828125 130.683594 C 156.582031 96.375 186.890625 49.609375 194.246094 0.589844 C 194.277344 0.394531 193.976562 0.25 193.890625 0.460938 Z M 193.890625 0.460938 " fill-opacity="1" fill-rule="nonzero"/></g></g></g></g><g mask="url(#b9f4cb59bb)"><g transform="matrix(1, 0, 0, 1, 864, 554)"><g clip-path="url(#59c0dd2e6b)"><g clip-path="url(#3708884359)"><path fill="#945e0a" d="M 158.53125 0.949219 C 137.367188 35.261719 110.679688 66.539062 78.738281 91.257812 C 63.222656 103.269531 47.210938 115.132812 27.691406 119.234375 C 18.414062 121.183594 -4.453125 127.242188 1.046875 141.367188 C 1.421875 142.328125 2.886719 142.90625 3.617188 141.925781 C 5.863281 138.898438 6.898438 135.199219 9.628906 132.515625 C 13.96875 128.242188 20.351562 126.820312 26.097656 125.589844 C 34.296875 123.832031 42.011719 122.023438 49.53125 118.191406 C 65.371094 110.117188 79.664062 98.488281 92.914062 86.746094 C 120.257812 62.507812 142.804688 33.949219 159.542969 1.480469 C 159.882812 0.820312 158.914062 0.328125 158.53125 0.949219 Z M 158.53125 0.949219 " fill-opacity="1" fill-rule="nonzero"/></g></g></g></g><g mask="url(#8fc93cd498)"><g transform="matrix(1, 0, 0, 1, 765, 233)"><g clip-path="url(#158947cf5b)"><g clip-path="url(#d5c23357e6)"><path fill="#ffffff" d="M 1.109375 1.8125 C 5.695312 30.089844 12.300781 58.070312 27.320312 82.824219 C 34.324219 94.371094 42.757812 104.984375 50.855469 115.773438 C 59.199219 126.890625 66.878906 138.5625 75.253906 149.613281 C 76.351562 151.058594 79.214844 150.570312 78.929688 148.421875 C 75.636719 123.320312 55.382812 101.375 41.316406 81.503906 C 23.980469 57.003906 16.0625 27.914062 2.683594 1.304688 C 2.308594 0.554688 0.972656 0.984375 1.105469 1.8125 Z M 1.109375 1.8125 " fill-opacity="1" fill-rule="nonzero"/></g></g></g></g><g mask="url(#5d946a3db7)"><g transform="matrix(1, 0, 0, 1, 953, 78)"><g clip-path="url(#bd77daa371)"><g clip-path="url(#2f18fd71d3)"><path fill="#ffffff" d="M 82.007812 1.269531 C 70.265625 23.4375 52.554688 39.621094 35.449219 57.574219 C 27.335938 66.085938 19.328125 75.214844 14.140625 85.863281 C 8.359375 97.722656 4.492188 110.824219 0.957031 123.488281 C 0.707031 124.386719 1.925781 124.652344 2.375 124.003906 C 17.808594 101.628906 33.136719 79.28125 51.058594 58.789062 C 65.394531 42.394531 81.234375 24.613281 85.375 2.492188 C 85.746094 0.507812 82.980469 -0.570312 82.007812 1.269531 Z M 82.007812 1.269531 " fill-opacity="1" fill-rule="nonzero"/></g></g></g></g><g mask="url(#aba524711c)"><g transform="matrix(1, 0, 0, 1, 946, 245)"><g clip-path="url(#3d5778a547)"><g clip-path="url(#e8f9a84211)"><path fill="#ffffff" d="M 103.808594 0.820312 C 82.914062 13.199219 62.085938 25.648438 41.941406 39.21875 C 23.902344 51.371094 11.046875 65.652344 0.792969 84.800781 C 0.25 85.8125 1.566406 86.5625 2.335938 85.886719 C 35.496094 56.757812 70.960938 30.824219 105.144531 2.902344 C 106.355469 1.914062 105.210938 -0.0117188 103.808594 0.820312 Z M 103.808594 0.820312 " fill-opacity="1" fill-rule="nonzero"/></g></g></g></g><g mask="url(#229b4f5e9e)"><g transform="matrix(1, 0, 0, 1, 784, 421)"><g clip-path="url(#dd8d89a106)"><g clip-path="url(#6a532429d8)"><path fill="#ffffff" d="M 1.472656 3.207031 C 11.265625 10.09375 20.777344 17.425781 30.339844 24.640625 C 37.253906 29.855469 43.855469 36.875 52.316406 39.207031 C 54.410156 39.785156 56.066406 37.179688 54.925781 35.453125 C 49.863281 27.785156 39.945312 23.328125 32.304688 18.523438 C 22.558594 12.394531 12.566406 6.804688 2.625 1.015625 C 1.210938 0.191406 0.214844 2.320312 1.472656 3.207031 Z M 1.472656 3.207031 " fill-opacity="1" fill-rule="nonzero"/></g></g></g></g><g mask="url(#4f06a60c95)"><g transform="matrix(1, 0, 0, 1, 726, 545)"><g clip-path="url(#004e15f5f4)"><g clip-path="url(#3242bfacd9)"><path fill="#ffffff" d="M 0.351562 1.464844 C 8.921875 20.050781 24.59375 31.882812 41.808594 42.175781 C 52.300781 48.449219 62.109375 54.980469 70.757812 63.699219 C 78.320312 71.316406 84.988281 79.054688 93.898438 85.210938 C 94.867188 85.882812 96.164062 84.640625 95.785156 83.621094 C 89.070312 65.570312 74.394531 51.898438 58.492188 41.59375 C 49.328125 35.65625 39.40625 31.140625 30.007812 25.625 C 19.054688 19.199219 9.863281 10.511719 1.714844 0.820312 C 1.222656 0.230469 -0.046875 0.601562 0.351562 1.464844 Z M 0.351562 1.464844 " fill-opacity="1" fill-rule="nonzero"/></g></g></g></g><g mask="url(#00703b875d)"><g transform="matrix(1, 0, 0, 1, 762, 707)"><g clip-path="url(#31537ffd39)"><g clip-path="url(#f21592484b)"><path fill="#ffffff" d="M 1.476562 1.300781 C 16.300781 12.308594 31.421875 26.976562 48.558594 34.183594 C 50.871094 35.152344 53.128906 32.34375 51.164062 30.476562 C 37.578125 17.59375 18.164062 9.722656 2.019531 0.527344 C 1.558594 0.269531 1.035156 0.976562 1.476562 1.300781 Z M 1.476562 1.300781 " fill-opacity="1" fill-rule="nonzero"/></g></g></g></g><g mask="url(#97c23722e6)"><g transform="matrix(1, 0, 0, 1, 898, 451)"><g clip-path="url(#744cc09e5e)"><g clip-path="url(#73e2c36ce9)"><path fill="#ffffff" d="M 129.289062 1.230469 C 106.492188 17.519531 82.996094 33.460938 61.269531 51.15625 C 51.265625 59.304688 41.914062 68.039062 32.265625 76.585938 C 21.710938 85.941406 9.777344 95.042969 1.3125 106.40625 C 1.203125 106.53125 1.152344 106.675781 1.148438 106.835938 C 1.148438 107 1.203125 107.144531 1.308594 107.273438 C 1.414062 107.398438 1.546875 107.472656 1.707031 107.5 C 1.871094 107.527344 2.019531 107.5 2.160156 107.417969 C 14.867188 101.078125 25.980469 91.054688 37.242188 82.492188 C 48.1875 74.167969 59.414062 66.316406 70.042969 57.5625 C 91.027344 40.289062 111.234375 22 131.964844 4.40625 C 133.773438 2.871094 131.207031 -0.140625 129.289062 1.230469 Z M 129.289062 1.230469 " fill-opacity="1" fill-rule="nonzero"/></g></g></g></g><g mask="url(#5bb527b3e0)"><g transform="matrix(1, 0, 0, 1, 905, 589)"><g clip-path="url(#bdad4b15fd)"><g clip-path="url(#972df3cf9a)"><path fill="#ffffff" d="M 75.675781 0.785156 C 51.714844 18.066406 13.054688 29.128906 1.054688 58.589844 C 0.5625 59.800781 1.746094 61.035156 2.953125 60.328125 C 17.46875 51.84375 29.078125 39.082031 43.175781 29.808594 C 55.746094 21.539062 68.523438 14.746094 76.625 1.652344 C 76.972656 1.089844 76.203125 0.402344 75.675781 0.785156 Z M 75.675781 0.785156 " fill-opacity="1" fill-rule="nonzero"/></g></g></g></g><path fill="#bfb199" d="M 993.429688 149.074219 C 915.902344 270.5 872.457031 410.484375 855.9375 553.023438 C 839.871094 691.621094 851.851562 832.660156 883.453125 968.28125 C 892.332031 1006.390625 902.648438 1044.121094 914.402344 1081.480469 C 920.34375 1100.449219 926.621094 1119.296875 933.453125 1137.960938 C 940.105469 1156.128906 946.015625 1174.957031 956.085938 1191.527344 C 961.171875 1199.894531 972.023438 1193.039062 970.410156 1184.726562 C 967.199219 1168.175781 960.570312 1152.542969 955.152344 1136.585938 C 949.535156 1120.058594 944.066406 1103.480469 938.746094 1086.847656 C 928.5 1054.722656 919.265625 1022.300781 911.035156 989.582031 C 894.472656 923.480469 882.109375 856.15625 874.988281 788.371094 C 860.398438 649.472656 868.269531 507.804688 904.582031 372.691406 C 915.023438 333.847656 927.804688 295.785156 942.921875 258.507812 C 958.039062 221.230469 975.382812 185.015625 994.945312 149.867188 C 995.492188 148.890625 994.011719 148.160156 993.429688 149.074219 Z M 993.429688 149.074219 " fill-opacity="1" fill-rule="nonzero"/></svg>