<svg xmlns="http://www.w3.org/2000/svg" xmlns:xlink="http://www.w3.org/1999/xlink" width="500" zoomAndPan="magnify" viewBox="0 0 375 74.999997" height="100" preserveAspectRatio="xMidYMid meet" version="1.0"><defs><clipPath id="0b04ebc6e3"><path d="M 52.363281 35 L 174 35 L 174 40 L 52.363281 40 Z M 52.363281 35 " clip-rule="nonzero"/></clipPath><clipPath id="59bd223d04"><path d="M 198 35 L 322.363281 35 L 322.363281 40 L 198 40 Z M 198 35 " clip-rule="nonzero"/></clipPath></defs><path fill="#f2e2b9" d="M 185.679688 24.207031 L 187.066406 33.347656 L 193.554688 26.769531 L 189.308594 34.980469 L 198.421875 33.476562 L 190.167969 37.621094 L 198.421875 41.765625 L 189.308594 40.261719 L 193.554688 48.46875 L 187.066406 41.894531 L 185.679688 51.03125 L 184.292969 41.894531 L 177.804688 48.46875 L 182.046875 40.261719 L 172.9375 41.765625 L 181.191406 37.621094 L 172.9375 33.476562 L 182.046875 34.980469 L 177.804688 26.769531 L 184.292969 33.347656 Z M 185.679688 24.207031 " fill-opacity="1" fill-rule="evenodd"/><path fill="#f2e2b9" d="M 154.378906 41.761719 C 154.632812 41.636719 154.851562 41.441406 155.109375 41.316406 C 155.234375 41.257812 155.375 41.234375 155.511719 41.214844 C 156.390625 41.078125 156.996094 41.511719 157.101562 41.589844 C 157.101562 41.589844 157.429688 41.875 157.429688 41.875 C 157.515625 41.992188 157.617188 42.101562 157.691406 42.222656 C 157.757812 42.335938 158.148438 42.972656 157.945312 43.839844 C 157.785156 44.523438 157.347656 44.902344 157.269531 44.972656 C 156.128906 45.953125 154.007812 46.785156 149.644531 45.824219 C 148.472656 45.566406 147.527344 45.273438 146.300781 44.84375 C 140.25 42.726562 140.265625 41.460938 127.792969 38.371094 C 127.644531 38.335938 127.636719 38.34375 127.507812 38.257812 C 127.246094 38.085938 127.191406 37.820312 127.183594 37.773438 C 127.117188 37.449219 127.273438 37.21875 127.300781 37.179688 C 127.472656 36.917969 127.738281 36.863281 127.785156 36.855469 C 127.886719 36.832031 127.988281 36.84375 128.09375 36.847656 C 128.121094 36.851562 129.089844 37 129.179688 37.015625 C 141.695312 38.945312 141.597656 40.320312 148.433594 41.824219 C 150.046875 42.179688 152.523438 42.46875 153.871094 42.046875 C 154.234375 41.929688 154.367188 41.804688 154.375 41.765625 C 154.375 41.761719 154.375 41.761719 154.378906 41.761719 Z M 154.378906 41.761719 C 154.378906 41.761719 154.375 41.761719 154.375 41.761719 L 154.378906 41.757812 C 154.378906 41.757812 154.378906 41.761719 154.378906 41.761719 Z M 154.378906 41.761719 " fill-opacity="1" fill-rule="evenodd"/><g clip-path="url(#0b04ebc6e3)"><path fill="#f2e2b9" d="M 52.367188 37.617188 C 52.367188 37.550781 52.371094 37.550781 52.40625 37.492188 C 52.511719 37.304688 52.859375 37.179688 52.902344 37.164062 C 53.4375 36.972656 54.085938 36.964844 54.191406 36.964844 C 93.289062 36.558594 132.390625 36.171875 171.492188 35.792969 C 171.578125 35.792969 172.039062 35.789062 172.511719 36.105469 C 173.132812 36.527344 173.257812 37.144531 173.277344 37.253906 C 173.429688 38.003906 173.066406 38.542969 173.003906 38.636719 C 172.585938 39.257812 171.964844 39.382812 171.859375 39.40625 C 171.738281 39.429688 171.617188 39.445312 171.492188 39.445312 C 132.390625 39.066406 93.292969 38.664062 54.191406 38.273438 C 54.085938 38.273438 53.4375 38.265625 52.902344 38.074219 C 52.859375 38.058594 52.511719 37.933594 52.40625 37.746094 C 52.371094 37.6875 52.367188 37.6875 52.367188 37.617188 Z M 52.367188 37.617188 " fill-opacity="1" fill-rule="evenodd"/></g><g clip-path="url(#59bd223d04)"><path fill="#f2e2b9" d="M 322.363281 37.617188 C 322.363281 37.6875 322.359375 37.6875 322.324219 37.75 C 322.214844 37.9375 321.863281 38.066406 321.816406 38.082031 C 321.273438 38.277344 320.613281 38.285156 320.507812 38.285156 C 280.363281 38.699219 240.21875 39.09375 200.074219 39.476562 C 199.988281 39.476562 199.515625 39.480469 199.039062 39.160156 C 198.40625 38.730469 198.277344 38.101562 198.257812 37.992188 C 198.101562 37.226562 198.472656 36.675781 198.535156 36.582031 C 198.964844 35.949219 199.589844 35.820312 199.703125 35.796875 C 199.824219 35.773438 199.949219 35.757812 200.074219 35.761719 C 240.21875 36.144531 280.363281 36.554688 320.503906 36.953125 C 320.613281 36.953125 321.269531 36.960938 321.816406 37.15625 C 321.863281 37.171875 322.214844 37.296875 322.324219 37.488281 C 322.359375 37.546875 322.363281 37.550781 322.363281 37.617188 Z M 322.363281 37.617188 " fill-opacity="1" fill-rule="evenodd"/></g><path fill="#f2e2b9" d="M 145 37.171875 C 145 37.136719 144.992188 36.957031 145.136719 36.796875 C 145.179688 36.746094 145.234375 36.707031 145.296875 36.675781 C 145.359375 36.648438 145.425781 36.636719 145.496094 36.625 C 145.550781 36.613281 147.359375 36.503906 148.160156 36.433594 C 151.457031 36.15625 154.058594 35.507812 159.269531 30.933594 C 163.019531 27.644531 166.886719 22.785156 174.730469 21.773438 C 174.902344 21.75 174.902344 21.75 175.070312 21.765625 C 175.15625 21.773438 175.65625 21.824219 176.035156 22.285156 C 176.222656 22.507812 176.292969 22.734375 176.304688 22.777344 C 176.488281 23.359375 176.242188 23.816406 176.199219 23.894531 C 175.917969 24.417969 175.441406 24.570312 175.355469 24.59375 C 175.15625 24.65625 175.15625 24.648438 174.949219 24.664062 C 168.019531 25.191406 164.386719 29.382812 160.332031 32.542969 C 153.289062 38.023438 150.5 37.5625 145.546875 37.664062 C 145.441406 37.667969 145.441406 37.667969 145.34375 37.636719 C 145.144531 37.5625 145.066406 37.398438 145.050781 37.371094 C 145.007812 37.277344 145.007812 37.277344 145 37.171875 Z M 145 37.171875 " fill-opacity="1" fill-rule="evenodd"/><path fill="#f2e2b9" d="M 225.625 37.40625 C 225.625 37.441406 225.613281 37.625 225.453125 37.769531 C 225.40625 37.8125 225.347656 37.851562 225.285156 37.871094 C 225.21875 37.894531 225.148438 37.894531 225.082031 37.902344 C 225.054688 37.90625 225.054688 37.898438 223.96875 37.886719 C 219.652344 37.835938 216.769531 37.839844 210.210938 32.714844 C 206.1875 29.570312 202.558594 25.402344 195.597656 24.894531 C 195.429688 24.882812 195.429688 24.882812 195.269531 24.832031 C 195.1875 24.804688 194.707031 24.65625 194.425781 24.132812 C 194.289062 23.875 194.265625 23.640625 194.261719 23.59375 C 194.199219 22.988281 194.53125 22.589844 194.589844 22.519531 C 194.96875 22.0625 195.46875 22.011719 195.554688 22.003906 C 195.746094 21.984375 195.75 21.992188 195.941406 22.015625 C 203.773438 23.042969 207.644531 27.925781 211.429688 31.238281 C 217.339844 36.410156 219.894531 36.507812 224.011719 36.78125 C 224.101562 36.789062 225.109375 36.855469 225.132812 36.863281 C 225.199219 36.878906 225.269531 36.882812 225.328125 36.914062 C 225.359375 36.925781 225.523438 37.007812 225.59375 37.203125 C 225.628906 37.304688 225.625 37.390625 225.625 37.40625 Z M 225.625 37.40625 " fill-opacity="1" fill-rule="evenodd"/><path fill="#f2e2b9" d="M 145 37.59375 C 145.003906 37.5625 145.011719 37.375 145.171875 37.230469 C 145.222656 37.1875 145.28125 37.152344 145.34375 37.128906 C 145.40625 37.105469 145.476562 37.105469 145.546875 37.097656 C 145.570312 37.097656 145.570312 37.101562 146.65625 37.117188 C 150.976562 37.164062 153.855469 37.160156 160.414062 42.285156 C 164.4375 45.429688 168.070312 49.601562 175.027344 50.105469 C 175.195312 50.117188 175.195312 50.117188 175.355469 50.167969 C 175.441406 50.195312 175.917969 50.34375 176.199219 50.871094 C 176.335938 51.125 176.359375 51.363281 176.367188 51.40625 C 176.425781 52.011719 176.09375 52.410156 176.035156 52.480469 C 175.65625 52.9375 175.15625 52.988281 175.070312 52.996094 C 174.878906 53.015625 174.878906 53.011719 174.6875 52.984375 C 166.851562 51.957031 162.980469 47.074219 159.195312 43.761719 C 153.285156 38.59375 150.730469 38.492188 146.613281 38.21875 C 146.523438 38.210938 145.515625 38.144531 145.496094 38.136719 C 145.429688 38.121094 145.359375 38.117188 145.296875 38.085938 C 145.265625 38.074219 145.105469 37.996094 145.03125 37.796875 C 144.996094 37.695312 145 37.609375 145 37.59375 Z M 145 37.59375 " fill-opacity="1" fill-rule="evenodd"/><path fill="#f2e2b9" d="M 225.625 37.832031 C 225.625 37.863281 225.636719 38.042969 225.488281 38.203125 C 225.445312 38.253906 225.390625 38.296875 225.328125 38.324219 C 225.269531 38.355469 225.199219 38.363281 225.132812 38.375 C 225.074219 38.386719 223.265625 38.5 222.46875 38.566406 C 219.167969 38.847656 216.566406 39.492188 211.355469 44.066406 C 207.609375 47.355469 203.738281 52.214844 195.894531 53.230469 C 195.726562 53.25 195.722656 53.25 195.554688 53.234375 C 195.46875 53.226562 194.96875 53.175781 194.589844 52.71875 C 194.402344 52.496094 194.332031 52.265625 194.320312 52.222656 C 194.136719 51.644531 194.382812 51.1875 194.425781 51.105469 C 194.707031 50.582031 195.1875 50.433594 195.269531 50.40625 C 195.46875 50.34375 195.472656 50.355469 195.679688 50.339844 C 202.605469 49.808594 206.238281 45.617188 210.296875 42.457031 C 217.335938 36.976562 220.125 37.4375 225.078125 37.335938 C 225.183594 37.335938 225.183594 37.332031 225.285156 37.367188 C 225.484375 37.4375 225.558594 37.601562 225.574219 37.628906 C 225.617188 37.722656 225.621094 37.726562 225.625 37.832031 Z M 225.625 37.832031 " fill-opacity="1" fill-rule="evenodd"/><path fill="#f2e2b9" d="M 152.003906 37.996094 C 152.015625 37.964844 152.089844 37.792969 152.296875 37.707031 C 152.359375 37.679688 152.429688 37.664062 152.496094 37.664062 C 152.570312 37.664062 152.636719 37.6875 152.707031 37.703125 C 152.734375 37.710938 153.207031 37.886719 153.25 37.90625 C 157.246094 39.410156 161.449219 41.515625 162.917969 41.789062 C 163.003906 41.804688 163.046875 41.808594 163.195312 41.804688 C 163.363281 41.796875 163.445312 41.789062 163.75 41.589844 C 164.582031 41.039062 166.074219 39.679688 170.671875 36.363281 C 170.769531 36.292969 170.917969 36.234375 170.941406 36.222656 C 171.023438 36.191406 171.503906 36 172.074219 36.238281 C 172.351562 36.351562 172.523438 36.527344 172.558594 36.5625 C 172.773438 36.78125 172.867188 37.019531 172.886719 37.0625 C 172.917969 37.148438 173.109375 37.628906 172.871094 38.199219 C 172.757812 38.476562 172.582031 38.648438 172.550781 38.683594 C 172.476562 38.753906 172.398438 38.816406 172.316406 38.875 C 172.261719 38.914062 170.109375 40.160156 167.316406 41.964844 C 165.230469 43.316406 164.570312 43.828125 163.640625 43.917969 C 163.582031 43.921875 163.289062 43.949219 162.875 43.898438 C 161.742188 43.75 159.726562 42.59375 156.714844 40.964844 C 154.957031 40.011719 153.640625 39.332031 152.296875 38.699219 C 152.199219 38.652344 152.195312 38.65625 152.117188 38.582031 C 151.960938 38.425781 151.960938 38.238281 151.964844 38.207031 C 151.964844 38.097656 151.960938 38.097656 152.003906 37.996094 Z M 152.003906 37.996094 " fill-opacity="1" fill-rule="evenodd"/><path fill="#f2e2b9" d="M 216.421875 37.996094 C 216.433594 38.027344 216.507812 38.203125 216.421875 38.410156 C 216.398438 38.472656 216.359375 38.53125 216.308594 38.582031 C 216.257812 38.632812 216.191406 38.664062 216.132812 38.699219 C 216.085938 38.726562 214.957031 39.226562 212.488281 40.546875 C 209.125 42.347656 206.820312 43.71875 205.582031 43.894531 C 205.261719 43.9375 205.007812 43.929688 204.957031 43.925781 C 204 43.894531 203.347656 43.421875 201.582031 42.273438 C 199.820312 41.125 198.289062 40.171875 196.113281 38.875 C 196.007812 38.8125 195.894531 38.699219 195.878906 38.683594 C 195.8125 38.617188 195.449219 38.25 195.4375 37.636719 C 195.433594 37.335938 195.523438 37.105469 195.539062 37.0625 C 195.574219 36.976562 195.773438 36.480469 196.351562 36.238281 C 196.921875 36 197.402344 36.191406 197.488281 36.222656 C 197.507812 36.234375 197.65625 36.292969 197.757812 36.363281 C 202.65625 39.898438 204.070312 41.246094 204.828125 41.683594 C 205.007812 41.789062 205.078125 41.804688 205.300781 41.804688 C 205.320312 41.804688 205.429688 41.824219 205.867188 41.699219 C 207.714844 41.175781 211.675781 39.183594 215.71875 37.703125 C 215.820312 37.667969 215.820312 37.664062 215.929688 37.664062 C 215.960938 37.664062 216.148438 37.664062 216.304688 37.820312 C 216.382812 37.898438 216.417969 37.980469 216.421875 37.996094 Z M 216.421875 37.996094 " fill-opacity="1" fill-rule="evenodd"/><path fill="#f2e2b9" d="M 152.003906 37.007812 C 151.992188 36.976562 151.917969 36.800781 152.003906 36.59375 C 152.03125 36.527344 152.070312 36.46875 152.117188 36.421875 C 152.167969 36.371094 152.234375 36.339844 152.292969 36.300781 C 152.339844 36.277344 153.46875 35.777344 155.9375 34.453125 C 159.304688 32.652344 161.605469 31.285156 162.847656 31.109375 C 163.164062 31.0625 163.421875 31.074219 163.46875 31.074219 C 164.429688 31.105469 165.078125 31.578125 166.84375 32.730469 C 168.605469 33.875 170.136719 34.832031 172.316406 36.125 C 172.417969 36.1875 172.53125 36.300781 172.550781 36.316406 C 172.613281 36.382812 172.980469 36.75 172.988281 37.367188 C 172.992188 37.664062 172.902344 37.894531 172.886719 37.9375 C 172.851562 38.023438 172.65625 38.519531 172.074219 38.765625 C 171.503906 39.003906 171.023438 38.8125 170.941406 38.777344 C 170.917969 38.769531 170.769531 38.710938 170.671875 38.636719 C 165.769531 35.101562 164.355469 33.757812 163.597656 33.316406 C 163.417969 33.214844 163.347656 33.195312 163.128906 33.195312 C 163.105469 33.195312 163 33.175781 162.558594 33.300781 C 160.714844 33.828125 156.75 35.816406 152.707031 37.296875 C 152.605469 37.335938 152.605469 37.339844 152.496094 37.335938 C 152.464844 37.335938 152.277344 37.335938 152.121094 37.183594 C 152.046875 37.105469 152.011719 37.023438 152.003906 37.007812 Z M 152.003906 37.007812 " fill-opacity="1" fill-rule="evenodd"/><path fill="#f2e2b9" d="M 216.421875 37.007812 C 216.410156 37.035156 216.339844 37.210938 216.132812 37.296875 C 216.066406 37.324219 215.996094 37.335938 215.929688 37.335938 C 215.859375 37.339844 215.789062 37.316406 215.71875 37.296875 C 215.695312 37.292969 215.21875 37.113281 215.175781 37.097656 C 211.183594 35.59375 206.976562 33.484375 205.511719 33.214844 C 205.421875 33.199219 205.382812 33.195312 205.230469 33.199219 C 205.066406 33.203125 204.980469 33.210938 204.675781 33.414062 C 203.84375 33.960938 202.355469 35.320312 197.757812 38.636719 C 197.65625 38.710938 197.507812 38.769531 197.488281 38.777344 C 197.402344 38.8125 196.921875 39.003906 196.351562 38.765625 C 196.074219 38.648438 195.902344 38.472656 195.871094 38.441406 C 195.652344 38.222656 195.558594 37.980469 195.539062 37.9375 C 195.507812 37.851562 195.316406 37.375 195.554688 36.804688 C 195.671875 36.527344 195.84375 36.351562 195.878906 36.316406 C 195.949219 36.246094 196.03125 36.1875 196.113281 36.125 C 196.167969 36.085938 198.316406 34.84375 201.109375 33.035156 C 203.195312 31.6875 203.855469 31.171875 204.785156 31.085938 C 204.847656 31.078125 205.136719 31.050781 205.550781 31.105469 C 206.6875 31.25 208.699219 32.40625 211.710938 34.035156 C 213.472656 34.988281 214.785156 35.667969 216.132812 36.300781 C 216.230469 36.347656 216.234375 36.34375 216.308594 36.421875 C 216.464844 36.574219 216.464844 36.761719 216.464844 36.796875 C 216.464844 36.90625 216.464844 36.90625 216.421875 37.007812 Z M 216.421875 37.007812 " fill-opacity="1" fill-rule="evenodd"/><path fill="#f2e2b9" d="M 167.800781 24.304688 C 167.800781 24.304688 167.800781 24.304688 167.804688 24.304688 C 167.800781 24.304688 167.800781 24.304688 167.800781 24.304688 Z M 167.800781 24.304688 C 167.882812 24.359375 167.96875 24.40625 168.042969 24.46875 C 168.109375 24.523438 168.492188 24.847656 168.550781 25.441406 C 168.578125 25.730469 168.511719 25.957031 168.496094 26 C 168.484375 26.042969 168.410156 26.285156 168.222656 26.511719 C 168.164062 26.578125 167.84375 26.964844 167.25 27.023438 C 166.960938 27.050781 166.734375 26.980469 166.691406 26.96875 C 166.507812 26.910156 166.507812 26.90625 166.339844 26.808594 C 163.417969 25.089844 161.859375 20.652344 166.300781 17.042969 C 167.660156 15.9375 169.152344 15.238281 170.300781 14.71875 C 176.523438 11.886719 181.253906 11.199219 183.539062 7.382812 C 184.660156 5.515625 185.054688 3.128906 185.128906 0.554688 C 185.128906 0.449219 185.128906 0.449219 185.167969 0.351562 C 185.25 0.15625 185.417969 0.0859375 185.445312 0.0742188 C 185.542969 0.0351562 185.542969 0.0351562 185.648438 0.0351562 C 185.679688 0.0351562 185.863281 0.0351562 186.015625 0.1875 C 186.0625 0.234375 186.101562 0.292969 186.125 0.351562 C 186.179688 0.480469 186.167969 0.484375 186.167969 0.625 C 186.3125 7.429688 184.007812 10.371094 179.949219 12.605469 C 177.261719 14.085938 174.039062 15.1875 170.339844 17.203125 C 167.050781 19 165.480469 21.195312 166.515625 23.078125 C 166.675781 23.371094 167.066406 23.9375 167.800781 24.304688 Z M 167.800781 24.304688 " fill-opacity="1" fill-rule="evenodd"/><path fill="#f2e2b9" d="M 162.535156 54.152344 C 162.664062 54.082031 162.78125 54 162.917969 53.945312 C 163.039062 53.894531 163.726562 53.605469 164.550781 53.933594 C 164.953125 54.09375 165.207031 54.339844 165.253906 54.386719 C 165.253906 54.386719 165.535156 54.722656 165.535156 54.722656 C 165.605469 54.847656 165.6875 54.96875 165.742188 55.105469 C 165.792969 55.226562 166.082031 55.914062 165.753906 56.738281 C 165.59375 57.140625 165.347656 57.394531 165.300781 57.445312 C 165.109375 57.640625 165.105469 57.636719 164.875 57.785156 C 161.203125 60.144531 152.53125 61.453125 144.136719 58.289062 C 140.210938 56.804688 137.722656 54.871094 136.597656 54.003906 C 129.476562 48.503906 127.003906 44.175781 119.941406 41.433594 C 114.683594 39.394531 107.210938 38.378906 95.914062 38.15625 C 95.757812 38.15625 95.757812 38.15625 95.613281 38.097656 C 95.324219 37.980469 95.21875 37.730469 95.199219 37.683594 C 95.140625 37.539062 95.140625 37.539062 95.140625 37.382812 C 95.140625 37.335938 95.140625 37.0625 95.367188 36.835938 C 95.4375 36.765625 95.523438 36.707031 95.613281 36.667969 C 95.710938 36.628906 95.8125 36.621094 95.914062 36.605469 C 95.945312 36.601562 97.066406 36.589844 97.167969 36.589844 C 118.125 36.332031 124.160156 39.5625 130.484375 44.816406 C 132.984375 46.890625 135.59375 49.332031 139.273438 51.875 C 147.972656 57.886719 158.214844 56.511719 161.933594 54.519531 C 162.273438 54.339844 162.464844 54.203125 162.535156 54.152344 Z M 162.535156 54.152344 C 162.535156 54.152344 162.535156 54.152344 162.535156 54.148438 C 162.535156 54.152344 162.535156 54.152344 162.535156 54.152344 Z M 162.535156 54.152344 " fill-opacity="1" fill-rule="evenodd"/><path fill="#f2e2b9" d="M 208.007812 54.386719 C 208.007812 54.386719 208.027344 54.402344 208.097656 54.449219 C 210.140625 55.847656 216.074219 57.324219 222.738281 55.828125 C 227.648438 54.726562 230.726562 52.503906 231.921875 51.65625 C 239.265625 46.429688 242.136719 41.828125 250.226562 39.183594 C 255.980469 37.300781 263.746094 36.648438 274.628906 36.84375 C 274.785156 36.847656 274.785156 36.84375 274.929688 36.90625 C 274.972656 36.921875 275.222656 37.027344 275.34375 37.316406 C 275.402344 37.464844 275.402344 37.59375 275.402344 37.617188 C 275.402344 37.667969 275.402344 37.941406 275.175781 38.167969 C 275.105469 38.238281 275.023438 38.296875 274.929688 38.335938 C 274.835938 38.375 274.730469 38.382812 274.628906 38.394531 C 274.558594 38.402344 270.109375 38.445312 265.367188 38.820312 C 250.96875 39.96875 246.5 43.113281 241.652344 47.5 C 239.351562 49.582031 236.796875 52.113281 233.207031 54.804688 C 223.292969 62.21875 210.867188 61.039062 206.015625 58.230469 C 205.800781 58.105469 205.644531 58.003906 205.582031 57.960938 C 205.496094 57.90625 205.039062 57.605469 204.789062 56.976562 C 204.460938 56.148438 204.75 55.460938 204.800781 55.339844 C 204.800781 55.339844 205.011719 54.957031 205.011719 54.957031 C 205.105469 54.84375 205.1875 54.722656 205.289062 54.625 C 205.382812 54.53125 205.917969 54.011719 206.804688 54.015625 C 207.238281 54.015625 207.5625 54.152344 207.625 54.179688 C 207.800781 54.253906 207.980469 54.367188 208.007812 54.386719 Z M 208.007812 54.386719 C 208.015625 54.390625 208.015625 54.390625 208.007812 54.386719 Z M 208.007812 54.386719 " fill-opacity="1" fill-rule="evenodd"/><path fill="#f2e2b9" d="M 185.417969 74.953125 C 185.386719 74.953125 185.203125 74.953125 185.050781 74.800781 C 185.003906 74.753906 184.964844 74.695312 184.9375 74.632812 C 184.886719 74.507812 184.898438 74.503906 184.894531 74.367188 C 184.714844 68.175781 182.625 65.851562 179.421875 64.171875 C 176.746094 62.769531 173.214844 61.792969 169.078125 59.804688 C 163.085938 56.921875 162.625 53.089844 163.835938 50.621094 C 164.066406 50.15625 164.726562 48.96875 166.1875 48.132812 C 166.433594 47.992188 166.695312 47.96875 166.742188 47.964844 C 167.328125 47.90625 167.71875 48.222656 167.789062 48.277344 C 167.859375 48.335938 167.929688 48.402344 167.992188 48.476562 C 168.183594 48.703125 168.253906 48.941406 168.269531 48.988281 C 168.292969 49.070312 168.4375 49.550781 168.164062 50.078125 C 168.027344 50.335938 167.847656 50.488281 167.8125 50.519531 C 167.628906 50.671875 167.617188 50.652344 167.410156 50.769531 C 166.328125 51.394531 164.992188 53.15625 167.042969 55.480469 C 168.21875 56.808594 169.960938 57.710938 170.832031 58.167969 C 176.941406 61.363281 182.074219 62.375 184.5 66.832031 C 185.730469 69.097656 185.996094 71.804688 185.9375 74.429688 C 185.933594 74.535156 185.9375 74.535156 185.898438 74.632812 C 185.882812 74.660156 185.816406 74.828125 185.621094 74.910156 C 185.523438 74.953125 185.433594 74.953125 185.417969 74.953125 Z M 185.417969 74.953125 " fill-opacity="1" fill-rule="evenodd"/><path fill="#f2e2b9" d="M 185.644531 0.0351562 C 185.679688 0.0351562 185.863281 0.0351562 186.015625 0.1875 C 186.0625 0.234375 186.101562 0.292969 186.125 0.351562 C 186.179688 0.480469 186.164062 0.484375 186.167969 0.621094 C 186.351562 6.8125 188.4375 9.132812 191.644531 10.816406 C 194.320312 12.214844 197.851562 13.191406 201.988281 15.183594 C 207.980469 18.066406 208.4375 21.898438 207.226562 24.367188 C 207 24.828125 206.335938 26.019531 204.875 26.855469 C 204.632812 26.992188 204.371094 27.019531 204.324219 27.023438 C 203.738281 27.078125 203.34375 26.765625 203.277344 26.710938 C 203.203125 26.652344 203.132812 26.585938 203.074219 26.511719 C 202.882812 26.285156 202.808594 26.042969 202.796875 26 C 202.773438 25.914062 202.625 25.4375 202.902344 24.90625 C 203.035156 24.648438 203.21875 24.496094 203.253906 24.46875 C 203.433594 24.316406 203.449219 24.335938 203.65625 24.21875 C 204.738281 23.59375 206.074219 21.828125 204.019531 19.507812 C 202.847656 18.175781 201.101562 17.273438 200.234375 16.820312 C 194.125 13.625 188.992188 12.613281 186.566406 8.15625 C 185.332031 5.890625 185.070312 3.179688 185.125 0.554688 C 185.128906 0.453125 185.128906 0.449219 185.167969 0.351562 C 185.179688 0.324219 185.25 0.15625 185.445312 0.0742188 C 185.542969 0.0351562 185.628906 0.0351562 185.644531 0.0351562 Z M 185.644531 0.0351562 " fill-opacity="1" fill-rule="evenodd"/><path fill="#f2e2b9" d="M 162.535156 20.613281 C 162.53125 20.609375 162.53125 20.609375 162.535156 20.613281 Z M 162.535156 20.613281 C 162.535156 20.613281 162.515625 20.597656 162.449219 20.550781 C 160.402344 19.152344 154.46875 17.675781 147.804688 19.171875 C 142.894531 20.273438 139.816406 22.496094 138.625 23.34375 C 131.28125 28.570312 128.410156 33.171875 120.316406 35.816406 C 114.5625 37.699219 106.800781 38.351562 95.914062 38.15625 C 95.761719 38.15625 95.757812 38.15625 95.613281 38.09375 C 95.570312 38.078125 95.324219 37.972656 95.199219 37.683594 C 95.140625 37.535156 95.140625 37.40625 95.140625 37.382812 C 95.140625 37.335938 95.140625 37.058594 95.367188 36.832031 C 95.4375 36.761719 95.523438 36.703125 95.613281 36.664062 C 95.707031 36.625 95.8125 36.621094 95.914062 36.605469 C 95.984375 36.597656 100.433594 36.554688 105.179688 36.179688 C 119.574219 35.035156 124.042969 31.886719 128.894531 27.5 C 131.195312 25.417969 133.746094 22.886719 137.339844 20.195312 C 147.25 12.78125 159.675781 13.960938 164.527344 16.769531 C 164.742188 16.894531 164.898438 16.996094 164.964844 17.039062 C 165.046875 17.09375 165.503906 17.394531 165.753906 18.027344 C 166.082031 18.851562 165.792969 19.539062 165.742188 19.660156 C 165.742188 19.660156 165.535156 20.042969 165.535156 20.042969 C 165.441406 20.15625 165.359375 20.277344 165.253906 20.375 C 165.160156 20.46875 164.628906 20.988281 163.738281 20.984375 C 163.304688 20.984375 162.980469 20.847656 162.917969 20.820312 C 162.742188 20.746094 162.566406 20.632812 162.535156 20.613281 Z M 162.535156 20.613281 " fill-opacity="1" fill-rule="evenodd"/><path fill="#f2e2b9" d="M 208.007812 20.851562 Z M 208.007812 20.851562 C 207.882812 20.917969 207.761719 21 207.625 21.058594 C 207.503906 21.109375 206.820312 21.398438 205.992188 21.070312 C 205.59375 20.910156 205.335938 20.660156 205.289062 20.613281 C 205.289062 20.613281 205.011719 20.28125 205.011719 20.28125 C 204.9375 20.152344 204.859375 20.03125 204.800781 19.898438 C 204.75 19.777344 204.460938 19.089844 204.789062 18.261719 C 204.949219 17.859375 205.199219 17.605469 205.246094 17.558594 C 205.433594 17.363281 205.4375 17.367188 205.667969 17.21875 C 209.34375 14.855469 218.015625 13.546875 226.40625 16.714844 C 230.332031 18.195312 232.820312 20.128906 233.945312 21 C 241.070312 26.5 243.542969 30.828125 250.601562 33.566406 C 255.859375 35.605469 263.332031 36.621094 274.628906 36.84375 C 274.785156 36.847656 274.785156 36.84375 274.929688 36.902344 C 275.222656 37.023438 275.324219 37.273438 275.34375 37.316406 C 275.402344 37.460938 275.402344 37.464844 275.402344 37.621094 C 275.402344 37.667969 275.402344 37.9375 275.175781 38.167969 C 275.105469 38.234375 275.023438 38.292969 274.929688 38.332031 C 274.835938 38.371094 274.730469 38.382812 274.628906 38.394531 C 274.597656 38.398438 273.476562 38.414062 273.375 38.414062 C 252.421875 38.667969 246.382812 35.441406 240.058594 30.1875 C 237.558594 28.109375 234.949219 25.667969 231.269531 23.125 C 222.570312 17.113281 212.328125 18.492188 208.609375 20.480469 C 208.269531 20.664062 208.082031 20.800781 208.007812 20.851562 Z M 208.007812 20.851562 " fill-opacity="1" fill-rule="evenodd"/><path fill="#f2e2b9" d="M 203.265625 50.683594 C 203.183594 50.628906 203.097656 50.582031 203.023438 50.519531 C 202.957031 50.460938 202.574219 50.140625 202.515625 49.546875 C 202.484375 49.257812 202.554688 49.03125 202.566406 48.988281 C 202.582031 48.941406 202.652344 48.703125 202.84375 48.476562 C 202.902344 48.40625 203.222656 48.023438 203.816406 47.964844 C 204.105469 47.9375 204.332031 48.003906 204.375 48.019531 C 204.558594 48.074219 204.558594 48.078125 204.722656 48.175781 C 207.648438 49.894531 209.207031 54.332031 204.765625 57.945312 C 203.40625 59.050781 201.910156 59.75 200.765625 60.269531 C 194.542969 63.101562 189.8125 63.789062 187.527344 67.601562 C 186.40625 69.472656 186.011719 71.859375 185.9375 74.433594 C 185.933594 74.535156 185.9375 74.539062 185.898438 74.632812 C 185.816406 74.832031 185.648438 74.898438 185.621094 74.910156 C 185.523438 74.953125 185.523438 74.953125 185.417969 74.953125 C 185.386719 74.953125 185.203125 74.953125 185.050781 74.796875 C 185.003906 74.75 184.964844 74.695312 184.941406 74.632812 C 184.886719 74.503906 184.898438 74.5 184.898438 74.363281 C 184.753906 67.558594 187.058594 64.617188 191.117188 62.382812 C 193.804688 60.902344 197.027344 59.796875 200.722656 57.78125 C 204.015625 55.988281 205.582031 53.789062 204.550781 51.910156 C 204.390625 51.613281 203.996094 51.050781 203.265625 50.683594 Z M 203.265625 50.683594 C 203.265625 50.683594 203.261719 50.683594 203.261719 50.683594 C 203.261719 50.683594 203.265625 50.683594 203.265625 50.683594 Z M 203.265625 50.683594 " fill-opacity="1" fill-rule="evenodd"/><path fill="#f2e2b9" d="M 180.261719 23.078125 C 180.261719 23.078125 180.257812 23.078125 180.257812 23.078125 Z M 180.261719 23.078125 C 180.40625 23.203125 180.585938 23.28125 180.730469 23.40625 C 180.800781 23.464844 180.855469 23.546875 180.902344 23.625 C 181.226562 24.128906 181.125 24.617188 181.109375 24.703125 C 180.984375 25.300781 180.550781 25.578125 180.472656 25.628906 C 179.972656 25.949219 179.484375 25.847656 179.398438 25.832031 C 179.214844 25.792969 179.214844 25.792969 179.050781 25.710938 C 177.648438 25.003906 177.011719 23.546875 177.796875 21.78125 C 178.121094 21.050781 178.5625 20.511719 178.90625 20.109375 C 180.957031 17.703125 182.164062 17.84375 184.953125 13.074219 C 185.003906 12.984375 184.996094 12.976562 185.074219 12.90625 C 185.234375 12.769531 185.414062 12.78125 185.445312 12.78125 C 185.667969 12.796875 185.789062 12.9375 185.808594 12.960938 C 185.949219 13.121094 185.9375 13.304688 185.933594 13.335938 C 185.933594 13.355469 185.929688 13.425781 185.855469 13.601562 C 183.585938 19.054688 182.171875 19.128906 180.558594 21.828125 C 180.558594 21.828125 180.296875 22.242188 180.171875 22.695312 C 180.164062 22.734375 180.121094 22.894531 180.121094 23.035156 C 180.121094 23.042969 180.121094 23.066406 180.125 23.09375 C 180.136719 23.082031 180.144531 23.070312 180.15625 23.058594 C 180.164062 23.050781 180.226562 23.070312 180.261719 23.078125 Z M 180.261719 23.078125 " fill-opacity="1" fill-rule="evenodd"/><path fill="#f2e2b9" d="M 216.167969 41.996094 C 216.167969 42.007812 216.175781 42.039062 216.257812 42.09375 C 216.730469 42.429688 218.277344 42.699219 220.96875 42.277344 C 221.246094 42.234375 221.871094 42.140625 223.335938 41.777344 C 229.148438 40.339844 229.671875 38.992188 242.292969 37.109375 C 242.304688 37.109375 242.453125 37.085938 242.453125 37.085938 C 242.554688 37.089844 242.660156 37.070312 242.757812 37.09375 C 242.804688 37.101562 243.070312 37.15625 243.246094 37.417969 C 243.273438 37.457031 243.425781 37.6875 243.363281 38.011719 C 243.351562 38.058594 243.296875 38.324219 243.035156 38.496094 C 242.949219 38.550781 242.847656 38.578125 242.75 38.609375 C 242.671875 38.636719 238.738281 39.566406 235.195312 40.707031 C 229.472656 42.546875 228.5 43.710938 223.128906 45.457031 C 222.230469 45.75 219.640625 46.523438 217.253906 46.488281 C 215.777344 46.464844 214.328125 46.132812 213.234375 45.171875 C 212.921875 44.898438 212.757812 44.535156 212.730469 44.472656 C 212.679688 44.355469 212.371094 43.671875 212.671875 42.84375 C 212.71875 42.710938 212.78125 42.582031 212.851562 42.460938 C 212.851562 42.460938 213.117188 42.113281 213.117188 42.113281 C 213.226562 42.015625 213.324219 41.910156 213.441406 41.824219 C 213.546875 41.75 214.152344 41.316406 215.03125 41.453125 C 215.3125 41.496094 215.40625 41.539062 215.4375 41.554688 C 215.820312 41.738281 215.78125 41.8125 216.167969 41.996094 Z M 216.167969 41.996094 C 216.167969 41.996094 216.167969 41.996094 216.164062 41.996094 L 216.167969 42 C 216.167969 42 216.167969 41.996094 216.167969 41.996094 Z M 216.167969 41.996094 " fill-opacity="1" fill-rule="evenodd"/><path fill="#f2e2b9" d="M 179.894531 51.890625 C 179.886719 51.949219 179.890625 52.046875 179.914062 52.175781 C 180.019531 52.691406 180.363281 53.214844 180.441406 53.339844 C 181.996094 55.847656 183.414062 56.066406 185.628906 61.386719 C 185.628906 61.390625 185.65625 61.453125 185.65625 61.453125 C 185.671875 61.519531 185.703125 61.582031 185.707031 61.652344 C 185.707031 61.683594 185.71875 61.863281 185.582031 62.023438 C 185.558594 62.046875 185.4375 62.1875 185.21875 62.203125 C 185.1875 62.207031 185.003906 62.21875 184.847656 62.078125 C 184.828125 62.0625 184.789062 62.027344 184.6875 61.855469 C 181.867188 57.039062 180.636719 57.261719 178.519531 54.691406 C 178.292969 54.417969 176.867188 52.777344 177.3125 51.054688 C 177.617188 49.863281 178.632812 49.367188 178.882812 49.246094 C 178.996094 49.191406 179.144531 49.160156 179.167969 49.15625 C 179.253906 49.136719 179.742188 49.035156 180.242188 49.359375 C 180.320312 49.40625 180.753906 49.6875 180.878906 50.285156 C 180.894531 50.371094 180.996094 50.859375 180.675781 51.359375 C 180.570312 51.523438 180.519531 51.566406 180.5 51.582031 C 180.28125 51.769531 180.25 51.722656 180.03125 51.910156 C 179.996094 51.917969 179.933594 51.9375 179.925781 51.925781 C 179.917969 51.917969 179.90625 51.90625 179.894531 51.890625 Z M 180.03125 51.910156 C 180.03125 51.910156 180.03125 51.910156 180.035156 51.910156 Z M 180.03125 51.910156 " fill-opacity="1" fill-rule="evenodd"/><path fill="#f2e2b9" d="M 190.714844 23.097656 C 190.71875 23.035156 190.714844 22.941406 190.691406 22.8125 C 190.585938 22.292969 190.242188 21.773438 190.164062 21.648438 C 188.609375 19.140625 187.191406 18.917969 184.980469 13.601562 C 184.976562 13.59375 184.953125 13.535156 184.953125 13.535156 C 184.933594 13.46875 184.90625 13.402344 184.902344 13.335938 C 184.898438 13.304688 184.890625 13.121094 185.027344 12.960938 C 185.046875 12.9375 185.167969 12.796875 185.390625 12.78125 C 185.421875 12.78125 185.601562 12.769531 185.761719 12.90625 C 185.777344 12.921875 185.816406 12.957031 185.917969 13.132812 C 188.738281 17.949219 189.96875 17.726562 192.085938 20.296875 C 192.3125 20.570312 193.738281 22.210938 193.292969 23.929688 C 192.988281 25.125 191.972656 25.621094 191.722656 25.742188 C 191.613281 25.796875 191.460938 25.828125 191.4375 25.832031 C 191.355469 25.847656 190.863281 25.949219 190.363281 25.628906 C 190.289062 25.578125 189.851562 25.300781 189.726562 24.703125 C 189.710938 24.617188 189.609375 24.128906 189.933594 23.625 C 190.035156 23.464844 190.085938 23.417969 190.105469 23.40625 C 190.324219 23.21875 190.359375 23.261719 190.574219 23.078125 C 190.609375 23.070312 190.675781 23.050781 190.679688 23.058594 C 190.691406 23.070312 190.699219 23.082031 190.714844 23.097656 Z M 190.574219 23.078125 L 190.578125 23.078125 C 190.578125 23.078125 190.574219 23.078125 190.574219 23.078125 Z M 190.574219 23.078125 " fill-opacity="1" fill-rule="evenodd"/><path fill="#f2e2b9" d="M 154.378906 33.460938 C 154.375 33.453125 154.367188 33.421875 154.289062 33.363281 C 153.816406 33.03125 152.265625 32.761719 149.578125 33.183594 C 149.296875 33.226562 148.671875 33.320312 147.210938 33.683594 C 141.394531 35.121094 140.875 36.464844 128.253906 38.347656 C 128.238281 38.351562 128.09375 38.371094 128.09375 38.371094 C 127.988281 38.371094 127.886719 38.386719 127.785156 38.367188 C 127.738281 38.359375 127.472656 38.304688 127.300781 38.042969 C 127.273438 38.003906 127.117188 37.773438 127.183594 37.449219 C 127.191406 37.402344 127.246094 37.132812 127.507812 36.960938 C 127.59375 36.90625 127.695312 36.882812 127.792969 36.851562 C 127.875 36.824219 131.804688 35.894531 135.347656 34.753906 C 141.074219 32.910156 142.046875 31.75 147.414062 30.003906 C 148.3125 29.710938 150.902344 28.9375 153.289062 28.972656 C 154.765625 28.996094 156.214844 29.324219 157.3125 30.289062 C 157.621094 30.5625 157.785156 30.925781 157.8125 30.988281 C 158.171875 31.789062 157.917969 32.492188 157.875 32.617188 C 157.824219 32.75 157.765625 32.878906 157.691406 33 C 157.691406 33 157.429688 33.347656 157.429688 33.347656 C 157.320312 33.441406 157.21875 33.550781 157.101562 33.632812 C 156.996094 33.710938 156.390625 34.144531 155.511719 34.007812 C 155.230469 33.964844 155.136719 33.921875 155.109375 33.90625 C 154.722656 33.71875 154.761719 33.648438 154.378906 33.460938 Z M 154.378906 33.460938 C 154.378906 33.460938 154.378906 33.464844 154.378906 33.464844 L 154.375 33.460938 C 154.375 33.460938 154.378906 33.460938 154.378906 33.460938 Z M 154.378906 33.460938 " fill-opacity="1" fill-rule="evenodd"/><path fill="#f2e2b9" d="M 216.167969 33.699219 C 215.910156 33.820312 215.691406 34.019531 215.4375 34.140625 C 215.3125 34.203125 215.167969 34.222656 215.03125 34.246094 C 214.152344 34.378906 213.546875 33.945312 213.441406 33.871094 C 213.441406 33.871094 213.117188 33.582031 213.113281 33.582031 C 213.027344 33.464844 212.929688 33.359375 212.851562 33.234375 C 212.785156 33.121094 212.398438 32.484375 212.597656 31.621094 C 212.757812 30.933594 213.195312 30.554688 213.277344 30.488281 C 214.417969 29.507812 216.535156 28.671875 220.902344 29.632812 C 222.070312 29.890625 223.015625 30.183594 224.242188 30.613281 C 230.292969 32.730469 230.28125 34 242.75 37.085938 C 242.902344 37.125 242.90625 37.113281 243.035156 37.199219 C 243.296875 37.371094 243.351562 37.636719 243.363281 37.683594 C 243.425781 38.007812 243.273438 38.238281 243.246094 38.277344 C 243.070312 38.539062 242.804688 38.59375 242.757812 38.605469 C 242.660156 38.625 242.554688 38.613281 242.453125 38.609375 C 242.421875 38.605469 241.453125 38.457031 241.367188 38.445312 C 228.847656 36.511719 228.945312 35.140625 222.113281 33.632812 C 220.496094 33.277344 218.019531 32.992188 216.671875 33.414062 C 216.308594 33.527344 216.175781 33.652344 216.167969 33.691406 C 216.167969 33.695312 216.167969 33.695312 216.167969 33.699219 Z M 216.167969 33.699219 C 216.167969 33.699219 216.167969 33.699219 216.167969 33.695312 L 216.164062 33.699219 C 216.167969 33.699219 216.167969 33.699219 216.167969 33.699219 Z M 216.167969 33.699219 " fill-opacity="1" fill-rule="evenodd"/><path fill="#f2e2b9" d="M 190.347656 51.910156 C 190.203125 51.785156 190.019531 51.707031 189.875 51.582031 C 189.804688 51.519531 189.753906 51.4375 189.703125 51.359375 C 189.378906 50.859375 189.480469 50.371094 189.5 50.285156 C 189.621094 49.6875 190.058594 49.40625 190.132812 49.359375 C 190.632812 49.035156 191.125 49.136719 191.210938 49.15625 C 191.390625 49.191406 191.390625 49.191406 191.558594 49.277344 C 192.957031 49.980469 193.59375 51.441406 192.8125 53.207031 C 192.488281 53.9375 192.042969 54.476562 191.703125 54.878906 C 189.652344 57.28125 188.441406 57.140625 185.65625 61.914062 C 185.601562 62.003906 185.609375 62.007812 185.53125 62.078125 C 185.375 62.21875 185.191406 62.207031 185.160156 62.203125 C 184.941406 62.1875 184.820312 62.046875 184.796875 62.023438 C 184.660156 61.863281 184.671875 61.683594 184.671875 61.652344 C 184.671875 61.628906 184.675781 61.5625 184.75 61.386719 C 187.019531 55.933594 188.433594 55.859375 190.046875 53.160156 C 190.046875 53.15625 190.3125 52.742188 190.433594 52.292969 C 190.445312 52.253906 190.488281 52.089844 190.488281 51.949219 C 190.488281 51.945312 190.488281 51.917969 190.484375 51.890625 C 190.472656 51.90625 190.460938 51.917969 190.453125 51.925781 C 190.445312 51.9375 190.382812 51.917969 190.347656 51.910156 Z M 190.347656 51.910156 L 190.34375 51.910156 C 190.34375 51.910156 190.347656 51.910156 190.347656 51.910156 Z M 190.347656 51.910156 " fill-opacity="1" fill-rule="evenodd"/><path stroke-linecap="butt" transform="matrix(0.727607, -0.181902, 0.181902, 0.727607, 52.001062, 36.044784)" fill="none" stroke-linejoin="miter" d="M -0.0020506 1.999491 L -0.0020506 1.999491 " stroke="#000000" stroke-width="4" stroke-opacity="1" stroke-miterlimit="4"/></svg>