<svg xmlns="http://www.w3.org/2000/svg" xmlns:xlink="http://www.w3.org/1999/xlink" width="1080" zoomAndPan="magnify" viewBox="0 0 810 809.999993" height="1080" preserveAspectRatio="xMidYMid meet" version="1.0"><path fill="#ffffff" d="M 595.585938 297.015625 L 554.878906 297.015625 C 562.285156 283.84375 557.273438 247.53125 550.53125 227.332031 C 528.441406 162.355469 441.386719 233.007812 426.308594 246.382812 C 419.796875 241.160156 403.722656 243.636719 395.996094 243.085938 C 393.964844 243.09375 391.976562 243.378906 390.023438 243.9375 C 388.070312 244.496094 386.230469 245.308594 384.503906 246.378906 C 369.554688 233.097656 282.382812 162.378906 260.304688 227.257812 C 253.5625 247.464844 248.5 283.824219 255.9375 297.015625 L 215.214844 297.015625 C 214.429688 297.015625 213.644531 297.054688 212.863281 297.132812 C 212.078125 297.210938 211.304688 297.328125 210.53125 297.480469 C 209.761719 297.636719 209 297.828125 208.246094 298.054688 C 207.492188 298.285156 206.753906 298.550781 206.027344 298.851562 C 205.300781 299.152344 204.59375 299.488281 203.898438 299.859375 C 203.207031 300.230469 202.53125 300.632812 201.878906 301.070312 C 201.222656 301.507812 200.59375 301.976562 199.984375 302.476562 C 199.378906 302.976562 198.796875 303.503906 198.238281 304.058594 C 197.683594 304.613281 197.15625 305.195312 196.65625 305.804688 C 196.15625 306.414062 195.691406 307.042969 195.253906 307.695312 C 194.816406 308.351562 194.410156 309.023438 194.039062 309.71875 C 193.667969 310.410156 193.332031 311.121094 193.03125 311.847656 C 192.730469 312.574219 192.464844 313.3125 192.238281 314.066406 C 192.007812 314.816406 191.816406 315.578125 191.664062 316.351562 C 191.507812 317.121094 191.390625 317.898438 191.316406 318.683594 C 191.238281 319.464844 191.199219 320.25 191.195312 321.035156 L 191.195312 405.695312 C 191.195312 406.222656 191.246094 406.742188 191.351562 407.257812 C 191.453125 407.773438 191.605469 408.273438 191.804688 408.757812 C 192.007812 409.246094 192.253906 409.707031 192.546875 410.144531 C 192.839844 410.582031 193.167969 410.984375 193.542969 411.355469 C 193.914062 411.726562 194.316406 412.058594 194.753906 412.351562 C 195.191406 412.644531 195.652344 412.890625 196.140625 413.09375 C 196.625 413.292969 197.125 413.445312 197.640625 413.546875 C 198.15625 413.648438 198.675781 413.703125 199.203125 413.703125 L 214.894531 413.703125 L 214.894531 623.980469 C 214.898438 624.765625 214.9375 625.550781 215.015625 626.332031 C 215.089844 627.117188 215.207031 627.894531 215.363281 628.664062 C 215.515625 629.433594 215.707031 630.199219 215.9375 630.949219 C 216.164062 631.703125 216.429688 632.441406 216.730469 633.167969 C 217.03125 633.894531 217.367188 634.605469 217.738281 635.296875 C 218.109375 635.992188 218.515625 636.664062 218.953125 637.320312 C 219.390625 637.972656 219.855469 638.601562 220.355469 639.210938 C 220.855469 639.820312 221.382812 640.402344 221.9375 640.957031 C 222.496094 641.511719 223.078125 642.039062 223.683594 642.539062 C 224.292969 643.039062 224.921875 643.507812 225.578125 643.945312 C 226.230469 644.382812 226.90625 644.785156 227.597656 645.15625 C 228.292969 645.527344 229 645.863281 229.726562 646.164062 C 230.453125 646.464844 231.195312 646.730469 231.945312 646.960938 C 232.699219 647.1875 233.460938 647.378906 234.230469 647.535156 C 235.003906 647.6875 235.78125 647.804688 236.5625 647.882812 C 237.34375 647.960938 238.128906 648 238.914062 648 C 281.566406 648.003906 571.886719 648 571.886719 648 C 572.671875 648 573.457031 647.960938 574.238281 647.882812 C 575.019531 647.804688 575.796875 647.6875 576.570312 647.535156 C 577.339844 647.378906 578.101562 647.1875 578.855469 646.960938 C 579.605469 646.730469 580.347656 646.464844 581.074219 646.164062 C 581.800781 645.863281 582.507812 645.527344 583.203125 645.15625 C 583.894531 644.785156 584.570312 644.382812 585.222656 643.945312 C 585.878906 643.507812 586.507812 643.039062 587.117188 642.539062 C 587.722656 642.039062 588.304688 641.511719 588.863281 640.957031 C 589.417969 640.402344 589.945312 639.820312 590.445312 639.210938 C 590.945312 638.601562 591.410156 637.972656 591.847656 637.320312 C 592.285156 636.664062 592.691406 635.992188 593.0625 635.296875 C 593.433594 634.605469 593.769531 633.894531 594.070312 633.167969 C 594.371094 632.441406 594.636719 631.703125 594.863281 630.949219 C 595.09375 630.199219 595.285156 629.433594 595.4375 628.664062 C 595.59375 627.894531 595.707031 627.117188 595.785156 626.332031 C 595.863281 625.550781 595.902344 624.765625 595.90625 623.980469 L 595.90625 413.703125 L 611.597656 413.703125 C 612.125 413.703125 612.644531 413.648438 613.160156 413.546875 C 613.675781 413.445312 614.175781 413.292969 614.660156 413.09375 C 615.148438 412.890625 615.609375 412.644531 616.046875 412.351562 C 616.484375 412.058594 616.886719 411.726562 617.257812 411.355469 C 617.632812 410.984375 617.960938 410.582031 618.253906 410.144531 C 618.546875 409.707031 618.792969 409.246094 618.996094 408.757812 C 619.195312 408.273438 619.347656 407.773438 619.449219 407.257812 C 619.554688 406.742188 619.605469 406.222656 619.605469 405.695312 L 619.605469 321.035156 C 619.601562 320.25 619.5625 319.464844 619.484375 318.683594 C 619.410156 317.898438 619.292969 317.121094 619.136719 316.351562 C 618.984375 315.582031 618.792969 314.816406 618.5625 314.066406 C 618.335938 313.3125 618.070312 312.574219 617.769531 311.847656 C 617.46875 311.121094 617.132812 310.410156 616.761719 309.71875 C 616.390625 309.023438 615.984375 308.351562 615.546875 307.695312 C 615.109375 307.042969 614.644531 306.414062 614.144531 305.804688 C 613.644531 305.195312 613.117188 304.613281 612.5625 304.058594 C 612.003906 303.503906 611.421875 302.976562 610.816406 302.476562 C 610.207031 301.976562 609.578125 301.507812 608.921875 301.070312 C 608.269531 300.632812 607.59375 300.230469 606.902344 299.859375 C 606.207031 299.488281 605.5 299.152344 604.773438 298.851562 C 604.046875 298.550781 603.304688 298.285156 602.554688 298.054688 C 601.800781 297.828125 601.039062 297.636719 600.269531 297.480469 C 599.496094 297.328125 598.71875 297.210938 597.9375 297.132812 C 597.15625 297.054688 596.371094 297.015625 595.585938 297.015625 Z M 447.394531 297.015625 C 468.03125 278.039062 517.839844 267.019531 541.96875 263.601562 C 543.609375 277.273438 543.390625 294.230469 533.097656 297.015625 Z M 439.390625 397.6875 C 438.796875 397.625 371.996094 397.734375 371.410156 397.6875 L 371.410156 313.027344 C 371.410156 313.027344 432.902344 313.042969 439.390625 313.027344 Z M 507.894531 216.550781 C 529.335938 211.1875 536.472656 230.605469 539.179688 247.855469 C 518.484375 250.867188 466.453125 260.519531 437.078125 284.285156 C 437.542969 275.871094 437.210938 267.484375 436.082031 259.132812 C 446.523438 249.730469 457.789062 241.445312 469.875 234.277344 C 481.960938 227.113281 494.636719 221.203125 507.894531 216.550781 Z M 395.996094 259.097656 L 414.800781 259.097656 C 415.214844 259.097656 415.621094 259.140625 416.023438 259.21875 C 416.425781 259.300781 416.820312 259.421875 417.199219 259.578125 C 417.578125 259.734375 417.9375 259.929688 418.28125 260.15625 C 418.621094 260.386719 418.9375 260.644531 419.230469 260.9375 C 419.519531 261.226562 419.78125 261.542969 420.007812 261.886719 C 420.238281 262.226562 420.429688 262.589844 420.585938 262.96875 C 420.746094 263.347656 420.863281 263.738281 420.945312 264.144531 C 421.023438 264.546875 421.066406 264.953125 421.066406 265.363281 L 421.066406 297.015625 L 389.734375 297.015625 L 389.734375 265.363281 C 389.734375 264.953125 389.777344 264.546875 389.855469 264.144531 C 389.9375 263.738281 390.054688 263.347656 390.214844 262.96875 C 390.371094 262.589844 390.5625 262.226562 390.792969 261.886719 C 391.019531 261.542969 391.28125 261.226562 391.570312 260.9375 C 391.863281 260.644531 392.175781 260.386719 392.519531 260.15625 C 392.859375 259.929688 393.222656 259.734375 393.601562 259.578125 C 393.980469 259.417969 394.375 259.300781 394.777344 259.21875 C 395.179688 259.140625 395.585938 259.097656 395.996094 259.097656 Z M 275.683594 231.703125 C 275.882812 231.011719 276.117188 230.328125 276.382812 229.65625 C 276.648438 228.988281 276.945312 228.332031 277.277344 227.691406 C 277.605469 227.046875 277.96875 226.425781 278.359375 225.820312 C 278.75 225.210938 279.171875 224.628906 279.621094 224.0625 C 280.070312 223.496094 280.542969 222.957031 281.046875 222.4375 C 281.546875 221.917969 282.074219 221.425781 282.625 220.960938 C 283.175781 220.492188 283.746094 220.054688 284.339844 219.644531 C 284.933594 219.234375 285.542969 218.851562 286.175781 218.5 C 286.804688 218.152344 287.453125 217.832031 288.113281 217.542969 C 288.777344 217.257812 289.449219 217.003906 290.136719 216.78125 C 290.824219 216.558594 291.519531 216.371094 292.222656 216.21875 C 292.929688 216.066406 293.640625 215.949219 294.355469 215.863281 C 295.074219 215.78125 295.792969 215.734375 296.515625 215.71875 C 297.234375 215.707031 297.957031 215.730469 298.675781 215.789062 C 299.394531 215.84375 300.109375 215.9375 300.820312 216.066406 C 301.527344 216.191406 302.230469 216.355469 302.925781 216.550781 C 316.179688 221.203125 328.851562 227.113281 340.933594 234.277344 C 353.019531 241.441406 364.28125 249.722656 374.722656 259.121094 C 373.65625 267.476562 373.320312 275.859375 373.722656 284.269531 C 344.34375 260.515625 292.324219 250.867188 271.636719 247.855469 C 272.78125 242.546875 274.085938 237.136719 275.683594 231.703125 Z M 268.847656 263.597656 C 293.898438 267.144531 340.25 277.445312 364.007812 297.015625 L 277.714844 297.015625 C 267.421875 294.230469 267.207031 277.269531 268.847656 263.597656 Z M 207.210938 321.035156 C 207.210938 320.511719 207.261719 319.988281 207.367188 319.472656 C 207.46875 318.960938 207.621094 318.457031 207.820312 317.972656 C 208.023438 317.488281 208.269531 317.027344 208.5625 316.589844 C 208.855469 316.152344 209.1875 315.75 209.558594 315.378906 C 209.929688 315.003906 210.332031 314.671875 210.769531 314.382812 C 211.207031 314.089844 211.667969 313.84375 212.152344 313.640625 C 212.640625 313.441406 213.140625 313.289062 213.65625 313.183594 C 214.171875 313.082031 214.691406 313.03125 215.214844 313.027344 L 355.398438 313.027344 L 355.398438 397.6875 C 345.796875 397.671875 212.960938 397.703125 207.207031 397.6875 Z M 230.910156 623.980469 L 230.910156 413.703125 L 366.085938 413.703125 L 366.085938 631.988281 L 238.914062 631.988281 C 238.390625 631.984375 237.871094 631.933594 237.355469 631.832031 C 236.839844 631.726562 236.339844 631.574219 235.851562 631.375 C 235.367188 631.171875 234.90625 630.925781 234.46875 630.632812 C 234.03125 630.34375 233.628906 630.011719 233.257812 629.640625 C 232.886719 629.265625 232.554688 628.863281 232.261719 628.425781 C 231.96875 627.988281 231.722656 627.527344 231.519531 627.042969 C 231.320312 626.558594 231.167969 626.058594 231.066406 625.542969 C 230.960938 625.027344 230.910156 624.503906 230.910156 623.980469 Z M 382.101562 631.988281 L 382.101562 413.703125 L 428.699219 413.703125 L 428.699219 631.988281 Z M 579.890625 623.980469 C 579.890625 624.503906 579.839844 625.027344 579.734375 625.542969 C 579.632812 626.058594 579.480469 626.558594 579.28125 627.042969 C 579.078125 627.527344 578.832031 627.988281 578.539062 628.425781 C 578.246094 628.863281 577.914062 629.265625 577.542969 629.640625 C 577.171875 630.011719 576.769531 630.34375 576.332031 630.632812 C 575.894531 630.925781 575.433594 631.171875 574.949219 631.375 C 574.460938 631.574219 573.960938 631.726562 573.445312 631.832031 C 572.929688 631.933594 572.410156 631.984375 571.886719 631.988281 L 444.714844 631.988281 L 444.714844 413.703125 L 579.890625 413.703125 Z M 603.589844 397.6875 C 598.488281 397.71875 464.355469 397.667969 455.402344 397.6875 L 455.402344 313.027344 L 595.585938 313.027344 C 596.109375 313.03125 596.628906 313.082031 597.144531 313.183594 C 597.660156 313.289062 598.160156 313.441406 598.648438 313.640625 C 599.132812 313.84375 599.59375 314.089844 600.03125 314.382812 C 600.46875 314.671875 600.871094 315.003906 601.242188 315.378906 C 601.613281 315.75 601.945312 316.152344 602.238281 316.589844 C 602.53125 317.027344 602.777344 317.488281 602.980469 317.972656 C 603.179688 318.457031 603.332031 318.960938 603.433594 319.472656 C 603.539062 319.988281 603.589844 320.511719 603.589844 321.035156 Z M 603.589844 397.6875 " fill-opacity="1" fill-rule="nonzero"/><path stroke-linecap="butt" transform="matrix(0.75, 0, 0, 0.75, 275.39999, 632.330316)" fill="none" stroke-linejoin="miter" d="M -0.00206953 2.002287 L 345.602115 2.002287 " stroke="#ffffff" stroke-width="4" stroke-opacity="1" stroke-miterlimit="4"/></svg>