<?xml version="1.0" encoding="utf-8"?>
<!-- Generator: Adobe Illustrator 27.5.0, SVG Export Plug-In . SVG Version: 6.00 Build 0)  -->
<svg version="1.1" id="Capa_1" xmlns="http://www.w3.org/2000/svg" xmlns:xlink="http://www.w3.org/1999/xlink" x="0px" y="0px"
	 viewBox="0 0 2122 2122" style="enable-background:new 0 0 2122 2122;" xml:space="preserve">
<g>
	<g>
		<path style="fill:#88A17E;" d="M1383.96,816.138c0.112,0.178,0.307,0.285,0.512,0.29c0.248,0.022,0.404-0.095,0.526-0.268
			c24.219-34.96,47.391-70.835,68.877-106.628c0.136-0.232,0.112-0.526-0.063-0.731c-51.323-58.948-95.547-127.586-127.902-198.507
			c-0.01-0.022-0.015-0.046-0.03-0.068c-0.858-1.883-0.93-3.985-0.209-5.924c0.726-1.937,2.158-3.476,4.039-4.333
			c3.883-1.774,8.487-0.051,10.265,3.832c30.884,67.749,73.028,133.654,121.866,190.59c0.131,0.156,0.399,0.246,0.526,0.214
			c0.205-0.017,0.38-0.132,0.483-0.305c26.46-44.989,51.016-90.679,72.989-135.805c0.107-0.222,0.073-0.487-0.083-0.677
			c-54.928-64.731-101.379-143.9-130.806-222.92c-0.721-1.939-0.648-4.044,0.214-5.924c0.858-1.881,2.402-3.313,4.341-4.034
			c1.934-0.723,4.044-0.643,5.92,0.214c1.88,0.86,3.313,2.402,4.034,4.339c27.819,74.77,71.576,150.236,123.206,212.494
			c0.136,0.163,0.36,0.234,0.56,0.222c0.21-0.027,0.395-0.159,0.487-0.351c27.883-58.653,53.052-119.113,74.807-179.698
			c0.068-0.19,0.044-0.402-0.073-0.567c-22.153-32.003-51.449-80.95-65.189-132.397c-1.101-4.124,1.365-8.376,5.491-9.477
			c1.998-0.531,4.083-0.255,5.871,0.785c1.793,1.035,3.069,2.706,3.6,4.706c9.34,35.157,29.267,76.875,56.107,117.469
			c0.132,0.198,0.37,0.297,0.599,0.275c0.234-0.029,0.434-0.19,0.512-0.414c18.455-53.157,34.611-106.904,48.019-159.749
			c1.052-4.139,5.257-6.655,9.413-5.601c2.003,0.509,3.693,1.769,4.751,3.547c1.057,1.776,1.359,3.859,0.848,5.864
			c-14.938,58.857-33.018,118.195-53.759,176.397c-0.097,0.331-0.214,0.658-0.375,1.018c-5.423,15.194-11.333,31.045-18.066,48.458
			c-0.102,0.258-0.019,0.55,0.2,0.718c0.224,0.171,0.526,0.171,0.75,0.01c39.235-28.733,77.043-60.229,112.365-93.61
			c1.447-1.369,3.328-2.117,5.31-2.117c0.078,0,0.151,0,0.224,0.003c2.071,0.058,3.99,0.918,5.413,2.421
			c2.928,3.104,2.792,8.015-0.312,10.948c-41.111,38.853-85.388,75.057-131.605,107.607c-0.814,0.572-1.73,0.982-2.729,1.211
			c-0.195,0.044-0.36,0.185-0.438,0.373c-16.175,40.026-34.032,80.309-53.077,119.727c-0.01,0.012-0.083,0.207-0.088,0.222
			c-0.088,0.221-0.044,0.477,0.122,0.653c0.156,0.178,0.414,0.251,0.638,0.176c64.185-19.45,125.428-46.938,182.017-81.705
			c1.764-1.082,3.854-1.415,5.852-0.933c2.012,0.48,3.717,1.715,4.799,3.476c1.082,1.764,1.418,3.842,0.935,5.854
			c-0.482,2.013-1.715,3.715-3.479,4.799c-62.494,38.393-129.987,67.939-200.613,87.822c-0.166,0.046-0.312,0.163-0.39,0.321
			c-24.005,48.256-49.885,95.457-76.916,140.29c-0.127,0.212-0.117,0.479,0.024,0.682c0.146,0.197,0.36,0.297,0.638,0.251
			c65.072-13.272,128.54-33.562,188.628-60.304c3.888-1.735,8.492,0.022,10.226,3.927c1.735,3.9-0.029,8.487-3.927,10.222
			c-66.212,29.467-135.922,51.14-207.186,64.419c-0.176,0.034-0.327,0.137-0.419,0.285c-17.023,27.505-34.889,54.845-53.101,81.257
			c-0.146,0.205-0.151,0.475-0.015,0.687c0.117,0.183,0.317,0.29,0.526,0.29c0.034,0,0.068-0.003,0.102-0.008
			c23.82-3.885,86.368-16.441,152.458-49.031c82.455-40.66,141.398-97.342,175.196-168.47
			c20.76-43.698,31.854-94.105,32.969-149.815c0.892-44.55-4.556-92.575-16.195-142.741
			c-19.81-85.398-51.137-148.241-51.454-148.864c-0.127-0.256-0.39-0.383-0.692-0.329c-0.682,0.151-69.183,15.562-147.902,54.153
			c-46.236,22.668-86.908,48.782-120.877,77.617c-42.484,36.059-74.548,76.499-95.313,120.197
			c-34.319,72.236-38.48,156.144-12.37,249.396C1337.1,737.911,1370.537,795,1383.96,816.138z"/>
		<path style="fill:#88A17E;" d="M1015.305,1006.084c58.311,49.021,117.927,77.267,140.85,87.135
			c0.083,0.034,0.166,0.051,0.248,0.051c0.122,0,0.238-0.034,0.341-0.102c0.175-0.117,0.282-0.312,0.282-0.521
			c-0.03-41.829-1.423-84.645-4.136-127.259c-0.02-0.268-0.205-0.495-0.463-0.565c-75.381-19.888-150.331-51.708-216.757-92.017
			c-3.649-2.214-4.816-6.987-2.601-10.636c1.072-1.769,2.769-3.013,4.779-3.505c1.998-0.485,4.088-0.173,5.856,0.904
			c63.371,38.47,134.989,69.169,207.106,88.782c0.195,0.061,0.409,0.01,0.56-0.119c0.156-0.129,0.244-0.326,0.229-0.526
			c-3.712-51.427-9.32-103.079-16.677-153.52c-0.039-0.243-0.214-0.443-0.453-0.511c-81.335-22.685-163.749-61.858-232.058-110.305
			c-1.686-1.196-2.806-2.977-3.152-5.016c-0.348-2.039,0.119-4.09,1.318-5.779c1.196-1.688,2.977-2.808,5.016-3.155
			c2.036-0.338,4.088,0.119,5.778,1.321c64.636,45.868,142.763,83.508,219.985,105.982c0.215,0.066,0.429,0.012,0.585-0.131
			c0.161-0.139,0.239-0.353,0.205-0.563c-9.432-60.972-21.608-121.761-36.195-180.682c-0.049-0.195-0.19-0.356-0.38-0.432
			c-56.925-22.17-109.875-64.986-130-82.365c-3.228-2.792-3.584-7.691-0.792-10.924c1.352-1.564,3.233-2.507,5.296-2.658
			c2.073-0.132,4.061,0.514,5.625,1.866c36.073,31.25,78.831,59.298,114.375,75.031c0.219,0.095,0.472,0.061,0.657-0.095
			c0.18-0.153,0.259-0.4,0.2-0.631c-15.074-58.287-32.599-115.004-52.085-168.575c-0.709-1.942-0.616-4.044,0.258-5.919
			c0.872-1.873,2.426-3.296,4.367-4.003c4.022-1.454,8.47,0.619,9.925,4.631c26.187,71.99,48.696,149.266,66.904,229.678
			c0.063,0.27,0.297,0.47,0.575,0.484c0.014,0,0.024,0,0.034,0c0.268,0,0.502-0.168,0.59-0.421
			c12.219-35.859,22.933-73.778,33.71-119.338c0.984-4.153,5.126-6.75,9.321-5.754c4.151,0.984,6.733,5.165,5.749,9.32
			c-8.477,35.822-22.178,89.954-43.162,146.202c-0.039,0.11-0.049,0.229-0.024,0.346c8.414,40.01,15.746,80.658,21.788,120.821
			c0.019,0.119,0.073,0.234,0.156,0.324c1.759,1.964,2.402,4.643,1.725,7.17c-0.107,0.404-0.263,0.816-0.487,1.296
			c-0.049,0.11-0.068,0.234-0.054,0.356l0.307,2.227c0.039,0.246,0.219,0.448,0.458,0.514c0.243,0.054,0.501-0.025,0.653-0.222
			c41.642-53.893,71.708-116.682,87.859-150.414c0.897-1.866,2.465-3.272,4.414-3.959c1.954-0.692,4.054-0.577,5.92,0.322
			c3.849,1.846,5.481,6.48,3.639,10.329c-18.095,37.715-51.766,107.914-99.654,165.797c-0.107,0.134-0.161,0.307-0.136,0.48
			c6.797,50.724,11.805,101.734,14.879,151.615c0.015,0.251,0.18,0.468,0.419,0.551c0.239,0.078,0.497,0.01,0.667-0.171
			c33.559-37.123,62.416-73.937,88.214-112.546c1.15-1.72,2.899-2.889,4.926-3.293c2.047-0.397,4.098,0.009,5.817,1.157
			c3.547,2.373,4.502,7.191,2.134,10.74c-28.984,43.386-61.744,84.565-100.146,125.893c-0.102,0.11-0.214,0.2-0.326,0.292
			l-0.244,0.207c-0.137,0.127-0.214,0.307-0.205,0.494c1.622,32.11,2.509,63.924,2.626,94.558c0,0.26,0.166,0.492,0.41,0.582
			c0.243,0.1,0.521,0.019,0.687-0.181c33.437-39.108,140.389-180.577,112.711-358.974
			c-16.789-108.227-81.549-197.218-132.916-252.816c-55.645-60.224-108.008-95.328-108.529-95.676
			c-0.26-0.171-0.589-0.134-0.799,0.09c-0.48,0.509-48.449,51.788-91.822,127.973c-25.478,44.753-44.414,89.22-56.28,132.17
			c-14.838,53.71-18.602,105.184-11.184,152.991C897.013,871.711,940.947,943.575,1015.305,1006.084z"/>
		<path style="fill:#88A17E;" d="M1964.928,908.944c-0.506-0.373-51.449-37.505-127.113-69.101
			c-69.851-29.164-175.683-59.442-283.079-38.073c-176.964,35.213-273.188,184.198-298.46,229.02
			c-0.131,0.227-0.102,0.512,0.063,0.709c0.171,0.202,0.453,0.273,0.687,0.185c29.418-10.616,59.605-20.724,89.739-30.039
			c0.181-0.056,0.322-0.19,0.395-0.363l0.098-0.275c0.039-0.11,0.078-0.221,0.131-0.329c25.647-50.268,53.087-95.174,83.874-137.272
			c2.524-3.444,7.371-4.192,10.826-1.676c1.666,1.218,2.762,3.016,3.079,5.06c0.317,2.044-0.185,4.087-1.403,5.759
			c-27.396,37.464-52.058,77.186-75.405,121.442c-0.117,0.221-0.093,0.492,0.068,0.685c0.161,0.195,0.419,0.29,0.658,0.202
			c48.204-14.317,97.841-27.135,147.542-38.1c0.166-0.037,0.312-0.144,0.4-0.295c37.929-64.809,92.278-120.499,121.481-150.416
			c1.442-1.481,3.377-2.309,5.447-2.334c0.029,0,0.063,0,0.093,0c2.032,0,3.951,0.779,5.408,2.202
			c1.481,1.447,2.309,3.381,2.334,5.45c0.025,2.068-0.76,4.022-2.207,5.503c-26.129,26.746-74.777,76.529-111.089,134.102
			c-0.136,0.212-0.127,0.485,0.015,0.69c0.146,0.209,0.424,0.295,0.638,0.256l2.202-0.458c0.117-0.024,0.229-0.083,0.312-0.168
			c0.302-0.3,0.633-0.614,1.023-0.885c2.124-1.493,4.852-1.815,7.293-0.85c0.112,0.046,0.239,0.051,0.356,0.032
			c40.097-8.176,80.833-15.257,121.062-21.048c0.117-0.017,0.229-0.066,0.317-0.141c45.564-38.95,91.649-70.365,122.372-90.621
			c0.019-0.01,0.044-0.022,0.068-0.036c1.72-1.138,3.776-1.54,5.817-1.12c2.027,0.417,3.771,1.595,4.906,3.323
			c2.343,3.564,1.354,8.378-2.202,10.726c-39.075,25.751-70.977,48.792-100.39,72.514c-0.219,0.175-0.292,0.472-0.185,0.728
			c0.112,0.258,0.38,0.4,0.653,0.375c81.261-10.424,161.524-15.769,238.557-15.883c0.005,0,0.01,0,0.015,0
			c2.066,0,4.005,0.801,5.466,2.26c1.466,1.459,2.276,3.403,2.276,5.471c0,2.07-0.799,4.015-2.261,5.478
			c-1.461,1.467-3.401,2.273-5.471,2.276c-57.052,0.08-116.341,3.082-176.219,8.923c-0.239,0.024-0.443,0.18-0.526,0.404
			c-0.083,0.227-0.029,0.478,0.136,0.651c26.962,27.978,67.986,58.516,109.739,81.688c1.807,1.004,3.118,2.653,3.683,4.641
			c0.57,1.988,0.326,4.081-0.677,5.888c-2.071,3.732-6.797,5.079-10.534,3.006c-23.254-12.952-81.705-48.031-122.061-93.926
			c-0.132-0.156-0.331-0.198-0.536-0.209c-60.185,6.516-121.452,15.951-182.095,28.044c-0.209,0.041-0.385,0.188-0.458,0.385
			c-0.078,0.2-0.049,0.424,0.078,0.597c47.62,64.843,109.802,125.325,175.094,170.31c3.518,2.424,4.409,7.257,1.988,10.772
			c-2.431,3.513-7.269,4.404-10.772,1.981c-68.96-47.542-134.046-111.51-183.269-180.124c-0.141-0.2-0.395-0.292-0.634-0.248
			c-50.436,10.514-100.886,22.953-149.953,36.972c-0.195,0.056-0.351,0.203-0.419,0.393c-0.068,0.19-0.034,0.402,0.083,0.567
			c43.182,61.038,96.619,117.793,154.524,164.129c1.613,1.291,2.626,3.135,2.855,5.191s-0.36,4.078-1.651,5.693
			c-1.291,1.615-3.133,2.629-5.189,2.858c-2.071,0.224-4.083-0.361-5.696-1.652c-60.662-48.56-116.277-108.043-160.833-172.022
			c-0.151-0.219-0.423-0.314-0.687-0.243c-40.648,11.988-81.33,25.386-120.925,39.819c-0.195,0.073-0.346,0.239-0.395,0.443
			c-0.044,0.205,0.01,0.419,0.156,0.573c17.14,18.146,64.141,64.45,130.192,102.387c63.761,36.623,126.563,55.036,187.43,55.033
			c19.537-0.002,38.884-1.9,57.987-5.7c47.45-9.442,94.504-30.643,139.859-63.016c36.268-25.885,71.537-58.933,104.823-98.222
			c56.672-66.886,88.37-129.542,88.682-130.165C1965.25,909.453,1965.172,909.124,1964.928,908.944z"/>
		<path style="fill:#88A17E;" d="M1586.785,1320.86c-59.902-46.277-154.246-102.952-263.532-110.153
			c-180.141-11.912-311.615,107.089-347.634,143.832c-0.183,0.185-0.229,0.465-0.12,0.702c0.11,0.231,0.305,0.388,0.619,0.356
			c31.542-2.663,63.327-4.609,94.472-5.781c0.185-0.007,0.361-0.097,0.473-0.248l0.166-0.234c0.063-0.09,0.122-0.183,0.195-0.266
			c0.005-0.002,0.005-0.002,0.005-0.004c37.802-41.903,75.941-78.159,116.594-110.836c3.333-2.675,8.214-2.146,10.884,1.182
			c2.675,3.33,2.144,8.214-1.179,10.887c-36.151,29.062-70.271,61.03-104.312,97.737c-0.171,0.183-0.214,0.453-0.112,0.68
			c0.107,0.229,0.312,0.41,0.585,0.368c18.87-0.499,37.681-0.753,55.917-0.753c31.703,0,64.161,0.738,96.463,2.195
			c0.175-0.002,0.346-0.056,0.467-0.18c53.418-52.741,120.346-92.443,156.302-113.773c1.783-1.05,3.859-1.354,5.871-0.84
			c2.003,0.514,3.688,1.776,4.74,3.557c2.178,3.671,0.96,8.431-2.709,10.609c-32.175,19.055-92.068,54.524-142.095,100.75
			c-0.185,0.17-0.248,0.433-0.161,0.67c0.083,0.234,0.302,0.397,0.55,0.412l2.231,0.119c0.127-0.005,0.244-0.024,0.346-0.085
			c0.482-0.278,0.867-0.465,1.257-0.607c2.436-0.891,5.159-0.494,7.264,1.067c0.097,0.07,0.21,0.112,0.331,0.122
			c40.365,2.47,81.52,6.202,122.319,11.091c0.112,0,0.234-0.004,0.341-0.056c54.192-25.854,106.898-44.258,141.822-55.851
			c4.068-1.355,8.443,0.86,9.788,4.909c1.345,4.054-0.857,8.445-4.906,9.791c-44.424,14.742-81.222,28.735-115.81,44.031
			c-0.253,0.112-0.404,0.382-0.365,0.658c0.039,0.276,0.258,0.492,0.536,0.531c81.359,11.018,160.283,26.655,234.572,46.48
			c4.126,1.101,6.587,5.352,5.486,9.479c-1.101,4.124-5.35,6.588-9.481,5.486c-54.777-14.621-112.808-27.074-172.482-37.016
			c-0.234-0.031-0.468,0.063-0.614,0.256c-0.136,0.194-0.151,0.453-0.034,0.662c18.796,34.002,50.49,74.11,84.784,107.291
			c0.015,0.014,0.029,0.026,0.044,0.041c3.025,2.974,3.089,7.856,0.132,10.908c-2.963,3.062-7.878,3.152-10.952,0.171
			c-19.104-18.538-66.46-67.569-93.535-122.348c-0.093-0.183-0.263-0.309-0.463-0.341c-59.693-9.294-121.31-16.059-183.137-20.107
			c-0.161-0.046-0.414,0.08-0.541,0.253c-0.127,0.171-0.156,0.395-0.078,0.594c29.184,74.965,73.559,149.496,124.95,209.859
			c0.01,0.017,0.024,0.031,0.044,0.046c2.719,3.254,2.314,8.117-0.921,10.87c-3.264,2.765-8.156,2.365-10.918-0.88
			c-54.266-63.776-100.541-142.424-130.294-221.452c-0.088-0.231-0.302-0.39-0.551-0.404c-40.687-2.309-81.262-3.481-120.594-3.481
			c-10.173,0-20.921,0.097-33.822,0.307c-0.204,0.002-0.39,0.105-0.506,0.27c-0.112,0.168-0.137,0.38-0.068,0.57
			c25.886,70.141,62.777,138.801,106.689,198.562c0.015,0.017,0.024,0.034,0.039,0.051c2.484,3.437,1.73,8.258-1.696,10.775
			c-3.434,2.526-8.302,1.779-10.826-1.659c-45.997-62.619-84.292-134.482-110.738-207.825c-0.088-0.249-0.321-0.412-0.585-0.412
			c-0.005,0-0.01,0-0.015,0c-42.487,1.043-85.257,3.43-127.12,7.096c-0.21,0.017-0.395,0.141-0.494,0.326
			c-0.1,0.183-0.1,0.407,0,0.592c11.852,21.968,45.24,78.872,99.201,132.638c68.809,68.563,144.253,105.997,224.243,111.269
			c6.709,0.443,13.466,0.665,20.277,0.665c42.178-0.002,86.193-8.472,131.133-25.269c41.739-15.598,84.37-38.375,126.704-67.691
			c72.078-49.91,118.932-102.204,119.401-102.728c0.2-0.226,0.209-0.568,0.019-0.804
			C1691.248,1420.059,1651.672,1370.99,1586.785,1320.86z"/>
		<path style="fill:#88A17E;" d="M1175.156,1683.31c-56.073-50.848-145.666-114.777-254.041-130.557
			c-178.599-26.012-319.072,82.217-357.871,116.009c-0.197,0.171-0.265,0.446-0.175,0.689c0.092,0.244,0.324,0.405,0.584,0.405
			h0.003l4.124-0.029c2.173-0.017,4.346-0.034,6.526-0.034c27.496,0,55.746,0.592,83.966,1.756c0.246,0.041,0.368-0.07,0.489-0.207
			c0.068-0.075,0.132-0.153,0.195-0.231c0.068-0.087,0.136-0.175,0.224-0.255c40.979-38.794,81.851-71.934,124.955-101.313
			c3.525-2.412,8.351-1.493,10.76,2.036c2.405,3.528,1.491,8.354-2.036,10.758c-38.363,26.156-74.925,55.369-111.776,89.313
			c-0.185,0.171-0.251,0.434-0.166,0.67c0.085,0.237,0.305,0.397,0.556,0.412c51.23,2.682,102.333,7.172,151.888,13.343
			c0.161,0.012,0.348-0.029,0.48-0.142c57.413-48.38,127.254-82.684,164.777-101.113c1.854-0.911,3.956-1.042,5.915-0.377
			c1.956,0.67,3.537,2.061,4.448,3.917c0.911,1.856,1.045,3.956,0.378,5.915c-0.67,1.956-2.058,3.535-3.917,4.446
			c-33.598,16.477-96.139,47.15-149.632,89.293c-0.197,0.156-0.282,0.412-0.216,0.653c0.065,0.243,0.27,0.422,0.519,0.456
			l2.175,0.29c0.119,0.012,0.249-0.003,0.361-0.061c0.472-0.234,0.923-0.409,1.378-0.536c2.533-0.714,5.231-0.076,7.213,1.688
			c0.093,0.083,0.205,0.134,0.327,0.151c40.082,5.649,80.769,12.599,120.933,20.66c0.112,0.024,0.234,0.015,0.346-0.029
			c56.098-21.528,110.107-35.732,145.854-44.541c2.003-0.49,4.083-0.178,5.861,0.89c1.769,1.069,3.016,2.765,3.513,4.772
			c1.018,4.146-1.52,8.351-5.671,9.371c-45.486,11.214-83.298,22.273-118.996,34.809c-0.263,0.092-0.434,0.351-0.417,0.629
			c0.019,0.277,0.219,0.511,0.492,0.57c80.523,17.45,158,39.242,230.268,64.772c1.954,0.69,3.517,2.097,4.414,3.964
			c0.891,1.866,1.004,3.968,0.312,5.919c-0.687,1.949-2.095,3.513-3.961,4.407c-1.871,0.887-3.961,1.001-5.92,0.314
			c-53.466-18.892-110.338-35.874-169.032-50.475c-0.234-0.073-0.482,0.022-0.629,0.205c-0.156,0.185-0.19,0.439-0.092,0.658
			c16.068,35.386,44.507,77.864,76.078,113.63c2.821,3.203,2.514,8.107-0.692,10.93c-3.196,2.819-8.102,2.516-10.928-0.689
			c-17.574-19.968-60.892-72.536-83.581-129.254c-0.076-0.188-0.239-0.329-0.437-0.375
			c-59.481-14.134-120.387-25.766-181.023-34.573c-0.229-0.039-0.424,0.049-0.563,0.209c-0.139,0.161-0.185,0.383-0.124,0.587
			c23.188,77.04,61.561,154.843,108.051,219.072c1.211,1.676,1.698,3.724,1.371,5.766c-0.329,2.044-1.432,3.837-3.109,5.05
			c-3.464,2.495-8.312,1.72-10.813-1.737c-49.067-67.844-89.001-149.871-112.443-230.972c-0.068-0.236-0.27-0.412-0.514-0.446
			c-51.771-7.062-103.486-12.244-153.71-15.398c-0.214-0.031-0.397,0.073-0.524,0.229c-0.127,0.158-0.171,0.368-0.115,0.56
			c20.283,71.973,51.657,143.337,90.731,206.372c1.091,1.759,1.43,3.837,0.957,5.849c-0.472,2.015-1.7,3.722-3.459,4.811
			c-1.759,1.094-3.83,1.435-5.849,0.959c-2.015-0.472-3.722-1.703-4.811-3.461c-40.909-66.012-73.415-140.636-94.007-215.802
			c-0.07-0.258-0.299-0.443-0.567-0.458c-38.214-2.075-75.376-3.128-110.453-3.128c-5.165,0-10.312,0.044-15.456,0.09l-1.398,0.013
			c-0.209,0.002-0.405,0.11-0.519,0.285c-0.115,0.178-0.132,0.4-0.046,0.59c10.083,22.835,38.886,82.187,88.451,140.041
			c63.196,73.761,135.459,117.018,214.782,128.57c14.909,2.173,30.158,3.255,45.715,3.255c34.399,0,70.277-5.299,107.166-15.861
			c42.836-12.266,87.126-31.613,131.642-57.506c75.775-44.081,126.606-92.526,127.113-93.009c0.219-0.212,0.254-0.548,0.083-0.801
			C1271.487,1790.426,1235.892,1738.392,1175.156,1683.31z"/>
		<path style="fill:#88A17E;" d="M684.421,1331.818c58.317,49.023,117.927,77.267,140.85,87.133
			c0.078,0.034,0.163,0.051,0.246,0.051c0.12,0,0.239-0.034,0.344-0.102c0.175-0.117,0.28-0.312,0.28-0.521
			c-0.029-41.802-1.42-84.618-4.134-127.257c-0.017-0.268-0.202-0.494-0.462-0.565c-75.376-19.885-150.329-51.705-216.757-92.017
			c-1.769-1.072-3.013-2.77-3.506-4.78c-0.489-2.01-0.17-4.09,0.904-5.857c1.072-1.769,2.77-3.013,4.779-3.505
			c2-0.49,4.088-0.173,5.856,0.901c63.379,38.472,134.996,69.174,207.108,88.784c0.198,0.058,0.405,0.007,0.56-0.12
			c0.156-0.129,0.239-0.326,0.224-0.526c-3.717-51.493-9.328-103.145-16.677-153.52c-0.034-0.244-0.212-0.444-0.448-0.512
			c-81.332-22.684-163.747-61.858-232.06-110.304c-3.484-2.471-4.307-7.313-1.837-10.797c2.473-3.479,7.32-4.299,10.797-1.834
			c64.643,45.873,142.77,83.513,219.987,105.983c0.207,0.061,0.427,0.009,0.587-0.132c0.161-0.139,0.236-0.353,0.205-0.563
			c-9.43-60.94-21.608-121.729-36.195-180.679c-0.049-0.195-0.193-0.356-0.38-0.431c-56.928-22.171-109.88-64.987-130.007-82.368
			c-1.564-1.352-2.507-3.232-2.658-5.296c-0.149-2.063,0.514-4.061,1.868-5.625c2.797-3.225,7.698-3.583,10.921-0.794
			c36.078,31.252,78.836,59.303,114.375,75.033c0.227,0.102,0.475,0.061,0.657-0.095c0.183-0.154,0.258-0.4,0.2-0.631
			c-15.084-58.319-32.609-115.035-52.088-168.572c-1.459-4.015,0.617-8.467,4.631-9.924c4.012-1.464,8.463,0.619,9.922,4.628
			c26.19,72.002,48.702,149.279,66.906,229.681c0.063,0.27,0.297,0.47,0.575,0.485c0.012,0,0.024,0,0.034,0
			c0.265,0,0.504-0.168,0.589-0.422c12.2-35.793,22.909-73.715,33.708-119.34c0.475-2.012,1.708-3.72,3.466-4.806
			c1.756-1.084,3.83-1.42,5.851-0.945c2.013,0.477,3.72,1.708,4.806,3.469c1.087,1.759,1.42,3.837,0.945,5.849
			c-8.477,35.817-22.173,89.939-43.16,146.204c-0.041,0.11-0.049,0.229-0.027,0.346c8.422,40.019,15.752,80.67,21.791,120.818
			c0.017,0.122,0.071,0.234,0.151,0.324c1.761,1.961,2.407,4.643,1.732,7.172c-0.105,0.392-0.263,0.804-0.494,1.296
			c-0.051,0.109-0.07,0.233-0.051,0.355l0.307,2.227c0.034,0.246,0.215,0.448,0.458,0.514c0.236,0.063,0.497-0.025,0.653-0.222
			c41.628-53.876,71.705-116.677,87.864-150.416c0.892-1.866,2.458-3.269,4.409-3.956c1.956-0.686,4.051-0.575,5.917,0.322
			c1.866,0.894,3.272,2.461,3.959,4.412c0.687,1.949,0.572,4.051-0.322,5.914c-18.09,37.717-51.766,107.922-99.644,165.797
			c-0.112,0.134-0.161,0.307-0.139,0.48c6.799,50.775,11.805,101.786,14.877,151.618c0.018,0.251,0.181,0.468,0.417,0.55
			c0.239,0.08,0.504,0.012,0.67-0.171c33.581-37.149,62.436-73.965,88.215-112.547c2.372-3.552,7.189-4.507,10.74-2.134
			c3.547,2.37,4.507,7.189,2.136,10.741c-28.986,43.386-61.746,84.567-100.146,125.892c-0.1,0.11-0.215,0.2-0.329,0.292
			l-0.236,0.203c-0.141,0.124-0.22,0.307-0.21,0.497c1.622,32.115,2.505,63.929,2.626,94.56c0,0.26,0.163,0.492,0.409,0.582
			c0.246,0.095,0.519,0.022,0.69-0.18c33.437-39.109,140.389-180.58,112.711-358.974
			c-16.792-108.226-81.549-197.218-132.918-252.816c-55.647-60.224-108.01-95.327-108.531-95.676
			c-0.261-0.171-0.592-0.137-0.799,0.09c-0.48,0.509-48.448,51.788-91.822,127.973c-25.479,44.753-44.411,89.22-56.277,132.17
			c-14.838,53.71-18.602,105.184-11.184,152.991C566.129,1197.445,610.063,1269.309,684.421,1331.818z"/>
		<path style="fill:#88A17E;" d="M561.379,1320.914c-16.792-108.226-81.549-197.218-132.918-252.816
			c-55.644-60.224-108.007-95.328-108.528-95.676c-0.256-0.171-0.592-0.136-0.799,0.09c-0.48,0.509-48.448,51.788-91.822,127.973
			c-25.479,44.753-44.414,89.22-56.28,132.17c-14.838,53.71-18.602,105.184-11.184,152.992
			c12.292,79.22,56.226,151.084,130.584,213.593c58.317,49.023,117.927,77.267,140.85,87.132c0.078,0.034,0.163,0.051,0.246,0.051
			c0.12,0,0.239-0.034,0.344-0.102c0.175-0.117,0.28-0.312,0.28-0.521c-0.029-41.839-1.42-84.655-4.134-127.257
			c-0.017-0.268-0.202-0.494-0.462-0.565c-75.376-19.886-150.329-51.705-216.757-92.017c-1.769-1.072-3.013-2.77-3.506-4.78
			c-0.489-2.01-0.17-4.09,0.904-5.856c2.214-3.649,6.982-4.823,10.636-2.604c63.377,38.472,134.994,69.174,207.108,88.784
			c0.193,0.049,0.402,0.007,0.56-0.119c0.156-0.129,0.239-0.327,0.224-0.526c-3.718-51.493-9.328-103.145-16.677-153.52
			c-0.034-0.244-0.212-0.443-0.448-0.511c-81.332-22.685-163.746-61.859-232.06-110.305c-3.481-2.47-4.305-7.313-1.834-10.797
			c2.468-3.481,7.313-4.297,10.794-1.834c64.643,45.873,142.77,83.51,219.987,105.982c0.207,0.063,0.429,0.013,0.587-0.131
			c0.161-0.139,0.237-0.353,0.204-0.563c-9.43-60.945-21.607-121.734-36.195-180.68c-0.048-0.195-0.193-0.355-0.38-0.431
			c-56.923-22.168-109.878-64.987-130.005-82.367c-1.564-1.352-2.509-3.233-2.658-5.296c-0.151-2.063,0.512-4.061,1.866-5.625
			c2.789-3.228,7.695-3.584,10.921-0.792c36.078,31.25,78.836,59.301,114.375,75.031c0.227,0.102,0.475,0.061,0.658-0.095
			c0.183-0.153,0.258-0.4,0.2-0.631c-15.082-58.312-32.607-115.028-52.085-168.575c-0.709-1.944-0.616-4.046,0.258-5.919
			c0.872-1.876,2.424-3.296,4.368-4.003c4.022-1.457,8.465,0.619,9.924,4.631c26.19,72,48.699,149.274,66.906,229.679
			c0.063,0.27,0.297,0.47,0.575,0.484c0.013,0,0.025,0,0.034,0c0.266,0,0.504-0.168,0.589-0.421
			c12.21-35.825,22.919-73.744,33.708-119.34c0.984-4.153,5.172-6.74,9.318-5.751c2.012,0.477,3.72,1.708,4.806,3.469
			c1.087,1.759,1.423,3.837,0.945,5.849c-8.477,35.82-22.175,89.946-43.16,146.205c-0.041,0.109-0.049,0.229-0.027,0.346
			c8.422,40.012,15.752,80.663,21.791,120.821c0.017,0.122,0.071,0.234,0.154,0.324c1.759,1.959,2.404,4.638,1.73,7.169
			c-0.11,0.405-0.266,0.816-0.492,1.294c-0.053,0.112-0.073,0.237-0.053,0.358l0.309,2.227c0.036,0.249,0.216,0.45,0.458,0.514
			c0.249,0.054,0.497-0.025,0.653-0.222c41.622-53.871,71.7-116.675,87.861-150.414c0.892-1.866,2.458-3.272,4.409-3.959
			c1.951-0.689,4.051-0.572,5.917,0.322c1.866,0.894,3.272,2.46,3.959,4.411c0.687,1.949,0.572,4.051-0.322,5.915
			c-18.09,37.717-51.766,107.922-99.644,165.797c-0.112,0.134-0.161,0.307-0.139,0.48c6.799,50.77,11.805,101.781,14.877,151.617
			c0.017,0.251,0.18,0.468,0.417,0.551c0.243,0.08,0.504,0.012,0.669-0.171c33.581-37.15,62.436-73.966,88.214-112.548
			c1.15-1.72,2.899-2.889,4.928-3.291c2.029-0.402,4.095,0.01,5.812,1.157c1.72,1.148,2.889,2.896,3.294,4.926
			c0.402,2.029-0.008,4.095-1.158,5.815c-28.986,43.386-61.746,84.568-100.146,125.893c-0.1,0.11-0.215,0.2-0.329,0.292
			l-0.236,0.202c-0.141,0.124-0.219,0.309-0.21,0.497c1.622,32.114,2.504,63.929,2.626,94.56c0,0.261,0.163,0.492,0.409,0.582
			c0.243,0.095,0.519,0.019,0.689-0.18C482.104,1640.78,589.057,1499.308,561.379,1320.914z"/>
	</g>
	<path style="fill:#D0CD9C;" d="M1947.672,909.799c-1.701-1.693-3.951-2.624-6.349-2.624c-0.005,0-0.01,0-0.015,0
		c-76.395,0.114-155.961,5.367-236.526,15.613c28.911-23.208,60.297-45.832,98.577-71.057c4.131-2.728,5.281-8.317,2.558-12.456
		c-1.321-2.005-3.347-3.374-5.7-3.859c-2.329-0.475-4.707-0.032-6.689,1.259c-0.024,0.013-0.049,0.024-0.068,0.039
		c-30.724,20.251-76.819,51.669-122.421,90.636c-40.136,5.781-80.769,12.845-120.779,20.996c-2.796-1.035-5.881-0.641-8.292,1.057
		c-0.404,0.283-0.745,0.59-1.052,0.889l-0.58,0.119c36.156-56.938,84.229-106.134,110.143-132.653
		c3.464-3.547,3.396-9.252-0.156-12.716c-1.691-1.652-3.912-2.558-6.275-2.558c-0.034,0-0.073,0-0.112,0
		c-2.402,0.029-4.648,0.991-6.324,2.709c-29.198,29.922-83.522,85.586-121.52,150.423c-49.15,10.851-98.236,23.513-145.939,37.642
		c23.114-43.673,47.532-82.931,74.616-119.976c1.418-1.939,1.998-4.312,1.632-6.684c-0.37-2.373-1.637-4.461-3.576-5.879
		c-4.01-2.923-9.642-2.053-12.565,1.949c-30.831,42.153-58.304,87.11-83.98,137.442c-0.073,0.141-0.127,0.285-0.176,0.431
		c-30.051,9.299-60.161,19.379-89.495,29.966c-2.353,0.85-4.707,1.7-7.05,2.555c51.337-65.881,101.875-136.151,150.231-208.894
		l1.364-1.99c18.173-26.354,36-53.628,52.994-81.072c71.269-13.304,140.979-34.989,207.196-64.456
		c4.526-2.015,6.572-7.34,4.56-11.868c-2.017-4.523-7.337-6.577-11.873-4.56c-59.581,26.517-122.48,46.68-186.981,59.937
		c26.738-44.421,52.337-91.15,76.107-138.911c70.636-19.915,138.153-49.481,200.662-87.886c2.047-1.257,3.479-3.235,4.039-5.571
		c0.555-2.336,0.171-4.75-1.087-6.797c-1.257-2.046-3.235-3.478-5.569-4.036c-2.343-0.558-4.755-0.176-6.797,1.084
		c-56.107,34.47-116.789,61.774-180.389,81.167c18.816-38.996,36.463-78.828,52.468-118.414c1.033-0.275,1.988-0.721,2.85-1.328
		c46.261-32.582,90.587-68.826,131.742-107.72c3.601-3.405,3.761-9.108,0.361-12.712c-3.41-3.6-9.106-3.756-12.711-0.355
		c-34.767,32.857-71.951,63.888-110.529,92.248c6.421-16.643,12.092-31.873,17.296-46.458c0.161-0.368,0.297-0.738,0.405-1.092
		c20.74-58.207,38.835-117.583,53.778-176.477c0.594-2.326,0.243-4.746-0.984-6.809c-1.228-2.063-3.187-3.525-5.52-4.117
		c-4.799-1.215-9.701,1.703-10.923,6.502c-13.301,52.414-29.306,105.72-47.576,158.453c-26.421-40.153-46.022-81.323-55.245-116.048
		c-0.619-2.319-2.105-4.261-4.18-5.464c-2.085-1.211-4.512-1.535-6.821-0.909c-4.789,1.277-7.649,6.212-6.378,11.001
		c13.749,51.479,43.001,100.434,65.189,132.521c-21.608,60.146-46.577,120.158-74.231,178.399
		c-51.274-62.01-94.718-137.04-122.377-211.378c-0.838-2.251-2.499-4.039-4.682-5.038s-4.619-1.092-6.88-0.251
		c-2.25,0.838-4.039,2.502-5.037,4.685c-0.999,2.185-1.087,4.626-0.248,6.877c29.427,79.028,75.859,158.202,130.757,222.984
		c-21.793,44.728-46.12,90.002-72.317,134.599c-48.526-56.694-90.397-122.251-121.115-189.63c-2.056-4.514-7.411-6.497-11.912-4.451
		c-2.183,0.996-3.849,2.784-4.687,5.033c-0.833,2.227-0.755,4.641,0.21,6.806c0.005,0.024,0.014,0.049,0.029,0.07
		c32.341,70.914,76.541,139.557,127.825,198.536c-21.404,35.642-44.482,71.359-68.595,106.17c-1.086,1.564-2.153,3.136-3.22,4.709
		c-1.403,2.061-2.801,4.124-4.234,6.161c-0.361,0.501-0.663,1.057-0.872,1.591c-64.302,95.778-132.229,186.835-201.91,270.667
		c0.005-0.395,0.01-0.789,0.015-1.181c0.01-1.099,0.024-2.2,0.024-3.301c0-1.379-0.024-2.765-0.044-4.151
		c-0.019-1.208-0.039-2.414-0.044-3.618c-0.117-30.555-0.999-62.282-2.611-94.309c0.146-0.12,0.292-0.244,0.428-0.39
		c38.446-41.376,71.245-82.606,100.263-126.048c2.757-4.12,1.647-9.715-2.475-12.47c-1.993-1.333-4.38-1.805-6.753-1.343
		c-2.353,0.471-4.385,1.828-5.715,3.825c-25.516,38.176-54.017,74.594-87.113,111.301c-3.079-49.349-8.044-99.79-14.763-149.953
		c47.888-57.959,81.549-128.127,99.639-165.841c2.143-4.47,0.248-9.851-4.224-11.995c-2.154-1.035-4.589-1.169-6.87-0.373
		c-2.266,0.796-4.083,2.429-5.12,4.594c-16.02,33.444-45.73,95.493-86.816,149.013l-0.078-0.572c0.214-0.477,0.37-0.906,0.487-1.335
		c0.77-2.872,0.063-5.917-1.88-8.18c-6.032-40.068-13.345-80.621-21.74-120.536c20.974-56.253,34.665-110.36,43.148-146.18
		c1.135-4.826-1.862-9.678-6.685-10.821c-4.823-1.14-9.671,1.858-10.821,6.679c-10.558,44.636-21.048,81.929-32.96,117.133
		c-18.134-79.691-40.492-156.278-66.46-227.676c-1.693-4.66-6.86-7.06-11.525-5.379c-4.658,1.698-7.07,6.865-5.376,11.525
		c19.335,53.143,36.735,109.388,51.732,167.206c-35.206-15.778-77.298-43.479-112.886-74.307c-1.815-1.571-4.13-2.37-6.531-2.165
		c-2.395,0.173-4.58,1.269-6.151,3.086c-3.24,3.749-2.828,9.437,0.92,12.682c20.139,17.391,73.074,60.192,130.066,82.465
		c14.461,58.475,26.553,118.789,35.947,179.291c-76.787-22.47-154.414-59.927-218.674-105.529c-1.956-1.389-4.334-1.925-6.709-1.533
		c-2.368,0.402-4.436,1.705-5.824,3.664c-1.389,1.959-1.934,4.341-1.53,6.709c0.402,2.366,1.703,4.436,3.661,5.825
		c68.314,48.448,150.709,87.639,232.053,110.38c7.284,49.997,12.848,101.177,16.546,152.148
		c-71.722-19.593-142.911-50.153-205.936-88.414c-2.053-1.247-4.468-1.624-6.802-1.047c-2.331,0.57-4.305,2.015-5.549,4.068
		c-2.57,4.239-1.216,9.779,3.021,12.351c66.401,40.295,141.303,72.117,216.65,92.041c2.695,42.441,4.078,85.079,4.108,126.733
		l0.015,1.447c0,7.703-0.063,16.005-0.195,26.107c-98.212,115.929-203.454,221.963-312.823,315.174l0.032-3.24
		c0.041-4.097,0.083-8.195,0.083-12.309c0-1.381-0.022-2.77-0.044-4.158c-0.017-1.204-0.037-2.41-0.041-3.608
		c-0.122-30.55-0.999-62.28-2.612-94.309c0.149-0.122,0.295-0.246,0.429-0.39c38.443-41.374,71.242-82.604,100.268-126.049
		c2.75-4.121,1.637-9.717-2.482-12.47c-1.993-1.333-4.387-1.81-6.748-1.342c-2.355,0.467-4.387,1.824-5.722,3.822
		c-25.488,38.151-53.993,74.573-87.108,111.303c-3.077-49.304-8.041-99.744-14.758-149.956
		c47.883-57.953,81.542-128.124,99.635-165.841c1.038-2.166,1.169-4.606,0.373-6.869c-0.797-2.266-2.429-4.086-4.594-5.123
		c-2.163-1.033-4.602-1.169-6.872-0.373c-2.266,0.797-4.083,2.429-5.121,4.592c-16.019,33.452-45.742,95.51-86.819,149.016
		l-0.078-0.573c0.221-0.489,0.378-0.916,0.49-1.335c0.77-2.877,0.065-5.922-1.881-8.182c-6.027-40.056-13.34-80.606-21.737-120.534
		c20.974-56.27,34.665-110.37,43.14-146.182c0.553-2.336,0.164-4.75-1.099-6.792c-1.259-2.044-3.242-3.474-5.578-4.027
		c-4.816-1.147-9.679,1.849-10.821,6.677c-10.572,44.684-21.067,81.98-32.962,117.135c-18.132-79.681-40.487-156.268-66.46-227.68
		c-0.823-2.256-2.473-4.056-4.65-5.072c-2.176-1.016-4.619-1.118-6.872-0.302c-4.66,1.693-7.072,6.862-5.379,11.525
		c19.328,53.116,36.728,109.364,51.729,167.205c-35.198-15.778-77.293-43.478-112.884-74.309c-3.747-3.242-9.437-2.833-12.682,0.921
		c-1.571,1.815-2.341,4.134-2.166,6.531c0.173,2.395,1.269,4.58,3.087,6.151c20.136,17.391,73.074,60.192,130.065,82.467
		c14.47,58.502,26.563,118.816,35.946,179.289c-76.78-22.466-154.404-59.92-218.675-105.53c-4.046-2.867-9.664-1.91-12.536,2.132
		c-2.867,4.044-1.91,9.666,2.131,12.536c68.322,48.45,150.719,87.642,232.058,110.38c7.274,49.929,12.841,101.113,16.546,152.149
		c-71.717-19.591-142.906-50.151-205.939-88.417c-4.244-2.577-9.776-1.211-12.351,3.023c-1.245,2.054-1.617,4.468-1.047,6.802
		c0.57,2.331,2.015,4.304,4.068,5.549c66.404,40.295,141.308,72.117,216.653,92.042c2.694,42.465,4.073,85.098,4.102,126.73
		l0.018,1.447c0,9.656-0.076,19.527-0.222,29.339c-0.007,0.463,0.022,0.935,0.09,1.408c-117.6,98.356-244.122,185.61-376.043,259.34
		c0.083-6.906,0.166-14.814,0.166-22.665c0-1.381-0.022-2.77-0.044-4.158c-0.017-1.203-0.036-2.407-0.041-3.607
		c-0.122-30.551-0.999-62.28-2.612-94.31c0.149-0.122,0.295-0.246,0.429-0.39c38.443-41.374,71.242-82.604,100.268-126.048
		c1.335-1.998,1.81-4.395,1.343-6.75c-0.471-2.356-1.827-4.387-3.825-5.72c-1.995-1.333-4.385-1.813-6.748-1.343
		c-2.355,0.468-4.387,1.825-5.722,3.822c-25.488,38.151-53.993,74.573-87.109,111.303c-3.079-49.306-8.041-99.747-14.758-149.956
		c47.883-57.951,81.542-128.124,99.634-165.841c1.038-2.166,1.169-4.607,0.373-6.87c-0.797-2.266-2.429-4.085-4.594-5.123
		c-2.163-1.036-4.602-1.172-6.872-0.373c-2.265,0.796-4.083,2.429-5.121,4.594c-16.022,33.454-45.744,95.513-86.816,149.013
		l-0.08-0.57c0.22-0.48,0.375-0.909,0.49-1.338c0.77-2.877,0.065-5.922-1.881-8.182c-6.029-40.061-13.342-80.614-21.737-120.533
		c20.972-56.263,34.662-110.365,43.14-146.182c0.553-2.336,0.164-4.748-1.099-6.792c-1.259-2.044-3.242-3.474-5.578-4.027
		c-4.811-1.147-9.676,1.851-10.819,6.677c-10.57,44.668-21.065,81.963-32.965,117.135c-18.132-79.683-40.489-156.27-66.46-227.678
		c-1.695-4.658-6.874-7.062-11.523-5.376c-4.66,1.693-7.071,6.862-5.379,11.525c19.328,53.116,36.728,109.364,51.73,167.206
		c-35.199-15.778-77.293-43.479-112.884-74.31c-3.744-3.24-9.437-2.823-12.682,0.921c-3.242,3.749-2.831,9.437,0.921,12.682
		c20.139,17.391,73.081,60.197,130.066,82.468c14.468,58.499,26.56,118.811,35.947,179.288
		c-76.782-22.465-154.407-59.922-218.675-105.529c-1.961-1.388-4.344-1.927-6.709-1.53c-2.368,0.402-4.436,1.703-5.825,3.661
		c-2.867,4.044-1.912,9.666,2.131,12.536c68.319,48.451,150.714,87.639,232.056,110.38c7.274,49.929,12.841,101.113,16.546,152.149
		c-71.72-19.591-142.908-50.153-205.939-88.417c-2.053-1.245-4.468-1.617-6.801-1.045c-2.333,0.57-4.302,2.015-5.549,4.068
		c-1.245,2.053-1.618,4.468-1.047,6.802c0.57,2.331,2.015,4.304,4.068,5.549c66.405,40.294,141.308,72.117,216.653,92.041
		c2.694,42.429,4.073,85.067,4.102,126.733l0.017,1.444c0,9.657-0.076,19.527-0.222,29.34c-0.014,1.043,0.149,2.063,0.485,3.04
		c-46.651,25.569-94.743,49.915-142.96,72.375c-4.495,2.092-6.446,7.452-4.353,11.946c1.013,2.178,2.816,3.83,5.072,4.65
		c2.255,0.829,4.699,0.721,6.874-0.297c78.141-36.388,155.05-77.255,228.577-121.466c0.833,0.202,1.567,0.307,2.278,0.27
		c9.169-0.224,19.243-0.38,30.789-0.477l1.398-0.012c5.143-0.046,10.287-0.09,15.447-0.09c34.916,0,71.902,1.045,109.936,3.103
		c20.629,75.133,53.138,149.705,94.029,215.695c1.267,2.042,3.25,3.469,5.588,4.017c2.336,0.546,4.748,0.151,6.792-1.111
		c2.041-1.267,3.466-3.25,4.017-5.589c0.548-2.338,0.154-4.75-1.111-6.792c-38.862-62.692-70.095-133.627-90.353-205.205
		c49.786,3.152,101.033,8.292,152.336,15.281c23.498,81.111,63.45,163.118,112.521,230.967c1.757,2.429,4.507,3.72,7.296,3.717
		c1.827,0,3.669-0.553,5.257-1.703c1.947-1.406,3.228-3.488,3.608-5.861c0.38-2.37-0.185-4.748-1.593-6.694
		c-46.219-63.859-84.404-141.16-107.583-217.764c60.175,8.77,120.601,20.319,179.632,34.337
		c22.792,56.784,66.1,109.335,83.683,129.315c3.279,3.722,8.965,4.078,12.692,0.801c3.717-3.279,4.078-8.972,0.799-12.689
		c-31.142-35.284-59.23-77.106-75.337-112.146c58.212,14.521,114.616,31.386,167.659,50.126c2.265,0.806,4.701,0.673,6.874-0.363
		c2.168-1.038,3.8-2.853,4.604-5.118c0.799-2.263,0.668-4.704-0.365-6.872c-1.038-2.165-2.855-3.8-5.121-4.599
		c-71.678-25.32-148.463-46.967-228.265-64.349c35.047-12.222,72.236-23.059,116.801-34.044c2.329-0.575,4.297-2.025,5.545-4.078
		c1.242-2.056,1.607-4.473,1.033-6.804c-1.184-4.811-6.061-7.736-10.884-6.58c-35.747,8.816-89.742,23.016-145.832,44.526
		c-40.066-8.036-80.653-14.969-120.641-20.609c-2.288-1.946-5.347-2.633-8.231-1.834c-0.475,0.134-0.945,0.309-1.427,0.538
		l-0.521-0.071c53.13-41.591,114.933-71.9,148.249-88.239c2.156-1.057,3.771-2.892,4.546-5.165c0.777-2.272,0.621-4.711-0.436-6.867
		c-1.06-2.156-2.894-3.771-5.167-4.546c-2.27-0.779-4.711-0.626-6.867,0.436c-37.522,18.431-107.332,52.719-164.821,101.104
		c-49.023-6.098-99.559-10.551-150.229-13.24c36.438-33.474,72.611-62.334,110.543-88.193c1.985-1.354,3.323-3.398,3.771-5.756
		c0.446-2.36-0.051-4.752-1.403-6.736c-2.792-4.095-8.4-5.15-12.495-2.368c-43.16,29.418-84.083,62.599-125.106,101.437
		c-0.117,0.107-0.217,0.224-0.312,0.344c-28.136-1.158-56.3-1.744-83.71-1.744c-2.183,0-4.36,0.017-6.536,0.034l-7.686,0.046
		c-1.976,0.007-3.951,0.017-5.924,0.031c134.689-83.642,263.554-182.297,383.069-293.271c1.116,0.324,2.249,0.414,3.386,0.312
		c9.182-0.952,19.206-1.902,30.651-2.906c41.69-3.651,84.28-6.034,126.594-7.082c26.48,73.308,64.77,145.123,110.752,207.719
		c2.933,3.993,8.575,4.862,12.57,1.922c3.995-2.935,4.857-8.573,1.924-12.568c-0.015-0.019-0.03-0.036-0.044-0.053
		c-43.654-59.422-80.355-127.651-106.178-197.379c12.507-0.2,22.987-0.292,32.921-0.292c39.181,0,79.591,1.162,120.122,3.457
		c29.807,79.033,76.097,157.659,130.372,221.442c3.206,3.774,8.891,4.227,12.672,1.021c3.771-3.21,4.229-8.896,1.023-12.675
		c-0.015-0.017-0.034-0.032-0.048-0.049c-51.074-60.004-95.206-134.029-124.341-208.54c61.355,4.046,122.485,10.767,181.729,19.983
		c27.186,54.835,74.524,103.851,93.641,122.402c3.562,3.454,9.262,3.359,12.717-0.2c3.449-3.559,3.362-9.264-0.2-12.714
		c-0.015-0.014-0.029-0.027-0.049-0.041c-33.812-32.724-65.086-72.185-83.888-105.827c59.186,9.898,116.74,22.268,171.089,36.775
		c4.794,1.281,9.725-1.577,11.011-6.368c1.272-4.792-1.584-9.727-6.373-11.004c-73.671-19.661-151.897-35.206-232.54-46.216
		c33.963-14.933,70.158-28.653,113.676-43.096c4.701-1.562,7.259-6.66,5.7-11.366c-1.559-4.704-6.655-7.253-11.362-5.7
		c-34.928,11.593-87.605,29.988-141.807,55.832c-40.702-4.875-81.754-8.599-122.027-11.067c-2.422-1.72-5.51-2.136-8.283-1.126
		c-0.404,0.149-0.818,0.344-1.291,0.607l-0.57-0.029c49.705-45.649,108.891-80.699,140.794-99.593
		c4.263-2.529,5.676-8.056,3.147-12.317c-1.223-2.068-3.177-3.532-5.505-4.129c-2.324-0.592-4.746-0.249-6.811,0.977
		c-35.961,21.33-102.86,61.016-156.351,113.766c-32.234-1.447-64.614-2.183-96.248-2.183c-17.768,0-36.088,0.241-54.465,0.714
		c33.661-36.205,67.425-67.79,103.167-96.524c3.864-3.106,4.478-8.775,1.374-12.641c-3.103-3.866-8.775-4.473-12.638-1.377
		c-40.706,32.724-78.894,69.023-116.735,110.972c-0.107,0.112-0.19,0.234-0.278,0.356c-31.062,1.174-62.757,3.118-94.219,5.773
		c-6.042,0.509-12.076,1.043-18.095,1.608c93.964-89.14,184.875-188.628,270.209-295.715c8.395-3.211,17.51-6.607,28.682-10.68
		c39.43-14.377,79.941-27.722,120.419-39.669c44.58,63.937,100.18,123.371,160.818,171.914c1.876,1.501,4.239,2.158,6.611,1.917
		c2.387-0.266,4.526-1.443,6.027-3.318c1.501-1.876,2.183-4.222,1.92-6.609c-0.268-2.388-1.442-4.529-3.318-6.029
		c-57.588-46.083-110.747-102.485-153.778-163.157c48.643-13.875,98.636-26.195,148.623-36.623
		c49.277,68.602,114.372,132.548,183.332,180.095c4.078,2.808,9.695,1.778,12.506-2.302c2.816-4.08,1.779-9.69-2.299-12.507
		c-64.916-44.721-126.757-104.799-174.221-169.232c60.185-11.971,120.979-21.323,180.706-27.798
		c40.473,45.919,98.904,80.989,122.177,93.951c4.326,2.397,9.822,0.84,12.229-3.493c2.407-4.332,0.843-9.815-3.493-12.227
		c-41.184-22.855-81.656-52.892-108.545-80.534c59.4-5.756,118.207-8.714,174.811-8.792c2.402-0.003,4.658-0.94,6.354-2.641
		c1.695-1.7,2.626-3.959,2.626-6.36C1950.307,913.753,1949.372,911.494,1947.672,909.799z"/>
</g>
</svg>
