<svg xmlns="http://www.w3.org/2000/svg" xmlns:xlink="http://www.w3.org/1999/xlink" width="500" zoomAndPan="magnify" viewBox="0 0 375 374.999991" height="500" preserveAspectRatio="xMidYMid meet" version="1.0"><defs><filter x="0%" y="0%" width="100%" height="100%" id="fbfb8a399b"><feColorMatrix values="0 0 0 0 1 0 0 0 0 1 0 0 0 0 1 0 0 0 1 0" color-interpolation-filters="sRGB"/></filter><g/><mask id="0039a3e1eb"><g filter="url(#fbfb8a399b)"><rect x="-37.5" width="450" fill="#000000" y="-37.499999" height="449.999989" fill-opacity="0.61"/></g></mask><clipPath id="7ce8c2bc9a"><path d="M 0.5 0.480469 L 121 0.480469 L 121 95.816406 L 0.5 95.816406 Z M 0.5 0.480469 " clip-rule="nonzero"/></clipPath><clipPath id="6a08faff9c"><rect x="0" width="122" y="0" height="96"/></clipPath></defs><g mask="url(#0039a3e1eb)"><g transform="matrix(1, 0, 0, 1, 187, 126)"><g clip-path="url(#6a08faff9c)"><path fill="#272525" d="M 1.574219 48.1875 C 1.574219 48.1875 1.554688 48.367188 1.523438 48.707031 C 1.496094 49.042969 1.476562 49.546875 1.539062 50.179688 C 1.597656 50.820312 1.757812 51.585938 2.058594 52.433594 C 2.359375 53.277344 2.816406 54.195312 3.460938 55.101562 C 4.09375 56.011719 4.914062 56.917969 5.933594 57.699219 C 6.183594 57.886719 6.40625 58.09375 6.6875 58.273438 C 6.964844 58.457031 7.246094 58.640625 7.53125 58.828125 C 8.113281 59.15625 8.707031 59.5 9.34375 59.773438 C 10.597656 60.359375 11.953125 60.828125 13.355469 61.171875 C 13.703125 61.269531 14.058594 61.339844 14.410156 61.421875 L 14.964844 61.542969 L 15.496094 61.628906 C 16.207031 61.738281 16.917969 61.851562 17.628906 61.960938 C 17.808594 61.984375 17.980469 62.019531 18.164062 62.039062 L 18.714844 62.078125 L 19.8125 62.15625 C 20.175781 62.179688 20.542969 62.207031 20.90625 62.230469 C 21.085938 62.242188 21.265625 62.261719 21.449219 62.265625 L 21.988281 62.257812 C 22.707031 62.246094 23.417969 62.230469 24.125 62.214844 L 24.648438 62.203125 L 25.167969 62.15625 C 25.515625 62.121094 25.859375 62.085938 26.195312 62.050781 C 26.875 61.972656 27.546875 61.929688 28.195312 61.8125 C 28.839844 61.691406 29.472656 61.570312 30.085938 61.453125 C 30.390625 61.394531 30.695312 61.335938 30.992188 61.28125 C 31.289062 61.214844 31.574219 61.121094 31.859375 61.042969 C 32.421875 60.882812 32.96875 60.726562 33.492188 60.578125 C 33.753906 60.503906 34.011719 60.429688 34.257812 60.359375 C 34.503906 60.265625 34.742188 60.171875 34.972656 60.085938 C 35.433594 59.902344 35.871094 59.734375 36.285156 59.574219 C 36.695312 59.410156 37.085938 59.28125 37.429688 59.113281 C 37.773438 58.949219 38.089844 58.792969 38.371094 58.65625 C 39.507812 58.097656 40.144531 57.769531 40.144531 57.769531 C 40.144531 57.769531 39.464844 58.015625 38.289062 58.460938 C 37.996094 58.574219 37.671875 58.699219 37.320312 58.835938 C 36.96875 58.972656 36.566406 59.0625 36.148438 59.195312 C 35.730469 59.316406 35.285156 59.449219 34.816406 59.585938 C 34.582031 59.65625 34.339844 59.726562 34.09375 59.800781 C 33.84375 59.855469 33.585938 59.910156 33.324219 59.972656 C 32.800781 60.085938 32.257812 60.207031 31.695312 60.328125 C 31.410156 60.386719 31.128906 60.460938 30.832031 60.507812 C 30.539062 60.550781 30.238281 60.59375 29.9375 60.640625 C 29.328125 60.726562 28.707031 60.820312 28.074219 60.910156 C 27.4375 61 26.777344 61.003906 26.113281 61.066406 C 25.78125 61.09375 25.445312 61.113281 25.109375 61.140625 L 24.601562 61.175781 L 24.085938 61.175781 C 23.402344 61.167969 22.707031 61.164062 22.011719 61.160156 L 21.484375 61.160156 C 21.308594 61.152344 21.136719 61.136719 20.960938 61.125 C 20.613281 61.09375 20.265625 61.066406 19.914062 61.039062 L 18.863281 60.960938 L 18.339844 60.917969 C 18.160156 60.894531 17.980469 60.863281 17.804688 60.835938 C 17.09375 60.722656 16.382812 60.609375 15.675781 60.496094 L 15.144531 60.417969 L 14.652344 60.3125 C 14.308594 60.234375 13.960938 60.171875 13.628906 60.082031 C 12.277344 59.753906 10.976562 59.332031 9.765625 58.820312 C 9.152344 58.582031 8.585938 58.269531 8.027344 57.980469 C 7.761719 57.820312 7.496094 57.667969 7.238281 57.511719 C 6.972656 57.367188 6.722656 57.15625 6.46875 56.984375 C 5.488281 56.308594 4.675781 55.496094 4.011719 54.6875 C 2.675781 53.050781 2.035156 51.355469 1.777344 50.144531 C 1.65625 49.535156 1.605469 49.042969 1.585938 48.707031 C 1.578125 48.371094 1.574219 48.1875 1.574219 48.1875 " fill-opacity="1" fill-rule="nonzero"/><path fill="#272525" d="M 33.128906 20.628906 C 32.851562 20.800781 32.546875 20.988281 32.226562 21.1875 C 31.582031 21.59375 30.839844 22.03125 30.082031 22.582031 C 29.695312 22.851562 29.296875 23.128906 28.878906 23.417969 C 28.472656 23.714844 28.0625 24.042969 27.636719 24.367188 C 26.773438 25.011719 25.917969 25.757812 25.023438 26.523438 C 24.167969 27.328125 23.253906 28.128906 22.410156 29.03125 C 21.535156 29.902344 20.71875 30.855469 19.890625 31.792969 C 19.097656 32.765625 18.308594 33.738281 17.585938 34.742188 C 17.21875 35.238281 16.855469 35.726562 16.527344 36.238281 C 16.195312 36.738281 15.851562 37.230469 15.539062 37.726562 C 14.917969 38.722656 14.308594 39.679688 13.796875 40.621094 C 13.535156 41.089844 13.277344 41.546875 13.03125 41.984375 C 12.796875 42.433594 12.574219 42.867188 12.359375 43.285156 C 11.917969 44.109375 11.5625 44.890625 11.234375 45.578125 C 10.910156 46.265625 10.636719 46.871094 10.421875 47.371094 C 9.980469 48.367188 9.746094 48.941406 9.746094 48.941406 C 9.746094 48.941406 10.058594 48.402344 10.582031 47.449219 C 10.839844 46.96875 11.160156 46.386719 11.542969 45.734375 C 11.921875 45.082031 12.335938 44.335938 12.816406 43.535156 C 13.292969 42.734375 13.808594 41.871094 14.378906 40.972656 C 14.933594 40.0625 15.574219 39.136719 16.203125 38.164062 C 16.527344 37.683594 16.878906 37.207031 17.21875 36.71875 C 17.5625 36.230469 17.914062 35.742188 18.285156 35.261719 C 19 34.273438 19.796875 33.328125 20.570312 32.367188 C 21.382812 31.4375 22.179688 30.492188 23.03125 29.625 C 23.851562 28.726562 24.726562 27.910156 25.550781 27.097656 C 26.417969 26.332031 27.21875 25.542969 28.050781 24.878906 C 28.457031 24.535156 28.855469 24.203125 29.238281 23.882812 C 29.632812 23.574219 30.011719 23.273438 30.378906 22.988281 C 31.101562 22.40625 31.796875 21.910156 32.40625 21.460938 C 32.710938 21.234375 32.996094 21.023438 33.261719 20.832031 C 33.53125 20.644531 33.78125 20.476562 34.007812 20.324219 C 34.90625 19.710938 35.414062 19.351562 35.414062 19.351562 C 35.414062 19.351562 34.867188 19.644531 33.917969 20.179688 C 33.679688 20.316406 33.417969 20.464844 33.128906 20.628906 " fill-opacity="1" fill-rule="nonzero"/><g clip-path="url(#7ce8c2bc9a)"><path fill="#272525" d="M 38.898438 48.023438 C 38.910156 48.308594 38.917969 48.597656 38.929688 48.886719 C 38.957031 49.21875 38.992188 49.460938 39.019531 49.753906 C 39.03125 49.875 39.046875 49.996094 39.0625 50.117188 C 28.285156 56.023438 17.226562 57.6875 10.878906 56.128906 C 10.894531 55.984375 10.914062 55.789062 10.9375 55.535156 C 10.972656 54.953125 11.125 54.136719 11.332031 53.105469 C 11.480469 52.59375 11.601562 52.019531 11.804688 51.414062 C 12.019531 50.808594 12.222656 50.144531 12.523438 49.46875 C 13.074219 48.09375 13.816406 46.589844 14.722656 44.996094 C 14.835938 44.800781 14.949219 44.597656 15.066406 44.394531 C 15.167969 44.222656 15.316406 44.003906 15.4375 43.804688 C 15.695312 43.402344 15.960938 42.988281 16.230469 42.570312 C 16.773438 41.738281 17.300781 40.84375 17.910156 39.992188 C 19.167969 38.320312 20.394531 36.484375 21.949219 34.789062 C 22.320312 34.355469 22.695312 33.917969 23.074219 33.472656 C 23.265625 33.257812 23.449219 33.027344 23.652344 32.816406 L 24.273438 32.191406 C 25.101562 31.355469 25.945312 30.507812 26.792969 29.65625 C 28.550781 28 30.398438 26.414062 32.347656 24.933594 C 34.304688 23.464844 36.324219 22.074219 38.378906 20.820312 C 40.449219 19.574219 42.515625 18.433594 44.582031 17.402344 C 46.632812 16.386719 48.683594 15.515625 50.675781 14.851562 C 52.664062 14.175781 54.601562 13.722656 56.421875 13.476562 C 56.878906 13.398438 57.324219 13.359375 57.757812 13.320312 C 58.195312 13.285156 58.617188 13.226562 59.039062 13.230469 C 59.457031 13.21875 59.863281 13.207031 60.257812 13.195312 C 60.652344 13.210938 61.039062 13.226562 61.410156 13.238281 C 61.597656 13.25 61.78125 13.253906 61.960938 13.261719 C 62.140625 13.28125 62.316406 13.300781 62.492188 13.320312 C 62.835938 13.359375 63.171875 13.402344 63.492188 13.4375 C 64.128906 13.539062 64.710938 13.667969 65.238281 13.765625 C 65.757812 13.90625 66.21875 14.035156 66.621094 14.144531 C 67.027344 14.246094 67.347656 14.402344 67.625 14.492188 C 68.164062 14.699219 68.453125 14.804688 68.453125 14.804688 C 68.453125 14.804688 68.167969 14.683594 67.636719 14.457031 C 67.367188 14.355469 67.050781 14.179688 66.648438 14.0625 C 66.25 13.933594 65.789062 13.785156 65.277344 13.621094 C 64.746094 13.503906 64.167969 13.351562 63.527344 13.226562 C 63.203125 13.179688 62.867188 13.128906 62.519531 13.074219 C 62.34375 13.050781 62.167969 13.023438 61.984375 12.996094 C 61.804688 12.984375 61.621094 12.96875 61.429688 12.953125 C 61.054688 12.925781 60.664062 12.898438 60.265625 12.867188 C 59.863281 12.867188 59.449219 12.863281 59.027344 12.859375 C 58.601562 12.84375 58.167969 12.882812 57.722656 12.90625 C 57.273438 12.933594 56.816406 12.953125 56.359375 13.023438 C 54.511719 13.222656 52.523438 13.640625 50.492188 14.277344 C 48.449219 14.90625 46.359375 15.734375 44.246094 16.71875 C 43.71875 16.960938 43.203125 17.222656 42.671875 17.476562 C 42.136719 17.742188 41.625 18.027344 41.09375 18.304688 C 40.5625 18.578125 40.03125 18.867188 39.511719 19.167969 C 38.988281 19.472656 38.457031 19.761719 37.933594 20.078125 C 35.839844 21.324219 33.777344 22.707031 31.777344 24.171875 C 29.785156 25.648438 27.871094 27.25 26.082031 28.902344 C 25.222656 29.769531 24.367188 30.628906 23.523438 31.480469 L 22.894531 32.117188 C 22.691406 32.332031 22.507812 32.5625 22.3125 32.789062 C 21.929688 33.238281 21.546875 33.683594 21.171875 34.125 C 19.605469 35.847656 18.347656 37.738281 17.066406 39.453125 L 16.832031 39.777344 L 16.628906 40.113281 C 16.492188 40.335938 16.359375 40.554688 16.222656 40.777344 C 15.957031 41.214844 15.691406 41.644531 15.433594 42.070312 C 15.171875 42.496094 14.917969 42.914062 14.667969 43.324219 C 14.539062 43.535156 14.421875 43.714844 14.289062 43.953125 C 14.175781 44.160156 14.066406 44.367188 13.957031 44.574219 C 13.074219 46.210938 12.328125 47.757812 11.816406 49.195312 C 11.535156 49.902344 11.351562 50.589844 11.15625 51.21875 C 10.972656 51.851562 10.867188 52.453125 10.734375 52.980469 C 10.554688 54.066406 10.441406 54.929688 10.445312 55.5 C 10.433594 55.703125 10.429688 55.871094 10.421875 56.003906 C 9.214844 55.667969 8.195312 55.203125 7.40625 54.625 C 5.84375 50.988281 5.542969 46.859375 6.195312 42.945312 C 6.902344 38.683594 8.683594 34.65625 10.925781 30.964844 C 12.585938 28.21875 14.5 25.644531 16.476562 23.113281 C 18.449219 21.050781 20.632812 18.933594 23.03125 16.769531 C 30.445312 10.074219 39.367188 5.117188 48.15625 2.8125 C 55.960938 0.761719 62.5625 1.242188 65.386719 4.066406 C 66.121094 4.800781 66.75 5.585938 67.273438 6.417969 C 68.390625 8.398438 69.019531 10.699219 69.066406 12.96875 C 69.132812 16.566406 68.007812 20.046875 66.363281 23.28125 C 65.949219 24.070312 65.488281 24.867188 64.984375 25.675781 L 64.984375 25.667969 C 64.984375 25.667969 64.824219 25.644531 64.515625 25.59375 C 64.203125 25.546875 63.746094 25.464844 63.125 25.417969 C 61.894531 25.300781 60.074219 25.226562 57.792969 25.570312 C 55.519531 25.917969 52.773438 26.695312 49.96875 28.292969 C 47.171875 29.875 44.335938 32.359375 42.257812 35.769531 C 41.222656 37.46875 40.367188 39.375 39.761719 41.441406 C 39.191406 43.507812 38.839844 45.730469 38.898438 48.023438 Z M 49.828125 40.246094 C 50.867188 39.601562 52.078125 39.246094 53.300781 39.21875 C 52.335938 40.113281 51.324219 41.011719 50.273438 41.917969 C 50.09375 41.359375 49.945312 40.804688 49.828125 40.246094 Z M 49.542969 37.867188 C 49.53125 37.289062 49.5625 36.722656 49.625 36.167969 C 50.824219 32.652344 53.226562 29.757812 56.101562 28.769531 C 58.570312 27.914062 61.21875 27.441406 63.847656 27.402344 C 61.339844 31.035156 57.96875 34.84375 53.777344 38.769531 C 52.371094 38.710938 50.949219 39.058594 49.734375 39.773438 C 49.625 39.128906 49.554688 38.492188 49.542969 37.867188 Z M 58.753906 55.292969 C 59.132812 54.988281 59.695312 54.539062 60.390625 53.925781 C 60.742188 53.625 61.121094 53.28125 61.527344 52.90625 C 61.941406 52.535156 62.375 52.121094 62.832031 51.667969 C 63.757812 50.777344 64.753906 49.726562 65.804688 48.542969 C 66.839844 47.351562 67.921875 46.023438 69 44.566406 C 69.6875 43.617188 70.375 42.617188 71.050781 41.570312 C 71.152344 41.605469 71.304688 41.660156 71.507812 41.734375 C 71.90625 41.871094 72.488281 42.082031 73.214844 42.367188 C 73.945312 42.648438 74.828125 43.007812 75.828125 43.453125 C 76.828125 43.898438 77.941406 44.429688 79.132812 45.050781 C 80.328125 45.667969 81.597656 46.390625 82.910156 47.191406 C 84.226562 47.992188 85.574219 48.902344 86.933594 49.890625 C 89.648438 51.867188 92.382812 54.203125 94.871094 56.777344 C 97.367188 59.34375 99.625 62.136719 101.515625 64.910156 C 102.460938 66.289062 103.3125 67.671875 104.070312 69.007812 C 104.824219 70.347656 105.511719 71.625 106.019531 72.847656 C 106.539062 74.066406 106.917969 75.21875 107.160156 76.257812 C 107.40625 77.296875 107.515625 78.214844 107.542969 78.96875 C 107.578125 79.722656 107.511719 80.308594 107.464844 80.703125 C 107.429688 80.90625 107.40625 81.058594 107.386719 81.160156 C 106.898438 81.207031 106.410156 81.238281 105.917969 81.246094 C 103.183594 81.289062 100.4375 80.796875 97.742188 80.125 C 92.335938 78.773438 87.089844 76.789062 82.214844 74.277344 C 77.328125 71.78125 72.8125 68.765625 68.777344 65.449219 C 64.949219 62.308594 61.5625 58.890625 58.652344 55.375 C 58.6875 55.347656 58.714844 55.324219 58.753906 55.292969 Z M 72.144531 39.816406 C 73.152344 38.117188 74.105469 36.308594 74.972656 34.421875 C 75.714844 32.835938 76.386719 31.175781 76.945312 29.472656 C 76.980469 29.484375 77.003906 29.492188 77.042969 29.5 C 77.363281 29.605469 77.847656 29.738281 78.46875 29.953125 C 79.714844 30.359375 81.523438 31.015625 83.761719 31.996094 C 86 32.976562 88.65625 34.320312 91.558594 36.105469 C 94.453125 37.894531 97.582031 40.140625 100.734375 42.902344 C 103.882812 45.664062 107.054688 48.929688 109.988281 52.726562 C 111.453125 54.625 112.859375 56.648438 114.167969 58.796875 C 115.453125 60.945312 116.746094 63.203125 117.632812 65.621094 C 118.070312 66.828125 118.417969 68.085938 118.566406 69.363281 C 118.722656 70.640625 118.671875 71.957031 118.347656 73.1875 C 118.160156 73.949219 117.855469 74.675781 117.464844 75.355469 C 117.476562 75.261719 117.492188 75.167969 117.503906 75.070312 C 117.542969 74.757812 117.601562 74.421875 117.617188 74.058594 C 117.679688 73.335938 117.703125 72.523438 117.671875 71.632812 C 117.664062 71.410156 117.652344 71.183594 117.644531 70.953125 C 117.621094 70.722656 117.601562 70.484375 117.578125 70.246094 C 117.558594 70.007812 117.53125 69.765625 117.484375 69.515625 C 117.4375 69.261719 117.417969 69.03125 117.347656 68.75 C 117.222656 68.265625 117.09375 67.769531 116.964844 67.261719 C 116.804688 66.753906 116.601562 66.234375 116.417969 65.707031 C 116 64.671875 115.523438 63.636719 114.96875 62.625 C 114.707031 62.105469 114.382812 61.613281 114.09375 61.117188 C 113.789062 60.625 113.515625 60.117188 113.183594 59.632812 C 112.539062 58.652344 111.914062 57.664062 111.226562 56.742188 C 110.890625 56.277344 110.566406 55.808594 110.226562 55.359375 C 109.878906 54.917969 109.539062 54.480469 109.203125 54.046875 C 108.546875 53.175781 107.832031 52.390625 107.191406 51.625 C 106.875 51.238281 106.539062 50.878906 106.214844 50.539062 C 105.898438 50.195312 105.585938 49.859375 105.289062 49.542969 C 104.996094 49.21875 104.691406 48.929688 104.402344 48.65625 C 104.117188 48.378906 103.84375 48.117188 103.589844 47.871094 C 103.328125 47.628906 103.097656 47.390625 102.867188 47.191406 C 102.632812 46.992188 102.417969 46.808594 102.226562 46.640625 C 101.449219 45.980469 101.007812 45.605469 101.007812 45.605469 C 101.007812 45.605469 101.433594 46 102.183594 46.6875 C 102.367188 46.859375 102.574219 47.054688 102.796875 47.261719 C 103.023438 47.46875 103.246094 47.71875 103.492188 47.96875 C 103.976562 48.488281 104.554688 49.035156 105.121094 49.699219 C 105.40625 50.023438 105.707031 50.367188 106.015625 50.71875 C 106.328125 51.070312 106.648438 51.429688 106.953125 51.828125 C 107.566406 52.609375 108.253906 53.40625 108.878906 54.296875 C 109.203125 54.734375 109.527344 55.179688 109.859375 55.628906 C 110.183594 56.085938 110.488281 56.5625 110.808594 57.03125 C 111.464844 57.964844 112.050781 58.960938 112.660156 59.941406 C 112.96875 60.425781 113.234375 60.949219 113.519531 61.449219 C 113.800781 61.960938 114.097656 62.445312 114.335938 62.957031 C 114.863281 63.960938 115.316406 64.980469 115.695312 65.972656 C 115.863281 66.476562 116.042969 66.960938 116.191406 67.453125 C 116.316406 67.960938 116.433594 68.460938 116.550781 68.945312 C 116.601562 69.148438 116.621094 69.410156 116.660156 69.636719 C 116.699219 69.867188 116.722656 70.097656 116.734375 70.328125 C 116.753906 70.554688 116.773438 70.78125 116.789062 71.003906 C 116.796875 71.226562 116.800781 71.441406 116.804688 71.65625 C 116.824219 72.511719 116.78125 73.292969 116.722656 73.980469 C 116.703125 74.328125 116.648438 74.644531 116.609375 74.941406 C 116.589844 75.089844 116.570312 75.230469 116.550781 75.367188 C 116.523438 75.496094 116.5 75.617188 116.472656 75.734375 C 116.425781 75.96875 116.378906 76.175781 116.339844 76.359375 C 116.28125 76.546875 116.226562 76.707031 116.1875 76.835938 C 116.109375 77.074219 116.066406 77.203125 116.0625 77.226562 C 115.347656 77.980469 114.519531 78.640625 113.621094 79.1875 C 112.484375 79.875 111.234375 80.402344 109.941406 80.734375 C 109.46875 80.851562 108.988281 80.941406 108.503906 81.019531 C 108.511719 80.960938 108.519531 80.910156 108.53125 80.839844 C 108.578125 80.398438 108.644531 79.746094 108.597656 78.925781 C 108.558594 78.105469 108.429688 77.113281 108.15625 76.015625 C 107.886719 74.921875 107.476562 73.71875 106.925781 72.457031 C 106.378906 71.1875 105.664062 69.890625 104.882812 68.542969 C 104.097656 67.191406 103.222656 65.796875 102.242188 64.40625 C 100.296875 61.617188 97.976562 58.8125 95.417969 56.238281 C 92.867188 53.664062 90.078125 51.332031 87.3125 49.359375 C 85.929688 48.378906 84.558594 47.476562 83.222656 46.679688 C 81.882812 45.886719 80.597656 45.171875 79.382812 44.5625 C 78.175781 43.949219 77.046875 43.425781 76.03125 42.992188 C 75.019531 42.550781 74.125 42.199219 73.382812 41.921875 C 72.640625 41.640625 72.054688 41.433594 71.65625 41.300781 C 71.511719 41.25 71.398438 41.214844 71.300781 41.179688 C 71.585938 40.734375 71.867188 40.28125 72.144531 39.816406 Z M 120.292969 69.296875 C 119.867188 67.050781 119.179688 65.375 118.675781 64.269531 C 118.425781 63.710938 118.203125 63.300781 118.050781 63.023438 C 117.902344 62.746094 117.824219 62.605469 117.824219 62.605469 C 117.824219 62.605469 117.898438 62.75 118.035156 63.035156 C 118.175781 63.3125 118.382812 63.734375 118.613281 64.296875 C 119.074219 65.417969 119.683594 67.105469 120.050781 69.34375 C 120.414062 71.566406 120.511719 74.355469 119.867188 77.425781 C 119.222656 80.484375 117.773438 83.808594 115.28125 86.738281 C 114.050781 88.210938 112.546875 89.546875 110.847656 90.710938 C 109.984375 91.269531 109.074219 91.808594 108.125 92.246094 C 107.898438 92.367188 107.632812 92.464844 107.386719 92.574219 L 107.007812 92.734375 L 106.910156 92.773438 C 106.898438 92.777344 106.867188 92.792969 106.875 92.789062 L 106.828125 92.804688 L 106.636719 92.867188 C 106.125 93.039062 105.605469 93.210938 105.085938 93.386719 C 102.984375 93.996094 100.757812 94.4375 98.449219 94.582031 C 98.164062 94.605469 97.875 94.628906 97.585938 94.652344 C 97.296875 94.675781 97.003906 94.664062 96.714844 94.671875 C 96.128906 94.679688 95.542969 94.6875 94.953125 94.695312 C 93.777344 94.621094 92.578125 94.605469 91.402344 94.429688 C 90.226562 94.328125 89.011719 94.074219 87.792969 93.855469 C 86.640625 93.5625 85.410156 93.289062 84.222656 92.960938 C 81.835938 92.265625 79.445312 91.480469 77.101562 90.507812 C 76.515625 90.269531 75.929688 90.023438 75.335938 89.78125 C 74.757812 89.527344 74.179688 89.25 73.601562 88.984375 C 73.023438 88.707031 72.433594 88.460938 71.867188 88.164062 L 70.152344 87.285156 C 69 86.714844 67.898438 86.058594 66.765625 85.445312 C 65.644531 84.816406 64.53125 84.125 63.417969 83.46875 C 59.074219 80.769531 55.125 77.390625 51.785156 73.597656 C 48.464844 69.785156 45.726562 65.574219 43.703125 61.207031 C 42.707031 59.039062 41.824219 56.800781 41.160156 54.601562 C 41.007812 54.042969 40.855469 53.492188 40.703125 52.941406 C 40.589844 52.390625 40.476562 51.847656 40.363281 51.304688 L 40.277344 50.894531 L 40.226562 50.472656 C 40.195312 50.1875 40.160156 49.90625 40.125 49.625 C 40.09375 49.355469 40.050781 49.039062 40.03125 48.8125 C 40.019531 48.539062 40.007812 48.265625 39.996094 47.996094 C 39.914062 45.820312 40.226562 43.699219 40.75 41.71875 C 41.308594 39.742188 42.109375 37.90625 43.082031 36.265625 C 44.066406 34.625 45.210938 33.207031 46.453125 31.980469 C 47.695312 30.757812 49.027344 29.765625 50.363281 28.972656 C 53.042969 27.375 55.6875 26.570312 57.890625 26.191406 C 60.101562 25.820312 61.886719 25.828125 63.078125 25.914062 C 63.671875 25.941406 64.136719 26.011719 64.449219 26.050781 C 64.5625 26.066406 64.652344 26.078125 64.726562 26.085938 C 64.640625 26.21875 64.554688 26.351562 64.46875 26.484375 L 64.46875 26.480469 C 64.46875 26.480469 64.300781 26.433594 63.972656 26.339844 C 63.644531 26.25 63.117188 26.140625 62.453125 26.066406 C 61.121094 25.941406 59.113281 25.988281 56.71875 26.757812 C 55.535156 27.148438 54.234375 27.726562 53.015625 28.625 C 51.769531 29.535156 50.621094 30.792969 49.84375 32.402344 C 49.070312 34.003906 48.640625 35.890625 48.652344 37.863281 C 48.667969 39.871094 49.167969 41.917969 49.988281 43.902344 C 50.808594 45.894531 51.925781 47.828125 53.1875 49.734375 C 54.433594 51.636719 55.828125 53.566406 57.347656 55.457031 C 60.390625 59.238281 63.96875 62.949219 68.074219 66.308594 C 72.171875 69.667969 76.757812 72.714844 81.722656 75.238281 C 86.675781 77.777344 92 79.78125 97.492188 81.144531 C 100.234375 81.820312 103.066406 82.324219 105.933594 82.273438 C 107.363281 82.25 108.800781 82.078125 110.191406 81.726562 C 111.59375 81.363281 112.921875 80.796875 114.148438 80.050781 C 115.367188 79.300781 116.480469 78.363281 117.375 77.242188 C 118.269531 76.128906 118.945312 74.808594 119.285156 73.441406 C 119.644531 72.046875 119.679688 70.625 119.507812 69.25 C 119.335938 67.875 118.964844 66.554688 118.5 65.296875 C 118.027344 64.042969 117.460938 62.839844 116.847656 61.6875 C 116.542969 61.109375 116.214844 60.550781 115.90625 59.992188 C 115.582031 59.4375 115.246094 58.882812 114.917969 58.335938 C 113.578125 56.167969 112.140625 54.125 110.644531 52.214844 C 107.65625 48.390625 104.433594 45.09375 101.21875 42.34375 C 98.007812 39.585938 94.820312 37.351562 91.878906 35.578125 C 88.933594 33.808594 86.242188 32.476562 83.972656 31.511719 C 81.703125 30.542969 79.871094 29.902344 78.613281 29.507812 C 77.988281 29.296875 77.496094 29.167969 77.171875 29.066406 C 77.136719 29.054688 77.113281 29.050781 77.085938 29.042969 C 77.136719 28.875 77.195312 28.710938 77.246094 28.546875 C 77.851562 26.515625 78.246094 24.410156 78.328125 22.3125 C 78.414062 20.214844 78.167969 18.144531 77.695312 16.214844 C 77.226562 14.28125 76.515625 12.476562 75.640625 10.878906 C 74.773438 9.277344 73.746094 7.882812 72.671875 6.71875 C 71.59375 5.554688 70.46875 4.617188 69.394531 3.910156 C 68.324219 3.203125 67.324219 2.695312 66.480469 2.332031 C 65.632812 1.980469 64.945312 1.757812 64.472656 1.625 C 64 1.492188 63.746094 1.425781 63.746094 1.425781 C 63.746094 1.425781 63.992188 1.507812 64.460938 1.660156 C 64.921875 1.816406 65.59375 2.078125 66.421875 2.460938 C 67.246094 2.851562 68.214844 3.394531 69.238281 4.136719 C 70.265625 4.875 71.335938 5.828125 72.359375 6.996094 C 73.378906 8.164062 74.339844 9.558594 75.144531 11.140625 C 75.941406 12.726562 76.605469 14.488281 77.03125 16.371094 C 77.457031 18.257812 77.660156 20.257812 77.542969 22.277344 C 77.429688 24.296875 77.015625 26.324219 76.421875 28.300781 C 75.820312 30.277344 75.042969 32.195312 74.164062 34.046875 C 73.296875 35.898438 72.351562 37.675781 71.347656 39.34375 C 70.351562 41.015625 69.316406 42.585938 68.269531 44.035156 C 67.214844 45.472656 66.160156 46.789062 65.144531 47.96875 C 64.113281 49.136719 63.152344 50.195312 62.253906 51.085938 C 61.808594 51.539062 61.390625 51.953125 60.984375 52.328125 C 60.589844 52.703125 60.222656 53.050781 59.882812 53.347656 C 59.214844 53.953125 58.667969 54.425781 58.292969 54.738281 C 58.253906 54.769531 58.226562 54.792969 58.195312 54.820312 C 58.183594 54.8125 58.175781 54.804688 58.167969 54.792969 C 57.714844 54.234375 57.277344 53.671875 56.847656 53.109375 C 56.960938 53.027344 57.089844 52.929688 57.238281 52.820312 C 57.5 52.625 57.824219 52.390625 58.191406 52.117188 C 58.378906 51.984375 58.574219 51.839844 58.78125 51.6875 C 58.980469 51.515625 59.1875 51.335938 59.402344 51.144531 C 59.835938 50.769531 60.308594 50.363281 60.804688 49.933594 C 61.058594 49.726562 61.289062 49.480469 61.53125 49.238281 C 61.769531 48.992188 62.015625 48.746094 62.265625 48.492188 C 62.765625 47.984375 63.296875 47.476562 63.761719 46.894531 C 64.246094 46.328125 64.738281 45.753906 65.230469 45.175781 C 65.679688 44.570312 66.128906 43.960938 66.570312 43.363281 C 67.03125 42.777344 67.40625 42.148438 67.785156 41.550781 C 68.152344 40.949219 68.550781 40.390625 68.855469 39.816406 C 69.160156 39.246094 69.449219 38.707031 69.714844 38.207031 C 69.851562 37.957031 69.980469 37.71875 70.101562 37.492188 C 70.203125 37.257812 70.304688 37.035156 70.398438 36.824219 C 70.582031 36.40625 70.746094 36.039062 70.878906 35.738281 C 71.144531 35.136719 71.296875 34.796875 71.296875 34.796875 C 71.296875 34.796875 71.128906 35.132812 70.835938 35.71875 C 70.691406 36.015625 70.511719 36.371094 70.308594 36.78125 C 70.207031 36.984375 70.097656 37.203125 69.984375 37.433594 C 69.851562 37.65625 69.714844 37.886719 69.574219 38.128906 C 69.285156 38.613281 68.972656 39.136719 68.644531 39.6875 C 68.320312 40.246094 67.898438 40.78125 67.507812 41.363281 C 67.101562 41.941406 66.707031 42.542969 66.226562 43.105469 C 65.761719 43.675781 65.292969 44.257812 64.820312 44.839844 C 64.3125 45.386719 63.800781 45.933594 63.300781 46.46875 C 62.816406 47.019531 62.273438 47.5 61.761719 47.972656 C 61.503906 48.210938 61.253906 48.445312 61.007812 48.671875 C 60.757812 48.902344 60.523438 49.128906 60.265625 49.320312 C 59.769531 49.714844 59.300781 50.085938 58.867188 50.429688 C 58.652344 50.605469 58.441406 50.769531 58.246094 50.925781 C 58.03125 51.066406 57.832031 51.203125 57.640625 51.332031 C 57.257812 51.585938 56.929688 51.808594 56.652344 51.992188 C 56.488281 52.105469 56.347656 52.199219 56.226562 52.277344 C 55.460938 51.246094 54.734375 50.210938 54.042969 49.167969 C 53.9375 49.007812 53.835938 48.851562 53.730469 48.691406 C 53.941406 48.53125 54.300781 48.257812 54.792969 47.886719 C 55.199219 47.589844 55.683594 47.195312 56.230469 46.738281 C 56.503906 46.511719 56.796875 46.269531 57.105469 46.015625 C 57.402344 45.75 57.714844 45.472656 58.042969 45.179688 C 58.363281 44.886719 58.707031 44.589844 59.046875 44.265625 C 59.386719 43.9375 59.734375 43.59375 60.089844 43.246094 C 60.453125 42.902344 60.808594 42.53125 61.164062 42.144531 C 61.523438 41.761719 61.898438 41.378906 62.265625 40.972656 C 62.976562 40.148438 63.730469 39.3125 64.429688 38.40625 C 65.160156 37.523438 65.828125 36.574219 66.519531 35.640625 C 67.160156 34.671875 67.832031 33.726562 68.410156 32.738281 C 69.023438 31.777344 69.554688 30.785156 70.085938 29.835938 C 70.34375 29.359375 70.578125 28.878906 70.816406 28.410156 C 71.054688 27.945312 71.28125 27.488281 71.480469 27.03125 C 71.6875 26.578125 71.886719 26.136719 72.082031 25.710938 C 72.269531 25.28125 72.429688 24.859375 72.59375 24.457031 C 72.757812 24.054688 72.910156 23.667969 73.058594 23.300781 C 73.191406 22.929688 73.316406 22.574219 73.433594 22.242188 C 73.675781 21.578125 73.878906 21 74.015625 20.511719 C 74.316406 19.542969 74.484375 18.992188 74.484375 18.992188 C 74.484375 18.992188 74.300781 19.542969 73.980469 20.5 C 73.828125 20.984375 73.613281 21.558594 73.355469 22.214844 C 73.226562 22.542969 73.09375 22.890625 72.953125 23.257812 C 72.796875 23.621094 72.632812 24.003906 72.460938 24.402344 C 72.285156 24.796875 72.117188 25.21875 71.917969 25.636719 C 71.714844 26.058594 71.503906 26.492188 71.285156 26.941406 C 71.078125 27.390625 70.839844 27.839844 70.589844 28.296875 C 70.339844 28.753906 70.097656 29.226562 69.832031 29.695312 C 69.277344 30.625 68.726562 31.597656 68.09375 32.539062 C 67.492188 33.503906 66.804688 34.429688 66.144531 35.371094 C 65.433594 36.277344 64.75 37.207031 64.007812 38.058594 C 63.292969 38.941406 62.523438 39.746094 61.800781 40.546875 C 61.429688 40.9375 61.050781 41.308594 60.6875 41.679688 C 60.324219 42.050781 59.964844 42.40625 59.597656 42.738281 C 59.234375 43.074219 58.882812 43.402344 58.542969 43.71875 C 58.199219 44.03125 57.851562 44.3125 57.527344 44.59375 C 57.199219 44.875 56.886719 45.140625 56.585938 45.394531 C 56.277344 45.636719 55.988281 45.863281 55.714844 46.078125 C 55.167969 46.511719 54.6875 46.882812 54.269531 47.175781 C 53.800781 47.507812 53.453125 47.757812 53.234375 47.917969 C 52.636719 46.960938 52.085938 46.011719 51.597656 45.054688 C 56.050781 41.265625 59.839844 37.40625 63.53125 32.824219 C 67.359375 28.066406 70.128906 22.425781 70.785156 16.351562 C 71.152344 12.96875 70.707031 9.847656 68.988281 6.910156 C 67.953125 5.136719 66.675781 3.648438 65.082031 2.664062 C 57.8125 -2.445312 37.648438 2.363281 22.429688 16.105469 C 13.5 24.171875 2.796875 35.871094 2.542969 45.792969 C 2.457031 49.25 3.65625 52.25 6.109375 54.703125 C 8.085938 56.679688 11.59375 57.625 15.910156 57.625 C 22.617188 57.625 31.277344 55.332031 39.167969 51.074219 L 39.242188 51.457031 C 39.355469 52.039062 39.460938 52.625 39.582031 53.207031 C 39.734375 53.777344 39.886719 54.351562 40.039062 54.929688 C 40.195312 55.503906 40.394531 56.0625 40.574219 56.636719 L 40.710938 57.066406 L 40.746094 57.175781 L 40.789062 57.289062 L 40.867188 57.5 L 41.179688 58.339844 L 41.492188 59.183594 C 41.601562 59.464844 41.726562 59.746094 41.847656 60.03125 C 42.089844 60.59375 42.3125 61.171875 42.585938 61.722656 C 43.074219 62.777344 43.601562 63.820312 44.167969 64.855469 C 44.050781 64.894531 43.921875 64.941406 43.753906 64.996094 C 43.25 65.167969 42.511719 65.414062 41.5625 65.714844 C 40.621094 66.019531 39.460938 66.347656 38.136719 66.722656 C 36.808594 67.089844 35.296875 67.472656 33.640625 67.816406 C 31.980469 68.148438 30.179688 68.488281 28.257812 68.710938 C 27.777344 68.769531 27.289062 68.808594 26.796875 68.859375 C 26.304688 68.890625 25.804688 68.925781 25.296875 68.960938 C 24.796875 68.96875 24.296875 68.992188 23.777344 68.996094 C 23.261719 68.988281 22.703125 68.992188 22.207031 68.972656 C 20.121094 68.902344 17.964844 68.578125 15.851562 67.988281 C 13.738281 67.394531 11.664062 66.515625 9.777344 65.335938 C 7.894531 64.15625 6.207031 62.660156 4.886719 60.921875 C 3.570312 59.179688 2.609375 57.214844 2.027344 55.203125 C 1.445312 53.1875 1.210938 51.148438 1.234375 49.21875 C 1.261719 47.292969 1.558594 45.460938 1.96875 43.824219 C 2.808594 40.535156 4.144531 37.988281 5.148438 36.28125 C 5.652344 35.421875 6.089844 34.773438 6.390625 34.328125 C 6.695312 33.890625 6.859375 33.660156 6.859375 33.660156 C 6.859375 33.660156 6.683594 33.886719 6.359375 34.308594 C 6.039062 34.738281 5.574219 35.367188 5.03125 36.207031 C 3.960938 37.882812 2.523438 40.394531 1.546875 43.710938 C 1.0625 45.367188 0.726562 47.210938 0.644531 49.203125 C 0.570312 51.183594 0.757812 53.292969 1.308594 55.402344 C 1.859375 57.503906 2.800781 59.601562 4.164062 61.460938 C 5.53125 63.316406 7.285156 64.914062 9.242188 66.179688 C 11.199219 67.449219 13.351562 68.394531 15.546875 69.046875 C 17.742188 69.695312 19.980469 70.0625 22.15625 70.167969 C 22.730469 70.203125 23.230469 70.1875 23.765625 70.195312 C 24.292969 70.191406 24.832031 70.167969 25.355469 70.152344 C 25.875 70.113281 26.390625 70.082031 26.898438 70.042969 C 27.40625 69.992188 27.90625 69.949219 28.398438 69.890625 C 30.363281 69.644531 32.210938 69.328125 33.886719 68.921875 C 35.5625 68.523438 37.082031 68.097656 38.417969 67.691406 C 39.757812 67.28125 40.898438 66.867188 41.839844 66.519531 C 42.78125 66.167969 43.511719 65.886719 44.007812 65.675781 C 44.222656 65.585938 44.382812 65.515625 44.511719 65.464844 C 46.28125 68.601562 48.402344 71.617188 50.839844 74.425781 C 54.257812 78.316406 58.273438 81.773438 62.757812 84.570312 C 63.878906 85.230469 64.972656 85.917969 66.113281 86.558594 L 67.828125 87.511719 L 68.6875 87.988281 L 69.5625 88.429688 L 71.308594 89.304688 C 71.886719 89.601562 72.488281 89.851562 73.074219 90.125 C 73.667969 90.390625 74.253906 90.667969 74.847656 90.921875 C 75.449219 91.164062 76.046875 91.40625 76.644531 91.644531 C 79.035156 92.613281 81.480469 93.394531 83.910156 94.085938 C 84.519531 94.265625 85.136719 94.386719 85.746094 94.539062 C 86.367188 94.683594 86.980469 94.828125 87.59375 94.972656 C 88.816406 95.183594 90.007812 95.425781 91.261719 95.53125 C 92.5 95.703125 93.722656 95.707031 94.933594 95.773438 C 95.542969 95.761719 96.144531 95.75 96.746094 95.738281 C 97.046875 95.726562 97.347656 95.734375 97.644531 95.710938 C 97.941406 95.683594 98.238281 95.65625 98.535156 95.628906 C 100.910156 95.472656 103.203125 94.953125 105.371094 94.289062 C 105.90625 94.097656 106.4375 93.910156 106.96875 93.722656 L 107.164062 93.652344 L 107.214844 93.632812 L 107.273438 93.605469 L 107.367188 93.566406 L 107.742188 93.398438 C 107.992188 93.285156 108.238281 93.1875 108.492188 93.054688 C 109.503906 92.5625 110.421875 91.992188 111.3125 91.394531 C 113.058594 90.152344 114.589844 88.738281 115.828125 87.195312 C 117.074219 85.65625 118.089844 84.035156 118.824219 82.386719 C 119.566406 80.738281 120.042969 79.101562 120.335938 77.519531 C 120.90625 74.363281 120.722656 71.539062 120.292969 69.296875 " fill-opacity="1" fill-rule="nonzero"/></g><path fill="#272525" d="M 96.988281 90.042969 C 95.738281 89.972656 94.335938 89.835938 92.8125 89.632812 C 91.285156 89.429688 89.648438 89.125 87.929688 88.753906 C 86.214844 88.378906 84.421875 87.890625 82.59375 87.328125 C 80.757812 86.765625 78.898438 86.085938 77.042969 85.316406 C 75.183594 84.550781 73.328125 83.679688 71.554688 82.707031 C 70.644531 82.210938 69.792969 81.6875 68.910156 81.171875 C 68.054688 80.625 67.195312 80.089844 66.378906 79.503906 C 64.730469 78.359375 63.152344 77.164062 61.695312 75.921875 C 60.226562 74.691406 58.867188 73.429688 57.621094 72.191406 C 57.308594 71.878906 57 71.570312 56.703125 71.269531 C 56.410156 70.957031 56.121094 70.648438 55.835938 70.347656 C 55.257812 69.75 54.738281 69.144531 54.222656 68.574219 C 53.714844 67.996094 53.25 67.421875 52.792969 66.890625 C 52.351562 66.339844 51.933594 65.824219 51.539062 65.335938 C 50.777344 64.339844 50.113281 63.472656 49.59375 62.738281 C 49.058594 62.011719 48.660156 61.421875 48.382812 61.023438 C 48.109375 60.625 47.960938 60.414062 47.960938 60.414062 C 47.960938 60.414062 48.085938 60.640625 48.320312 61.0625 C 48.554688 61.484375 48.882812 62.117188 49.359375 62.886719 C 49.816406 63.667969 50.410156 64.597656 51.109375 65.648438 C 51.46875 66.167969 51.855469 66.71875 52.261719 67.300781 C 52.691406 67.863281 53.128906 68.46875 53.609375 69.078125 C 54.578125 70.300781 55.648438 71.605469 56.878906 72.90625 C 57.476562 73.574219 58.136719 74.207031 58.792969 74.882812 C 59.480469 75.523438 60.164062 76.199219 60.910156 76.832031 C 61.632812 77.492188 62.40625 78.113281 63.179688 78.753906 C 63.976562 79.371094 64.78125 79.996094 65.628906 80.578125 C 66.460938 81.179688 67.335938 81.734375 68.207031 82.304688 C 69.09375 82.835938 69.996094 83.394531 70.90625 83.875 C 72.757812 84.871094 74.648438 85.742188 76.554688 86.511719 C 78.464844 87.265625 80.378906 87.910156 82.257812 88.441406 C 84.132812 88.984375 85.980469 89.390625 87.738281 89.714844 C 89.496094 90.039062 91.175781 90.246094 92.730469 90.378906 C 94.285156 90.511719 95.714844 90.546875 96.976562 90.539062 C 98.242188 90.535156 99.34375 90.453125 100.246094 90.371094 C 101.148438 90.289062 101.851562 90.183594 102.332031 90.109375 C 102.808594 90.03125 103.0625 89.988281 103.0625 89.988281 C 103.0625 89.988281 102.808594 90.003906 102.324219 90.039062 C 101.839844 90.074219 101.132812 90.097656 100.230469 90.113281 C 99.332031 90.125 98.238281 90.109375 96.988281 90.042969 " fill-opacity="1" fill-rule="nonzero"/><path fill="#272525" d="M 41.640625 44.214844 C 41.796875 43.523438 41.910156 42.820312 42.105469 42.152344 C 42.265625 41.46875 42.503906 40.824219 42.703125 40.1875 C 42.824219 39.878906 42.941406 39.574219 43.0625 39.273438 C 43.117188 39.125 43.175781 38.976562 43.230469 38.832031 C 43.292969 38.6875 43.355469 38.546875 43.417969 38.40625 C 43.542969 38.125 43.664062 37.855469 43.777344 37.59375 C 43.910156 37.335938 44.035156 37.085938 44.15625 36.851562 C 44.394531 36.371094 44.640625 35.949219 44.855469 35.570312 C 45.066406 35.191406 45.261719 34.863281 45.441406 34.605469 C 45.777344 34.074219 45.96875 33.773438 45.96875 33.773438 C 45.96875 33.773438 45.75 34.054688 45.363281 34.550781 C 45.164062 34.796875 44.945312 35.105469 44.707031 35.472656 C 44.582031 35.65625 44.449219 35.847656 44.3125 36.050781 C 44.179688 36.257812 44.058594 36.488281 43.917969 36.71875 C 43.785156 36.953125 43.648438 37.199219 43.503906 37.453125 C 43.371094 37.714844 43.238281 37.984375 43.097656 38.257812 C 42.800781 38.804688 42.585938 39.425781 42.324219 40.050781 C 42.109375 40.691406 41.859375 41.347656 41.683594 42.035156 C 41.476562 42.71875 41.339844 43.429688 41.199219 44.136719 C 41.101562 44.851562 40.980469 45.566406 40.945312 46.277344 C 40.871094 46.984375 40.878906 47.6875 40.863281 48.363281 C 40.871094 48.699219 40.898438 49.035156 40.914062 49.359375 C 40.921875 49.519531 40.929688 49.683594 40.941406 49.839844 C 40.960938 50 40.976562 50.15625 40.996094 50.308594 C 41.03125 50.617188 41.066406 50.914062 41.101562 51.203125 C 41.144531 51.492188 41.199219 51.769531 41.246094 52.035156 C 41.328125 52.570312 41.453125 53.046875 41.566406 53.472656 C 41.667969 53.898438 41.769531 54.265625 41.875 54.5625 C 42.074219 55.15625 42.1875 55.496094 42.1875 55.496094 C 42.1875 55.496094 42.101562 55.148438 41.957031 54.539062 C 41.875 54.238281 41.796875 53.867188 41.722656 53.4375 C 41.683594 53.222656 41.640625 52.996094 41.59375 52.753906 C 41.554688 52.515625 41.53125 52.257812 41.492188 51.996094 C 41.457031 51.730469 41.410156 51.457031 41.378906 51.167969 C 41.359375 50.882812 41.335938 50.585938 41.3125 50.28125 C 41.246094 49.671875 41.28125 49.027344 41.257812 48.359375 C 41.28125 47.695312 41.277344 47.007812 41.363281 46.3125 C 41.40625 45.617188 41.535156 44.917969 41.640625 44.214844 " fill-opacity="1" fill-rule="nonzero"/><path fill="#272525" d="M 117.117188 78.777344 C 117.050781 78.851562 116.988281 78.925781 116.917969 79 C 115.949219 80.046875 114.523438 81.097656 112.6875 81.851562 C 110.847656 82.609375 108.613281 83.03125 106.175781 83.0625 C 103.730469 83.101562 101.089844 82.722656 98.359375 82.0625 C 95.632812 81.382812 92.785156 80.511719 89.914062 79.425781 C 87.039062 78.359375 84.128906 77.085938 81.261719 75.617188 C 78.398438 74.140625 75.574219 72.476562 72.867188 70.636719 C 70.160156 68.800781 67.570312 66.792969 65.128906 64.695312 C 62.683594 62.59375 60.417969 60.371094 58.347656 58.105469 C 57.308594 56.976562 56.335938 55.824219 55.398438 54.683594 C 54.484375 53.539062 53.585938 52.378906 52.761719 51.253906 C 51.105469 48.988281 49.714844 46.710938 48.8125 44.445312 C 47.90625 42.183594 47.492188 39.953125 47.558594 37.972656 C 47.613281 35.992188 48.09375 34.292969 48.695312 33.003906 C 49.300781 31.707031 50.027344 30.824219 50.558594 30.273438 C 50.828125 30 51.046875 29.800781 51.199219 29.671875 C 51.351562 29.546875 51.429688 29.480469 51.429688 29.480469 C 51.429688 29.480469 51.347656 29.542969 51.191406 29.664062 C 51.03125 29.78125 50.804688 29.972656 50.519531 30.234375 C 49.960938 30.765625 49.183594 31.621094 48.527344 32.921875 C 47.867188 34.210938 47.316406 35.929688 47.195312 37.957031 C 47.042969 39.988281 47.4375 42.304688 48.316406 44.636719 C 49.195312 46.980469 50.5625 49.332031 52.191406 51.660156 C 53.8125 53.988281 55.695312 56.332031 57.765625 58.636719 C 59.839844 60.9375 62.113281 63.199219 64.570312 65.339844 C 66.238281 66.808594 68.011719 68.207031 69.835938 69.535156 C 69.8125 69.519531 69.785156 69.503906 69.761719 69.488281 C 75.257812 73.679688 80.105469 77.15625 86.414062 79.980469 C 92.71875 82.808594 99.5625 84.703125 106.476562 84.664062 C 109.40625 84.644531 112.589844 84.003906 115.152344 82.582031 C 117.699219 81.164062 119.21875 78.101562 119.246094 75.183594 C 119.246094 75.183594 119.246094 75.179688 119.246094 75.179688 C 119.246094 75.179688 119.246094 75.183594 119.246094 75.183594 C 119.246094 75.167969 119.246094 75.15625 119.246094 75.140625 C 118.710938 76.441406 118 77.6875 117.117188 78.777344 " fill-opacity="1" fill-rule="nonzero"/><path fill="#272525" d="M 83.035156 45.367188 C 83.765625 45.863281 84.59375 46.414062 85.496094 47.011719 C 86.394531 47.621094 87.339844 48.316406 88.355469 49.035156 C 88.867188 49.382812 89.359375 49.792969 89.878906 50.183594 C 90.398438 50.578125 90.925781 50.984375 91.464844 51.394531 C 92.523438 52.234375 93.570312 53.164062 94.660156 54.074219 C 95.171875 54.5625 95.6875 55.058594 96.207031 55.554688 C 96.714844 56.0625 97.277344 56.519531 97.746094 57.066406 C 98.238281 57.59375 98.730469 58.121094 99.21875 58.648438 C 99.460938 58.914062 99.710938 59.167969 99.941406 59.441406 C 100.164062 59.71875 100.386719 59.996094 100.605469 60.273438 C 101.050781 60.828125 101.488281 61.378906 101.921875 61.921875 C 102.359375 62.453125 102.738281 63.039062 103.144531 63.585938 C 103.921875 64.691406 104.664062 65.765625 105.3125 66.820312 C 105.65625 67.339844 105.941406 67.871094 106.234375 68.375 C 106.378906 68.625 106.523438 68.875 106.664062 69.121094 C 106.789062 69.371094 106.914062 69.617188 107.035156 69.859375 C 107.542969 70.816406 107.925781 71.730469 108.277344 72.535156 C 108.601562 73.355469 108.835938 74.085938 109.050781 74.683594 C 109.378906 75.902344 109.566406 76.601562 109.566406 76.601562 C 109.566406 76.601562 109.414062 75.894531 109.144531 74.652344 C 108.957031 74.050781 108.75 73.304688 108.457031 72.46875 C 108.132812 71.644531 107.796875 70.699219 107.300781 69.726562 C 107.183594 69.480469 107.066406 69.226562 106.945312 68.972656 C 106.808594 68.722656 106.671875 68.46875 106.53125 68.210938 C 106.25 67.695312 105.972656 67.152344 105.644531 66.621094 C 105.011719 65.546875 104.296875 64.429688 103.527344 63.3125 C 103.125 62.761719 102.761719 62.183594 102.3125 61.632812 C 101.878906 61.078125 101.441406 60.519531 101 59.957031 C 100.777344 59.675781 100.554688 59.390625 100.332031 59.105469 C 100.101562 58.828125 99.847656 58.570312 99.609375 58.300781 C 99.117188 57.765625 98.628906 57.226562 98.136719 56.691406 C 97.660156 56.136719 97.109375 55.664062 96.585938 55.160156 C 96.058594 54.664062 95.53125 54.167969 95.011719 53.679688 C 93.90625 52.769531 92.839844 51.847656 91.765625 51.007812 C 90.671875 50.203125 89.636719 49.378906 88.601562 48.6875 C 87.5625 47.996094 86.59375 47.328125 85.675781 46.738281 C 84.753906 46.164062 83.90625 45.636719 83.148438 45.179688 C 82.398438 44.71875 81.71875 44.351562 81.175781 44.03125 C 80.074219 43.402344 79.441406 43.046875 79.441406 43.046875 C 79.441406 43.046875 80.050781 43.441406 81.113281 44.128906 C 81.644531 44.472656 82.304688 44.871094 83.035156 45.367188 " fill-opacity="1" fill-rule="nonzero"/></g></g></g><g fill="#272525" fill-opacity="1"><g transform="translate(20.957355, 224.888504)"><g><path d="M 6.296875 -65.3125 C 7.984375 -67.007812 10 -67.859375 12.34375 -67.859375 C 14.6875 -67.859375 16.703125 -67.007812 18.390625 -65.3125 C 20.078125 -63.625 20.921875 -61.609375 20.921875 -59.265625 C 20.921875 -56.921875 20.078125 -54.90625 18.390625 -53.21875 C 16.703125 -51.53125 14.6875 -50.6875 12.34375 -50.6875 C 10 -50.6875 7.984375 -51.53125 6.296875 -53.21875 C 4.609375 -54.90625 3.765625 -56.921875 3.765625 -59.265625 C 3.765625 -61.609375 4.609375 -63.625 6.296875 -65.3125 Z M 4.90625 -41.9375 L 4.90625 0 L 19.375 0 L 19.375 -41.9375 Z M 4.90625 -41.9375 "/></g></g></g><g fill="#272525" fill-opacity="1"><g transform="translate(39.509381, 224.888504)"><g><path d="M 4.90625 0 L 4.90625 -41.9375 L 19.375 -41.9375 L 19.375 -37.515625 L 19.53125 -37.515625 C 23.289062 -41.273438 27.300781 -43.15625 31.5625 -43.15625 C 33.625 -43.15625 35.675781 -42.882812 37.71875 -42.34375 C 39.769531 -41.800781 41.734375 -40.957031 43.609375 -39.8125 C 45.492188 -38.664062 47.019531 -37.039062 48.1875 -34.9375 C 49.363281 -32.84375 49.953125 -30.40625 49.953125 -27.625 L 49.953125 0 L 35.484375 0 L 35.484375 -23.703125 C 35.484375 -25.890625 34.785156 -27.796875 33.390625 -29.421875 C 32.003906 -31.054688 30.191406 -31.875 27.953125 -31.875 C 25.773438 -31.875 23.800781 -31.03125 22.03125 -29.34375 C 20.257812 -27.65625 19.375 -25.773438 19.375 -23.703125 L 19.375 0 Z M 4.90625 0 "/></g></g></g><g fill="#272525" fill-opacity="1"><g transform="translate(87.404202, 224.888504)"><g><path d="M 15.53125 -41.9375 L 25.75 -19.125 L 35.96875 -41.9375 L 53.140625 -41.9375 L 30.65625 0 L 20.84375 0 L -1.640625 -41.9375 Z M 15.53125 -41.9375 "/></g></g></g><g fill="#272525" fill-opacity="1"><g transform="translate(132.765236, 224.888504)"><g><path d="M 6.296875 -65.3125 C 7.984375 -67.007812 10 -67.859375 12.34375 -67.859375 C 14.6875 -67.859375 16.703125 -67.007812 18.390625 -65.3125 C 20.078125 -63.625 20.921875 -61.609375 20.921875 -59.265625 C 20.921875 -56.921875 20.078125 -54.90625 18.390625 -53.21875 C 16.703125 -51.53125 14.6875 -50.6875 12.34375 -50.6875 C 10 -50.6875 7.984375 -51.53125 6.296875 -53.21875 C 4.609375 -54.90625 3.765625 -56.921875 3.765625 -59.265625 C 3.765625 -61.609375 4.609375 -63.625 6.296875 -65.3125 Z M 4.90625 -41.9375 L 4.90625 0 L 19.375 0 L 19.375 -41.9375 Z M 4.90625 -41.9375 "/></g></g></g><g fill="#272525" fill-opacity="1"><g transform="translate(151.31726, 224.888504)"><g><path d="M 7.359375 -41.9375 L 7.359375 -57.546875 L 21.828125 -57.546875 L 21.828125 -41.9375 L 30.65625 -41.9375 L 30.65625 -30.90625 L 21.828125 -30.90625 L 21.828125 -17.578125 C 21.828125 -13.703125 22.914062 -11.765625 25.09375 -11.765625 C 25.644531 -11.765625 26.21875 -11.875 26.8125 -12.09375 C 27.414062 -12.3125 27.878906 -12.53125 28.203125 -12.75 L 28.6875 -13.078125 L 32.296875 -1.390625 C 29.179688 0.347656 25.632812 1.21875 21.65625 1.21875 C 18.9375 1.21875 16.59375 0.742188 14.625 -0.203125 C 12.664062 -1.160156 11.179688 -2.441406 10.171875 -4.046875 C 9.171875 -5.648438 8.453125 -7.335938 8.015625 -9.109375 C 7.578125 -10.878906 7.359375 -12.773438 7.359375 -14.796875 L 7.359375 -30.90625 L 1.3125 -30.90625 L 1.3125 -41.9375 Z M 7.359375 -41.9375 "/></g></g></g><g fill="#272525" fill-opacity="1"><g transform="translate(177.470616, 224.888504)"><g><path d="M 7.765625 -5.1875 C 3.835938 -9.46875 1.875 -14.710938 1.875 -20.921875 C 1.875 -27.140625 3.835938 -32.398438 7.765625 -36.703125 C 11.691406 -41.003906 16.675781 -43.15625 22.71875 -43.15625 C 28.28125 -43.15625 32.859375 -41.414062 36.453125 -37.9375 L 36.453125 -41.9375 L 50.9375 -41.9375 L 50.9375 0 L 36.625 0 L 36.625 -4.734375 L 36.453125 -4.734375 C 32.859375 -0.765625 28.28125 1.21875 22.71875 1.21875 C 16.675781 1.21875 11.691406 -0.914062 7.765625 -5.1875 Z M 20.0625 -28.03125 C 18.1875 -26.1875 17.25 -23.816406 17.25 -20.921875 C 17.25 -18.035156 18.144531 -15.679688 19.9375 -13.859375 C 21.738281 -12.035156 24.113281 -11.125 27.0625 -11.125 C 29.894531 -11.125 32.222656 -12.046875 34.046875 -13.890625 C 35.867188 -15.742188 36.78125 -18.085938 36.78125 -20.921875 C 36.78125 -23.816406 35.835938 -26.1875 33.953125 -28.03125 C 32.078125 -29.882812 29.78125 -30.8125 27.0625 -30.8125 C 24.28125 -30.8125 21.945312 -29.882812 20.0625 -28.03125 Z M 20.0625 -28.03125 "/></g></g></g><g fill="#272525" fill-opacity="1"><g transform="translate(227.163614, 224.888504)"><g><path d="M 4.90625 0 L 4.90625 -41.9375 L 19.375 -41.9375 L 19.375 -35.890625 L 19.53125 -35.890625 C 19.644531 -36.109375 19.820312 -36.378906 20.0625 -36.703125 C 20.3125 -37.035156 20.84375 -37.609375 21.65625 -38.421875 C 22.476562 -39.242188 23.351562 -39.976562 24.28125 -40.625 C 25.207031 -41.28125 26.40625 -41.863281 27.875 -42.375 C 29.34375 -42.894531 30.84375 -43.15625 32.375 -43.15625 C 33.957031 -43.15625 35.507812 -42.9375 37.03125 -42.5 C 38.5625 -42.070312 39.679688 -41.640625 40.390625 -41.203125 L 41.53125 -40.546875 L 35.484375 -28.28125 C 33.679688 -29.8125 31.171875 -30.578125 27.953125 -30.578125 C 26.210938 -30.578125 24.710938 -30.191406 23.453125 -29.421875 C 22.203125 -28.660156 21.316406 -27.734375 20.796875 -26.640625 C 20.285156 -25.554688 19.921875 -24.628906 19.703125 -23.859375 C 19.484375 -23.097656 19.375 -22.503906 19.375 -22.078125 L 19.375 0 Z M 4.90625 0 "/></g></g></g><g fill="#272525" fill-opacity="1"><g transform="translate(261.735666, 224.888504)"><g><path d="M 4.90625 0 L 4.90625 -70.3125 L 19.375 -70.3125 L 19.375 0 Z M 4.90625 0 "/></g></g></g><g fill="#272525" fill-opacity="1"><g transform="translate(279.879013, 224.888504)"><g><path d="M 36.703125 -41.9375 L 53.375 -41.9375 L 20.4375 21.25 L 3.765625 21.25 L 18.234375 -6.546875 L -1.640625 -41.9375 L 15.046875 -41.9375 L 26.734375 -20.4375 Z M 36.703125 -41.9375 "/></g></g></g><g fill="#272525" fill-opacity="1"><g transform="translate(325.485268, 224.888504)"><g><path d="M 14.21875 -17.5 C 16.84375 -17.5 19.066406 -16.582031 20.890625 -14.75 C 22.710938 -12.925781 23.625 -10.707031 23.625 -8.09375 C 23.625 -5.53125 22.710938 -3.335938 20.890625 -1.515625 C 19.066406 0.304688 16.84375 1.21875 14.21875 1.21875 C 11.65625 1.21875 9.460938 0.304688 7.640625 -1.515625 C 5.816406 -3.335938 4.90625 -5.53125 4.90625 -8.09375 C 4.90625 -10.707031 5.816406 -12.925781 7.640625 -14.75 C 9.460938 -16.582031 11.65625 -17.5 14.21875 -17.5 Z M 14.21875 -17.5 "/></g></g></g></svg>