<svg xmlns="http://www.w3.org/2000/svg" xmlns:xlink="http://www.w3.org/1999/xlink" width="500" zoomAndPan="magnify" viewBox="0 0 375 374.999991" height="500" preserveAspectRatio="xMidYMid meet" version="1.0"><defs><filter x="0%" y="0%" width="100%" height="100%" id="87269ada13"><feColorMatrix values="0 0 0 0 1 0 0 0 0 1 0 0 0 0 1 0 0 0 1 0" color-interpolation-filters="sRGB"/></filter><g/><mask id="35b7746735"><g filter="url(#87269ada13)"><rect x="-37.5" width="450" fill="#000000" y="-37.499999" height="449.999989" fill-opacity="0.61"/></g></mask><clipPath id="dbee25e310"><path d="M 1.277344 0.640625 L 123.527344 0.640625 L 123.527344 97.355469 L 1.277344 97.355469 Z M 1.277344 0.640625 " clip-rule="nonzero"/></clipPath><clipPath id="6a8f3ce2d9"><rect x="0" width="124" y="0" height="98"/></clipPath></defs><g mask="url(#35b7746735)"><g transform="matrix(1, 0, 0, 1, 125, 140)"><g clip-path="url(#6a8f3ce2d9)"><path fill="#f1efe7" d="M 2.371094 49.042969 C 2.371094 49.042969 2.351562 49.222656 2.316406 49.566406 C 2.292969 49.910156 2.273438 50.421875 2.335938 51.066406 C 2.394531 51.714844 2.554688 52.496094 2.863281 53.355469 C 3.167969 54.214844 3.632812 55.148438 4.285156 56.066406 C 4.933594 56.992188 5.765625 57.914062 6.800781 58.707031 C 7.054688 58.898438 7.28125 59.105469 7.566406 59.289062 C 7.851562 59.476562 8.132812 59.664062 8.425781 59.855469 C 9.015625 60.1875 9.617188 60.535156 10.265625 60.816406 C 11.542969 61.410156 12.917969 61.886719 14.34375 62.234375 C 14.695312 62.335938 15.058594 62.402344 15.414062 62.488281 L 15.980469 62.613281 L 16.519531 62.699219 C 17.238281 62.8125 17.960938 62.921875 18.683594 63.035156 C 18.867188 63.0625 19.042969 63.09375 19.226562 63.117188 L 20.902344 63.234375 C 21.273438 63.261719 21.644531 63.285156 22.011719 63.3125 C 22.195312 63.324219 22.382812 63.339844 22.566406 63.347656 L 23.113281 63.339844 C 23.84375 63.324219 24.570312 63.308594 25.285156 63.296875 L 25.816406 63.285156 L 26.347656 63.234375 C 26.699219 63.199219 27.046875 63.164062 27.390625 63.128906 C 28.082031 63.050781 28.761719 63.003906 29.417969 62.886719 C 30.074219 62.761719 30.71875 62.640625 31.34375 62.523438 C 31.652344 62.460938 31.960938 62.402344 32.261719 62.34375 C 32.566406 62.277344 32.855469 62.183594 33.140625 62.105469 C 33.71875 61.941406 34.273438 61.785156 34.804688 61.632812 C 35.070312 61.554688 35.328125 61.480469 35.582031 61.40625 C 35.832031 61.3125 36.074219 61.21875 36.308594 61.128906 C 36.777344 60.945312 37.222656 60.773438 37.640625 60.613281 C 38.054688 60.441406 38.453125 60.316406 38.804688 60.144531 C 39.152344 59.976562 39.472656 59.820312 39.761719 59.679688 C 40.917969 59.109375 41.566406 58.777344 41.566406 58.777344 C 41.566406 58.777344 40.875 59.027344 39.679688 59.480469 C 39.378906 59.59375 39.050781 59.722656 38.691406 59.859375 C 38.335938 60 37.925781 60.09375 37.503906 60.226562 C 37.078125 60.351562 36.625 60.484375 36.148438 60.625 C 35.910156 60.695312 35.664062 60.765625 35.414062 60.839844 C 35.160156 60.894531 34.898438 60.953125 34.632812 61.015625 C 34.101562 61.132812 33.550781 61.253906 32.976562 61.378906 C 32.6875 61.4375 32.402344 61.515625 32.101562 61.5625 C 31.800781 61.605469 31.5 61.648438 31.191406 61.695312 C 30.574219 61.785156 29.941406 61.875 29.296875 61.972656 C 28.648438 62.0625 27.980469 62.066406 27.304688 62.128906 C 26.96875 62.152344 26.628906 62.175781 26.285156 62.203125 L 25.769531 62.242188 L 25.246094 62.238281 C 24.550781 62.230469 23.847656 62.226562 23.136719 62.222656 L 22.601562 62.222656 C 22.425781 62.214844 22.25 62.199219 22.070312 62.1875 C 21.71875 62.15625 21.363281 62.128906 21.007812 62.101562 L 19.941406 62.019531 L 19.40625 61.976562 C 19.226562 61.953125 19.042969 61.921875 18.863281 61.890625 C 18.140625 61.777344 17.417969 61.664062 16.699219 61.550781 L 16.160156 61.46875 L 15.660156 61.359375 C 15.3125 61.28125 14.960938 61.21875 14.621094 61.125 C 13.246094 60.792969 11.925781 60.363281 10.691406 59.847656 C 10.070312 59.601562 9.496094 59.285156 8.929688 58.992188 C 8.65625 58.832031 8.390625 58.671875 8.125 58.515625 C 7.859375 58.367188 7.601562 58.15625 7.34375 57.980469 C 6.347656 57.292969 5.523438 56.46875 4.851562 55.644531 C 3.492188 53.984375 2.839844 52.261719 2.578125 51.03125 C 2.457031 50.410156 2.402344 49.914062 2.382812 49.570312 C 2.375 49.226562 2.371094 49.042969 2.371094 49.042969 " fill-opacity="1" fill-rule="nonzero"/><path fill="#f1efe7" d="M 34.433594 21.039062 C 34.152344 21.214844 33.84375 21.40625 33.515625 21.609375 C 32.859375 22.019531 32.109375 22.460938 31.335938 23.023438 C 30.945312 23.296875 30.539062 23.578125 30.117188 23.871094 C 29.699219 24.171875 29.285156 24.507812 28.851562 24.835938 C 27.976562 25.492188 27.109375 26.253906 26.199219 27.027344 C 25.332031 27.84375 24.402344 28.660156 23.542969 29.574219 C 22.65625 30.460938 21.824219 31.429688 20.980469 32.382812 C 20.175781 33.371094 19.375 34.359375 18.640625 35.378906 C 18.265625 35.882812 17.898438 36.382812 17.566406 36.898438 C 17.226562 37.410156 16.878906 37.90625 16.558594 38.410156 C 15.929688 39.421875 15.3125 40.394531 14.789062 41.355469 C 14.523438 41.832031 14.265625 42.292969 14.011719 42.738281 C 13.777344 43.195312 13.550781 43.636719 13.332031 44.058594 C 12.882812 44.898438 12.519531 45.691406 12.1875 46.390625 C 11.855469 47.089844 11.582031 47.703125 11.359375 48.210938 C 10.914062 49.222656 10.671875 49.808594 10.671875 49.808594 C 10.671875 49.808594 10.992188 49.261719 11.523438 48.289062 C 11.785156 47.800781 12.109375 47.210938 12.5 46.550781 C 12.886719 45.882812 13.308594 45.125 13.796875 44.316406 C 14.28125 43.5 14.804688 42.621094 15.382812 41.707031 C 15.945312 40.785156 16.59375 39.84375 17.234375 38.855469 C 17.566406 38.367188 17.921875 37.886719 18.269531 37.390625 C 18.617188 36.890625 18.976562 36.394531 19.351562 35.90625 C 20.078125 34.902344 20.886719 33.945312 21.675781 32.964844 C 22.5 32.023438 23.308594 31.0625 24.175781 30.179688 C 25.007812 29.265625 25.894531 28.4375 26.734375 27.609375 C 27.617188 26.832031 28.429688 26.03125 29.273438 25.355469 C 29.6875 25.007812 30.089844 24.671875 30.480469 24.34375 C 30.878906 24.03125 31.269531 23.726562 31.640625 23.4375 C 32.375 22.84375 33.082031 22.339844 33.699219 21.882812 C 34.011719 21.65625 34.300781 21.441406 34.570312 21.246094 C 34.84375 21.054688 35.097656 20.886719 35.328125 20.730469 C 36.238281 20.105469 36.753906 19.738281 36.753906 19.738281 C 36.753906 19.738281 36.199219 20.039062 35.234375 20.582031 C 34.992188 20.722656 34.726562 20.875 34.433594 21.039062 " fill-opacity="1" fill-rule="nonzero"/><g clip-path="url(#dbee25e310)"><path fill="#f1efe7" d="M 40.296875 48.875 C 40.308594 49.167969 40.320312 49.457031 40.328125 49.75 C 40.355469 50.085938 40.390625 50.332031 40.421875 50.632812 C 40.433594 50.753906 40.449219 50.878906 40.460938 51.003906 C 29.511719 57 18.277344 58.691406 11.828125 57.113281 C 11.84375 56.964844 11.859375 56.765625 11.886719 56.507812 C 11.917969 55.914062 12.074219 55.085938 12.289062 54.039062 C 12.4375 53.519531 12.558594 52.9375 12.765625 52.320312 C 12.984375 51.703125 13.191406 51.03125 13.5 50.34375 C 14.058594 48.949219 14.808594 47.417969 15.730469 45.800781 C 15.847656 45.597656 15.964844 45.394531 16.082031 45.1875 C 16.183594 45.011719 16.332031 44.789062 16.457031 44.589844 C 16.722656 44.175781 16.988281 43.757812 17.261719 43.332031 C 17.816406 42.488281 18.351562 41.582031 18.96875 40.710938 C 20.25 39.011719 21.496094 37.148438 23.074219 35.425781 C 23.453125 34.984375 23.835938 34.539062 24.21875 34.089844 C 24.414062 33.871094 24.597656 33.636719 24.804688 33.421875 L 25.433594 32.785156 C 26.28125 31.9375 27.132812 31.078125 27.996094 30.210938 C 29.78125 28.527344 31.660156 26.917969 33.640625 25.410156 C 35.628906 23.921875 37.679688 22.507812 39.769531 21.234375 C 41.875 19.964844 43.972656 18.804688 46.074219 17.761719 C 48.15625 16.726562 50.238281 15.84375 52.261719 15.167969 C 54.285156 14.484375 56.253906 14.019531 58.105469 13.773438 C 58.570312 13.691406 59.019531 13.652344 59.460938 13.613281 C 59.90625 13.574219 60.335938 13.519531 60.761719 13.519531 C 61.183594 13.507812 61.597656 13.496094 62 13.484375 C 62.402344 13.503906 62.792969 13.515625 63.171875 13.53125 C 63.359375 13.539062 63.546875 13.546875 63.730469 13.554688 C 63.914062 13.574219 64.09375 13.59375 64.269531 13.613281 C 64.621094 13.652344 64.960938 13.695312 65.285156 13.730469 C 65.933594 13.832031 66.523438 13.964844 67.0625 14.0625 C 67.585938 14.207031 68.058594 14.339844 68.464844 14.449219 C 68.878906 14.554688 69.207031 14.714844 69.484375 14.804688 C 70.035156 15.011719 70.328125 15.121094 70.328125 15.121094 C 70.328125 15.121094 70.039062 15 69.5 14.769531 C 69.222656 14.664062 68.902344 14.488281 68.496094 14.363281 C 68.089844 14.234375 67.621094 14.085938 67.097656 13.917969 C 66.5625 13.796875 65.972656 13.644531 65.320312 13.519531 C 64.992188 13.46875 64.652344 13.417969 64.296875 13.363281 C 64.121094 13.335938 63.941406 13.3125 63.753906 13.285156 C 63.574219 13.269531 63.382812 13.253906 63.191406 13.242188 C 62.808594 13.210938 62.414062 13.183594 62.007812 13.152344 C 61.601562 13.152344 61.179688 13.148438 60.75 13.144531 C 60.320312 13.128906 59.875 13.167969 59.421875 13.191406 C 58.96875 13.21875 58.5 13.238281 58.039062 13.308594 C 56.164062 13.515625 54.144531 13.9375 52.074219 14.582031 C 50 15.222656 47.878906 16.066406 45.730469 17.066406 C 45.195312 17.3125 44.667969 17.578125 44.132812 17.835938 C 43.589844 18.105469 43.066406 18.394531 42.527344 18.675781 C 41.984375 18.953125 41.449219 19.246094 40.921875 19.554688 C 40.386719 19.863281 39.847656 20.160156 39.316406 20.480469 C 37.1875 21.746094 35.09375 23.148438 33.058594 24.636719 C 31.035156 26.140625 29.089844 27.769531 27.273438 29.445312 C 26.398438 30.328125 25.53125 31.199219 24.675781 32.0625 L 24.035156 32.710938 C 23.828125 32.933594 23.640625 33.167969 23.441406 33.394531 C 23.054688 33.851562 22.667969 34.304688 22.285156 34.753906 C 20.691406 36.503906 19.414062 38.421875 18.113281 40.167969 L 17.875 40.496094 L 17.667969 40.835938 C 17.53125 41.0625 17.394531 41.285156 17.257812 41.511719 C 16.984375 41.953125 16.714844 42.394531 16.453125 42.828125 C 16.1875 43.257812 15.929688 43.683594 15.675781 44.101562 C 15.546875 44.316406 15.425781 44.496094 15.292969 44.738281 C 15.175781 44.949219 15.0625 45.160156 14.953125 45.367188 C 14.054688 47.035156 13.296875 48.605469 12.78125 50.0625 C 12.492188 50.78125 12.304688 51.484375 12.109375 52.121094 C 11.917969 52.765625 11.8125 53.375 11.679688 53.910156 C 11.496094 55.015625 11.382812 55.890625 11.382812 56.472656 C 11.375 56.679688 11.367188 56.847656 11.359375 56.984375 C 10.136719 56.640625 9.101562 56.171875 8.296875 55.582031 C 6.710938 51.886719 6.402344 47.691406 7.066406 43.714844 C 7.785156 39.386719 9.597656 35.292969 11.871094 31.539062 C 13.5625 28.753906 15.507812 26.132812 17.515625 23.5625 C 19.519531 21.46875 21.738281 19.316406 24.175781 17.117188 C 31.707031 10.316406 40.773438 5.277344 49.703125 2.933594 C 57.632812 0.851562 64.34375 1.339844 67.210938 4.207031 C 67.957031 4.957031 68.597656 5.753906 69.128906 6.597656 C 70.265625 8.609375 70.90625 10.949219 70.949219 13.253906 C 71.019531 16.910156 69.875 20.445312 68.203125 23.734375 C 67.78125 24.535156 67.316406 25.34375 66.804688 26.164062 L 66.804688 26.160156 C 66.804688 26.160156 66.640625 26.132812 66.324219 26.085938 C 66.007812 26.039062 65.542969 25.953125 64.914062 25.90625 C 63.664062 25.789062 61.816406 25.710938 59.496094 26.058594 C 57.183594 26.414062 54.394531 27.203125 51.546875 28.828125 C 48.703125 30.433594 45.820312 32.957031 43.710938 36.421875 C 42.660156 38.152344 41.789062 40.085938 41.171875 42.183594 C 40.59375 44.285156 40.238281 46.542969 40.296875 48.875 Z M 51.402344 40.972656 C 52.457031 40.316406 53.6875 39.957031 54.933594 39.925781 C 53.949219 40.835938 52.921875 41.75 51.855469 42.667969 C 51.671875 42.101562 51.519531 41.539062 51.402344 40.972656 Z M 51.109375 38.554688 C 51.097656 37.96875 51.132812 37.390625 51.199219 36.828125 C 52.414062 33.257812 54.855469 30.316406 57.777344 29.308594 C 60.285156 28.441406 62.976562 27.960938 65.648438 27.921875 C 63.101562 31.613281 59.675781 35.480469 55.417969 39.472656 C 53.984375 39.410156 52.542969 39.765625 51.308594 40.492188 C 51.195312 39.839844 51.125 39.1875 51.109375 38.554688 Z M 60.472656 56.261719 C 60.859375 55.953125 61.429688 55.496094 62.136719 54.871094 C 62.492188 54.566406 62.875 54.214844 63.289062 53.835938 C 63.710938 53.457031 64.152344 53.039062 64.617188 52.578125 C 65.554688 51.671875 66.570312 50.605469 67.636719 49.40625 C 68.6875 48.191406 69.789062 46.839844 70.882812 45.363281 C 71.582031 44.398438 72.28125 43.382812 72.96875 42.316406 C 73.070312 42.355469 73.226562 42.410156 73.429688 42.484375 C 73.835938 42.621094 74.425781 42.839844 75.167969 43.125 C 75.910156 43.414062 76.808594 43.777344 77.820312 44.230469 C 78.835938 44.683594 79.96875 45.222656 81.179688 45.851562 C 82.394531 46.480469 83.683594 47.214844 85.019531 48.027344 C 86.355469 48.84375 87.726562 49.765625 89.105469 50.769531 C 91.863281 52.78125 94.640625 55.15625 97.171875 57.769531 C 99.710938 60.378906 102.003906 63.214844 103.921875 66.03125 C 104.882812 67.4375 105.75 68.839844 106.515625 70.199219 C 107.285156 71.558594 107.980469 72.855469 108.5 74.097656 C 109.027344 75.339844 109.414062 76.507812 109.660156 77.5625 C 109.910156 78.617188 110.019531 79.550781 110.046875 80.316406 C 110.082031 81.082031 110.015625 81.679688 109.96875 82.078125 C 109.933594 82.289062 109.90625 82.441406 109.890625 82.542969 C 109.394531 82.589844 108.894531 82.621094 108.394531 82.632812 C 105.617188 82.675781 102.828125 82.179688 100.085938 81.496094 C 94.597656 80.121094 89.261719 78.105469 84.308594 75.550781 C 79.34375 73.015625 74.757812 69.953125 70.660156 66.578125 C 66.765625 63.390625 63.328125 59.914062 60.371094 56.34375 C 60.402344 56.316406 60.433594 56.292969 60.472656 56.261719 Z M 74.078125 40.535156 C 75.101562 38.808594 76.070312 36.96875 76.953125 35.054688 C 77.707031 33.441406 78.390625 31.753906 78.957031 30.023438 C 78.992188 30.035156 79.015625 30.042969 79.054688 30.054688 C 79.382812 30.160156 79.875 30.292969 80.503906 30.511719 C 81.769531 30.925781 83.609375 31.59375 85.882812 32.589844 C 88.160156 33.585938 90.855469 34.953125 93.804688 36.765625 C 96.746094 38.582031 99.925781 40.867188 103.128906 43.667969 C 106.328125 46.476562 109.550781 49.796875 112.53125 53.65625 C 114.019531 55.582031 115.449219 57.640625 116.78125 59.820312 C 118.085938 62.003906 119.398438 64.300781 120.296875 66.753906 C 120.746094 67.984375 121.097656 69.257812 121.25 70.558594 C 121.40625 71.855469 121.355469 73.191406 121.027344 74.441406 C 120.835938 75.21875 120.523438 75.957031 120.128906 76.648438 C 120.140625 76.550781 120.15625 76.457031 120.167969 76.355469 C 120.207031 76.039062 120.265625 75.695312 120.285156 75.328125 C 120.347656 74.59375 120.371094 73.765625 120.339844 72.863281 C 120.328125 72.636719 120.320312 72.410156 120.3125 72.171875 C 120.289062 71.9375 120.265625 71.699219 120.242188 71.457031 C 120.226562 71.210938 120.195312 70.964844 120.148438 70.714844 C 120.101562 70.457031 120.082031 70.222656 120.011719 69.9375 C 119.882812 69.441406 119.753906 68.9375 119.621094 68.425781 C 119.457031 67.90625 119.253906 67.378906 119.0625 66.839844 C 118.640625 65.792969 118.15625 64.742188 117.589844 63.710938 C 117.328125 63.183594 116.996094 62.683594 116.703125 62.179688 C 116.394531 61.679688 116.117188 61.164062 115.777344 60.667969 C 115.121094 59.675781 114.488281 58.671875 113.789062 57.734375 C 113.449219 57.261719 113.117188 56.785156 112.773438 56.332031 C 112.421875 55.878906 112.074219 55.433594 111.734375 54.996094 C 111.066406 54.109375 110.339844 53.3125 109.691406 52.53125 C 109.367188 52.140625 109.027344 51.777344 108.699219 51.429688 C 108.375 51.078125 108.058594 50.742188 107.757812 50.417969 C 107.457031 50.085938 107.148438 49.792969 106.855469 49.515625 C 106.566406 49.234375 106.289062 48.96875 106.027344 48.71875 C 105.765625 48.472656 105.53125 48.230469 105.292969 48.027344 C 105.058594 47.824219 104.839844 47.636719 104.644531 47.46875 C 103.855469 46.800781 103.40625 46.414062 103.40625 46.414062 C 103.40625 46.414062 103.839844 46.816406 104.601562 47.519531 C 104.789062 47.695312 105 47.886719 105.226562 48.101562 C 105.453125 48.3125 105.679688 48.5625 105.929688 48.820312 C 106.421875 49.347656 107.011719 49.902344 107.585938 50.578125 C 107.875 50.910156 108.179688 51.253906 108.496094 51.613281 C 108.8125 51.96875 109.136719 52.335938 109.445312 52.738281 C 110.070312 53.535156 110.769531 54.34375 111.40625 55.246094 C 111.734375 55.691406 112.0625 56.144531 112.398438 56.605469 C 112.730469 57.066406 113.039062 57.550781 113.367188 58.027344 C 114.03125 58.976562 114.628906 59.988281 115.246094 60.984375 C 115.5625 61.476562 115.828125 62.007812 116.121094 62.515625 C 116.40625 63.039062 116.707031 63.527344 116.953125 64.050781 C 117.484375 65.066406 117.945312 66.105469 118.332031 67.113281 C 118.503906 67.625 118.683594 68.117188 118.835938 68.617188 C 118.960938 69.136719 119.082031 69.640625 119.199219 70.132812 C 119.25 70.339844 119.273438 70.609375 119.3125 70.835938 C 119.351562 71.070312 119.375 71.304688 119.386719 71.539062 C 119.40625 71.769531 119.425781 72 119.441406 72.222656 C 119.449219 72.449219 119.453125 72.671875 119.457031 72.886719 C 119.476562 73.757812 119.433594 74.550781 119.375 75.25 C 119.355469 75.601562 119.296875 75.925781 119.261719 76.226562 C 119.238281 76.375 119.21875 76.519531 119.203125 76.65625 C 119.171875 76.789062 119.148438 76.914062 119.121094 77.03125 C 119.070312 77.269531 119.023438 77.480469 118.988281 77.664062 C 118.925781 77.855469 118.871094 78.019531 118.832031 78.148438 C 118.753906 78.390625 118.707031 78.523438 118.703125 78.546875 C 117.976562 79.3125 117.132812 79.984375 116.222656 80.539062 C 115.066406 81.238281 113.796875 81.777344 112.484375 82.109375 C 112.003906 82.234375 111.515625 82.324219 111.023438 82.402344 C 111.03125 82.34375 111.042969 82.289062 111.050781 82.222656 C 111.097656 81.773438 111.167969 81.109375 111.117188 80.273438 C 111.078125 79.441406 110.945312 78.433594 110.667969 77.320312 C 110.398438 76.203125 109.980469 74.980469 109.417969 73.699219 C 108.863281 72.414062 108.140625 71.09375 107.34375 69.722656 C 106.546875 68.351562 105.65625 66.9375 104.660156 65.523438 C 102.683594 62.6875 100.324219 59.835938 97.730469 57.222656 C 95.136719 54.605469 92.300781 52.234375 89.492188 50.234375 C 88.085938 49.234375 86.691406 48.316406 85.332031 47.511719 C 83.972656 46.703125 82.667969 45.976562 81.433594 45.359375 C 80.203125 44.734375 79.058594 44.203125 78.027344 43.761719 C 77 43.3125 76.09375 42.957031 75.335938 42.675781 C 74.582031 42.386719 73.988281 42.179688 73.582031 42.046875 C 73.433594 41.992188 73.320312 41.953125 73.222656 41.921875 C 73.511719 41.46875 73.796875 41.007812 74.078125 40.535156 Z M 123 70.492188 C 122.570312 68.207031 121.871094 66.507812 121.359375 65.382812 C 121.105469 64.816406 120.878906 64.398438 120.722656 64.117188 C 120.574219 63.835938 120.496094 63.691406 120.496094 63.691406 C 120.496094 63.691406 120.566406 63.839844 120.710938 64.125 C 120.851562 64.410156 121.0625 64.835938 121.296875 65.410156 C 121.765625 66.546875 122.386719 68.265625 122.753906 70.539062 C 123.125 72.796875 123.226562 75.632812 122.570312 78.75 C 121.914062 81.859375 120.441406 85.234375 117.910156 88.210938 C 116.660156 89.707031 115.128906 91.066406 113.40625 92.25 C 112.527344 92.816406 111.601562 93.367188 110.636719 93.8125 C 110.40625 93.933594 110.136719 94.03125 109.886719 94.144531 L 109.503906 94.304688 L 109.40625 94.347656 C 109.394531 94.347656 109.359375 94.363281 109.367188 94.359375 L 109.320312 94.375 L 109.125 94.441406 C 108.605469 94.617188 108.078125 94.792969 107.550781 94.96875 C 105.414062 95.585938 103.152344 96.035156 100.808594 96.183594 C 100.515625 96.207031 100.222656 96.230469 99.929688 96.253906 C 99.636719 96.277344 99.335938 96.269531 99.042969 96.273438 C 98.449219 96.285156 97.855469 96.289062 97.253906 96.296875 C 96.058594 96.222656 94.84375 96.207031 93.644531 96.03125 C 92.449219 95.925781 91.214844 95.664062 89.980469 95.445312 C 88.808594 95.148438 87.558594 94.871094 86.351562 94.535156 C 83.925781 93.828125 81.496094 93.03125 79.117188 92.042969 C 78.519531 91.800781 77.921875 91.554688 77.324219 91.304688 C 76.730469 91.046875 76.148438 90.765625 75.558594 90.496094 C 74.972656 90.214844 74.375 89.960938 73.796875 89.660156 L 72.054688 88.769531 C 70.882812 88.191406 69.761719 87.523438 68.613281 86.898438 C 67.472656 86.257812 66.34375 85.558594 65.210938 84.890625 C 60.796875 82.148438 56.78125 78.714844 53.390625 74.863281 C 50.019531 70.988281 47.234375 66.707031 45.179688 62.269531 C 44.167969 60.066406 43.269531 57.792969 42.59375 55.558594 C 42.4375 54.992188 42.285156 54.429688 42.128906 53.871094 C 42.015625 53.3125 41.898438 52.757812 41.785156 52.207031 L 41.699219 51.792969 L 41.648438 51.363281 C 41.613281 51.074219 41.578125 50.789062 41.542969 50.503906 C 41.511719 50.230469 41.46875 49.90625 41.449219 49.675781 C 41.4375 49.398438 41.425781 49.121094 41.410156 48.847656 C 41.328125 46.636719 41.644531 44.480469 42.175781 42.464844 C 42.742188 40.460938 43.558594 38.59375 44.546875 36.929688 C 45.546875 35.261719 46.710938 33.816406 47.972656 32.570312 C 49.234375 31.332031 50.589844 30.324219 51.945312 29.515625 C 54.667969 27.894531 57.359375 27.078125 59.597656 26.691406 C 61.84375 26.3125 63.65625 26.320312 64.863281 26.410156 C 65.46875 26.4375 65.941406 26.507812 66.257812 26.546875 C 66.375 26.5625 66.464844 26.574219 66.539062 26.585938 C 66.453125 26.71875 66.367188 26.851562 66.277344 26.988281 L 66.28125 26.984375 C 66.28125 26.984375 66.109375 26.933594 65.777344 26.839844 C 65.441406 26.75 64.90625 26.636719 64.230469 26.5625 C 62.875 26.4375 60.835938 26.484375 58.40625 27.265625 C 57.203125 27.664062 55.878906 28.25 54.640625 29.164062 C 53.375 30.089844 52.207031 31.367188 51.417969 33.003906 C 50.632812 34.628906 50.195312 36.542969 50.210938 38.550781 C 50.222656 40.589844 50.730469 42.671875 51.566406 44.6875 C 52.398438 46.710938 53.53125 48.675781 54.816406 50.613281 C 56.082031 52.546875 57.5 54.507812 59.042969 56.429688 C 62.136719 60.273438 65.773438 64.039062 69.941406 67.453125 C 74.105469 70.867188 78.765625 73.964844 83.808594 76.53125 C 88.84375 79.109375 94.253906 81.144531 99.832031 82.527344 C 102.621094 83.214844 105.496094 83.726562 108.414062 83.675781 C 109.867188 83.652344 111.324219 83.480469 112.738281 83.117188 C 114.160156 82.75 115.511719 82.175781 116.757812 81.417969 C 117.996094 80.65625 119.128906 79.703125 120.035156 78.5625 C 120.949219 77.433594 121.632812 76.09375 121.980469 74.703125 C 122.34375 73.285156 122.378906 71.839844 122.207031 70.441406 C 122.03125 69.046875 121.652344 67.707031 121.179688 66.429688 C 120.699219 65.152344 120.125 63.929688 119.5 62.761719 C 119.191406 62.171875 118.855469 61.601562 118.542969 61.039062 C 118.21875 60.472656 117.875 59.910156 117.542969 59.355469 C 116.179688 57.152344 114.71875 55.074219 113.199219 53.132812 C 110.160156 49.25 106.886719 45.898438 103.621094 43.101562 C 100.355469 40.300781 97.121094 38.03125 94.132812 36.226562 C 91.136719 34.429688 88.402344 33.078125 86.097656 32.097656 C 83.792969 31.113281 81.929688 30.464844 80.652344 30.058594 C 80.015625 29.847656 79.515625 29.714844 79.1875 29.613281 C 79.152344 29.601562 79.128906 29.59375 79.097656 29.585938 C 79.152344 29.417969 79.210938 29.253906 79.261719 29.082031 C 79.878906 27.023438 80.277344 24.882812 80.363281 22.75 C 80.449219 20.617188 80.199219 18.515625 79.71875 16.554688 C 79.242188 14.589844 78.519531 12.757812 77.632812 11.132812 C 76.75 9.507812 75.707031 8.085938 74.613281 6.902344 C 73.515625 5.722656 72.378906 4.765625 71.285156 4.050781 C 70.195312 3.332031 69.179688 2.816406 68.320312 2.449219 C 67.460938 2.089844 66.761719 1.863281 66.28125 1.726562 C 65.800781 1.59375 65.542969 1.527344 65.542969 1.527344 C 65.542969 1.527344 65.796875 1.609375 66.269531 1.765625 C 66.742188 1.921875 67.421875 2.1875 68.261719 2.578125 C 69.101562 2.976562 70.085938 3.527344 71.125 4.28125 C 72.167969 5.03125 73.257812 6 74.296875 7.1875 C 75.335938 8.375 76.308594 9.792969 77.125 11.398438 C 77.9375 13.007812 78.609375 14.796875 79.042969 16.714844 C 79.476562 18.628906 79.683594 20.660156 79.566406 22.710938 C 79.449219 24.765625 79.027344 26.828125 78.425781 28.832031 C 77.816406 30.84375 77.023438 32.792969 76.128906 34.671875 C 75.25 36.554688 74.289062 38.359375 73.269531 40.054688 C 72.257812 41.753906 71.203125 43.351562 70.140625 44.820312 C 69.070312 46.285156 67.996094 47.621094 66.964844 48.820312 C 65.917969 50.003906 64.945312 51.082031 64.027344 51.984375 C 63.578125 52.445312 63.148438 52.867188 62.738281 53.246094 C 62.339844 53.628906 61.964844 53.980469 61.617188 54.285156 C 60.9375 54.902344 60.386719 55.378906 60.003906 55.699219 C 59.964844 55.730469 59.9375 55.753906 59.902344 55.78125 C 59.894531 55.773438 59.886719 55.765625 59.878906 55.753906 C 59.417969 55.183594 58.972656 54.613281 58.535156 54.042969 C 58.648438 53.957031 58.78125 53.863281 58.933594 53.75 C 59.199219 53.550781 59.527344 53.3125 59.902344 53.035156 C 60.089844 52.898438 60.289062 52.75 60.5 52.597656 C 60.699219 52.421875 60.914062 52.238281 61.132812 52.046875 C 61.574219 51.667969 62.050781 51.25 62.554688 50.816406 C 62.8125 50.605469 63.046875 50.355469 63.292969 50.109375 C 63.539062 49.859375 63.789062 49.609375 64.039062 49.351562 C 64.546875 48.835938 65.085938 48.320312 65.5625 47.726562 C 66.054688 47.152344 66.550781 46.566406 67.050781 45.984375 C 67.507812 45.363281 67.964844 44.746094 68.414062 44.140625 C 68.882812 43.542969 69.261719 42.90625 69.648438 42.296875 C 70.023438 41.683594 70.429688 41.117188 70.734375 40.535156 C 71.046875 39.953125 71.339844 39.40625 71.613281 38.898438 C 71.746094 38.648438 71.878906 38.40625 72 38.175781 C 72.105469 37.9375 72.207031 37.710938 72.300781 37.496094 C 72.492188 37.070312 72.65625 36.699219 72.789062 36.394531 C 73.0625 35.78125 73.21875 35.433594 73.21875 35.433594 C 73.21875 35.433594 73.046875 35.773438 72.75 36.375 C 72.601562 36.671875 72.421875 37.035156 72.210938 37.453125 C 72.109375 37.660156 72 37.878906 71.882812 38.113281 C 71.75 38.339844 71.609375 38.574219 71.464844 38.820312 C 71.171875 39.3125 70.855469 39.84375 70.519531 40.40625 C 70.191406 40.972656 69.765625 41.515625 69.367188 42.109375 C 68.957031 42.691406 68.550781 43.308594 68.0625 43.875 C 67.59375 44.457031 67.117188 45.046875 66.636719 45.636719 C 66.121094 46.195312 65.601562 46.75 65.09375 47.292969 C 64.601562 47.855469 64.046875 48.339844 63.527344 48.824219 C 63.269531 49.066406 63.011719 49.300781 62.761719 49.535156 C 62.507812 49.765625 62.269531 50 62.011719 50.191406 C 61.503906 50.59375 61.027344 50.972656 60.585938 51.320312 C 60.367188 51.496094 60.15625 51.664062 59.957031 51.824219 C 59.738281 51.96875 59.535156 52.105469 59.339844 52.234375 C 58.953125 52.496094 58.617188 52.722656 58.339844 52.90625 C 58.171875 53.019531 58.027344 53.117188 57.902344 53.199219 C 57.125 52.148438 56.386719 51.097656 55.6875 50.039062 C 55.578125 49.875 55.472656 49.714844 55.367188 49.550781 C 55.582031 49.390625 55.945312 49.113281 56.449219 48.734375 C 56.859375 48.433594 57.351562 48.035156 57.90625 47.570312 C 58.1875 47.339844 58.484375 47.09375 58.796875 46.835938 C 59.097656 46.566406 59.417969 46.28125 59.746094 45.984375 C 60.074219 45.6875 60.425781 45.386719 60.769531 45.054688 C 61.113281 44.722656 61.46875 44.375 61.832031 44.019531 C 62.199219 43.671875 62.558594 43.292969 62.921875 42.902344 C 63.289062 42.511719 63.667969 42.125 64.039062 41.710938 C 64.761719 40.871094 65.53125 40.023438 66.238281 39.101562 C 66.980469 38.207031 67.660156 37.238281 68.363281 36.292969 C 69.015625 35.308594 69.695312 34.347656 70.285156 33.34375 C 70.910156 32.367188 71.445312 31.359375 71.988281 30.394531 C 72.246094 29.910156 72.484375 29.421875 72.726562 28.945312 C 72.96875 28.472656 73.203125 28.007812 73.402344 27.542969 C 73.613281 27.082031 73.816406 26.636719 74.011719 26.203125 C 74.207031 25.765625 74.367188 25.335938 74.535156 24.929688 C 74.699219 24.519531 74.859375 24.128906 75.007812 23.753906 C 75.140625 23.375 75.269531 23.015625 75.390625 22.679688 C 75.632812 22.003906 75.839844 21.414062 75.980469 20.921875 C 76.285156 19.9375 76.457031 19.375 76.457031 19.375 C 76.457031 19.375 76.269531 19.933594 75.941406 20.90625 C 75.789062 21.398438 75.570312 21.984375 75.308594 22.648438 C 75.179688 22.980469 75.042969 23.335938 74.898438 23.710938 C 74.742188 24.078125 74.574219 24.46875 74.402344 24.871094 C 74.222656 25.273438 74.050781 25.699219 73.847656 26.128906 C 73.640625 26.554688 73.425781 26.996094 73.207031 27.453125 C 72.996094 27.90625 72.753906 28.363281 72.5 28.828125 C 72.246094 29.292969 72 29.773438 71.726562 30.25 C 71.164062 31.195312 70.605469 32.183594 69.960938 33.140625 C 69.351562 34.121094 68.652344 35.058594 67.980469 36.015625 C 67.261719 36.941406 66.566406 37.882812 65.808594 38.75 C 65.082031 39.644531 64.300781 40.464844 63.566406 41.277344 C 63.191406 41.675781 62.804688 42.050781 62.4375 42.429688 C 62.066406 42.804688 61.703125 43.167969 61.328125 43.503906 C 60.960938 43.84375 60.605469 44.175781 60.257812 44.5 C 59.910156 44.816406 59.554688 45.105469 59.226562 45.390625 C 58.890625 45.675781 58.574219 45.945312 58.269531 46.203125 C 57.957031 46.449219 57.660156 46.679688 57.382812 46.898438 C 56.828125 47.339844 56.339844 47.71875 55.914062 48.011719 C 55.441406 48.351562 55.085938 48.605469 54.867188 48.765625 C 54.257812 47.796875 53.699219 46.828125 53.203125 45.855469 C 57.726562 42.007812 61.578125 38.085938 65.328125 33.429688 C 69.214844 28.597656 72.03125 22.863281 72.699219 16.695312 C 73.070312 13.253906 72.621094 10.082031 70.871094 7.097656 C 69.820312 5.296875 68.519531 3.785156 66.902344 2.785156 C 59.515625 -2.410156 39.027344 2.476562 23.566406 16.441406 C 14.488281 24.636719 3.613281 36.523438 3.355469 46.609375 C 3.265625 50.121094 4.488281 53.167969 6.980469 55.664062 C 8.988281 57.667969 12.550781 58.632812 16.9375 58.632812 C 23.753906 58.632812 32.554688 56.300781 40.570312 51.976562 L 40.644531 52.363281 C 40.761719 52.953125 40.867188 53.550781 40.992188 54.144531 C 41.144531 54.722656 41.300781 55.304688 41.453125 55.890625 C 41.613281 56.472656 41.816406 57.046875 42 57.628906 L 42.140625 58.066406 L 42.175781 58.171875 L 42.21875 58.292969 L 42.296875 58.503906 L 42.613281 59.355469 L 42.933594 60.214844 C 43.042969 60.5 43.171875 60.785156 43.292969 61.074219 C 43.539062 61.644531 43.765625 62.234375 44.042969 62.796875 C 44.539062 63.867188 45.074219 64.925781 45.652344 65.980469 C 45.535156 66.015625 45.402344 66.0625 45.230469 66.121094 C 44.71875 66.292969 43.964844 66.546875 43.003906 66.851562 C 42.046875 67.160156 40.871094 67.492188 39.523438 67.875 C 38.171875 68.246094 36.640625 68.636719 34.953125 68.984375 C 33.269531 69.324219 31.4375 69.667969 29.484375 69.894531 C 28.996094 69.953125 28.5 69.996094 28 70.046875 C 27.5 70.078125 26.992188 70.113281 26.476562 70.148438 C 25.964844 70.15625 25.457031 70.183594 24.929688 70.183594 C 24.40625 70.175781 23.839844 70.183594 23.339844 70.160156 C 21.214844 70.089844 19.027344 69.761719 16.878906 69.160156 C 14.730469 68.558594 12.625 67.664062 10.707031 66.464844 C 8.792969 65.265625 7.078125 63.75 5.738281 61.980469 C 4.398438 60.210938 3.421875 58.214844 2.832031 56.167969 C 2.242188 54.121094 2.003906 52.050781 2.027344 50.089844 C 2.054688 48.132812 2.355469 46.273438 2.773438 44.609375 C 3.625 41.265625 4.984375 38.675781 6.003906 36.941406 C 6.515625 36.070312 6.960938 35.410156 7.261719 34.960938 C 7.574219 34.515625 7.738281 34.277344 7.738281 34.277344 C 7.738281 34.277344 7.5625 34.507812 7.234375 34.9375 C 6.910156 35.375 6.433594 36.015625 5.882812 36.867188 C 4.792969 38.570312 3.332031 41.121094 2.34375 44.492188 C 1.851562 46.175781 1.511719 48.050781 1.425781 50.074219 C 1.351562 52.085938 1.539062 54.230469 2.097656 56.371094 C 2.664062 58.507812 3.617188 60.640625 5 62.527344 C 6.390625 64.414062 8.171875 66.035156 10.160156 67.324219 C 12.152344 68.613281 14.335938 69.574219 16.566406 70.234375 C 18.796875 70.894531 21.074219 71.269531 23.285156 71.375 C 23.867188 71.414062 24.378906 71.394531 24.917969 71.402344 C 25.457031 71.402344 26.003906 71.375 26.535156 71.359375 C 27.0625 71.320312 27.585938 71.289062 28.105469 71.25 C 28.617188 71.199219 29.125 71.152344 29.625 71.09375 C 31.625 70.847656 33.5 70.523438 35.203125 70.109375 C 36.90625 69.707031 38.453125 69.273438 39.808594 68.859375 C 41.167969 68.445312 42.332031 68.019531 43.285156 67.667969 C 44.242188 67.3125 44.984375 67.023438 45.488281 66.808594 C 45.707031 66.71875 45.871094 66.648438 46 66.597656 C 47.796875 69.78125 49.953125 72.851562 52.429688 75.703125 C 55.902344 79.65625 59.984375 83.167969 64.539062 86.007812 C 65.679688 86.683594 66.792969 87.378906 67.949219 88.03125 L 69.695312 89 L 70.566406 89.480469 L 71.453125 89.929688 L 73.226562 90.820312 C 73.816406 91.121094 74.425781 91.375 75.023438 91.65625 C 75.625 91.925781 76.21875 92.207031 76.824219 92.464844 C 77.433594 92.710938 78.042969 92.957031 78.652344 93.199219 C 81.082031 94.183594 83.5625 94.976562 86.035156 95.675781 C 86.652344 95.863281 87.28125 95.984375 87.902344 96.136719 C 88.527344 96.285156 89.152344 96.433594 89.777344 96.582031 C 91.015625 96.792969 92.230469 97.042969 93.503906 97.148438 C 94.761719 97.320312 96.003906 97.328125 97.234375 97.394531 C 97.851562 97.382812 98.464844 97.371094 99.078125 97.359375 C 99.382812 97.347656 99.6875 97.351562 99.988281 97.328125 C 100.289062 97.300781 100.59375 97.273438 100.894531 97.246094 C 103.308594 97.089844 105.636719 96.5625 107.839844 95.882812 C 108.382812 95.691406 108.925781 95.5 109.460938 95.308594 L 109.664062 95.238281 L 109.710938 95.21875 L 109.773438 95.191406 L 109.867188 95.152344 L 110.25 94.980469 C 110.503906 94.863281 110.753906 94.769531 111.007812 94.632812 C 112.039062 94.132812 112.972656 93.550781 113.878906 92.945312 C 115.652344 91.679688 117.207031 90.246094 118.46875 88.675781 C 119.734375 87.113281 120.761719 85.464844 121.507812 83.792969 C 122.265625 82.117188 122.75 80.453125 123.042969 78.847656 C 123.625 75.636719 123.4375 72.769531 123 70.492188 " fill-opacity="1" fill-rule="nonzero"/></g><path fill="#f1efe7" d="M 99.324219 91.570312 C 98.054688 91.5 96.625 91.359375 95.078125 91.15625 C 93.53125 90.949219 91.867188 90.640625 90.121094 90.261719 C 88.375 89.882812 86.554688 89.386719 84.695312 88.8125 C 82.832031 88.238281 80.941406 87.546875 79.054688 86.769531 C 77.167969 85.992188 75.28125 85.105469 73.480469 84.117188 C 72.554688 83.613281 71.6875 83.082031 70.792969 82.554688 C 69.925781 82 69.050781 81.457031 68.21875 80.863281 C 66.546875 79.699219 64.945312 78.484375 63.460938 77.222656 C 61.96875 75.972656 60.589844 74.6875 59.320312 73.429688 C 59.003906 73.113281 58.691406 72.800781 58.386719 72.492188 C 58.089844 72.175781 57.796875 71.863281 57.507812 71.558594 C 56.921875 70.953125 56.394531 70.335938 55.867188 69.753906 C 55.351562 69.171875 54.878906 68.585938 54.414062 68.042969 C 53.964844 67.488281 53.542969 66.960938 53.140625 66.464844 C 52.367188 65.453125 51.691406 64.570312 51.164062 63.824219 C 50.621094 63.085938 50.214844 62.488281 49.933594 62.085938 C 49.65625 61.679688 49.503906 61.464844 49.503906 61.464844 C 49.503906 61.464844 49.632812 61.695312 49.871094 62.125 C 50.109375 62.554688 50.441406 63.195312 50.929688 63.976562 C 51.390625 64.773438 51.992188 65.714844 52.707031 66.78125 C 53.070312 67.3125 53.464844 67.871094 53.875 68.460938 C 54.3125 69.035156 54.753906 69.648438 55.246094 70.269531 C 56.226562 71.511719 57.316406 72.839844 58.570312 74.15625 C 59.175781 74.835938 59.847656 75.480469 60.511719 76.167969 C 61.210938 76.816406 61.90625 77.503906 62.660156 78.148438 C 63.394531 78.816406 64.183594 79.449219 64.96875 80.101562 C 65.78125 80.726562 66.597656 81.363281 67.457031 81.953125 C 68.304688 82.566406 69.191406 83.128906 70.078125 83.707031 C 70.976562 84.25 71.894531 84.816406 72.820312 85.304688 C 74.703125 86.316406 76.625 87.199219 78.5625 87.984375 C 80.5 88.746094 82.445312 89.402344 84.355469 89.945312 C 86.261719 90.496094 88.136719 90.90625 89.925781 91.234375 C 91.710938 91.566406 93.417969 91.777344 94.996094 91.910156 C 96.574219 92.046875 98.027344 92.085938 99.3125 92.074219 C 100.597656 92.070312 101.714844 91.984375 102.632812 91.90625 C 103.550781 91.824219 104.265625 91.710938 104.75 91.636719 C 105.234375 91.558594 105.496094 91.515625 105.496094 91.515625 C 105.496094 91.515625 105.234375 91.53125 104.742188 91.566406 C 104.253906 91.601562 103.53125 91.628906 102.617188 91.644531 C 101.703125 91.65625 100.59375 91.640625 99.324219 91.570312 " fill-opacity="1" fill-rule="nonzero"/><path fill="#f1efe7" d="M 43.082031 45.003906 C 43.242188 44.300781 43.359375 43.589844 43.558594 42.90625 C 43.71875 42.214844 43.960938 41.558594 44.164062 40.914062 C 44.285156 40.597656 44.40625 40.289062 44.527344 39.984375 C 44.582031 39.832031 44.640625 39.683594 44.699219 39.535156 C 44.761719 39.386719 44.824219 39.246094 44.890625 39.101562 C 45.015625 38.820312 45.136719 38.542969 45.257812 38.277344 C 45.390625 38.015625 45.515625 37.761719 45.640625 37.519531 C 45.878906 37.03125 46.128906 36.605469 46.351562 36.222656 C 46.566406 35.835938 46.761719 35.503906 46.941406 35.242188 C 47.285156 34.703125 47.480469 34.394531 47.480469 34.394531 C 47.480469 34.394531 47.257812 34.683594 46.863281 35.183594 C 46.664062 35.433594 46.441406 35.75 46.195312 36.121094 C 46.070312 36.304688 45.9375 36.503906 45.800781 36.710938 C 45.664062 36.921875 45.539062 37.152344 45.398438 37.390625 C 45.265625 37.628906 45.121094 37.875 44.976562 38.132812 C 44.84375 38.398438 44.707031 38.671875 44.566406 38.953125 C 44.261719 39.507812 44.042969 40.140625 43.777344 40.773438 C 43.558594 41.421875 43.304688 42.089844 43.128906 42.792969 C 42.914062 43.484375 42.777344 44.207031 42.632812 44.925781 C 42.535156 45.652344 42.414062 46.378906 42.375 47.101562 C 42.300781 47.820312 42.3125 48.53125 42.292969 49.21875 C 42.300781 49.5625 42.328125 49.902344 42.34375 50.230469 C 42.355469 50.394531 42.363281 50.558594 42.371094 50.71875 C 42.390625 50.882812 42.410156 51.039062 42.425781 51.195312 C 42.464844 51.511719 42.5 51.8125 42.535156 52.105469 C 42.578125 52.398438 42.636719 52.679688 42.683594 52.949219 C 42.765625 53.492188 42.894531 53.980469 43.007812 54.410156 C 43.113281 54.84375 43.214844 55.214844 43.320312 55.519531 C 43.523438 56.121094 43.636719 56.46875 43.636719 56.46875 C 43.636719 56.46875 43.554688 56.113281 43.40625 55.496094 C 43.320312 55.191406 43.242188 54.8125 43.167969 54.375 C 43.125 54.160156 43.082031 53.925781 43.035156 53.683594 C 42.996094 53.4375 42.96875 53.179688 42.929688 52.910156 C 42.894531 52.640625 42.851562 52.363281 42.820312 52.070312 C 42.796875 51.78125 42.773438 51.476562 42.75 51.167969 C 42.683594 50.550781 42.71875 49.894531 42.691406 49.21875 C 42.71875 48.542969 42.714844 47.84375 42.800781 47.136719 C 42.84375 46.425781 42.976562 45.71875 43.082031 45.003906 " fill-opacity="1" fill-rule="nonzero"/><path fill="#f1efe7" d="M 119.777344 80.121094 C 119.710938 80.199219 119.644531 80.273438 119.574219 80.347656 C 118.589844 81.414062 117.140625 82.484375 115.273438 83.246094 C 113.40625 84.019531 111.132812 84.445312 108.65625 84.480469 C 106.175781 84.519531 103.488281 84.132812 100.714844 83.460938 C 97.945312 82.769531 95.050781 81.886719 92.136719 80.785156 C 89.210938 79.699219 86.253906 78.40625 83.339844 76.914062 C 80.429688 75.414062 77.5625 73.722656 74.8125 71.855469 C 72.0625 69.984375 69.429688 67.945312 66.949219 65.8125 C 64.46875 63.679688 62.160156 61.421875 60.0625 59.121094 C 59.003906 57.972656 58.015625 56.800781 57.0625 55.640625 C 56.136719 54.480469 55.21875 53.300781 54.382812 52.15625 C 52.699219 49.855469 51.289062 47.539062 50.371094 45.238281 C 49.449219 42.941406 49.027344 40.671875 49.097656 38.664062 C 49.152344 36.652344 49.636719 34.921875 50.253906 33.613281 C 50.867188 32.296875 51.605469 31.398438 52.144531 30.835938 C 52.417969 30.558594 52.640625 30.359375 52.796875 30.226562 C 52.953125 30.101562 53.03125 30.035156 53.03125 30.035156 C 53.03125 30.035156 52.949219 30.097656 52.785156 30.21875 C 52.625 30.339844 52.394531 30.53125 52.105469 30.796875 C 51.539062 31.335938 50.746094 32.207031 50.078125 33.53125 C 49.410156 34.839844 48.851562 36.585938 48.726562 38.648438 C 48.574219 40.710938 48.972656 43.066406 49.867188 45.433594 C 50.757812 47.816406 52.148438 50.203125 53.804688 52.570312 C 55.453125 54.933594 57.367188 57.316406 59.46875 59.65625 C 61.574219 61.996094 63.886719 64.292969 66.382812 66.46875 C 68.078125 67.964844 69.878906 69.382812 71.734375 70.734375 C 71.707031 70.71875 71.683594 70.699219 71.65625 70.6875 C 77.242188 74.945312 82.167969 78.476562 88.578125 81.347656 C 94.984375 84.21875 101.941406 86.144531 108.960938 86.105469 C 111.9375 86.085938 115.175781 85.4375 117.78125 83.988281 C 120.367188 82.546875 121.910156 79.4375 121.9375 76.472656 C 121.9375 76.472656 121.9375 76.46875 121.9375 76.46875 C 121.9375 76.46875 121.9375 76.472656 121.9375 76.472656 C 121.9375 76.457031 121.9375 76.441406 121.9375 76.429688 C 121.394531 77.753906 120.671875 79.015625 119.777344 80.121094 " fill-opacity="1" fill-rule="nonzero"/><path fill="#f1efe7" d="M 85.144531 46.175781 C 85.886719 46.679688 86.726562 47.242188 87.644531 47.847656 C 88.558594 48.464844 89.519531 49.171875 90.550781 49.902344 C 91.074219 50.253906 91.570312 50.671875 92.101562 51.070312 C 92.625 51.472656 93.164062 51.882812 93.710938 52.300781 C 94.785156 53.152344 95.851562 54.097656 96.957031 55.023438 C 97.476562 55.519531 98 56.023438 98.527344 56.527344 C 99.042969 57.042969 99.617188 57.507812 100.09375 58.0625 C 100.59375 58.597656 101.09375 59.136719 101.589844 59.671875 C 101.832031 59.941406 102.089844 60.199219 102.324219 60.476562 C 102.550781 60.757812 102.773438 61.042969 103 61.324219 C 103.449219 61.886719 103.894531 62.445312 104.335938 62.996094 C 104.78125 63.535156 105.167969 64.132812 105.574219 64.6875 C 106.367188 65.8125 107.121094 66.902344 107.78125 67.976562 C 108.132812 68.5 108.421875 69.039062 108.71875 69.554688 C 108.867188 69.808594 109.011719 70.0625 109.152344 70.3125 C 109.28125 70.566406 109.40625 70.816406 109.53125 71.0625 C 110.046875 72.035156 110.4375 72.964844 110.792969 73.78125 C 111.121094 74.613281 111.359375 75.355469 111.578125 75.964844 C 111.914062 77.203125 112.101562 77.914062 112.101562 77.914062 C 112.101562 77.914062 111.949219 77.195312 111.675781 75.933594 C 111.484375 75.320312 111.273438 74.5625 110.976562 73.710938 C 110.648438 72.875 110.304688 71.917969 109.800781 70.925781 C 109.683594 70.675781 109.5625 70.421875 109.4375 70.160156 C 109.300781 69.90625 109.164062 69.648438 109.019531 69.386719 C 108.734375 68.863281 108.453125 68.3125 108.117188 67.773438 C 107.472656 66.679688 106.75 65.546875 105.964844 64.410156 C 105.558594 63.851562 105.1875 63.261719 104.734375 62.703125 C 104.292969 62.140625 103.847656 61.574219 103.398438 61 C 103.171875 60.714844 102.949219 60.425781 102.722656 60.136719 C 102.488281 59.855469 102.230469 59.59375 101.984375 59.316406 C 101.488281 58.773438 100.988281 58.226562 100.488281 57.679688 C 100.003906 57.121094 99.445312 56.636719 98.914062 56.125 C 98.375 55.621094 97.84375 55.121094 97.3125 54.625 C 96.191406 53.699219 95.109375 52.757812 94.015625 51.90625 C 92.902344 51.089844 91.855469 50.253906 90.800781 49.550781 C 89.746094 48.847656 88.757812 48.167969 87.828125 47.570312 C 86.890625 46.984375 86.027344 46.449219 85.261719 45.984375 C 84.496094 45.519531 83.808594 45.144531 83.253906 44.816406 C 82.132812 44.179688 81.492188 43.816406 81.492188 43.816406 C 81.492188 43.816406 82.109375 44.21875 83.191406 44.917969 C 83.734375 45.265625 84.402344 45.671875 85.144531 46.175781 " fill-opacity="1" fill-rule="nonzero"/></g></g></g><g fill="#ffffff" fill-opacity="1"><g transform="translate(83.176551, 201.374987)"><g><path d="M 3.9375 -40.90625 C 5 -41.96875 6.265625 -42.5 7.734375 -42.5 C 9.203125 -42.5 10.460938 -41.96875 11.515625 -40.90625 C 12.578125 -39.851562 13.109375 -38.59375 13.109375 -37.125 C 13.109375 -35.65625 12.578125 -34.390625 11.515625 -33.328125 C 10.460938 -32.273438 9.203125 -31.75 7.734375 -31.75 C 6.265625 -31.75 5 -32.273438 3.9375 -33.328125 C 2.882812 -34.390625 2.359375 -35.65625 2.359375 -37.125 C 2.359375 -38.59375 2.882812 -39.851562 3.9375 -40.90625 Z M 3.078125 -26.265625 L 3.078125 0 L 12.140625 0 L 12.140625 -26.265625 Z M 3.078125 -26.265625 "/></g></g></g><g fill="#ffffff" fill-opacity="1"><g transform="translate(94.797667, 201.374987)"><g><path d="M 3.078125 0 L 3.078125 -26.265625 L 12.140625 -26.265625 L 12.140625 -23.5 L 12.234375 -23.5 C 14.585938 -25.851562 17.097656 -27.03125 19.765625 -27.03125 C 21.054688 -27.03125 22.34375 -26.859375 23.625 -26.515625 C 24.90625 -26.179688 26.132812 -25.65625 27.3125 -24.9375 C 28.488281 -24.21875 29.441406 -23.203125 30.171875 -21.890625 C 30.910156 -20.578125 31.28125 -19.050781 31.28125 -17.3125 L 31.28125 0 L 22.21875 0 L 22.21875 -14.84375 C 22.21875 -16.207031 21.78125 -17.398438 20.90625 -18.421875 C 20.039062 -19.453125 18.910156 -19.96875 17.515625 -19.96875 C 16.148438 -19.96875 14.910156 -19.4375 13.796875 -18.375 C 12.691406 -17.320312 12.140625 -16.144531 12.140625 -14.84375 L 12.140625 0 Z M 3.078125 0 "/></g></g></g><g fill="#ffffff" fill-opacity="1"><g transform="translate(124.799307, 201.374987)"><g><path d="M 9.734375 -26.265625 L 16.125 -11.984375 L 22.53125 -26.265625 L 33.28125 -26.265625 L 19.203125 0 L 13.0625 0 L -1.03125 -26.265625 Z M 9.734375 -26.265625 "/></g></g></g><g fill="#ffffff" fill-opacity="1"><g transform="translate(153.213766, 201.374987)"><g><path d="M 3.9375 -40.90625 C 5 -41.96875 6.265625 -42.5 7.734375 -42.5 C 9.203125 -42.5 10.460938 -41.96875 11.515625 -40.90625 C 12.578125 -39.851562 13.109375 -38.59375 13.109375 -37.125 C 13.109375 -35.65625 12.578125 -34.390625 11.515625 -33.328125 C 10.460938 -32.273438 9.203125 -31.75 7.734375 -31.75 C 6.265625 -31.75 5 -32.273438 3.9375 -33.328125 C 2.882812 -34.390625 2.359375 -35.65625 2.359375 -37.125 C 2.359375 -38.59375 2.882812 -39.851562 3.9375 -40.90625 Z M 3.078125 -26.265625 L 3.078125 0 L 12.140625 0 L 12.140625 -26.265625 Z M 3.078125 -26.265625 "/></g></g></g><g fill="#ffffff" fill-opacity="1"><g transform="translate(164.83488, 201.374987)"><g><path d="M 4.609375 -26.265625 L 4.609375 -36.046875 L 13.671875 -36.046875 L 13.671875 -26.265625 L 19.203125 -26.265625 L 19.203125 -19.359375 L 13.671875 -19.359375 L 13.671875 -11.015625 C 13.671875 -8.585938 14.351562 -7.375 15.71875 -7.375 C 16.0625 -7.375 16.421875 -7.441406 16.796875 -7.578125 C 17.171875 -7.710938 17.460938 -7.847656 17.671875 -7.984375 L 17.96875 -8.1875 L 20.21875 -0.875 C 18.28125 0.21875 16.0625 0.765625 13.5625 0.765625 C 11.863281 0.765625 10.398438 0.46875 9.171875 -0.125 C 7.941406 -0.726562 7.007812 -1.53125 6.375 -2.53125 C 5.738281 -3.539062 5.285156 -4.597656 5.015625 -5.703125 C 4.742188 -6.816406 4.609375 -8.003906 4.609375 -9.265625 L 4.609375 -19.359375 L 0.8125 -19.359375 L 0.8125 -26.265625 Z M 4.609375 -26.265625 "/></g></g></g><g fill="#ffffff" fill-opacity="1"><g transform="translate(181.21752, 201.374987)"><g><path d="M 4.859375 -3.25 C 2.398438 -5.925781 1.171875 -9.207031 1.171875 -13.09375 C 1.171875 -16.988281 2.398438 -20.285156 4.859375 -22.984375 C 7.316406 -25.679688 10.441406 -27.03125 14.234375 -27.03125 C 17.710938 -27.03125 20.582031 -25.941406 22.84375 -23.765625 L 22.84375 -26.265625 L 31.90625 -26.265625 L 31.90625 0 L 22.9375 0 L 22.9375 -2.96875 L 22.84375 -2.96875 C 20.582031 -0.476562 17.710938 0.765625 14.234375 0.765625 C 10.441406 0.765625 7.316406 -0.570312 4.859375 -3.25 Z M 12.5625 -17.5625 C 11.382812 -16.40625 10.796875 -14.921875 10.796875 -13.109375 C 10.796875 -11.296875 11.359375 -9.816406 12.484375 -8.671875 C 13.617188 -7.535156 15.109375 -6.96875 16.953125 -6.96875 C 18.722656 -6.96875 20.179688 -7.546875 21.328125 -8.703125 C 22.472656 -9.867188 23.046875 -11.335938 23.046875 -13.109375 C 23.046875 -14.921875 22.457031 -16.40625 21.28125 -17.5625 C 20.101562 -18.71875 18.660156 -19.296875 16.953125 -19.296875 C 15.210938 -19.296875 13.75 -18.71875 12.5625 -17.5625 Z M 12.5625 -17.5625 "/></g></g></g><g fill="#ffffff" fill-opacity="1"><g transform="translate(212.345551, 201.374987)"><g><path d="M 3.078125 0 L 3.078125 -26.265625 L 12.140625 -26.265625 L 12.140625 -22.484375 L 12.234375 -22.484375 C 12.304688 -22.617188 12.414062 -22.785156 12.5625 -22.984375 C 12.71875 -23.191406 13.050781 -23.550781 13.5625 -24.0625 C 14.082031 -24.570312 14.628906 -25.03125 15.203125 -25.4375 C 15.785156 -25.851562 16.535156 -26.222656 17.453125 -26.546875 C 18.378906 -26.867188 19.320312 -27.03125 20.28125 -27.03125 C 21.269531 -27.03125 22.238281 -26.894531 23.1875 -26.625 C 24.144531 -26.351562 24.847656 -26.082031 25.296875 -25.8125 L 26.015625 -25.390625 L 22.21875 -17.71875 C 21.09375 -18.675781 19.523438 -19.15625 17.515625 -19.15625 C 16.421875 -19.15625 15.476562 -18.914062 14.6875 -18.4375 C 13.90625 -17.957031 13.351562 -17.375 13.03125 -16.6875 C 12.707031 -16.007812 12.476562 -15.429688 12.34375 -14.953125 C 12.207031 -14.472656 12.140625 -14.097656 12.140625 -13.828125 L 12.140625 0 Z M 3.078125 0 "/></g></g></g><g fill="#ffffff" fill-opacity="1"><g transform="translate(234.001719, 201.374987)"><g><path d="M 3.078125 0 L 3.078125 -44.03125 L 12.140625 -44.03125 L 12.140625 0 Z M 3.078125 0 "/></g></g></g><g fill="#ffffff" fill-opacity="1"><g transform="translate(245.366835, 201.374987)"><g><path d="M 22.984375 -26.265625 L 33.4375 -26.265625 L 12.796875 13.3125 L 2.359375 13.3125 L 11.421875 -4.09375 L -1.03125 -26.265625 L 9.421875 -26.265625 L 16.75 -12.796875 Z M 22.984375 -26.265625 "/></g></g></g><g fill="#ffffff" fill-opacity="1"><g transform="translate(273.934902, 201.374987)"><g><path d="M 8.90625 -10.953125 C 10.539062 -10.953125 11.929688 -10.378906 13.078125 -9.234375 C 14.222656 -8.097656 14.796875 -6.707031 14.796875 -5.0625 C 14.796875 -3.457031 14.222656 -2.082031 13.078125 -0.9375 C 11.929688 0.195312 10.539062 0.765625 8.90625 0.765625 C 7.300781 0.765625 5.925781 0.195312 4.78125 -0.9375 C 3.644531 -2.082031 3.078125 -3.457031 3.078125 -5.0625 C 3.078125 -6.707031 3.644531 -8.097656 4.78125 -9.234375 C 5.925781 -10.378906 7.300781 -10.953125 8.90625 -10.953125 Z M 8.90625 -10.953125 "/></g></g></g></svg>