<svg xmlns="http://www.w3.org/2000/svg" xmlns:xlink="http://www.w3.org/1999/xlink" width="600" zoomAndPan="magnify" viewBox="0 0 450 225" height="300" preserveAspectRatio="xMidYMid meet" version="1.0"><defs><g/></defs><g fill="#3b3b3b" fill-opacity="1"><g transform="translate(104.567464, 124.770747)"><g><path d="M 4.6875 1.796875 C 3.789062 1.796875 3.019531 1.625 2.375 1.28125 C 1.738281 0.9375 1.242188 0.457031 0.890625 -0.15625 C 0.535156 -0.769531 0.328125 -1.484375 0.265625 -2.296875 C 0.265625 -2.296875 0.296875 -2.3125 0.359375 -2.34375 C 0.429688 -2.382812 0.5 -2.40625 0.5625 -2.40625 C 0.632812 -2.40625 0.671875 -2.375 0.671875 -2.3125 C 0.816406 -1.476562 1.054688 -0.796875 1.390625 -0.265625 C 1.734375 0.253906 2.148438 0.640625 2.640625 0.890625 C 3.128906 1.140625 3.664062 1.265625 4.25 1.265625 C 4.300781 1.265625 4.351562 1.265625 4.40625 1.265625 C 4.46875 1.265625 4.523438 1.257812 4.578125 1.25 C 5.285156 1.195312 5.972656 1.019531 6.640625 0.71875 C 7.304688 0.414062 7.953125 0.0195312 8.578125 -0.46875 C 9.210938 -0.96875 9.820312 -1.53125 10.40625 -2.15625 C 10.988281 -2.789062 11.546875 -3.460938 12.078125 -4.171875 C 12.609375 -4.878906 13.109375 -5.59375 13.578125 -6.3125 C 14.054688 -7.039062 14.5 -7.75 14.90625 -8.4375 C 15.3125 -9.132812 15.679688 -9.78125 16.015625 -10.375 C 16.359375 -10.96875 16.664062 -11.484375 16.9375 -11.921875 L 18.453125 -14.484375 C 18.140625 -14.566406 17.828125 -14.632812 17.515625 -14.6875 C 17.203125 -14.75 16.890625 -14.78125 16.578125 -14.78125 C 16.140625 -14.78125 15.738281 -14.734375 15.375 -14.640625 C 15.007812 -14.546875 14.695312 -14.441406 14.4375 -14.328125 C 14.1875 -14.210938 13.988281 -14.109375 13.84375 -14.015625 C 13.707031 -13.929688 13.640625 -13.890625 13.640625 -13.890625 C 13.585938 -13.847656 13.535156 -13.816406 13.484375 -13.796875 C 13.441406 -13.785156 13.398438 -13.78125 13.359375 -13.78125 C 13.265625 -13.78125 13.21875 -13.8125 13.21875 -13.875 C 13.21875 -13.894531 13.234375 -13.925781 13.265625 -13.96875 C 13.816406 -14.445312 14.398438 -14.78125 15.015625 -14.96875 C 15.628906 -15.15625 16.226562 -15.25 16.8125 -15.25 C 17.15625 -15.25 17.488281 -15.222656 17.8125 -15.171875 C 18.144531 -15.128906 18.453125 -15.066406 18.734375 -14.984375 C 18.742188 -14.984375 18.75 -14.984375 18.75 -14.984375 C 19.363281 -16.015625 19.976562 -17.03125 20.59375 -18.03125 C 21.21875 -19.039062 21.832031 -20 22.4375 -20.90625 C 23.050781 -21.820312 23.65625 -22.671875 24.25 -23.453125 C 24.851562 -24.234375 25.441406 -24.925781 26.015625 -25.53125 C 26.597656 -26.132812 27.171875 -26.617188 27.734375 -26.984375 C 26.890625 -27.160156 26.050781 -27.316406 25.21875 -27.453125 C 24.382812 -27.585938 23.550781 -27.65625 22.71875 -27.65625 C 22.019531 -27.65625 21.320312 -27.59375 20.625 -27.46875 C 19.925781 -27.34375 19.234375 -27.125 18.546875 -26.8125 C 17.472656 -26.332031 16.53125 -25.71875 15.71875 -24.96875 C 14.90625 -24.21875 14.242188 -23.367188 13.734375 -22.421875 C 13.222656 -21.472656 12.890625 -20.445312 12.734375 -19.34375 C 12.703125 -19.1875 12.671875 -19.109375 12.640625 -19.109375 C 12.617188 -19.109375 12.597656 -19.140625 12.578125 -19.203125 C 12.566406 -19.265625 12.5625 -19.335938 12.5625 -19.421875 L 12.578125 -19.578125 C 12.648438 -20.304688 12.800781 -21.03125 13.03125 -21.75 C 13.269531 -22.476562 13.570312 -23.164062 13.9375 -23.8125 C 14.3125 -24.46875 14.75 -25.0625 15.25 -25.59375 C 15.75 -26.125 16.289062 -26.570312 16.875 -26.9375 C 17.789062 -27.488281 18.769531 -27.890625 19.8125 -28.140625 C 20.863281 -28.398438 21.921875 -28.53125 22.984375 -28.53125 C 23.992188 -28.53125 24.984375 -28.425781 25.953125 -28.21875 C 26.910156 -28.019531 27.882812 -27.816406 28.875 -27.609375 C 29.863281 -27.410156 30.863281 -27.222656 31.875 -27.046875 C 32.894531 -26.878906 33.914062 -26.742188 34.9375 -26.640625 C 35.957031 -26.535156 36.976562 -26.484375 38 -26.484375 C 39.09375 -26.484375 40.175781 -26.5625 41.25 -26.71875 C 42.320312 -26.875 43.367188 -27.128906 44.390625 -27.484375 C 45.421875 -27.847656 46.410156 -28.332031 47.359375 -28.9375 C 47.460938 -29 47.570312 -29.046875 47.6875 -29.078125 C 47.800781 -29.109375 47.90625 -29.125 48 -29.125 C 48.175781 -29.125 48.265625 -29.082031 48.265625 -29 C 48.265625 -28.957031 48.238281 -28.90625 48.1875 -28.84375 C 48.132812 -28.789062 48.046875 -28.726562 47.921875 -28.65625 C 46.828125 -27.976562 45.671875 -27.429688 44.453125 -27.015625 C 43.234375 -26.597656 41.976562 -26.300781 40.6875 -26.125 C 39.40625 -25.945312 38.109375 -25.859375 36.796875 -25.859375 C 35.660156 -25.859375 34.519531 -25.914062 33.375 -26.03125 C 32.238281 -26.15625 31.125 -26.316406 30.03125 -26.515625 L 29.984375 -26.53125 C 29.359375 -26.25 28.726562 -25.832031 28.09375 -25.28125 C 27.46875 -24.738281 26.828125 -24.082031 26.171875 -23.3125 C 25.523438 -22.550781 24.867188 -21.703125 24.203125 -20.765625 C 23.535156 -19.835938 22.863281 -18.847656 22.1875 -17.796875 C 21.519531 -16.742188 20.84375 -15.648438 20.15625 -14.515625 C 20.5625 -14.367188 20.96875 -14.226562 21.375 -14.09375 C 21.789062 -13.957031 22.226562 -13.859375 22.6875 -13.796875 C 23.101562 -13.742188 23.46875 -13.71875 23.78125 -13.71875 C 24.144531 -13.71875 24.46875 -13.742188 24.75 -13.796875 C 25.039062 -13.847656 25.3125 -13.921875 25.5625 -14.015625 C 25.820312 -14.117188 26.078125 -14.234375 26.328125 -14.359375 C 26.585938 -14.484375 26.863281 -14.613281 27.15625 -14.75 C 27.21875 -14.78125 27.28125 -14.796875 27.34375 -14.796875 C 27.425781 -14.796875 27.46875 -14.765625 27.46875 -14.703125 C 27.46875 -14.640625 27.414062 -14.550781 27.3125 -14.4375 C 27.050781 -14.144531 26.726562 -13.890625 26.34375 -13.671875 C 25.957031 -13.453125 25.523438 -13.28125 25.046875 -13.15625 C 24.578125 -13.039062 24.085938 -12.984375 23.578125 -12.984375 C 23.304688 -12.984375 23.035156 -13 22.765625 -13.03125 C 22.492188 -13.070312 22.21875 -13.128906 21.9375 -13.203125 C 21.5625 -13.304688 21.207031 -13.425781 20.875 -13.5625 C 20.539062 -13.707031 20.195312 -13.851562 19.84375 -14 C 19.570312 -13.5625 19.300781 -13.125 19.03125 -12.6875 C 18.769531 -12.25 18.503906 -11.800781 18.234375 -11.34375 C 17.578125 -10.257812 16.921875 -9.179688 16.265625 -8.109375 C 15.609375 -7.035156 14.941406 -6.007812 14.265625 -5.03125 C 13.585938 -4.050781 12.882812 -3.144531 12.15625 -2.3125 C 11.4375 -1.476562 10.6875 -0.753906 9.90625 -0.140625 C 9.125 0.460938 8.300781 0.9375 7.4375 1.28125 C 6.582031 1.625 5.664062 1.796875 4.6875 1.796875 Z M 4.6875 1.796875 "/></g></g></g><g fill="#3b3b3b" fill-opacity="1"><g transform="translate(129.616216, 124.770747)"><g><path d="M 1.921875 -1.078125 C 1.523438 -1.078125 1.21875 -1.148438 1 -1.296875 C 0.78125 -1.453125 0.671875 -1.679688 0.671875 -1.984375 C 0.671875 -2.265625 0.753906 -2.59375 0.921875 -2.96875 C 1.097656 -3.34375 1.328125 -3.738281 1.609375 -4.15625 C 1.890625 -4.582031 2.203125 -5.007812 2.546875 -5.4375 C 2.890625 -5.875 3.234375 -6.289062 3.578125 -6.6875 C 3.953125 -7.125 4.304688 -7.539062 4.640625 -7.9375 C 4.972656 -8.34375 5.242188 -8.660156 5.453125 -8.890625 C 5.273438 -8.816406 5.050781 -8.703125 4.78125 -8.546875 C 4.507812 -8.398438 4.21875 -8.234375 3.90625 -8.046875 C 3.601562 -7.867188 3.289062 -7.703125 2.96875 -7.546875 C 2.65625 -7.398438 2.351562 -7.289062 2.0625 -7.21875 C 1.863281 -7.007812 1.671875 -6.804688 1.484375 -6.609375 C 1.304688 -6.421875 1.109375 -6.21875 0.890625 -6 C 0.671875 -5.78125 0.398438 -5.53125 0.078125 -5.25 C 0.0546875 -5.226562 0.0351562 -5.21875 0.015625 -5.21875 C -0.00390625 -5.21875 -0.0234375 -5.226562 -0.046875 -5.25 C -0.0664062 -5.269531 -0.078125 -5.289062 -0.078125 -5.3125 C -0.078125 -5.34375 -0.0664062 -5.367188 -0.046875 -5.390625 C 0.140625 -5.554688 0.300781 -5.703125 0.4375 -5.828125 C 0.582031 -5.960938 0.71875 -6.09375 0.84375 -6.21875 C 0.976562 -6.34375 1.113281 -6.476562 1.25 -6.625 C 1.394531 -6.769531 1.5625 -6.953125 1.75 -7.171875 L 1.5 -7.171875 L 1.515625 -7.171875 C 1.210938 -7.191406 0.992188 -7.269531 0.859375 -7.40625 C 0.734375 -7.550781 0.671875 -7.734375 0.671875 -7.953125 C 0.671875 -8.160156 0.726562 -8.390625 0.84375 -8.640625 C 0.957031 -8.898438 1.113281 -9.15625 1.3125 -9.40625 C 1.519531 -9.65625 1.753906 -9.882812 2.015625 -10.09375 C 2.273438 -10.300781 2.550781 -10.460938 2.84375 -10.578125 C 3.03125 -10.640625 3.210938 -10.671875 3.390625 -10.671875 C 3.597656 -10.671875 3.769531 -10.617188 3.90625 -10.515625 C 4.039062 -10.421875 4.109375 -10.269531 4.109375 -10.0625 C 4.109375 -9.832031 3.992188 -9.523438 3.765625 -9.140625 C 3.535156 -8.753906 3.125 -8.285156 2.53125 -7.734375 C 2.832031 -7.835938 3.144531 -7.972656 3.46875 -8.140625 C 3.800781 -8.316406 4.125 -8.488281 4.4375 -8.65625 C 4.75 -8.832031 5.035156 -8.976562 5.296875 -9.09375 C 5.566406 -9.207031 5.789062 -9.265625 5.96875 -9.265625 C 6.03125 -9.265625 6.085938 -9.253906 6.140625 -9.234375 C 6.203125 -9.210938 6.242188 -9.164062 6.265625 -9.09375 C 6.316406 -9.019531 6.363281 -8.921875 6.40625 -8.796875 C 6.445312 -8.679688 6.46875 -8.550781 6.46875 -8.40625 C 6.46875 -8.300781 6.453125 -8.195312 6.421875 -8.09375 C 6.390625 -7.988281 6.332031 -7.882812 6.25 -7.78125 C 6.09375 -7.601562 5.878906 -7.375 5.609375 -7.09375 C 5.335938 -6.8125 5.035156 -6.492188 4.703125 -6.140625 C 4.378906 -5.796875 4.050781 -5.4375 3.71875 -5.0625 C 3.382812 -4.6875 3.078125 -4.316406 2.796875 -3.953125 C 2.523438 -3.585938 2.304688 -3.242188 2.140625 -2.921875 C 1.972656 -2.609375 1.890625 -2.335938 1.890625 -2.109375 C 1.890625 -1.929688 1.941406 -1.785156 2.046875 -1.671875 C 2.160156 -1.554688 2.34375 -1.5 2.59375 -1.5 C 2.875 -1.5 3.21875 -1.554688 3.625 -1.671875 C 4.03125 -1.785156 4.476562 -1.941406 4.96875 -2.140625 C 5.46875 -2.347656 5.976562 -2.578125 6.5 -2.828125 C 7.019531 -3.085938 7.53125 -3.363281 8.03125 -3.65625 C 8.539062 -3.945312 9.007812 -4.238281 9.4375 -4.53125 C 9.875 -4.820312 10.242188 -5.101562 10.546875 -5.375 C 10.617188 -5.425781 10.6875 -5.453125 10.75 -5.453125 C 10.789062 -5.453125 10.8125 -5.4375 10.8125 -5.40625 C 10.8125 -5.382812 10.796875 -5.359375 10.765625 -5.328125 C 10.546875 -5.128906 10.265625 -4.910156 9.921875 -4.671875 C 9.585938 -4.429688 9.203125 -4.175781 8.765625 -3.90625 C 8.335938 -3.632812 7.882812 -3.363281 7.40625 -3.09375 C 6.925781 -2.820312 6.4375 -2.566406 5.9375 -2.328125 C 5.4375 -2.085938 4.941406 -1.875 4.453125 -1.6875 C 3.972656 -1.5 3.515625 -1.347656 3.078125 -1.234375 C 2.648438 -1.128906 2.265625 -1.078125 1.921875 -1.078125 Z M 1.78125 -7.5625 C 1.894531 -7.5625 2.007812 -7.570312 2.125 -7.59375 C 2.769531 -8.195312 3.222656 -8.6875 3.484375 -9.0625 C 3.753906 -9.445312 3.890625 -9.734375 3.890625 -9.921875 C 3.890625 -10.015625 3.859375 -10.082031 3.796875 -10.125 C 3.742188 -10.164062 3.664062 -10.1875 3.5625 -10.1875 C 3.382812 -10.1875 3.160156 -10.117188 2.890625 -9.984375 C 2.628906 -9.859375 2.363281 -9.675781 2.09375 -9.4375 C 1.820312 -9.195312 1.578125 -8.90625 1.359375 -8.5625 C 1.242188 -8.363281 1.1875 -8.1875 1.1875 -8.03125 C 1.1875 -7.882812 1.238281 -7.769531 1.34375 -7.6875 C 1.445312 -7.601562 1.59375 -7.5625 1.78125 -7.5625 Z M 1.78125 -7.5625 "/></g></g></g><g fill="#3b3b3b" fill-opacity="1"><g transform="translate(140.022564, 124.770747)"><g><path d="M 6.734375 -1.09375 C 6.222656 -1.09375 5.835938 -1.207031 5.578125 -1.4375 C 5.316406 -1.664062 5.1875 -1.988281 5.1875 -2.40625 C 5.1875 -2.695312 5.238281 -3.007812 5.34375 -3.34375 C 5.445312 -3.6875 5.582031 -4.046875 5.75 -4.421875 C 5.925781 -4.804688 6.125 -5.191406 6.34375 -5.578125 C 6.5625 -5.960938 6.78125 -6.335938 7 -6.703125 C 6.632812 -6.304688 6.242188 -5.894531 5.828125 -5.46875 C 5.410156 -5.039062 4.976562 -4.628906 4.53125 -4.234375 C 4.09375 -3.847656 3.648438 -3.5 3.203125 -3.1875 C 2.765625 -2.875 2.332031 -2.625 1.90625 -2.4375 C 1.476562 -2.25 1.070312 -2.15625 0.6875 -2.15625 C 0.414062 -2.15625 0.160156 -2.210938 -0.078125 -2.328125 C -0.390625 -2.472656 -0.613281 -2.65625 -0.75 -2.875 C -0.894531 -3.101562 -0.96875 -3.359375 -0.96875 -3.640625 C -0.96875 -3.992188 -0.878906 -4.378906 -0.703125 -4.796875 C -0.523438 -5.222656 -0.289062 -5.664062 0 -6.125 C 0.226562 -6.488281 0.507812 -6.863281 0.84375 -7.25 C 1.175781 -7.632812 1.566406 -8.003906 2.015625 -8.359375 C 2.472656 -8.722656 2.988281 -9.035156 3.5625 -9.296875 C 3.894531 -9.441406 4.222656 -9.550781 4.546875 -9.625 C 4.867188 -9.695312 5.175781 -9.734375 5.46875 -9.734375 C 5.863281 -9.734375 6.222656 -9.671875 6.546875 -9.546875 C 6.867188 -9.429688 7.128906 -9.265625 7.328125 -9.046875 C 7.535156 -8.828125 7.660156 -8.566406 7.703125 -8.265625 C 7.878906 -8.472656 8.039062 -8.65625 8.1875 -8.8125 C 8.332031 -8.976562 8.457031 -9.113281 8.5625 -9.21875 C 8.601562 -9.257812 8.65625 -9.28125 8.71875 -9.28125 C 8.820312 -9.28125 8.9375 -9.222656 9.0625 -9.109375 C 9.1875 -9.003906 9.289062 -8.867188 9.375 -8.703125 C 9.46875 -8.546875 9.515625 -8.378906 9.515625 -8.203125 C 9.515625 -8.066406 9.484375 -7.9375 9.421875 -7.8125 C 9.253906 -7.5625 9.046875 -7.257812 8.796875 -6.90625 C 8.554688 -6.5625 8.296875 -6.1875 8.015625 -5.78125 C 7.742188 -5.382812 7.488281 -4.984375 7.25 -4.578125 C 7.007812 -4.171875 6.8125 -3.78125 6.65625 -3.40625 C 6.5 -3.03125 6.421875 -2.6875 6.421875 -2.375 C 6.421875 -2.15625 6.488281 -1.957031 6.625 -1.78125 C 6.757812 -1.601562 6.988281 -1.515625 7.3125 -1.515625 C 7.582031 -1.515625 7.910156 -1.570312 8.296875 -1.6875 C 8.679688 -1.800781 9.09375 -1.957031 9.53125 -2.15625 C 9.96875 -2.363281 10.414062 -2.59375 10.875 -2.84375 C 11.34375 -3.101562 11.789062 -3.378906 12.21875 -3.671875 C 12.65625 -3.960938 13.054688 -4.253906 13.421875 -4.546875 C 13.785156 -4.835938 14.085938 -5.117188 14.328125 -5.390625 C 14.390625 -5.441406 14.445312 -5.46875 14.5 -5.46875 C 14.550781 -5.46875 14.578125 -5.445312 14.578125 -5.40625 C 14.578125 -5.382812 14.566406 -5.363281 14.546875 -5.34375 C 14.347656 -5.125 14.070312 -4.863281 13.71875 -4.5625 C 13.375 -4.269531 12.972656 -3.960938 12.515625 -3.640625 C 12.066406 -3.328125 11.585938 -3.019531 11.078125 -2.71875 C 10.578125 -2.414062 10.066406 -2.140625 9.546875 -1.890625 C 9.035156 -1.648438 8.535156 -1.457031 8.046875 -1.3125 C 7.566406 -1.164062 7.128906 -1.09375 6.734375 -1.09375 Z M 0.921875 -2.71875 C 1.109375 -2.71875 1.332031 -2.765625 1.59375 -2.859375 C 1.851562 -2.960938 2.128906 -3.097656 2.421875 -3.265625 C 2.710938 -3.441406 3.003906 -3.632812 3.296875 -3.84375 C 3.597656 -4.050781 3.875 -4.253906 4.125 -4.453125 C 4.445312 -4.722656 4.785156 -5.039062 5.140625 -5.40625 C 5.503906 -5.78125 5.867188 -6.171875 6.234375 -6.578125 C 6.597656 -6.984375 6.941406 -7.375 7.265625 -7.75 C 7.265625 -8.1875 7.15625 -8.492188 6.9375 -8.671875 C 6.726562 -8.859375 6.460938 -8.953125 6.140625 -8.953125 C 5.828125 -8.953125 5.488281 -8.878906 5.125 -8.734375 C 4.757812 -8.597656 4.410156 -8.421875 4.078125 -8.203125 C 3.847656 -8.046875 3.582031 -7.832031 3.28125 -7.5625 C 2.988281 -7.289062 2.6875 -6.976562 2.375 -6.625 C 2.0625 -6.269531 1.757812 -5.890625 1.46875 -5.484375 C 1.1875 -5.078125 0.953125 -4.65625 0.765625 -4.21875 C 0.566406 -3.769531 0.46875 -3.425781 0.46875 -3.1875 C 0.46875 -3.019531 0.503906 -2.898438 0.578125 -2.828125 C 0.660156 -2.753906 0.773438 -2.71875 0.921875 -2.71875 Z M 0.921875 -2.71875 "/></g></g></g><g fill="#3b3b3b" fill-opacity="1"><g transform="translate(154.166094, 124.770747)"><g><path d="M -1.328125 -1.609375 C -1.429688 -1.609375 -1.546875 -1.644531 -1.671875 -1.71875 C -1.796875 -1.800781 -1.90625 -1.894531 -2 -2 C -2.101562 -2.101562 -2.15625 -2.195312 -2.15625 -2.28125 L -2.140625 -2.34375 C -1.910156 -2.894531 -1.632812 -3.4375 -1.3125 -3.96875 C -1 -4.5 -0.664062 -5.019531 -0.3125 -5.53125 C 0.03125 -6.050781 0.367188 -6.566406 0.703125 -7.078125 C 1.046875 -7.597656 1.363281 -8.125 1.65625 -8.65625 C 1.945312 -9.195312 2.1875 -9.753906 2.375 -10.328125 C 2.394531 -10.410156 2.457031 -10.453125 2.5625 -10.453125 C 2.644531 -10.453125 2.75 -10.414062 2.875 -10.34375 C 3 -10.269531 3.113281 -10.164062 3.21875 -10.03125 C 3.332031 -9.90625 3.425781 -9.765625 3.5 -9.609375 C 3.582031 -9.460938 3.625 -9.3125 3.625 -9.15625 C 3.625 -9.070312 3.613281 -9 3.59375 -8.9375 C 3.4375 -8.5 3.25 -8.070312 3.03125 -7.65625 C 2.8125 -7.238281 2.566406 -6.828125 2.296875 -6.421875 C 2.878906 -6.921875 3.492188 -7.410156 4.140625 -7.890625 C 4.785156 -8.367188 5.515625 -8.84375 6.328125 -9.3125 C 6.703125 -9.539062 7.097656 -9.75 7.515625 -9.9375 C 7.941406 -10.132812 8.359375 -10.289062 8.765625 -10.40625 C 9.171875 -10.53125 9.539062 -10.59375 9.875 -10.59375 C 10.039062 -10.59375 10.191406 -10.578125 10.328125 -10.546875 C 10.535156 -10.492188 10.691406 -10.359375 10.796875 -10.140625 C 10.910156 -9.929688 10.96875 -9.71875 10.96875 -9.5 C 10.96875 -9.363281 10.945312 -9.242188 10.90625 -9.140625 C 10.851562 -8.984375 10.773438 -8.8125 10.671875 -8.625 C 10.566406 -8.4375 10.414062 -8.210938 10.21875 -7.953125 C 10.019531 -7.691406 9.765625 -7.375 9.453125 -7 C 9.140625 -6.625 8.753906 -6.160156 8.296875 -5.609375 C 7.992188 -5.265625 7.722656 -4.914062 7.484375 -4.5625 C 7.253906 -4.21875 7.070312 -3.882812 6.9375 -3.5625 C 6.800781 -3.25 6.734375 -2.96875 6.734375 -2.71875 C 6.734375 -2.457031 6.816406 -2.269531 6.984375 -2.15625 C 7.160156 -2.039062 7.398438 -1.984375 7.703125 -1.984375 C 8.023438 -1.984375 8.390625 -2.035156 8.796875 -2.140625 C 9.210938 -2.242188 9.648438 -2.382812 10.109375 -2.5625 C 10.566406 -2.738281 11.023438 -2.9375 11.484375 -3.15625 C 11.941406 -3.382812 12.375 -3.617188 12.78125 -3.859375 C 13.1875 -4.109375 13.546875 -4.347656 13.859375 -4.578125 C 14.171875 -4.816406 14.40625 -5.035156 14.5625 -5.234375 C 14.601562 -5.285156 14.65625 -5.328125 14.71875 -5.359375 C 14.78125 -5.390625 14.828125 -5.40625 14.859375 -5.40625 C 14.878906 -5.40625 14.890625 -5.398438 14.890625 -5.390625 C 14.890625 -5.378906 14.878906 -5.359375 14.859375 -5.328125 C 14.296875 -4.734375 13.679688 -4.207031 13.015625 -3.75 C 12.359375 -3.289062 11.6875 -2.90625 11 -2.59375 C 10.3125 -2.28125 9.644531 -2.039062 9 -1.875 C 8.363281 -1.71875 7.789062 -1.640625 7.28125 -1.640625 C 6.882812 -1.640625 6.546875 -1.6875 6.265625 -1.78125 C 5.972656 -1.875 5.753906 -2.035156 5.609375 -2.265625 C 5.460938 -2.503906 5.390625 -2.789062 5.390625 -3.125 C 5.390625 -3.550781 5.507812 -4.035156 5.75 -4.578125 C 6 -5.117188 6.367188 -5.671875 6.859375 -6.234375 C 7.304688 -6.722656 7.707031 -7.171875 8.0625 -7.578125 C 8.425781 -7.984375 8.710938 -8.34375 8.921875 -8.65625 C 9.140625 -8.96875 9.25 -9.222656 9.25 -9.421875 L 9.234375 -9.53125 C 9.222656 -9.601562 9.195312 -9.664062 9.15625 -9.71875 C 9.113281 -9.78125 9.039062 -9.828125 8.9375 -9.859375 L 8.78125 -9.875 C 8.582031 -9.875 8.335938 -9.828125 8.046875 -9.734375 C 7.753906 -9.648438 7.46875 -9.53125 7.1875 -9.375 C 6.425781 -8.96875 5.738281 -8.550781 5.125 -8.125 C 4.507812 -7.695312 3.9375 -7.25 3.40625 -6.78125 C 2.882812 -6.3125 2.378906 -5.8125 1.890625 -5.28125 C 1.410156 -4.757812 0.921875 -4.203125 0.421875 -3.609375 C -0.0664062 -3.015625 -0.59375 -2.375 -1.15625 -1.6875 C -1.195312 -1.632812 -1.253906 -1.609375 -1.328125 -1.609375 Z M -1.328125 -1.609375 "/></g></g></g><g fill="#3b3b3b" fill-opacity="1"><g transform="translate(168.720977, 124.770747)"><g><path d="M 1.78125 -0.96875 C 1.238281 -0.96875 0.765625 -1.050781 0.359375 -1.21875 C -0.0351562 -1.382812 -0.34375 -1.640625 -0.5625 -1.984375 C -0.789062 -2.328125 -0.90625 -2.769531 -0.90625 -3.3125 C -0.90625 -3.738281 -0.820312 -4.175781 -0.65625 -4.625 C -0.488281 -5.070312 -0.253906 -5.515625 0.046875 -5.953125 C 0.359375 -6.390625 0.710938 -6.796875 1.109375 -7.171875 C 1.515625 -7.554688 1.953125 -7.894531 2.421875 -8.1875 C 2.898438 -8.476562 3.390625 -8.707031 3.890625 -8.875 C 4.398438 -9.039062 4.90625 -9.125 5.40625 -9.125 C 6.019531 -9.125 6.46875 -9.015625 6.75 -8.796875 C 7.03125 -8.585938 7.171875 -8.320312 7.171875 -8 C 7.171875 -7.75 7.085938 -7.46875 6.921875 -7.15625 C 6.753906 -6.851562 6.515625 -6.550781 6.203125 -6.25 C 5.890625 -5.945312 5.515625 -5.65625 5.078125 -5.375 C 5.046875 -5.34375 5 -5.328125 4.9375 -5.328125 C 4.863281 -5.328125 4.785156 -5.34375 4.703125 -5.375 C 4.628906 -5.414062 4.59375 -5.46875 4.59375 -5.53125 C 4.59375 -5.59375 4.648438 -5.648438 4.765625 -5.703125 C 4.941406 -5.785156 5.125 -5.910156 5.3125 -6.078125 C 5.507812 -6.253906 5.691406 -6.445312 5.859375 -6.65625 C 6.023438 -6.863281 6.160156 -7.070312 6.265625 -7.28125 C 6.367188 -7.5 6.421875 -7.6875 6.421875 -7.84375 C 6.421875 -8.175781 6.1875 -8.34375 5.71875 -8.34375 C 5.4375 -8.34375 5.070312 -8.253906 4.625 -8.078125 C 4.1875 -7.910156 3.671875 -7.609375 3.078125 -7.171875 C 2.671875 -6.867188 2.289062 -6.523438 1.9375 -6.140625 C 1.582031 -5.753906 1.265625 -5.347656 0.984375 -4.921875 C 0.765625 -4.597656 0.601562 -4.265625 0.5 -3.921875 C 0.394531 -3.578125 0.34375 -3.253906 0.34375 -2.953125 C 0.34375 -2.679688 0.390625 -2.4375 0.484375 -2.21875 C 0.578125 -2 0.710938 -1.835938 0.890625 -1.734375 C 1.273438 -1.515625 1.742188 -1.40625 2.296875 -1.40625 C 2.960938 -1.40625 3.726562 -1.5625 4.59375 -1.875 C 5.457031 -2.1875 6.398438 -2.632812 7.421875 -3.21875 C 8.441406 -3.8125 9.515625 -4.523438 10.640625 -5.359375 C 10.691406 -5.398438 10.734375 -5.421875 10.765625 -5.421875 C 10.816406 -5.421875 10.84375 -5.40625 10.84375 -5.375 C 10.84375 -5.34375 10.828125 -5.316406 10.796875 -5.296875 C 9.953125 -4.671875 9.191406 -4.128906 8.515625 -3.671875 C 7.835938 -3.222656 7.222656 -2.84375 6.671875 -2.53125 C 6.128906 -2.21875 5.628906 -1.960938 5.171875 -1.765625 C 4.722656 -1.566406 4.300781 -1.410156 3.90625 -1.296875 C 3.519531 -1.191406 3.144531 -1.109375 2.78125 -1.046875 C 2.4375 -0.992188 2.101562 -0.96875 1.78125 -0.96875 Z M 1.78125 -0.96875 "/></g></g></g><g fill="#3b3b3b" fill-opacity="1"><g transform="translate(179.249855, 124.770747)"><g><path d="M 0.078125 -1.125 C -0.429688 -1.125 -0.8125 -1.238281 -1.0625 -1.46875 C -1.3125 -1.695312 -1.4375 -2.019531 -1.4375 -2.4375 C -1.4375 -2.726562 -1.382812 -3.046875 -1.28125 -3.390625 C -1.175781 -3.742188 -1.035156 -4.109375 -0.859375 -4.484375 C -0.691406 -4.867188 -0.5 -5.253906 -0.28125 -5.640625 C -0.0703125 -6.023438 0.140625 -6.394531 0.359375 -6.75 C 0.585938 -7.132812 0.804688 -7.503906 1.015625 -7.859375 C 1.234375 -8.222656 1.421875 -8.53125 1.578125 -8.78125 C 1.734375 -9.03125 1.847656 -9.1875 1.921875 -9.25 C 1.960938 -9.289062 2.015625 -9.3125 2.078125 -9.3125 C 2.179688 -9.3125 2.296875 -9.257812 2.421875 -9.15625 C 2.546875 -9.050781 2.648438 -8.914062 2.734375 -8.75 C 2.828125 -8.59375 2.875 -8.429688 2.875 -8.265625 C 2.875 -8.109375 2.835938 -7.972656 2.765625 -7.859375 C 2.628906 -7.648438 2.460938 -7.40625 2.265625 -7.125 C 2.078125 -6.84375 1.867188 -6.539062 1.640625 -6.21875 C 1.421875 -5.894531 1.195312 -5.5625 0.96875 -5.21875 C 0.75 -4.882812 0.550781 -4.550781 0.375 -4.21875 C 0.195312 -3.882812 0.0507812 -3.5625 -0.0625 -3.25 C -0.175781 -2.945312 -0.234375 -2.664062 -0.234375 -2.40625 C -0.234375 -2.1875 -0.164062 -1.988281 -0.03125 -1.8125 C 0.101562 -1.644531 0.335938 -1.5625 0.671875 -1.5625 C 0.941406 -1.5625 1.265625 -1.617188 1.640625 -1.734375 C 2.023438 -1.847656 2.4375 -2.003906 2.875 -2.203125 C 3.320312 -2.398438 3.773438 -2.628906 4.234375 -2.890625 C 4.703125 -3.148438 5.148438 -3.425781 5.578125 -3.71875 C 6.015625 -4.007812 6.410156 -4.300781 6.765625 -4.59375 C 7.128906 -4.882812 7.4375 -5.164062 7.6875 -5.4375 C 7.738281 -5.488281 7.796875 -5.515625 7.859375 -5.515625 C 7.910156 -5.515625 7.9375 -5.492188 7.9375 -5.453125 C 7.9375 -5.429688 7.925781 -5.410156 7.90625 -5.390625 C 7.707031 -5.160156 7.429688 -4.898438 7.078125 -4.609375 C 6.722656 -4.316406 6.320312 -4.007812 5.875 -3.6875 C 5.425781 -3.375 4.945312 -3.0625 4.4375 -2.75 C 3.9375 -2.445312 3.425781 -2.171875 2.90625 -1.921875 C 2.394531 -1.679688 1.894531 -1.488281 1.40625 -1.34375 C 0.925781 -1.195312 0.484375 -1.125 0.078125 -1.125 Z M 4.328125 -9.921875 C 4.304688 -9.921875 4.28125 -9.921875 4.25 -9.921875 C 4.21875 -9.921875 4.179688 -9.921875 4.140625 -9.921875 C 3.878906 -9.953125 3.648438 -10.019531 3.453125 -10.125 C 3.265625 -10.238281 3.117188 -10.363281 3.015625 -10.5 C 2.910156 -10.644531 2.859375 -10.773438 2.859375 -10.890625 C 2.859375 -11.035156 2.929688 -11.132812 3.078125 -11.1875 C 3.117188 -11.195312 3.164062 -11.207031 3.21875 -11.21875 C 3.269531 -11.226562 3.320312 -11.234375 3.375 -11.234375 C 3.519531 -11.234375 3.671875 -11.207031 3.828125 -11.15625 C 3.984375 -11.101562 4.144531 -11.023438 4.3125 -10.921875 C 4.445312 -10.847656 4.5625 -10.738281 4.65625 -10.59375 C 4.757812 -10.457031 4.8125 -10.332031 4.8125 -10.21875 C 4.8125 -10.132812 4.773438 -10.0625 4.703125 -10 C 4.628906 -9.945312 4.503906 -9.921875 4.328125 -9.921875 Z M 4.328125 -9.921875 "/></g></g></g><g fill="#3b3b3b" fill-opacity="1"><g transform="translate(186.890512, 124.770747)"><g><path d="M 0.734375 -1.171875 C 0.316406 -1.171875 -0.078125 -1.222656 -0.453125 -1.328125 C -0.835938 -1.429688 -1.164062 -1.585938 -1.4375 -1.796875 C -1.601562 -1.921875 -1.742188 -2.070312 -1.859375 -2.25 C -1.972656 -2.4375 -2.03125 -2.628906 -2.03125 -2.828125 C -2.03125 -2.941406 -2.007812 -3.050781 -1.96875 -3.15625 C -1.9375 -3.257812 -1.875 -3.367188 -1.78125 -3.484375 C -1.570312 -3.710938 -1.332031 -3.890625 -1.0625 -4.015625 C -0.800781 -4.140625 -0.519531 -4.222656 -0.21875 -4.265625 C 0.0703125 -4.304688 0.351562 -4.328125 0.625 -4.328125 C 0.71875 -4.328125 0.804688 -4.328125 0.890625 -4.328125 C 0.972656 -4.328125 1.050781 -4.320312 1.125 -4.3125 C 1.363281 -4.300781 1.644531 -4.257812 1.96875 -4.1875 C 2.300781 -4.113281 2.648438 -4.023438 3.015625 -3.921875 C 3.054688 -4.085938 3.078125 -4.273438 3.078125 -4.484375 C 3.078125 -4.785156 3.046875 -5.085938 2.984375 -5.390625 C 2.929688 -5.691406 2.875 -5.992188 2.8125 -6.296875 C 2.75 -6.609375 2.71875 -6.910156 2.71875 -7.203125 C 2.71875 -7.347656 2.726562 -7.484375 2.75 -7.609375 C 2.769531 -7.734375 2.796875 -7.851562 2.828125 -7.96875 C 2.441406 -7.675781 2.078125 -7.347656 1.734375 -6.984375 C 1.390625 -6.628906 1.046875 -6.273438 0.703125 -5.921875 C 0.367188 -5.566406 0.015625 -5.238281 -0.359375 -4.9375 C -0.359375 -4.9375 -0.382812 -4.941406 -0.4375 -4.953125 C -0.488281 -4.960938 -0.515625 -4.988281 -0.515625 -5.03125 C -0.515625 -5.0625 -0.484375 -5.09375 -0.421875 -5.125 C 0.00390625 -5.53125 0.410156 -5.953125 0.796875 -6.390625 C 1.191406 -6.828125 1.582031 -7.242188 1.96875 -7.640625 C 2.363281 -8.046875 2.773438 -8.398438 3.203125 -8.703125 C 3.503906 -9.160156 3.921875 -9.519531 4.453125 -9.78125 C 4.992188 -10.039062 5.585938 -10.171875 6.234375 -10.171875 L 6.59375 -10.15625 C 6.832031 -10.144531 7.070312 -10.09375 7.3125 -10 C 7.5625 -9.914062 7.785156 -9.800781 7.984375 -9.65625 C 8.191406 -9.507812 8.359375 -9.335938 8.484375 -9.140625 C 8.617188 -8.941406 8.6875 -8.71875 8.6875 -8.46875 C 8.6875 -8.332031 8.660156 -8.179688 8.609375 -8.015625 C 8.503906 -7.703125 8.347656 -7.421875 8.140625 -7.171875 C 7.941406 -6.921875 7.726562 -6.707031 7.5 -6.53125 C 7.269531 -6.351562 7.0625 -6.21875 6.875 -6.125 C 6.6875 -6.03125 6.554688 -5.984375 6.484375 -5.984375 C 6.453125 -5.984375 6.4375 -5.992188 6.4375 -6.015625 C 6.4375 -6.046875 6.492188 -6.09375 6.609375 -6.15625 C 6.722656 -6.226562 6.863281 -6.328125 7.03125 -6.453125 C 7.207031 -6.578125 7.382812 -6.726562 7.5625 -6.90625 C 7.738281 -7.082031 7.890625 -7.285156 8.015625 -7.515625 C 8.140625 -7.753906 8.203125 -8.03125 8.203125 -8.34375 C 8.203125 -8.664062 8.066406 -8.914062 7.796875 -9.09375 C 7.535156 -9.28125 7.203125 -9.375 6.796875 -9.375 C 6.597656 -9.375 6.390625 -9.347656 6.171875 -9.296875 C 5.953125 -9.242188 5.742188 -9.15625 5.546875 -9.03125 C 5.304688 -8.90625 5.085938 -8.75 4.890625 -8.5625 C 4.691406 -8.382812 4.523438 -8.191406 4.390625 -7.984375 C 4.265625 -7.753906 4.175781 -7.53125 4.125 -7.3125 C 4.070312 -7.101562 4.046875 -6.898438 4.046875 -6.703125 C 4.046875 -6.421875 4.070312 -6.140625 4.125 -5.859375 C 4.1875 -5.585938 4.242188 -5.304688 4.296875 -5.015625 C 4.359375 -4.734375 4.390625 -4.429688 4.390625 -4.109375 C 4.390625 -4.023438 4.382812 -3.9375 4.375 -3.84375 C 4.375 -3.75 4.367188 -3.65625 4.359375 -3.5625 C 4.710938 -3.46875 5.054688 -3.382812 5.390625 -3.3125 C 5.722656 -3.238281 6.019531 -3.1875 6.28125 -3.15625 C 6.425781 -3.144531 6.5625 -3.132812 6.6875 -3.125 C 6.820312 -3.113281 6.945312 -3.109375 7.0625 -3.109375 C 7.65625 -3.109375 8.148438 -3.175781 8.546875 -3.3125 C 8.941406 -3.445312 9.269531 -3.625 9.53125 -3.84375 C 9.789062 -4.0625 10 -4.300781 10.15625 -4.5625 C 10.320312 -4.820312 10.472656 -5.070312 10.609375 -5.3125 C 10.660156 -5.363281 10.710938 -5.390625 10.765625 -5.390625 C 10.796875 -5.390625 10.8125 -5.378906 10.8125 -5.359375 C 10.8125 -5.335938 10.789062 -5.304688 10.75 -5.265625 C 10.582031 -4.898438 10.394531 -4.570312 10.1875 -4.28125 C 9.976562 -4 9.726562 -3.753906 9.4375 -3.546875 C 9.144531 -3.335938 8.789062 -3.179688 8.375 -3.078125 C 7.957031 -2.972656 7.445312 -2.921875 6.84375 -2.921875 L 6.28125 -2.9375 C 6.007812 -2.945312 5.703125 -2.992188 5.359375 -3.078125 C 5.023438 -3.160156 4.675781 -3.25 4.3125 -3.34375 C 4.21875 -2.976562 4.050781 -2.660156 3.8125 -2.390625 C 3.582031 -2.117188 3.300781 -1.890625 2.96875 -1.703125 C 2.632812 -1.523438 2.273438 -1.390625 1.890625 -1.296875 C 1.503906 -1.210938 1.117188 -1.171875 0.734375 -1.171875 Z M 0 -1.59375 C 0.3125 -1.59375 0.625 -1.648438 0.9375 -1.765625 C 1.25 -1.890625 1.539062 -2.050781 1.8125 -2.25 C 2.082031 -2.457031 2.316406 -2.679688 2.515625 -2.921875 C 2.710938 -3.171875 2.859375 -3.421875 2.953125 -3.671875 L 2.953125 -3.71875 C 2.503906 -3.832031 2.078125 -3.921875 1.671875 -3.984375 C 1.273438 -4.046875 0.894531 -4.078125 0.53125 -4.078125 C 0.144531 -4.078125 -0.207031 -4.019531 -0.53125 -3.90625 C -0.863281 -3.800781 -1.15625 -3.613281 -1.40625 -3.34375 C -1.539062 -3.1875 -1.609375 -2.992188 -1.609375 -2.765625 C -1.609375 -2.628906 -1.578125 -2.488281 -1.515625 -2.34375 C -1.453125 -2.195312 -1.347656 -2.070312 -1.203125 -1.96875 C -1.015625 -1.84375 -0.816406 -1.75 -0.609375 -1.6875 C -0.410156 -1.625 -0.207031 -1.59375 0 -1.59375 Z M 0 -1.59375 "/></g></g></g><g fill="#3b3b3b" fill-opacity="1"><g transform="translate(197.323116, 124.770747)"><g><path d="M 1.78125 -0.96875 C 1.238281 -0.96875 0.765625 -1.050781 0.359375 -1.21875 C -0.0351562 -1.382812 -0.34375 -1.640625 -0.5625 -1.984375 C -0.789062 -2.328125 -0.90625 -2.769531 -0.90625 -3.3125 C -0.90625 -3.738281 -0.820312 -4.175781 -0.65625 -4.625 C -0.488281 -5.070312 -0.253906 -5.515625 0.046875 -5.953125 C 0.359375 -6.390625 0.710938 -6.796875 1.109375 -7.171875 C 1.515625 -7.554688 1.953125 -7.894531 2.421875 -8.1875 C 2.898438 -8.476562 3.390625 -8.707031 3.890625 -8.875 C 4.398438 -9.039062 4.90625 -9.125 5.40625 -9.125 C 6.019531 -9.125 6.46875 -9.015625 6.75 -8.796875 C 7.03125 -8.585938 7.171875 -8.320312 7.171875 -8 C 7.171875 -7.75 7.085938 -7.46875 6.921875 -7.15625 C 6.753906 -6.851562 6.515625 -6.550781 6.203125 -6.25 C 5.890625 -5.945312 5.515625 -5.65625 5.078125 -5.375 C 5.046875 -5.34375 5 -5.328125 4.9375 -5.328125 C 4.863281 -5.328125 4.785156 -5.34375 4.703125 -5.375 C 4.628906 -5.414062 4.59375 -5.46875 4.59375 -5.53125 C 4.59375 -5.59375 4.648438 -5.648438 4.765625 -5.703125 C 4.941406 -5.785156 5.125 -5.910156 5.3125 -6.078125 C 5.507812 -6.253906 5.691406 -6.445312 5.859375 -6.65625 C 6.023438 -6.863281 6.160156 -7.070312 6.265625 -7.28125 C 6.367188 -7.5 6.421875 -7.6875 6.421875 -7.84375 C 6.421875 -8.175781 6.1875 -8.34375 5.71875 -8.34375 C 5.4375 -8.34375 5.070312 -8.253906 4.625 -8.078125 C 4.1875 -7.910156 3.671875 -7.609375 3.078125 -7.171875 C 2.671875 -6.867188 2.289062 -6.523438 1.9375 -6.140625 C 1.582031 -5.753906 1.265625 -5.347656 0.984375 -4.921875 C 0.765625 -4.597656 0.601562 -4.265625 0.5 -3.921875 C 0.394531 -3.578125 0.34375 -3.253906 0.34375 -2.953125 C 0.34375 -2.679688 0.390625 -2.4375 0.484375 -2.21875 C 0.578125 -2 0.710938 -1.835938 0.890625 -1.734375 C 1.273438 -1.515625 1.742188 -1.40625 2.296875 -1.40625 C 2.960938 -1.40625 3.726562 -1.5625 4.59375 -1.875 C 5.457031 -2.1875 6.398438 -2.632812 7.421875 -3.21875 C 8.441406 -3.8125 9.515625 -4.523438 10.640625 -5.359375 C 10.691406 -5.398438 10.734375 -5.421875 10.765625 -5.421875 C 10.816406 -5.421875 10.84375 -5.40625 10.84375 -5.375 C 10.84375 -5.34375 10.828125 -5.316406 10.796875 -5.296875 C 9.953125 -4.671875 9.191406 -4.128906 8.515625 -3.671875 C 7.835938 -3.222656 7.222656 -2.84375 6.671875 -2.53125 C 6.128906 -2.21875 5.628906 -1.960938 5.171875 -1.765625 C 4.722656 -1.566406 4.300781 -1.410156 3.90625 -1.296875 C 3.519531 -1.191406 3.144531 -1.109375 2.78125 -1.046875 C 2.4375 -0.992188 2.101562 -0.96875 1.78125 -0.96875 Z M 1.78125 -0.96875 "/></g></g></g><g fill="#3b3b3b" fill-opacity="1"><g transform="translate(207.851994, 124.770747)"><g><path d="M 0.140625 -1.140625 C -0.234375 -1.140625 -0.5 -1.242188 -0.65625 -1.453125 C -0.820312 -1.671875 -0.90625 -1.925781 -0.90625 -2.21875 C -0.90625 -2.476562 -0.847656 -2.75 -0.734375 -3.03125 C -0.628906 -3.320312 -0.515625 -3.585938 -0.390625 -3.828125 C -0.421875 -4.003906 -0.4375 -4.1875 -0.4375 -4.375 C -0.4375 -4.757812 -0.363281 -5.15625 -0.21875 -5.5625 C -0.0703125 -5.96875 0.132812 -6.367188 0.40625 -6.765625 C 0.675781 -7.160156 1 -7.523438 1.375 -7.859375 C 1.75 -8.203125 2.164062 -8.5 2.625 -8.75 C 3.082031 -9 3.570312 -9.179688 4.09375 -9.296875 C 4.269531 -9.335938 4.441406 -9.367188 4.609375 -9.390625 C 4.773438 -9.410156 4.929688 -9.421875 5.078125 -9.421875 C 5.515625 -9.421875 5.890625 -9.347656 6.203125 -9.203125 C 6.523438 -9.054688 6.769531 -8.859375 6.9375 -8.609375 C 7.113281 -8.367188 7.203125 -8.09375 7.203125 -7.78125 C 7.203125 -7.519531 7.132812 -7.207031 7 -6.84375 C 6.863281 -6.488281 6.664062 -6.101562 6.40625 -5.6875 C 6.144531 -5.269531 5.820312 -4.847656 5.4375 -4.421875 C 5.0625 -3.992188 4.625 -3.570312 4.125 -3.15625 C 3.632812 -2.75 3.09375 -2.375 2.5 -2.03125 C 2.644531 -2.007812 2.757812 -1.992188 2.84375 -1.984375 C 2.9375 -1.984375 3.046875 -1.984375 3.171875 -1.984375 C 3.722656 -1.984375 4.273438 -2.054688 4.828125 -2.203125 C 5.390625 -2.359375 5.945312 -2.554688 6.5 -2.796875 C 7.0625 -3.046875 7.609375 -3.316406 8.140625 -3.609375 C 8.671875 -3.910156 9.175781 -4.210938 9.65625 -4.515625 C 10.132812 -4.816406 10.582031 -5.101562 11 -5.375 C 11.082031 -5.425781 11.140625 -5.453125 11.171875 -5.453125 C 11.179688 -5.453125 11.1875 -5.445312 11.1875 -5.4375 C 11.1875 -5.40625 11.132812 -5.347656 11.03125 -5.265625 C 10.351562 -4.765625 9.648438 -4.296875 8.921875 -3.859375 C 8.203125 -3.429688 7.484375 -3.0625 6.765625 -2.75 C 6.046875 -2.4375 5.347656 -2.191406 4.671875 -2.015625 C 4.003906 -1.835938 3.375 -1.75 2.78125 -1.75 C 2.539062 -1.75 2.304688 -1.765625 2.078125 -1.796875 C 1.722656 -1.597656 1.375 -1.4375 1.03125 -1.3125 C 0.695312 -1.195312 0.398438 -1.140625 0.140625 -1.140625 Z M 2.015625 -2.140625 C 2.515625 -2.410156 2.976562 -2.71875 3.40625 -3.0625 C 3.84375 -3.414062 4.242188 -3.78125 4.609375 -4.15625 C 4.972656 -4.53125 5.289062 -4.898438 5.5625 -5.265625 C 5.84375 -5.640625 6.070312 -5.976562 6.25 -6.28125 C 6.414062 -6.582031 6.535156 -6.847656 6.609375 -7.078125 C 6.691406 -7.316406 6.734375 -7.523438 6.734375 -7.703125 C 6.734375 -8.023438 6.617188 -8.253906 6.390625 -8.390625 C 6.171875 -8.535156 5.890625 -8.609375 5.546875 -8.609375 C 5.171875 -8.609375 4.78125 -8.546875 4.375 -8.421875 C 3.976562 -8.296875 3.585938 -8.125 3.203125 -7.90625 C 2.816406 -7.6875 2.445312 -7.4375 2.09375 -7.15625 C 1.75 -6.875 1.4375 -6.570312 1.15625 -6.25 C 0.882812 -5.925781 0.660156 -5.601562 0.484375 -5.28125 C 0.410156 -5.144531 0.347656 -5.003906 0.296875 -4.859375 C 0.617188 -5.265625 0.976562 -5.625 1.375 -5.9375 C 1.769531 -6.25 2.15625 -6.492188 2.53125 -6.671875 C 2.59375 -6.703125 2.664062 -6.71875 2.75 -6.71875 C 2.882812 -6.71875 3.03125 -6.691406 3.1875 -6.640625 C 3.351562 -6.585938 3.492188 -6.519531 3.609375 -6.4375 C 3.722656 -6.351562 3.78125 -6.265625 3.78125 -6.171875 C 3.78125 -6.078125 3.707031 -5.992188 3.5625 -5.921875 C 2.875 -5.578125 2.253906 -5.164062 1.703125 -4.6875 C 1.148438 -4.21875 0.707031 -3.742188 0.375 -3.265625 C 0.53125 -2.984375 0.753906 -2.75 1.046875 -2.5625 C 1.335938 -2.375 1.660156 -2.234375 2.015625 -2.140625 Z M 0.140625 -1.421875 C 0.265625 -1.421875 0.410156 -1.441406 0.578125 -1.484375 C 0.742188 -1.535156 0.914062 -1.597656 1.09375 -1.671875 C 1.269531 -1.753906 1.429688 -1.832031 1.578125 -1.90625 C 1.285156 -1.976562 1.015625 -2.09375 0.765625 -2.25 C 0.515625 -2.414062 0.296875 -2.613281 0.109375 -2.84375 C 0.00390625 -2.664062 -0.0820312 -2.484375 -0.15625 -2.296875 C -0.226562 -2.109375 -0.265625 -1.941406 -0.265625 -1.796875 C -0.265625 -1.671875 -0.226562 -1.578125 -0.15625 -1.515625 C -0.0820312 -1.453125 0.015625 -1.421875 0.140625 -1.421875 Z M 0.140625 -1.421875 "/></g></g></g><g fill="#3b3b3b" fill-opacity="1"><g transform="translate(218.65219, 124.770747)"><g/></g></g><g fill="#3b3b3b" fill-opacity="1"><g transform="translate(224.734958, 124.770747)"><g><path d="M 9.34375 2.046875 C 9.175781 2.046875 9.007812 2.039062 8.84375 2.03125 C 8.675781 2.019531 8.507812 2.007812 8.34375 2 C 7.445312 1.9375 6.644531 1.765625 5.9375 1.484375 C 5.238281 1.203125 4.644531 0.835938 4.15625 0.390625 C 3.664062 -0.046875 3.289062 -0.535156 3.03125 -1.078125 C 2.78125 -1.628906 2.65625 -2.191406 2.65625 -2.765625 C 2.65625 -3.035156 2.691406 -3.320312 2.765625 -3.625 C 2.890625 -4.195312 3.117188 -4.753906 3.453125 -5.296875 C 3.785156 -5.835938 4.203125 -6.351562 4.703125 -6.84375 C 5.203125 -7.34375 5.757812 -7.800781 6.375 -8.21875 C 6.988281 -8.644531 7.644531 -9.03125 8.34375 -9.375 C 9.039062 -9.71875 9.757812 -10.007812 10.5 -10.25 C 11.238281 -10.488281 11.976562 -10.675781 12.71875 -10.8125 C 13.457031 -10.945312 14.171875 -11.015625 14.859375 -11.015625 C 15.179688 -11.015625 15.5 -10.992188 15.8125 -10.953125 C 16.132812 -10.921875 16.441406 -10.875 16.734375 -10.8125 C 16.492188 -11.039062 16.316406 -11.273438 16.203125 -11.515625 C 16.097656 -11.753906 16.046875 -11.992188 16.046875 -12.234375 C 16.046875 -12.554688 16.132812 -12.867188 16.3125 -13.171875 C 16.488281 -13.472656 16.734375 -13.753906 17.046875 -14.015625 C 17.359375 -14.285156 17.71875 -14.519531 18.125 -14.71875 C 18.539062 -14.914062 18.988281 -15.070312 19.46875 -15.1875 C 19.957031 -15.300781 20.457031 -15.359375 20.96875 -15.359375 C 21.550781 -15.359375 22.132812 -15.273438 22.71875 -15.109375 C 23.3125 -14.941406 23.875 -14.664062 24.40625 -14.28125 C 24.644531 -14.101562 24.835938 -13.882812 24.984375 -13.625 C 25.128906 -13.375 25.203125 -13.117188 25.203125 -12.859375 C 25.203125 -12.585938 25.125 -12.34375 24.96875 -12.125 C 24.820312 -11.90625 24.613281 -11.710938 24.34375 -11.546875 C 24.082031 -11.390625 23.789062 -11.265625 23.46875 -11.171875 C 23.144531 -11.085938 22.8125 -11.046875 22.46875 -11.046875 C 22.082031 -11.046875 21.726562 -11.113281 21.40625 -11.25 C 21.082031 -11.382812 20.847656 -11.59375 20.703125 -11.875 C 20.679688 -11.90625 20.671875 -11.941406 20.671875 -11.984375 C 20.671875 -12.015625 20.675781 -12.039062 20.6875 -12.0625 C 20.707031 -12.09375 20.738281 -12.117188 20.78125 -12.140625 C 20.800781 -12.160156 20.820312 -12.171875 20.84375 -12.171875 C 20.863281 -12.179688 20.882812 -12.1875 20.90625 -12.1875 C 20.957031 -12.1875 21 -12.171875 21.03125 -12.140625 C 21.070312 -12.117188 21.09375 -12.109375 21.09375 -12.109375 C 21.320312 -11.835938 21.585938 -11.640625 21.890625 -11.515625 C 22.191406 -11.398438 22.492188 -11.34375 22.796875 -11.34375 C 23.078125 -11.34375 23.347656 -11.382812 23.609375 -11.46875 C 23.867188 -11.5625 24.101562 -11.679688 24.3125 -11.828125 C 24.53125 -11.972656 24.695312 -12.144531 24.8125 -12.34375 C 24.9375 -12.539062 25 -12.75 25 -12.96875 C 25 -13.226562 24.90625 -13.484375 24.71875 -13.734375 C 24.582031 -13.929688 24.394531 -14.097656 24.15625 -14.234375 C 23.925781 -14.378906 23.671875 -14.5 23.390625 -14.59375 C 23.109375 -14.695312 22.820312 -14.769531 22.53125 -14.8125 C 22.238281 -14.863281 21.957031 -14.890625 21.6875 -14.890625 L 21.5 -14.890625 C 20.894531 -14.859375 20.332031 -14.75 19.8125 -14.5625 C 19.289062 -14.375 18.828125 -14.132812 18.421875 -13.84375 C 18.023438 -13.550781 17.710938 -13.226562 17.484375 -12.875 C 17.265625 -12.519531 17.15625 -12.164062 17.15625 -11.8125 C 17.15625 -11.570312 17.210938 -11.332031 17.328125 -11.09375 C 17.441406 -10.863281 17.625 -10.648438 17.875 -10.453125 C 18.320312 -10.265625 18.632812 -10.097656 18.8125 -9.953125 C 18.988281 -9.816406 19.078125 -9.71875 19.078125 -9.65625 C 19.078125 -9.59375 19.03125 -9.5625 18.9375 -9.5625 C 18.882812 -9.5625 18.8125 -9.578125 18.71875 -9.609375 C 18.476562 -9.703125 18.234375 -9.804688 17.984375 -9.921875 C 17.734375 -10.046875 17.5 -10.179688 17.28125 -10.328125 C 16.976562 -10.429688 16.664062 -10.507812 16.34375 -10.5625 C 16.019531 -10.613281 15.6875 -10.640625 15.34375 -10.640625 C 14.664062 -10.640625 13.96875 -10.554688 13.25 -10.390625 C 12.53125 -10.222656 11.804688 -9.988281 11.078125 -9.6875 C 10.359375 -9.382812 9.660156 -9.023438 8.984375 -8.609375 C 8.316406 -8.203125 7.691406 -7.75 7.109375 -7.25 C 6.535156 -6.75 6.03125 -6.222656 5.59375 -5.671875 C 5.164062 -5.117188 4.832031 -4.546875 4.59375 -3.953125 C 4.351562 -3.359375 4.234375 -2.765625 4.234375 -2.171875 C 4.234375 -1.722656 4.304688 -1.289062 4.453125 -0.875 C 4.640625 -0.320312 4.945312 0.113281 5.375 0.4375 C 5.800781 0.769531 6.304688 1.007812 6.890625 1.15625 C 7.472656 1.3125 8.097656 1.390625 8.765625 1.390625 C 9.359375 1.390625 9.96875 1.335938 10.59375 1.234375 C 11.21875 1.140625 11.828125 1 12.421875 0.8125 C 13.023438 0.632812 13.582031 0.429688 14.09375 0.203125 C 15.09375 -0.234375 15.894531 -0.695312 16.5 -1.1875 C 17.101562 -1.6875 17.539062 -2.1875 17.8125 -2.6875 C 18.09375 -3.1875 18.234375 -3.644531 18.234375 -4.0625 C 18.234375 -4.425781 18.144531 -4.75 17.96875 -5.03125 C 17.789062 -5.3125 17.546875 -5.53125 17.234375 -5.6875 C 16.921875 -5.84375 16.5625 -5.921875 16.15625 -5.921875 C 15.789062 -5.921875 15.445312 -5.867188 15.125 -5.765625 C 14.8125 -5.660156 14.519531 -5.535156 14.25 -5.390625 C 13.988281 -5.242188 13.757812 -5.097656 13.5625 -4.953125 C 13.375 -4.804688 13.222656 -4.691406 13.109375 -4.609375 C 13.078125 -4.585938 13.035156 -4.578125 12.984375 -4.578125 C 12.929688 -4.578125 12.882812 -4.59375 12.84375 -4.625 C 12.8125 -4.664062 12.796875 -4.710938 12.796875 -4.765625 C 12.796875 -4.828125 12.820312 -4.875 12.875 -4.90625 C 12.875 -4.914062 12.941406 -4.976562 13.078125 -5.09375 C 13.222656 -5.21875 13.425781 -5.363281 13.6875 -5.53125 C 13.945312 -5.695312 14.25 -5.851562 14.59375 -6 C 14.9375 -6.15625 15.3125 -6.265625 15.71875 -6.328125 C 15.832031 -6.347656 15.953125 -6.363281 16.078125 -6.375 C 16.203125 -6.382812 16.328125 -6.390625 16.453125 -6.390625 C 16.828125 -6.390625 17.207031 -6.351562 17.59375 -6.28125 C 17.976562 -6.207031 18.363281 -6.125 18.75 -6.03125 C 19.132812 -5.945312 19.515625 -5.867188 19.890625 -5.796875 C 20.265625 -5.734375 20.628906 -5.703125 20.984375 -5.703125 C 21.429688 -5.703125 21.859375 -5.785156 22.265625 -5.953125 C 22.679688 -6.117188 23.054688 -6.425781 23.390625 -6.875 C 23.472656 -6.976562 23.566406 -7.03125 23.671875 -7.03125 C 23.796875 -7.03125 23.898438 -6.988281 23.984375 -6.90625 C 24.066406 -6.832031 24.109375 -6.753906 24.109375 -6.671875 C 24.085938 -6.597656 24.003906 -6.484375 23.859375 -6.328125 C 23.710938 -6.179688 23.519531 -6.023438 23.28125 -5.859375 C 23.039062 -5.703125 22.757812 -5.566406 22.4375 -5.453125 C 22.125 -5.335938 21.785156 -5.273438 21.421875 -5.265625 L 21.25 -5.265625 C 20.84375 -5.265625 20.441406 -5.300781 20.046875 -5.375 C 19.648438 -5.457031 19.25 -5.546875 18.84375 -5.640625 C 18.445312 -5.742188 18.035156 -5.828125 17.609375 -5.890625 C 17.972656 -5.691406 18.242188 -5.429688 18.421875 -5.109375 C 18.597656 -4.796875 18.6875 -4.445312 18.6875 -4.0625 C 18.6875 -3.644531 18.585938 -3.207031 18.390625 -2.75 C 18.191406 -2.289062 17.90625 -1.832031 17.53125 -1.375 C 17.15625 -0.914062 16.695312 -0.484375 16.15625 -0.078125 C 15.613281 0.328125 14.992188 0.6875 14.296875 1 C 13.609375 1.320312 12.847656 1.578125 12.015625 1.765625 C 11.179688 1.953125 10.289062 2.046875 9.34375 2.046875 Z M 9.34375 2.046875 "/></g></g></g><g fill="#3b3b3b" fill-opacity="1"><g transform="translate(249.652427, 124.770747)"><g/></g></g><g fill="#3b3b3b" fill-opacity="1"><g transform="translate(255.735196, 124.770747)"><g><path d="M 1.671875 1.125 C 1.503906 1.125 1.320312 1.078125 1.125 0.984375 C 0.925781 0.890625 0.71875 0.6875 0.5 0.375 C 0.4375 0.289062 0.390625 0.195312 0.359375 0.09375 C 0.335938 -0.0078125 0.328125 -0.117188 0.328125 -0.234375 C 0.328125 -0.441406 0.367188 -0.625 0.453125 -0.78125 C 1.097656 -1.957031 1.828125 -3.140625 2.640625 -4.328125 C 3.460938 -5.515625 4.332031 -6.691406 5.25 -7.859375 C 6.175781 -9.023438 7.125 -10.175781 8.09375 -11.3125 C 9.070312 -12.457031 10.046875 -13.566406 11.015625 -14.640625 C 11.984375 -15.710938 12.914062 -16.75 13.8125 -17.75 C 14.71875 -18.75 15.566406 -19.695312 16.359375 -20.59375 C 17.148438 -21.488281 17.851562 -22.320312 18.46875 -23.09375 C 19.09375 -23.875 19.597656 -24.582031 19.984375 -25.21875 C 20.378906 -25.851562 20.628906 -26.410156 20.734375 -26.890625 C 20.335938 -26.492188 19.882812 -26.164062 19.375 -25.90625 C 18.863281 -25.644531 18.3125 -25.429688 17.71875 -25.265625 C 17.125 -25.097656 16.5 -24.957031 15.84375 -24.84375 C 15.1875 -24.738281 14.515625 -24.632812 13.828125 -24.53125 C 13.140625 -24.4375 12.445312 -24.320312 11.75 -24.1875 C 11.0625 -24.0625 10.378906 -23.898438 9.703125 -23.703125 C 9.035156 -23.515625 8.390625 -23.269531 7.765625 -22.96875 C 7.140625 -22.664062 6.550781 -22.285156 6 -21.828125 C 5.65625 -21.546875 5.359375 -21.21875 5.109375 -20.84375 C 4.867188 -20.476562 4.6875 -20.09375 4.5625 -19.6875 C 4.4375 -19.289062 4.375 -18.90625 4.375 -18.53125 C 4.375 -18.25 4.410156 -17.984375 4.484375 -17.734375 C 4.554688 -17.484375 4.671875 -17.257812 4.828125 -17.0625 C 4.867188 -17 4.890625 -16.941406 4.890625 -16.890625 C 4.890625 -16.835938 4.867188 -16.8125 4.828125 -16.8125 C 4.785156 -16.8125 4.726562 -16.835938 4.65625 -16.890625 C 4.582031 -16.953125 4.507812 -17.054688 4.4375 -17.203125 C 4.300781 -17.441406 4.195312 -17.691406 4.125 -17.953125 C 4.0625 -18.210938 4.03125 -18.476562 4.03125 -18.75 C 4.03125 -19.1875 4.101562 -19.617188 4.25 -20.046875 C 4.394531 -20.484375 4.597656 -20.890625 4.859375 -21.265625 C 5.117188 -21.640625 5.421875 -21.96875 5.765625 -22.25 C 6.316406 -22.707031 6.914062 -23.09375 7.5625 -23.40625 C 8.21875 -23.726562 8.898438 -24.003906 9.609375 -24.234375 C 10.316406 -24.460938 11.046875 -24.664062 11.796875 -24.84375 C 12.546875 -25.03125 13.289062 -25.203125 14.03125 -25.359375 C 14.78125 -25.515625 15.507812 -25.679688 16.21875 -25.859375 C 16.9375 -26.035156 17.625 -26.234375 18.28125 -26.453125 C 18.9375 -26.671875 19.539062 -26.929688 20.09375 -27.234375 C 20.644531 -27.535156 21.132812 -27.894531 21.5625 -28.3125 C 21.625 -28.375 21.703125 -28.40625 21.796875 -28.40625 C 21.910156 -28.40625 22.023438 -28.359375 22.140625 -28.265625 C 22.253906 -28.171875 22.351562 -28.054688 22.4375 -27.921875 C 22.53125 -27.796875 22.578125 -27.675781 22.578125 -27.5625 C 22.484375 -26.894531 22.242188 -26.1875 21.859375 -25.4375 C 21.472656 -24.695312 20.96875 -23.90625 20.34375 -23.0625 C 19.71875 -22.21875 19 -21.316406 18.1875 -20.359375 C 17.375 -19.398438 16.492188 -18.382812 15.546875 -17.3125 C 14.597656 -16.25 13.597656 -15.113281 12.546875 -13.90625 C 11.503906 -12.695312 10.441406 -11.421875 9.359375 -10.078125 C 8.273438 -8.734375 7.191406 -7.3125 6.109375 -5.8125 C 8.753906 -8.664062 11.304688 -11.226562 13.765625 -13.5 C 16.222656 -15.769531 18.546875 -17.753906 20.734375 -19.453125 C 22.921875 -21.148438 24.941406 -22.5625 26.796875 -23.6875 C 28.648438 -24.8125 30.304688 -25.65625 31.765625 -26.21875 C 33.222656 -26.78125 34.441406 -27.0625 35.421875 -27.0625 C 35.671875 -27.0625 35.898438 -27.046875 36.109375 -27.015625 C 36.378906 -26.960938 36.628906 -26.84375 36.859375 -26.65625 C 37.097656 -26.46875 37.289062 -26.226562 37.4375 -25.9375 C 37.582031 -25.644531 37.65625 -25.328125 37.65625 -24.984375 C 37.65625 -24.835938 37.640625 -24.679688 37.609375 -24.515625 C 37.578125 -24.359375 37.523438 -24.203125 37.453125 -24.046875 C 37.253906 -23.597656 37.023438 -23.171875 36.765625 -22.765625 C 36.515625 -22.367188 36.25 -21.992188 35.96875 -21.640625 C 35.6875 -21.285156 35.414062 -20.960938 35.15625 -20.671875 C 34.894531 -20.378906 34.664062 -20.109375 34.46875 -19.859375 C 34.175781 -19.515625 33.835938 -19.125 33.453125 -18.6875 C 33.078125 -18.257812 32.675781 -17.804688 32.25 -17.328125 C 31.832031 -16.847656 31.40625 -16.34375 30.96875 -15.8125 C 30.539062 -15.289062 30.125 -14.757812 29.71875 -14.21875 C 29.320312 -13.6875 28.960938 -13.144531 28.640625 -12.59375 C 28.316406 -12.050781 28.046875 -11.519531 27.828125 -11 C 27.617188 -10.476562 27.484375 -9.972656 27.421875 -9.484375 C 27.421875 -9.390625 27.460938 -9.34375 27.546875 -9.34375 C 27.585938 -9.34375 27.625 -9.359375 27.65625 -9.390625 C 28.082031 -9.984375 28.585938 -10.582031 29.171875 -11.1875 C 29.753906 -11.789062 30.390625 -12.382812 31.078125 -12.96875 C 31.765625 -13.5625 32.484375 -14.132812 33.234375 -14.6875 C 33.984375 -15.238281 34.742188 -15.757812 35.515625 -16.25 C 36.296875 -16.738281 37.0625 -17.1875 37.8125 -17.59375 C 38.570312 -18 39.300781 -18.351562 40 -18.65625 C 40.695312 -18.957031 41.34375 -19.1875 41.9375 -19.34375 C 42.539062 -19.507812 43.070312 -19.597656 43.53125 -19.609375 C 43.800781 -19.609375 44.0625 -19.53125 44.3125 -19.375 C 44.5625 -19.226562 44.765625 -19.019531 44.921875 -18.75 C 45.085938 -18.476562 45.171875 -18.15625 45.171875 -17.78125 C 45.171875 -17.582031 45.132812 -17.367188 45.0625 -17.140625 C 45 -16.910156 44.894531 -16.671875 44.75 -16.421875 C 44.507812 -16.003906 44.179688 -15.546875 43.765625 -15.046875 C 43.347656 -14.554688 42.875 -14.03125 42.34375 -13.46875 C 41.8125 -12.914062 41.25 -12.328125 40.65625 -11.703125 C 40.0625 -11.078125 39.460938 -10.425781 38.859375 -9.75 C 38.253906 -9.070312 37.671875 -8.367188 37.109375 -7.640625 C 36.554688 -6.921875 36.046875 -6.179688 35.578125 -5.421875 C 35.117188 -4.660156 34.738281 -3.882812 34.4375 -3.09375 C 34.351562 -2.894531 34.289062 -2.710938 34.25 -2.546875 C 34.21875 -2.390625 34.203125 -2.242188 34.203125 -2.109375 C 34.203125 -1.765625 34.304688 -1.519531 34.515625 -1.375 C 34.722656 -1.238281 34.976562 -1.171875 35.28125 -1.171875 C 35.414062 -1.171875 35.554688 -1.179688 35.703125 -1.203125 C 35.847656 -1.234375 35.992188 -1.269531 36.140625 -1.3125 C 36.460938 -1.40625 36.820312 -1.539062 37.21875 -1.71875 C 37.625 -1.90625 38.046875 -2.113281 38.484375 -2.34375 C 38.921875 -2.582031 39.363281 -2.835938 39.8125 -3.109375 C 40.257812 -3.378906 40.691406 -3.648438 41.109375 -3.921875 C 41.523438 -4.203125 41.910156 -4.46875 42.265625 -4.71875 C 42.628906 -4.976562 42.941406 -5.210938 43.203125 -5.421875 C 43.296875 -5.503906 43.375 -5.5625 43.4375 -5.59375 C 43.507812 -5.632812 43.554688 -5.65625 43.578125 -5.65625 C 43.609375 -5.65625 43.625 -5.644531 43.625 -5.625 C 43.625 -5.59375 43.585938 -5.546875 43.515625 -5.484375 C 43.328125 -5.285156 43.066406 -5.050781 42.734375 -4.78125 C 42.410156 -4.507812 42.035156 -4.21875 41.609375 -3.90625 C 41.191406 -3.601562 40.742188 -3.300781 40.265625 -3 C 39.785156 -2.695312 39.289062 -2.398438 38.78125 -2.109375 C 38.269531 -1.828125 37.765625 -1.578125 37.265625 -1.359375 C 36.765625 -1.140625 36.285156 -0.960938 35.828125 -0.828125 C 35.378906 -0.703125 34.96875 -0.640625 34.59375 -0.640625 C 34.238281 -0.640625 33.929688 -0.707031 33.671875 -0.84375 C 33.410156 -0.988281 33.210938 -1.21875 33.078125 -1.53125 C 33.023438 -1.644531 32.988281 -1.769531 32.96875 -1.90625 C 32.945312 -2.050781 32.9375 -2.203125 32.9375 -2.359375 C 32.9375 -2.835938 33.046875 -3.378906 33.265625 -3.984375 C 33.484375 -4.585938 33.785156 -5.234375 34.171875 -5.921875 C 34.566406 -6.617188 35.019531 -7.34375 35.53125 -8.09375 C 36.039062 -8.84375 36.59375 -9.597656 37.1875 -10.359375 C 37.78125 -11.128906 38.382812 -11.890625 39 -12.640625 C 39.625 -13.390625 40.238281 -14.113281 40.84375 -14.8125 C 41.445312 -15.519531 42.015625 -16.1875 42.546875 -16.8125 C 42.890625 -17.207031 43.128906 -17.539062 43.265625 -17.8125 C 43.398438 -18.082031 43.46875 -18.300781 43.46875 -18.46875 C 43.46875 -18.632812 43.410156 -18.753906 43.296875 -18.828125 C 43.179688 -18.910156 43.050781 -18.957031 42.90625 -18.96875 L 42.78125 -18.984375 C 42.644531 -18.984375 42.476562 -18.957031 42.28125 -18.90625 C 42.082031 -18.863281 41.828125 -18.78125 41.515625 -18.65625 C 41.210938 -18.539062 40.835938 -18.378906 40.390625 -18.171875 C 39.941406 -17.972656 39.394531 -17.707031 38.75 -17.375 C 37.4375 -16.707031 36.238281 -16.015625 35.15625 -15.296875 C 34.070312 -14.585938 33.097656 -13.878906 32.234375 -13.171875 C 31.367188 -12.472656 30.609375 -11.796875 29.953125 -11.140625 C 29.304688 -10.492188 28.765625 -9.898438 28.328125 -9.359375 C 28.117188 -9.109375 27.914062 -8.925781 27.71875 -8.8125 C 27.53125 -8.695312 27.347656 -8.640625 27.171875 -8.640625 C 26.972656 -8.640625 26.796875 -8.695312 26.640625 -8.8125 C 26.492188 -8.9375 26.378906 -9.09375 26.296875 -9.28125 C 26.210938 -9.476562 26.171875 -9.679688 26.171875 -9.890625 L 26.171875 -9.9375 C 26.203125 -10.65625 26.347656 -11.382812 26.609375 -12.125 C 26.867188 -12.875 27.210938 -13.617188 27.640625 -14.359375 C 28.066406 -15.097656 28.546875 -15.828125 29.078125 -16.546875 C 29.617188 -17.273438 30.175781 -17.984375 30.75 -18.671875 C 31.332031 -19.359375 31.898438 -20.019531 32.453125 -20.65625 C 33.015625 -21.289062 33.535156 -21.882812 34.015625 -22.4375 C 34.503906 -23 34.921875 -23.515625 35.265625 -23.984375 C 35.609375 -24.460938 35.851562 -24.878906 36 -25.234375 C 36.039062 -25.347656 36.070312 -25.445312 36.09375 -25.53125 C 36.113281 -25.613281 36.125 -25.691406 36.125 -25.765625 C 36.125 -25.953125 36.050781 -26.082031 35.90625 -26.15625 C 35.769531 -26.226562 35.578125 -26.265625 35.328125 -26.265625 C 35.234375 -26.265625 35.128906 -26.257812 35.015625 -26.25 C 34.910156 -26.238281 34.796875 -26.226562 34.671875 -26.21875 C 33.984375 -26.144531 33.175781 -25.929688 32.25 -25.578125 C 31.320312 -25.234375 30.304688 -24.769531 29.203125 -24.1875 C 28.109375 -23.601562 26.945312 -22.910156 25.71875 -22.109375 C 24.488281 -21.304688 23.21875 -20.410156 21.90625 -19.421875 C 20.59375 -18.441406 19.257812 -17.378906 17.90625 -16.234375 C 16.550781 -15.097656 15.203125 -13.894531 13.859375 -12.625 C 12.515625 -11.363281 11.195312 -10.046875 9.90625 -8.671875 C 8.625 -7.304688 7.390625 -5.898438 6.203125 -4.453125 C 5.015625 -3.015625 3.898438 -1.5625 2.859375 -0.09375 C 2.710938 0.132812 2.59375 0.332031 2.5 0.5 C 2.414062 0.664062 2.332031 0.800781 2.25 0.90625 C 2.175781 1.007812 2.078125 1.070312 1.953125 1.09375 C 1.867188 1.113281 1.773438 1.125 1.671875 1.125 Z M 1.671875 1.125 "/></g></g></g><g fill="#3b3b3b" fill-opacity="1"><g transform="translate(299.076014, 124.770747)"><g><path d="M 6.734375 -1.09375 C 6.222656 -1.09375 5.835938 -1.207031 5.578125 -1.4375 C 5.316406 -1.664062 5.1875 -1.988281 5.1875 -2.40625 C 5.1875 -2.695312 5.238281 -3.007812 5.34375 -3.34375 C 5.445312 -3.6875 5.582031 -4.046875 5.75 -4.421875 C 5.925781 -4.804688 6.125 -5.191406 6.34375 -5.578125 C 6.5625 -5.960938 6.78125 -6.335938 7 -6.703125 C 6.632812 -6.304688 6.242188 -5.894531 5.828125 -5.46875 C 5.410156 -5.039062 4.976562 -4.628906 4.53125 -4.234375 C 4.09375 -3.847656 3.648438 -3.5 3.203125 -3.1875 C 2.765625 -2.875 2.332031 -2.625 1.90625 -2.4375 C 1.476562 -2.25 1.070312 -2.15625 0.6875 -2.15625 C 0.414062 -2.15625 0.160156 -2.210938 -0.078125 -2.328125 C -0.390625 -2.472656 -0.613281 -2.65625 -0.75 -2.875 C -0.894531 -3.101562 -0.96875 -3.359375 -0.96875 -3.640625 C -0.96875 -3.992188 -0.878906 -4.378906 -0.703125 -4.796875 C -0.523438 -5.222656 -0.289062 -5.664062 0 -6.125 C 0.226562 -6.488281 0.507812 -6.863281 0.84375 -7.25 C 1.175781 -7.632812 1.566406 -8.003906 2.015625 -8.359375 C 2.472656 -8.722656 2.988281 -9.035156 3.5625 -9.296875 C 3.894531 -9.441406 4.222656 -9.550781 4.546875 -9.625 C 4.867188 -9.695312 5.175781 -9.734375 5.46875 -9.734375 C 5.863281 -9.734375 6.222656 -9.671875 6.546875 -9.546875 C 6.867188 -9.429688 7.128906 -9.265625 7.328125 -9.046875 C 7.535156 -8.828125 7.660156 -8.566406 7.703125 -8.265625 C 7.878906 -8.472656 8.039062 -8.65625 8.1875 -8.8125 C 8.332031 -8.976562 8.457031 -9.113281 8.5625 -9.21875 C 8.601562 -9.257812 8.65625 -9.28125 8.71875 -9.28125 C 8.820312 -9.28125 8.9375 -9.222656 9.0625 -9.109375 C 9.1875 -9.003906 9.289062 -8.867188 9.375 -8.703125 C 9.46875 -8.546875 9.515625 -8.378906 9.515625 -8.203125 C 9.515625 -8.066406 9.484375 -7.9375 9.421875 -7.8125 C 9.253906 -7.5625 9.046875 -7.257812 8.796875 -6.90625 C 8.554688 -6.5625 8.296875 -6.1875 8.015625 -5.78125 C 7.742188 -5.382812 7.488281 -4.984375 7.25 -4.578125 C 7.007812 -4.171875 6.8125 -3.78125 6.65625 -3.40625 C 6.5 -3.03125 6.421875 -2.6875 6.421875 -2.375 C 6.421875 -2.15625 6.488281 -1.957031 6.625 -1.78125 C 6.757812 -1.601562 6.988281 -1.515625 7.3125 -1.515625 C 7.582031 -1.515625 7.910156 -1.570312 8.296875 -1.6875 C 8.679688 -1.800781 9.09375 -1.957031 9.53125 -2.15625 C 9.96875 -2.363281 10.414062 -2.59375 10.875 -2.84375 C 11.34375 -3.101562 11.789062 -3.378906 12.21875 -3.671875 C 12.65625 -3.960938 13.054688 -4.253906 13.421875 -4.546875 C 13.785156 -4.835938 14.085938 -5.117188 14.328125 -5.390625 C 14.390625 -5.441406 14.445312 -5.46875 14.5 -5.46875 C 14.550781 -5.46875 14.578125 -5.445312 14.578125 -5.40625 C 14.578125 -5.382812 14.566406 -5.363281 14.546875 -5.34375 C 14.347656 -5.125 14.070312 -4.863281 13.71875 -4.5625 C 13.375 -4.269531 12.972656 -3.960938 12.515625 -3.640625 C 12.066406 -3.328125 11.585938 -3.019531 11.078125 -2.71875 C 10.578125 -2.414062 10.066406 -2.140625 9.546875 -1.890625 C 9.035156 -1.648438 8.535156 -1.457031 8.046875 -1.3125 C 7.566406 -1.164062 7.128906 -1.09375 6.734375 -1.09375 Z M 0.921875 -2.71875 C 1.109375 -2.71875 1.332031 -2.765625 1.59375 -2.859375 C 1.851562 -2.960938 2.128906 -3.097656 2.421875 -3.265625 C 2.710938 -3.441406 3.003906 -3.632812 3.296875 -3.84375 C 3.597656 -4.050781 3.875 -4.253906 4.125 -4.453125 C 4.445312 -4.722656 4.785156 -5.039062 5.140625 -5.40625 C 5.503906 -5.78125 5.867188 -6.171875 6.234375 -6.578125 C 6.597656 -6.984375 6.941406 -7.375 7.265625 -7.75 C 7.265625 -8.1875 7.15625 -8.492188 6.9375 -8.671875 C 6.726562 -8.859375 6.460938 -8.953125 6.140625 -8.953125 C 5.828125 -8.953125 5.488281 -8.878906 5.125 -8.734375 C 4.757812 -8.597656 4.410156 -8.421875 4.078125 -8.203125 C 3.847656 -8.046875 3.582031 -7.832031 3.28125 -7.5625 C 2.988281 -7.289062 2.6875 -6.976562 2.375 -6.625 C 2.0625 -6.269531 1.757812 -5.890625 1.46875 -5.484375 C 1.1875 -5.078125 0.953125 -4.65625 0.765625 -4.21875 C 0.566406 -3.769531 0.46875 -3.425781 0.46875 -3.1875 C 0.46875 -3.019531 0.503906 -2.898438 0.578125 -2.828125 C 0.660156 -2.753906 0.773438 -2.71875 0.921875 -2.71875 Z M 0.921875 -2.71875 "/></g></g></g><g fill="#3b3b3b" fill-opacity="1"><g transform="translate(313.219544, 124.770747)"><g><path d="M 1.921875 -1.078125 C 1.523438 -1.078125 1.21875 -1.148438 1 -1.296875 C 0.78125 -1.453125 0.671875 -1.679688 0.671875 -1.984375 C 0.671875 -2.265625 0.753906 -2.59375 0.921875 -2.96875 C 1.097656 -3.34375 1.328125 -3.738281 1.609375 -4.15625 C 1.890625 -4.582031 2.203125 -5.007812 2.546875 -5.4375 C 2.890625 -5.875 3.234375 -6.289062 3.578125 -6.6875 C 3.953125 -7.125 4.304688 -7.539062 4.640625 -7.9375 C 4.972656 -8.34375 5.242188 -8.660156 5.453125 -8.890625 C 5.273438 -8.816406 5.050781 -8.703125 4.78125 -8.546875 C 4.507812 -8.398438 4.21875 -8.234375 3.90625 -8.046875 C 3.601562 -7.867188 3.289062 -7.703125 2.96875 -7.546875 C 2.65625 -7.398438 2.351562 -7.289062 2.0625 -7.21875 C 1.863281 -7.007812 1.671875 -6.804688 1.484375 -6.609375 C 1.304688 -6.421875 1.109375 -6.21875 0.890625 -6 C 0.671875 -5.78125 0.398438 -5.53125 0.078125 -5.25 C 0.0546875 -5.226562 0.0351562 -5.21875 0.015625 -5.21875 C -0.00390625 -5.21875 -0.0234375 -5.226562 -0.046875 -5.25 C -0.0664062 -5.269531 -0.078125 -5.289062 -0.078125 -5.3125 C -0.078125 -5.34375 -0.0664062 -5.367188 -0.046875 -5.390625 C 0.140625 -5.554688 0.300781 -5.703125 0.4375 -5.828125 C 0.582031 -5.960938 0.71875 -6.09375 0.84375 -6.21875 C 0.976562 -6.34375 1.113281 -6.476562 1.25 -6.625 C 1.394531 -6.769531 1.5625 -6.953125 1.75 -7.171875 L 1.5 -7.171875 L 1.515625 -7.171875 C 1.210938 -7.191406 0.992188 -7.269531 0.859375 -7.40625 C 0.734375 -7.550781 0.671875 -7.734375 0.671875 -7.953125 C 0.671875 -8.160156 0.726562 -8.390625 0.84375 -8.640625 C 0.957031 -8.898438 1.113281 -9.15625 1.3125 -9.40625 C 1.519531 -9.65625 1.753906 -9.882812 2.015625 -10.09375 C 2.273438 -10.300781 2.550781 -10.460938 2.84375 -10.578125 C 3.03125 -10.640625 3.210938 -10.671875 3.390625 -10.671875 C 3.597656 -10.671875 3.769531 -10.617188 3.90625 -10.515625 C 4.039062 -10.421875 4.109375 -10.269531 4.109375 -10.0625 C 4.109375 -9.832031 3.992188 -9.523438 3.765625 -9.140625 C 3.535156 -8.753906 3.125 -8.285156 2.53125 -7.734375 C 2.832031 -7.835938 3.144531 -7.972656 3.46875 -8.140625 C 3.800781 -8.316406 4.125 -8.488281 4.4375 -8.65625 C 4.75 -8.832031 5.035156 -8.976562 5.296875 -9.09375 C 5.566406 -9.207031 5.789062 -9.265625 5.96875 -9.265625 C 6.03125 -9.265625 6.085938 -9.253906 6.140625 -9.234375 C 6.203125 -9.210938 6.242188 -9.164062 6.265625 -9.09375 C 6.316406 -9.019531 6.363281 -8.921875 6.40625 -8.796875 C 6.445312 -8.679688 6.46875 -8.550781 6.46875 -8.40625 C 6.46875 -8.300781 6.453125 -8.195312 6.421875 -8.09375 C 6.390625 -7.988281 6.332031 -7.882812 6.25 -7.78125 C 6.09375 -7.601562 5.878906 -7.375 5.609375 -7.09375 C 5.335938 -6.8125 5.035156 -6.492188 4.703125 -6.140625 C 4.378906 -5.796875 4.050781 -5.4375 3.71875 -5.0625 C 3.382812 -4.6875 3.078125 -4.316406 2.796875 -3.953125 C 2.523438 -3.585938 2.304688 -3.242188 2.140625 -2.921875 C 1.972656 -2.609375 1.890625 -2.335938 1.890625 -2.109375 C 1.890625 -1.929688 1.941406 -1.785156 2.046875 -1.671875 C 2.160156 -1.554688 2.34375 -1.5 2.59375 -1.5 C 2.875 -1.5 3.21875 -1.554688 3.625 -1.671875 C 4.03125 -1.785156 4.476562 -1.941406 4.96875 -2.140625 C 5.46875 -2.347656 5.976562 -2.578125 6.5 -2.828125 C 7.019531 -3.085938 7.53125 -3.363281 8.03125 -3.65625 C 8.539062 -3.945312 9.007812 -4.238281 9.4375 -4.53125 C 9.875 -4.820312 10.242188 -5.101562 10.546875 -5.375 C 10.617188 -5.425781 10.6875 -5.453125 10.75 -5.453125 C 10.789062 -5.453125 10.8125 -5.4375 10.8125 -5.40625 C 10.8125 -5.382812 10.796875 -5.359375 10.765625 -5.328125 C 10.546875 -5.128906 10.265625 -4.910156 9.921875 -4.671875 C 9.585938 -4.429688 9.203125 -4.175781 8.765625 -3.90625 C 8.335938 -3.632812 7.882812 -3.363281 7.40625 -3.09375 C 6.925781 -2.820312 6.4375 -2.566406 5.9375 -2.328125 C 5.4375 -2.085938 4.941406 -1.875 4.453125 -1.6875 C 3.972656 -1.5 3.515625 -1.347656 3.078125 -1.234375 C 2.648438 -1.128906 2.265625 -1.078125 1.921875 -1.078125 Z M 1.78125 -7.5625 C 1.894531 -7.5625 2.007812 -7.570312 2.125 -7.59375 C 2.769531 -8.195312 3.222656 -8.6875 3.484375 -9.0625 C 3.753906 -9.445312 3.890625 -9.734375 3.890625 -9.921875 C 3.890625 -10.015625 3.859375 -10.082031 3.796875 -10.125 C 3.742188 -10.164062 3.664062 -10.1875 3.5625 -10.1875 C 3.382812 -10.1875 3.160156 -10.117188 2.890625 -9.984375 C 2.628906 -9.859375 2.363281 -9.675781 2.09375 -9.4375 C 1.820312 -9.195312 1.578125 -8.90625 1.359375 -8.5625 C 1.242188 -8.363281 1.1875 -8.1875 1.1875 -8.03125 C 1.1875 -7.882812 1.238281 -7.769531 1.34375 -7.6875 C 1.445312 -7.601562 1.59375 -7.5625 1.78125 -7.5625 Z M 1.78125 -7.5625 "/></g></g></g><g fill="#3b3b3b" fill-opacity="1"><g transform="translate(323.625904, 124.770747)"><g><path d="M 0.078125 -1.125 C -0.429688 -1.125 -0.8125 -1.238281 -1.0625 -1.46875 C -1.3125 -1.695312 -1.4375 -2.019531 -1.4375 -2.4375 C -1.4375 -2.726562 -1.382812 -3.046875 -1.28125 -3.390625 C -1.175781 -3.742188 -1.035156 -4.109375 -0.859375 -4.484375 C -0.691406 -4.867188 -0.5 -5.253906 -0.28125 -5.640625 C -0.0703125 -6.023438 0.140625 -6.394531 0.359375 -6.75 C 0.585938 -7.132812 0.804688 -7.503906 1.015625 -7.859375 C 1.234375 -8.222656 1.421875 -8.53125 1.578125 -8.78125 C 1.734375 -9.03125 1.847656 -9.1875 1.921875 -9.25 C 1.960938 -9.289062 2.015625 -9.3125 2.078125 -9.3125 C 2.179688 -9.3125 2.296875 -9.257812 2.421875 -9.15625 C 2.546875 -9.050781 2.648438 -8.914062 2.734375 -8.75 C 2.828125 -8.59375 2.875 -8.429688 2.875 -8.265625 C 2.875 -8.109375 2.835938 -7.972656 2.765625 -7.859375 C 2.628906 -7.648438 2.460938 -7.40625 2.265625 -7.125 C 2.078125 -6.84375 1.867188 -6.539062 1.640625 -6.21875 C 1.421875 -5.894531 1.195312 -5.5625 0.96875 -5.21875 C 0.75 -4.882812 0.550781 -4.550781 0.375 -4.21875 C 0.195312 -3.882812 0.0507812 -3.5625 -0.0625 -3.25 C -0.175781 -2.945312 -0.234375 -2.664062 -0.234375 -2.40625 C -0.234375 -2.1875 -0.164062 -1.988281 -0.03125 -1.8125 C 0.101562 -1.644531 0.335938 -1.5625 0.671875 -1.5625 C 0.941406 -1.5625 1.265625 -1.617188 1.640625 -1.734375 C 2.023438 -1.847656 2.4375 -2.003906 2.875 -2.203125 C 3.320312 -2.398438 3.773438 -2.628906 4.234375 -2.890625 C 4.703125 -3.148438 5.148438 -3.425781 5.578125 -3.71875 C 6.015625 -4.007812 6.410156 -4.300781 6.765625 -4.59375 C 7.128906 -4.882812 7.4375 -5.164062 7.6875 -5.4375 C 7.738281 -5.488281 7.796875 -5.515625 7.859375 -5.515625 C 7.910156 -5.515625 7.9375 -5.492188 7.9375 -5.453125 C 7.9375 -5.429688 7.925781 -5.410156 7.90625 -5.390625 C 7.707031 -5.160156 7.429688 -4.898438 7.078125 -4.609375 C 6.722656 -4.316406 6.320312 -4.007812 5.875 -3.6875 C 5.425781 -3.375 4.945312 -3.0625 4.4375 -2.75 C 3.9375 -2.445312 3.425781 -2.171875 2.90625 -1.921875 C 2.394531 -1.679688 1.894531 -1.488281 1.40625 -1.34375 C 0.925781 -1.195312 0.484375 -1.125 0.078125 -1.125 Z M 3.296875 -10.71875 C 3.203125 -10.71875 3.140625 -10.734375 3.109375 -10.765625 C 3.078125 -10.804688 3.0625 -10.851562 3.0625 -10.90625 C 3.0625 -11 3.113281 -11.097656 3.21875 -11.203125 C 3.332031 -11.304688 3.429688 -11.394531 3.515625 -11.46875 C 3.609375 -11.550781 3.695312 -11.628906 3.78125 -11.703125 C 3.863281 -11.785156 3.945312 -11.867188 4.03125 -11.953125 C 4.21875 -12.117188 4.382812 -12.296875 4.53125 -12.484375 C 4.6875 -12.671875 4.863281 -12.835938 5.0625 -12.984375 C 5.082031 -12.992188 5.101562 -13 5.125 -13 C 5.1875 -13 5.269531 -12.972656 5.375 -12.921875 C 5.476562 -12.867188 5.566406 -12.8125 5.640625 -12.75 C 5.722656 -12.6875 5.765625 -12.632812 5.765625 -12.59375 C 5.765625 -12.570312 5.757812 -12.554688 5.75 -12.546875 C 5.363281 -12.097656 5.007812 -11.738281 4.6875 -11.46875 C 4.375 -11.195312 4.097656 -11.003906 3.859375 -10.890625 C 3.617188 -10.773438 3.429688 -10.71875 3.296875 -10.71875 Z M 3.296875 -10.71875 "/></g></g></g><g fill="#3b3b3b" fill-opacity="1"><g transform="translate(331.266574, 124.770747)"><g><path d="M 6.734375 -1.09375 C 6.222656 -1.09375 5.835938 -1.207031 5.578125 -1.4375 C 5.316406 -1.664062 5.1875 -1.988281 5.1875 -2.40625 C 5.1875 -2.695312 5.238281 -3.007812 5.34375 -3.34375 C 5.445312 -3.6875 5.582031 -4.046875 5.75 -4.421875 C 5.925781 -4.804688 6.125 -5.191406 6.34375 -5.578125 C 6.5625 -5.960938 6.78125 -6.335938 7 -6.703125 C 6.632812 -6.304688 6.242188 -5.894531 5.828125 -5.46875 C 5.410156 -5.039062 4.976562 -4.628906 4.53125 -4.234375 C 4.09375 -3.847656 3.648438 -3.5 3.203125 -3.1875 C 2.765625 -2.875 2.332031 -2.625 1.90625 -2.4375 C 1.476562 -2.25 1.070312 -2.15625 0.6875 -2.15625 C 0.414062 -2.15625 0.160156 -2.210938 -0.078125 -2.328125 C -0.390625 -2.472656 -0.613281 -2.65625 -0.75 -2.875 C -0.894531 -3.101562 -0.96875 -3.359375 -0.96875 -3.640625 C -0.96875 -3.992188 -0.878906 -4.378906 -0.703125 -4.796875 C -0.523438 -5.222656 -0.289062 -5.664062 0 -6.125 C 0.226562 -6.488281 0.507812 -6.863281 0.84375 -7.25 C 1.175781 -7.632812 1.566406 -8.003906 2.015625 -8.359375 C 2.472656 -8.722656 2.988281 -9.035156 3.5625 -9.296875 C 3.894531 -9.441406 4.222656 -9.550781 4.546875 -9.625 C 4.867188 -9.695312 5.175781 -9.734375 5.46875 -9.734375 C 5.863281 -9.734375 6.222656 -9.671875 6.546875 -9.546875 C 6.867188 -9.429688 7.128906 -9.265625 7.328125 -9.046875 C 7.535156 -8.828125 7.660156 -8.566406 7.703125 -8.265625 C 7.878906 -8.472656 8.039062 -8.65625 8.1875 -8.8125 C 8.332031 -8.976562 8.457031 -9.113281 8.5625 -9.21875 C 8.601562 -9.257812 8.65625 -9.28125 8.71875 -9.28125 C 8.820312 -9.28125 8.9375 -9.222656 9.0625 -9.109375 C 9.1875 -9.003906 9.289062 -8.867188 9.375 -8.703125 C 9.46875 -8.546875 9.515625 -8.378906 9.515625 -8.203125 C 9.515625 -8.066406 9.484375 -7.9375 9.421875 -7.8125 C 9.253906 -7.5625 9.046875 -7.257812 8.796875 -6.90625 C 8.554688 -6.5625 8.296875 -6.1875 8.015625 -5.78125 C 7.742188 -5.382812 7.488281 -4.984375 7.25 -4.578125 C 7.007812 -4.171875 6.8125 -3.78125 6.65625 -3.40625 C 6.5 -3.03125 6.421875 -2.6875 6.421875 -2.375 C 6.421875 -2.15625 6.488281 -1.957031 6.625 -1.78125 C 6.757812 -1.601562 6.988281 -1.515625 7.3125 -1.515625 C 7.582031 -1.515625 7.910156 -1.570312 8.296875 -1.6875 C 8.679688 -1.800781 9.09375 -1.957031 9.53125 -2.15625 C 9.96875 -2.363281 10.414062 -2.59375 10.875 -2.84375 C 11.34375 -3.101562 11.789062 -3.378906 12.21875 -3.671875 C 12.65625 -3.960938 13.054688 -4.253906 13.421875 -4.546875 C 13.785156 -4.835938 14.085938 -5.117188 14.328125 -5.390625 C 14.390625 -5.441406 14.445312 -5.46875 14.5 -5.46875 C 14.550781 -5.46875 14.578125 -5.445312 14.578125 -5.40625 C 14.578125 -5.382812 14.566406 -5.363281 14.546875 -5.34375 C 14.347656 -5.125 14.070312 -4.863281 13.71875 -4.5625 C 13.375 -4.269531 12.972656 -3.960938 12.515625 -3.640625 C 12.066406 -3.328125 11.585938 -3.019531 11.078125 -2.71875 C 10.578125 -2.414062 10.066406 -2.140625 9.546875 -1.890625 C 9.035156 -1.648438 8.535156 -1.457031 8.046875 -1.3125 C 7.566406 -1.164062 7.128906 -1.09375 6.734375 -1.09375 Z M 0.921875 -2.71875 C 1.109375 -2.71875 1.332031 -2.765625 1.59375 -2.859375 C 1.851562 -2.960938 2.128906 -3.097656 2.421875 -3.265625 C 2.710938 -3.441406 3.003906 -3.632812 3.296875 -3.84375 C 3.597656 -4.050781 3.875 -4.253906 4.125 -4.453125 C 4.445312 -4.722656 4.785156 -5.039062 5.140625 -5.40625 C 5.503906 -5.78125 5.867188 -6.171875 6.234375 -6.578125 C 6.597656 -6.984375 6.941406 -7.375 7.265625 -7.75 C 7.265625 -8.1875 7.15625 -8.492188 6.9375 -8.671875 C 6.726562 -8.859375 6.460938 -8.953125 6.140625 -8.953125 C 5.828125 -8.953125 5.488281 -8.878906 5.125 -8.734375 C 4.757812 -8.597656 4.410156 -8.421875 4.078125 -8.203125 C 3.847656 -8.046875 3.582031 -7.832031 3.28125 -7.5625 C 2.988281 -7.289062 2.6875 -6.976562 2.375 -6.625 C 2.0625 -6.269531 1.757812 -5.890625 1.46875 -5.484375 C 1.1875 -5.078125 0.953125 -4.65625 0.765625 -4.21875 C 0.566406 -3.769531 0.46875 -3.425781 0.46875 -3.1875 C 0.46875 -3.019531 0.503906 -2.898438 0.578125 -2.828125 C 0.660156 -2.753906 0.773438 -2.71875 0.921875 -2.71875 Z M 0.921875 -2.71875 "/></g></g></g><g fill="#487570" fill-opacity="1"><g transform="translate(191.950655, 83.740392)"><g><path d="M 0.984375 -3.984375 C 1.085938 -3.984375 1.175781 -3.945312 1.25 -3.875 C 1.332031 -3.800781 1.375 -3.707031 1.375 -3.59375 C 1.375 -3.488281 1.332031 -3.394531 1.25 -3.3125 C 1.175781 -3.238281 1.085938 -3.203125 0.984375 -3.203125 C 0.867188 -3.203125 0.769531 -3.238281 0.6875 -3.3125 C 0.613281 -3.394531 0.578125 -3.488281 0.578125 -3.59375 C 0.578125 -3.707031 0.613281 -3.800781 0.6875 -3.875 C 0.769531 -3.945312 0.867188 -3.984375 0.984375 -3.984375 Z M 1.296875 1.15625 L 0.65625 1.15625 L 0.765625 -2.375 L 1.1875 -2.375 Z M 1.296875 1.15625 "/></g></g></g><g fill="#487570" fill-opacity="1"><g transform="translate(194.263552, 83.740392)"><g><path d="M 5.25 -5.265625 L 5.25 0 L 4.796875 0 L 1.40625 -4.265625 L 1.40625 0 L 0.859375 0 L 0.859375 -5.265625 L 1.3125 -5.265625 L 4.703125 -0.984375 L 4.703125 -5.265625 Z M 5.25 -5.265625 "/></g></g></g><g fill="#487570" fill-opacity="1"><g transform="translate(200.729116, 83.740392)"><g><path d="M 3.15625 0.046875 C 2.632812 0.046875 2.160156 -0.0664062 1.734375 -0.296875 C 1.316406 -0.535156 0.988281 -0.859375 0.75 -1.265625 C 0.507812 -1.671875 0.390625 -2.125 0.390625 -2.625 C 0.390625 -3.132812 0.507812 -3.59375 0.75 -4 C 0.988281 -4.40625 1.316406 -4.722656 1.734375 -4.953125 C 2.160156 -5.191406 2.632812 -5.3125 3.15625 -5.3125 C 3.675781 -5.3125 4.144531 -5.191406 4.5625 -4.953125 C 4.976562 -4.722656 5.304688 -4.40625 5.546875 -4 C 5.796875 -3.59375 5.921875 -3.132812 5.921875 -2.625 C 5.921875 -2.125 5.796875 -1.664062 5.546875 -1.25 C 5.304688 -0.84375 4.976562 -0.523438 4.5625 -0.296875 C 4.144531 -0.0664062 3.675781 0.046875 3.15625 0.046875 Z M 3.15625 -0.453125 C 3.570312 -0.453125 3.945312 -0.546875 4.28125 -0.734375 C 4.613281 -0.921875 4.875 -1.179688 5.0625 -1.515625 C 5.257812 -1.847656 5.359375 -2.21875 5.359375 -2.625 C 5.359375 -3.039062 5.257812 -3.414062 5.0625 -3.75 C 4.875 -4.082031 4.613281 -4.34375 4.28125 -4.53125 C 3.945312 -4.71875 3.570312 -4.8125 3.15625 -4.8125 C 2.738281 -4.8125 2.359375 -4.71875 2.015625 -4.53125 C 1.679688 -4.34375 1.414062 -4.082031 1.21875 -3.75 C 1.03125 -3.414062 0.9375 -3.039062 0.9375 -2.625 C 0.9375 -2.21875 1.03125 -1.847656 1.21875 -1.515625 C 1.414062 -1.179688 1.679688 -0.921875 2.015625 -0.734375 C 2.359375 -0.546875 2.738281 -0.453125 3.15625 -0.453125 Z M 3.15625 -0.453125 "/></g></g></g><g fill="#487570" fill-opacity="1"><g transform="translate(207.389921, 83.740392)"><g><path d="M 2.3125 0.046875 C 1.914062 0.046875 1.535156 -0.015625 1.171875 -0.140625 C 0.816406 -0.265625 0.546875 -0.429688 0.359375 -0.640625 L 0.578125 -1.0625 C 0.765625 -0.875 1.015625 -0.71875 1.328125 -0.59375 C 1.640625 -0.476562 1.96875 -0.421875 2.3125 -0.421875 C 2.78125 -0.421875 3.128906 -0.507812 3.359375 -0.6875 C 3.597656 -0.863281 3.71875 -1.085938 3.71875 -1.359375 C 3.71875 -1.566406 3.65625 -1.734375 3.53125 -1.859375 C 3.40625 -1.984375 3.25 -2.078125 3.0625 -2.140625 C 2.875 -2.210938 2.613281 -2.289062 2.28125 -2.375 C 1.882812 -2.476562 1.566406 -2.570312 1.328125 -2.65625 C 1.097656 -2.75 0.898438 -2.890625 0.734375 -3.078125 C 0.566406 -3.273438 0.484375 -3.535156 0.484375 -3.859375 C 0.484375 -4.128906 0.550781 -4.375 0.6875 -4.59375 C 0.832031 -4.8125 1.050781 -4.984375 1.34375 -5.109375 C 1.632812 -5.242188 1.992188 -5.3125 2.421875 -5.3125 C 2.722656 -5.3125 3.015625 -5.269531 3.296875 -5.1875 C 3.585938 -5.101562 3.835938 -4.988281 4.046875 -4.84375 L 3.859375 -4.390625 C 3.640625 -4.535156 3.40625 -4.644531 3.15625 -4.71875 C 2.90625 -4.789062 2.660156 -4.828125 2.421875 -4.828125 C 1.960938 -4.828125 1.613281 -4.738281 1.375 -4.5625 C 1.144531 -4.382812 1.03125 -4.15625 1.03125 -3.875 C 1.03125 -3.664062 1.09375 -3.492188 1.21875 -3.359375 C 1.34375 -3.234375 1.5 -3.132812 1.6875 -3.0625 C 1.882812 -3 2.148438 -2.929688 2.484375 -2.859375 C 2.867188 -2.765625 3.175781 -2.671875 3.40625 -2.578125 C 3.644531 -2.484375 3.847656 -2.34375 4.015625 -2.15625 C 4.179688 -1.96875 4.265625 -1.710938 4.265625 -1.390625 C 4.265625 -1.117188 4.191406 -0.875 4.046875 -0.65625 C 3.910156 -0.445312 3.691406 -0.273438 3.390625 -0.140625 C 3.097656 -0.015625 2.738281 0.046875 2.3125 0.046875 Z M 2.3125 0.046875 "/></g></g></g><g fill="#487570" fill-opacity="1"><g transform="translate(212.368634, 83.740392)"><g/></g></g><g fill="#487570" fill-opacity="1"><g transform="translate(214.69655, 83.740392)"><g><path d="M 3.140625 0.046875 C 2.617188 0.046875 2.148438 -0.0664062 1.734375 -0.296875 C 1.316406 -0.523438 0.988281 -0.84375 0.75 -1.25 C 0.507812 -1.664062 0.390625 -2.125 0.390625 -2.625 C 0.390625 -3.132812 0.507812 -3.59375 0.75 -4 C 0.988281 -4.40625 1.316406 -4.722656 1.734375 -4.953125 C 2.160156 -5.191406 2.632812 -5.3125 3.15625 -5.3125 C 3.539062 -5.3125 3.898438 -5.242188 4.234375 -5.109375 C 4.566406 -4.984375 4.847656 -4.796875 5.078125 -4.546875 L 4.71875 -4.1875 C 4.3125 -4.601562 3.796875 -4.8125 3.171875 -4.8125 C 2.753906 -4.8125 2.375 -4.710938 2.03125 -4.515625 C 1.6875 -4.328125 1.414062 -4.066406 1.21875 -3.734375 C 1.03125 -3.410156 0.9375 -3.039062 0.9375 -2.625 C 0.9375 -2.21875 1.03125 -1.847656 1.21875 -1.515625 C 1.414062 -1.179688 1.6875 -0.921875 2.03125 -0.734375 C 2.375 -0.546875 2.753906 -0.453125 3.171875 -0.453125 C 3.796875 -0.453125 4.3125 -0.660156 4.71875 -1.078125 L 5.078125 -0.734375 C 4.847656 -0.484375 4.566406 -0.289062 4.234375 -0.15625 C 3.898438 -0.0195312 3.535156 0.046875 3.140625 0.046875 Z M 3.140625 0.046875 "/></g></g></g><g fill="#487570" fill-opacity="1"><g transform="translate(220.456235, 83.740392)"><g><path d="M 4.15625 -1.40625 L 1.21875 -1.40625 L 0.59375 0 L 0.015625 0 L 2.421875 -5.265625 L 2.96875 -5.265625 L 5.375 0 L 4.78125 0 Z M 3.953125 -1.859375 L 2.6875 -4.6875 L 1.421875 -1.859375 Z M 3.953125 -1.859375 "/></g></g></g><g fill="#487570" fill-opacity="1"><g transform="translate(226.200903, 83.740392)"><g><path d="M 2.3125 0.046875 C 1.914062 0.046875 1.535156 -0.015625 1.171875 -0.140625 C 0.816406 -0.265625 0.546875 -0.429688 0.359375 -0.640625 L 0.578125 -1.0625 C 0.765625 -0.875 1.015625 -0.71875 1.328125 -0.59375 C 1.640625 -0.476562 1.96875 -0.421875 2.3125 -0.421875 C 2.78125 -0.421875 3.128906 -0.507812 3.359375 -0.6875 C 3.597656 -0.863281 3.71875 -1.085938 3.71875 -1.359375 C 3.71875 -1.566406 3.65625 -1.734375 3.53125 -1.859375 C 3.40625 -1.984375 3.25 -2.078125 3.0625 -2.140625 C 2.875 -2.210938 2.613281 -2.289062 2.28125 -2.375 C 1.882812 -2.476562 1.566406 -2.570312 1.328125 -2.65625 C 1.097656 -2.75 0.898438 -2.890625 0.734375 -3.078125 C 0.566406 -3.273438 0.484375 -3.535156 0.484375 -3.859375 C 0.484375 -4.128906 0.550781 -4.375 0.6875 -4.59375 C 0.832031 -4.8125 1.050781 -4.984375 1.34375 -5.109375 C 1.632812 -5.242188 1.992188 -5.3125 2.421875 -5.3125 C 2.722656 -5.3125 3.015625 -5.269531 3.296875 -5.1875 C 3.585938 -5.101562 3.835938 -4.988281 4.046875 -4.84375 L 3.859375 -4.390625 C 3.640625 -4.535156 3.40625 -4.644531 3.15625 -4.71875 C 2.90625 -4.789062 2.660156 -4.828125 2.421875 -4.828125 C 1.960938 -4.828125 1.613281 -4.738281 1.375 -4.5625 C 1.144531 -4.382812 1.03125 -4.15625 1.03125 -3.875 C 1.03125 -3.664062 1.09375 -3.492188 1.21875 -3.359375 C 1.34375 -3.234375 1.5 -3.132812 1.6875 -3.0625 C 1.882812 -3 2.148438 -2.929688 2.484375 -2.859375 C 2.867188 -2.765625 3.175781 -2.671875 3.40625 -2.578125 C 3.644531 -2.484375 3.847656 -2.34375 4.015625 -2.15625 C 4.179688 -1.96875 4.265625 -1.710938 4.265625 -1.390625 C 4.265625 -1.117188 4.191406 -0.875 4.046875 -0.65625 C 3.910156 -0.445312 3.691406 -0.273438 3.390625 -0.140625 C 3.097656 -0.015625 2.738281 0.046875 2.3125 0.046875 Z M 2.3125 0.046875 "/></g></g></g><g fill="#487570" fill-opacity="1"><g transform="translate(231.179616, 83.740392)"><g><path d="M 4.15625 -1.40625 L 1.21875 -1.40625 L 0.59375 0 L 0.015625 0 L 2.421875 -5.265625 L 2.96875 -5.265625 L 5.375 0 L 4.78125 0 Z M 3.953125 -1.859375 L 2.6875 -4.6875 L 1.421875 -1.859375 Z M 3.953125 -1.859375 "/></g></g></g><g fill="#487570" fill-opacity="1"><g transform="translate(236.924284, 83.740392)"><g><path d="M 6.328125 -5.265625 L 6.328125 0 L 5.78125 0 L 5.78125 -4.203125 L 3.71875 -0.671875 L 3.453125 -0.671875 L 1.390625 -4.1875 L 1.390625 0 L 0.859375 0 L 0.859375 -5.265625 L 1.3125 -5.265625 L 3.59375 -1.359375 L 5.859375 -5.265625 Z M 6.328125 -5.265625 "/></g></g></g><g fill="#487570" fill-opacity="1"><g transform="translate(244.456172, 83.740392)"><g><path d="M 3.15625 0.046875 C 2.632812 0.046875 2.160156 -0.0664062 1.734375 -0.296875 C 1.316406 -0.535156 0.988281 -0.859375 0.75 -1.265625 C 0.507812 -1.671875 0.390625 -2.125 0.390625 -2.625 C 0.390625 -3.132812 0.507812 -3.59375 0.75 -4 C 0.988281 -4.40625 1.316406 -4.722656 1.734375 -4.953125 C 2.160156 -5.191406 2.632812 -5.3125 3.15625 -5.3125 C 3.675781 -5.3125 4.144531 -5.191406 4.5625 -4.953125 C 4.976562 -4.722656 5.304688 -4.40625 5.546875 -4 C 5.796875 -3.59375 5.921875 -3.132812 5.921875 -2.625 C 5.921875 -2.125 5.796875 -1.664062 5.546875 -1.25 C 5.304688 -0.84375 4.976562 -0.523438 4.5625 -0.296875 C 4.144531 -0.0664062 3.675781 0.046875 3.15625 0.046875 Z M 3.15625 -0.453125 C 3.570312 -0.453125 3.945312 -0.546875 4.28125 -0.734375 C 4.613281 -0.921875 4.875 -1.179688 5.0625 -1.515625 C 5.257812 -1.847656 5.359375 -2.21875 5.359375 -2.625 C 5.359375 -3.039062 5.257812 -3.414062 5.0625 -3.75 C 4.875 -4.082031 4.613281 -4.34375 4.28125 -4.53125 C 3.945312 -4.71875 3.570312 -4.8125 3.15625 -4.8125 C 2.738281 -4.8125 2.359375 -4.71875 2.015625 -4.53125 C 1.679688 -4.34375 1.414062 -4.082031 1.21875 -3.75 C 1.03125 -3.414062 0.9375 -3.039062 0.9375 -2.625 C 0.9375 -2.21875 1.03125 -1.847656 1.21875 -1.515625 C 1.414062 -1.179688 1.679688 -0.921875 2.015625 -0.734375 C 2.359375 -0.546875 2.738281 -0.453125 3.15625 -0.453125 Z M 3.15625 -0.453125 "/></g></g></g><g fill="#487570" fill-opacity="1"><g transform="translate(251.11698, 83.740392)"><g><path d="M 2.3125 0.046875 C 1.914062 0.046875 1.535156 -0.015625 1.171875 -0.140625 C 0.816406 -0.265625 0.546875 -0.429688 0.359375 -0.640625 L 0.578125 -1.0625 C 0.765625 -0.875 1.015625 -0.71875 1.328125 -0.59375 C 1.640625 -0.476562 1.96875 -0.421875 2.3125 -0.421875 C 2.78125 -0.421875 3.128906 -0.507812 3.359375 -0.6875 C 3.597656 -0.863281 3.71875 -1.085938 3.71875 -1.359375 C 3.71875 -1.566406 3.65625 -1.734375 3.53125 -1.859375 C 3.40625 -1.984375 3.25 -2.078125 3.0625 -2.140625 C 2.875 -2.210938 2.613281 -2.289062 2.28125 -2.375 C 1.882812 -2.476562 1.566406 -2.570312 1.328125 -2.65625 C 1.097656 -2.75 0.898438 -2.890625 0.734375 -3.078125 C 0.566406 -3.273438 0.484375 -3.535156 0.484375 -3.859375 C 0.484375 -4.128906 0.550781 -4.375 0.6875 -4.59375 C 0.832031 -4.8125 1.050781 -4.984375 1.34375 -5.109375 C 1.632812 -5.242188 1.992188 -5.3125 2.421875 -5.3125 C 2.722656 -5.3125 3.015625 -5.269531 3.296875 -5.1875 C 3.585938 -5.101562 3.835938 -4.988281 4.046875 -4.84375 L 3.859375 -4.390625 C 3.640625 -4.535156 3.40625 -4.644531 3.15625 -4.71875 C 2.90625 -4.789062 2.660156 -4.828125 2.421875 -4.828125 C 1.960938 -4.828125 1.613281 -4.738281 1.375 -4.5625 C 1.144531 -4.382812 1.03125 -4.15625 1.03125 -3.875 C 1.03125 -3.664062 1.09375 -3.492188 1.21875 -3.359375 C 1.34375 -3.234375 1.5 -3.132812 1.6875 -3.0625 C 1.882812 -3 2.148438 -2.929688 2.484375 -2.859375 C 2.867188 -2.765625 3.175781 -2.671875 3.40625 -2.578125 C 3.644531 -2.484375 3.847656 -2.34375 4.015625 -2.15625 C 4.179688 -1.96875 4.265625 -1.710938 4.265625 -1.390625 C 4.265625 -1.117188 4.191406 -0.875 4.046875 -0.65625 C 3.910156 -0.445312 3.691406 -0.273438 3.390625 -0.140625 C 3.097656 -0.015625 2.738281 0.046875 2.3125 0.046875 Z M 2.3125 0.046875 "/></g></g></g><g fill="#487570" fill-opacity="1"><g transform="translate(256.095693, 83.740392)"><g><path d="M 0.65625 -5.265625 L 1.296875 -5.265625 L 1.1875 -1.578125 L 0.765625 -1.578125 Z M 0.984375 0.03125 C 0.867188 0.03125 0.769531 -0.00390625 0.6875 -0.078125 C 0.613281 -0.160156 0.578125 -0.253906 0.578125 -0.359375 C 0.578125 -0.460938 0.613281 -0.550781 0.6875 -0.625 C 0.757812 -0.695312 0.859375 -0.734375 0.984375 -0.734375 C 1.085938 -0.734375 1.175781 -0.695312 1.25 -0.625 C 1.332031 -0.550781 1.375 -0.460938 1.375 -0.359375 C 1.375 -0.253906 1.332031 -0.160156 1.25 -0.078125 C 1.175781 -0.00390625 1.085938 0.03125 0.984375 0.03125 Z M 0.984375 0.03125 "/></g></g></g><g fill="#487570" fill-opacity="1"><g transform="translate(205.460692, 152.882296)"><g><path d="M 2.328125 -6.15625 L 2.328125 0 L 1.453125 0 L 1.453125 -5.390625 L 0.078125 -5.390625 L 0.078125 -6.15625 Z M 2.328125 -6.15625 "/></g></g></g><g fill="#487570" fill-opacity="1"><g transform="translate(209.137118, 152.882296)"><g><path d="M 4.75 -0.765625 L 4.75 0 L 0.328125 0 L 0.328125 -0.59375 L 2.828125 -3.015625 C 3.140625 -3.304688 3.347656 -3.554688 3.453125 -3.765625 C 3.554688 -3.984375 3.609375 -4.203125 3.609375 -4.421875 C 3.609375 -4.742188 3.492188 -4.992188 3.265625 -5.171875 C 3.035156 -5.347656 2.710938 -5.4375 2.296875 -5.4375 C 1.617188 -5.4375 1.09375 -5.21875 0.71875 -4.78125 L 0.125 -5.296875 C 0.363281 -5.585938 0.675781 -5.816406 1.0625 -5.984375 C 1.457031 -6.148438 1.894531 -6.234375 2.375 -6.234375 C 3.019531 -6.234375 3.53125 -6.078125 3.90625 -5.765625 C 4.289062 -5.453125 4.484375 -5.035156 4.484375 -4.515625 C 4.484375 -4.179688 4.410156 -3.867188 4.265625 -3.578125 C 4.128906 -3.285156 3.863281 -2.953125 3.46875 -2.578125 L 1.59375 -0.765625 Z M 4.75 -0.765625 "/></g></g></g><g fill="#487570" fill-opacity="1"><g transform="translate(214.607756, 152.882296)"><g><path d="M 2.65625 -7.40625 L 3.421875 -7.40625 L 0.515625 0.875 L -0.25 0.875 Z M 2.65625 -7.40625 "/></g></g></g><g fill="#487570" fill-opacity="1"><g transform="translate(218.125868, 152.882296)"><g><path d="M 2.9375 0.078125 C 2.445312 0.078125 2.015625 -0.046875 1.640625 -0.296875 C 1.265625 -0.546875 0.96875 -0.910156 0.75 -1.390625 C 0.53125 -1.867188 0.421875 -2.429688 0.421875 -3.078125 C 0.421875 -3.734375 0.53125 -4.296875 0.75 -4.765625 C 0.96875 -5.242188 1.265625 -5.609375 1.640625 -5.859375 C 2.015625 -6.109375 2.445312 -6.234375 2.9375 -6.234375 C 3.414062 -6.234375 3.84375 -6.109375 4.21875 -5.859375 C 4.601562 -5.609375 4.898438 -5.242188 5.109375 -4.765625 C 5.328125 -4.296875 5.4375 -3.734375 5.4375 -3.078125 C 5.4375 -2.429688 5.328125 -1.867188 5.109375 -1.390625 C 4.898438 -0.910156 4.601562 -0.546875 4.21875 -0.296875 C 3.84375 -0.046875 3.414062 0.078125 2.9375 0.078125 Z M 2.9375 -0.71875 C 3.425781 -0.71875 3.816406 -0.914062 4.109375 -1.3125 C 4.410156 -1.71875 4.5625 -2.304688 4.5625 -3.078125 C 4.5625 -3.847656 4.410156 -4.429688 4.109375 -4.828125 C 3.816406 -5.234375 3.425781 -5.4375 2.9375 -5.4375 C 2.4375 -5.4375 2.035156 -5.234375 1.734375 -4.828125 C 1.441406 -4.429688 1.296875 -3.847656 1.296875 -3.078125 C 1.296875 -2.304688 1.441406 -1.71875 1.734375 -1.3125 C 2.035156 -0.914062 2.4375 -0.71875 2.9375 -0.71875 Z M 2.9375 -0.71875 "/></g></g></g><g fill="#487570" fill-opacity="1"><g transform="translate(224.414455, 152.882296)"><g><path d="M 4.1875 -3.234375 C 4.539062 -3.097656 4.8125 -2.898438 5 -2.640625 C 5.1875 -2.390625 5.28125 -2.085938 5.28125 -1.734375 C 5.28125 -1.367188 5.179688 -1.050781 4.984375 -0.78125 C 4.785156 -0.507812 4.5 -0.296875 4.125 -0.140625 C 3.757812 0.00390625 3.328125 0.078125 2.828125 0.078125 C 2.328125 0.078125 1.894531 0.00390625 1.53125 -0.140625 C 1.164062 -0.296875 0.882812 -0.507812 0.6875 -0.78125 C 0.488281 -1.050781 0.390625 -1.367188 0.390625 -1.734375 C 0.390625 -2.085938 0.476562 -2.390625 0.65625 -2.640625 C 0.84375 -2.898438 1.113281 -3.097656 1.46875 -3.234375 C 1.1875 -3.367188 0.972656 -3.546875 0.828125 -3.765625 C 0.679688 -3.984375 0.609375 -4.25 0.609375 -4.5625 C 0.609375 -4.894531 0.695312 -5.1875 0.875 -5.4375 C 1.0625 -5.695312 1.320312 -5.894531 1.65625 -6.03125 C 1.988281 -6.164062 2.378906 -6.234375 2.828125 -6.234375 C 3.273438 -6.234375 3.664062 -6.164062 4 -6.03125 C 4.332031 -5.894531 4.59375 -5.695312 4.78125 -5.4375 C 4.96875 -5.1875 5.0625 -4.894531 5.0625 -4.5625 C 5.0625 -4.257812 4.984375 -3.992188 4.828125 -3.765625 C 4.679688 -3.546875 4.46875 -3.367188 4.1875 -3.234375 Z M 2.828125 -5.515625 C 2.410156 -5.515625 2.082031 -5.425781 1.84375 -5.25 C 1.601562 -5.070312 1.484375 -4.828125 1.484375 -4.515625 C 1.484375 -4.210938 1.597656 -3.972656 1.828125 -3.796875 C 2.066406 -3.617188 2.398438 -3.53125 2.828125 -3.53125 C 3.253906 -3.53125 3.585938 -3.617188 3.828125 -3.796875 C 4.078125 -3.972656 4.203125 -4.210938 4.203125 -4.515625 C 4.203125 -4.828125 4.078125 -5.070312 3.828125 -5.25 C 3.578125 -5.425781 3.242188 -5.515625 2.828125 -5.515625 Z M 2.828125 -0.640625 C 3.304688 -0.640625 3.6875 -0.738281 3.96875 -0.9375 C 4.257812 -1.144531 4.40625 -1.421875 4.40625 -1.765625 C 4.40625 -2.109375 4.257812 -2.378906 3.96875 -2.578125 C 3.6875 -2.773438 3.304688 -2.875 2.828125 -2.875 C 2.335938 -2.875 1.953125 -2.773438 1.671875 -2.578125 C 1.398438 -2.378906 1.265625 -2.109375 1.265625 -1.765625 C 1.265625 -1.421875 1.398438 -1.144531 1.671875 -0.9375 C 1.953125 -0.738281 2.335938 -0.640625 2.828125 -0.640625 Z M 2.828125 -0.640625 "/></g></g></g><g fill="#487570" fill-opacity="1"><g transform="translate(230.500755, 152.882296)"><g><path d="M 2.65625 -7.40625 L 3.421875 -7.40625 L 0.515625 0.875 L -0.25 0.875 Z M 2.65625 -7.40625 "/></g></g></g><g fill="#487570" fill-opacity="1"><g transform="translate(234.018867, 152.882296)"><g><path d="M 4.75 -0.765625 L 4.75 0 L 0.328125 0 L 0.328125 -0.59375 L 2.828125 -3.015625 C 3.140625 -3.304688 3.347656 -3.554688 3.453125 -3.765625 C 3.554688 -3.984375 3.609375 -4.203125 3.609375 -4.421875 C 3.609375 -4.742188 3.492188 -4.992188 3.265625 -5.171875 C 3.035156 -5.347656 2.710938 -5.4375 2.296875 -5.4375 C 1.617188 -5.4375 1.09375 -5.21875 0.71875 -4.78125 L 0.125 -5.296875 C 0.363281 -5.585938 0.675781 -5.816406 1.0625 -5.984375 C 1.457031 -6.148438 1.894531 -6.234375 2.375 -6.234375 C 3.019531 -6.234375 3.53125 -6.078125 3.90625 -5.765625 C 4.289062 -5.453125 4.484375 -5.035156 4.484375 -4.515625 C 4.484375 -4.179688 4.410156 -3.867188 4.265625 -3.578125 C 4.128906 -3.285156 3.863281 -2.953125 3.46875 -2.578125 L 1.59375 -0.765625 Z M 4.75 -0.765625 "/></g></g></g><g fill="#487570" fill-opacity="1"><g transform="translate(239.489506, 152.882296)"><g><path d="M 2.1875 -3.703125 C 3.0625 -3.703125 3.703125 -3.535156 4.109375 -3.203125 C 4.523438 -2.867188 4.734375 -2.414062 4.734375 -1.84375 C 4.734375 -1.476562 4.644531 -1.148438 4.46875 -0.859375 C 4.300781 -0.578125 4.039062 -0.347656 3.6875 -0.171875 C 3.34375 -0.00390625 2.914062 0.078125 2.40625 0.078125 C 1.976562 0.078125 1.5625 0.0078125 1.15625 -0.125 C 0.75 -0.257812 0.414062 -0.441406 0.15625 -0.671875 L 0.546875 -1.375 C 0.765625 -1.175781 1.035156 -1.015625 1.359375 -0.890625 C 1.691406 -0.773438 2.039062 -0.71875 2.40625 -0.71875 C 2.863281 -0.71875 3.21875 -0.8125 3.46875 -1 C 3.726562 -1.195312 3.859375 -1.46875 3.859375 -1.8125 C 3.859375 -2.175781 3.71875 -2.453125 3.4375 -2.640625 C 3.15625 -2.835938 2.675781 -2.9375 2 -2.9375 L 0.59375 -2.9375 L 0.921875 -6.15625 L 4.40625 -6.15625 L 4.40625 -5.390625 L 1.65625 -5.390625 L 1.5 -3.703125 Z M 2.1875 -3.703125 "/></g></g></g></svg>