<svg xmlns="http://www.w3.org/2000/svg" xmlns:xlink="http://www.w3.org/1999/xlink" width="1366" zoomAndPan="magnify" viewBox="0 0 1024.5 576" height="768" preserveAspectRatio="xMidYMid meet" version="1.0"><defs><g/></defs><g fill="#85644c" fill-opacity="1"><g transform="translate(163.585336, 332.400221)"><g><path d="M 101.90625 -61.96875 C 88.21875 -68.738281 77.207031 -72.125 68.875 -72.125 C 60.550781 -72.125 53.578125 -69.753906 47.953125 -65.015625 C 42.597656 -60.484375 39.921875 -55.609375 39.921875 -50.390625 C 39.921875 -47.679688 40.90625 -45.71875 42.875 -44.5 C 45.507812 -43.007812 48.015625 -42.265625 50.390625 -42.265625 C 51.273438 -42.265625 52.15625 -42.363281 53.03125 -42.5625 C 56.144531 -43.3125 58.785156 -44.566406 60.953125 -46.328125 C 63.117188 -48.085938 64.203125 -49.507812 64.203125 -50.59375 C 64.203125 -51.675781 64.523438 -52.421875 65.171875 -52.828125 C 65.816406 -53.234375 66.140625 -53.097656 66.140625 -52.421875 C 66.140625 -52.015625 66.035156 -51.539062 65.828125 -51 C 64.410156 -46.1875 61.09375 -42.898438 55.875 -41.140625 C 53.644531 -40.398438 51.34375 -40.03125 48.96875 -40.03125 C 46.59375 -40.03125 44.253906 -40.738281 41.953125 -42.15625 C 37.617188 -44.59375 35.453125 -48.320312 35.453125 -53.34375 C 35.453125 -59.363281 38.226562 -64.847656 43.78125 -69.796875 C 49.34375 -74.742188 56.117188 -77.21875 64.109375 -77.21875 C 68.035156 -77.21875 71.992188 -76.640625 75.984375 -75.484375 C 86.015625 -72.773438 95.09375 -68.847656 103.21875 -63.703125 C 105.320312 -66.003906 107.488281 -67.15625 109.71875 -67.15625 C 112.226562 -67.15625 113.515625 -66.304688 113.578125 -64.609375 C 113.648438 -63.867188 113.414062 -63.53125 112.875 -63.59375 C 112.53125 -63.664062 112.15625 -63.9375 111.75 -64.40625 C 111.207031 -64.613281 110.703125 -64.71875 110.234375 -64.71875 C 108.742188 -64.71875 107.21875 -63.972656 105.65625 -62.484375 C 110.664062 -59.972656 116.554688 -57.835938 123.328125 -56.078125 C 125.972656 -55.472656 128.070312 -55.171875 129.625 -55.171875 C 131.1875 -55.171875 132.375 -55.203125 133.1875 -55.265625 C 136.164062 -55.609375 138.097656 -56.726562 138.984375 -58.625 C 139.453125 -59.632812 139.875 -60.257812 140.25 -60.5 C 140.625 -60.738281 140.84375 -60.617188 140.90625 -60.140625 C 140.90625 -59.941406 140.90625 -59.671875 140.90625 -59.328125 C 140.90625 -56.554688 139.484375 -54.457031 136.640625 -53.03125 C 134.878906 -52.15625 133.21875 -51.71875 131.65625 -51.71875 C 130.101562 -51.71875 128.410156 -51.867188 126.578125 -52.171875 C 124.753906 -52.472656 122.382812 -53.097656 119.46875 -54.046875 C 116.5625 -54.992188 114.191406 -55.875 112.359375 -56.6875 C 110.535156 -57.5 108.742188 -58.347656 106.984375 -59.234375 L 104.140625 -60.65625 C 100.609375 -56.65625 96.847656 -49.78125 92.859375 -40.03125 C 91.566406 -36.78125 90.820312 -34.914062 90.625 -34.4375 C 94.550781 -33.894531 98.171875 -33.625 101.484375 -33.625 C 104.804688 -33.625 107.429688 -33.675781 109.359375 -33.78125 C 111.296875 -33.882812 112.296875 -33.664062 112.359375 -33.125 C 112.429688 -31.632812 107.382812 -30.890625 97.21875 -30.890625 C 93.96875 -30.890625 91.363281 -31.023438 89.40625 -31.296875 C 85.207031 -19.773438 81.007812 -11.238281 76.8125 -5.6875 C 75.039062 -3.382812 72.832031 -0.960938 70.1875 1.578125 C 67.550781 4.117188 64.742188 6.164062 61.765625 7.71875 C 55.066406 11.375 47.582031 13.203125 39.3125 13.203125 C 31.050781 13.203125 24.039062 11.375 18.28125 7.71875 C 9.550781 2.300781 5.1875 -5.519531 5.1875 -15.75 C 5.1875 -19.195312 5.757812 -22.890625 6.90625 -26.828125 C 7.71875 -29.398438 9.222656 -31.664062 11.421875 -33.625 C 13.628906 -35.59375 15.476562 -36.796875 16.96875 -37.234375 C 18.457031 -37.671875 19.148438 -37.753906 19.046875 -37.484375 C 18.941406 -37.210938 17.773438 -36.300781 15.546875 -34.75 C 11.140625 -31.5625 8.53125 -27.628906 7.71875 -22.953125 C 7.382812 -21.265625 7.21875 -19.300781 7.21875 -17.0625 C 7.21875 -14.832031 7.722656 -12.394531 8.734375 -9.75 C 11.515625 -2.570312 17.273438 2.707031 26.015625 6.09375 C 30.140625 7.65625 34.570312 8.4375 39.3125 8.4375 C 44.050781 8.4375 48.757812 7.488281 53.4375 5.59375 C 58.113281 3.695312 62.445312 0.847656 66.4375 -2.953125 C 74.226562 -10.328125 80.664062 -19.875 85.75 -31.59375 L 79.25 -31.703125 C 71.320312 -31.703125 66.101562 -29.875 63.59375 -26.21875 C 62.988281 -25.46875 62.5 -25.28125 62.125 -25.65625 C 61.75 -26.03125 61.695312 -26.519531 61.96875 -27.125 C 63.457031 -30.375 65.554688 -32.707031 68.265625 -34.125 C 70.972656 -35.550781 73.664062 -36.265625 76.34375 -36.265625 C 79.019531 -36.265625 82.628906 -35.960938 87.171875 -35.359375 C 89.265625 -40.503906 91.921875 -45.851562 95.140625 -51.40625 C 98.359375 -56.957031 100.613281 -60.476562 101.90625 -61.96875 Z M 101.90625 -61.96875 "/></g></g></g><g fill="#85644c" fill-opacity="1"><g transform="translate(270.052996, 332.400221)"><g><path d="M 19.515625 -40.734375 C 19.515625 -37.691406 17.582031 -34.816406 13.71875 -32.109375 C 15.070312 -32.035156 16.882812 -32 19.15625 -32 C 21.425781 -32 24.289062 -32.171875 27.75 -32.515625 C 27.882812 -32.304688 27.953125 -31.757812 27.953125 -30.875 C 27.953125 -30 27.539062 -28.695312 26.71875 -26.96875 C 25.90625 -25.238281 25.175781 -23.75 24.53125 -22.5 C 23.894531 -21.25 23.285156 -20.0625 22.703125 -18.9375 C 22.128906 -17.820312 21.488281 -16.453125 20.78125 -14.828125 C 20.070312 -13.203125 19.476562 -11.710938 19 -10.359375 C 17.3125 -5.210938 17.582031 -2.640625 19.8125 -2.640625 C 22.65625 -2.640625 26.859375 -8.296875 32.421875 -19.609375 C 32.890625 -20.484375 33.273438 -20.816406 33.578125 -20.609375 C 33.890625 -20.410156 34.046875 -20.160156 34.046875 -19.859375 C 34.046875 -19.554688 33.601562 -18.503906 32.71875 -16.703125 C 31.84375 -14.910156 30.894531 -13.066406 29.875 -11.171875 C 28.863281 -9.273438 27.269531 -7.078125 25.09375 -4.578125 C 22.519531 -1.453125 20.050781 0.109375 17.6875 0.109375 C 15.039062 0.109375 13.210938 -1.484375 12.203125 -4.671875 C 11.992188 -5.285156 11.890625 -6.203125 11.890625 -7.421875 C 11.890625 -8.640625 12.28125 -10.265625 13.0625 -12.296875 C 13.84375 -14.328125 15.078125 -16.796875 16.765625 -19.703125 C 18.460938 -22.617188 19.410156 -24.332031 19.609375 -24.84375 C 19.816406 -25.351562 19.921875 -25.84375 19.921875 -26.3125 C 19.921875 -28.414062 17.210938 -29.535156 11.796875 -29.671875 L 10.578125 -26.421875 C 6.304688 -15.242188 2.207031 -7.757812 -1.71875 -3.96875 C -2.394531 -3.351562 -2.734375 -3.554688 -2.734375 -4.578125 C -2.734375 -4.773438 -2.664062 -5.007812 -2.53125 -5.28125 C 1.257812 -10.289062 4.539062 -16.21875 7.3125 -23.0625 C 10.09375 -29.90625 12.023438 -36.40625 13.109375 -42.5625 C 13.515625 -44.664062 14.460938 -45.71875 15.953125 -45.71875 C 17.441406 -45.71875 18.523438 -44.769531 19.203125 -42.875 C 19.410156 -42.257812 19.515625 -41.546875 19.515625 -40.734375 Z M 19.515625 -40.734375 "/></g></g></g><g fill="#85644c" fill-opacity="1"><g transform="translate(296.466713, 332.400221)"><g><path d="M 36.671875 -27.53125 C 35.453125 -26.3125 33.722656 -23.550781 31.484375 -19.25 C 29.253906 -14.945312 27.921875 -11.726562 27.484375 -9.59375 C 27.046875 -7.46875 26.828125 -5.742188 26.828125 -4.421875 C 26.828125 -3.097656 27.332031 -2.4375 28.34375 -2.4375 C 29.632812 -2.4375 31.226562 -3.625 33.125 -6 C 35.894531 -9.445312 38.632812 -13.945312 41.34375 -19.5 C 41.613281 -20.113281 41.921875 -20.453125 42.265625 -20.515625 C 42.804688 -20.722656 43.078125 -20.519531 43.078125 -19.90625 C 43.078125 -19.570312 42.972656 -19.164062 42.765625 -18.6875 C 36.535156 -6.09375 31.289062 0.203125 27.03125 0.203125 C 25.0625 0.203125 23.46875 -0.742188 22.25 -2.640625 C 21.632812 -3.660156 21.328125 -5.015625 21.328125 -6.703125 C 21.328125 -8.398438 21.664062 -10.46875 22.34375 -12.90625 C 16.925781 -4.164062 12.253906 0.203125 8.328125 0.203125 C 7.242188 0.203125 6.265625 -0.132812 5.390625 -0.8125 C 3.359375 -2.238281 2.34375 -4.675781 2.34375 -8.125 C 2.34375 -14.757812 5.21875 -21.5 10.96875 -28.34375 C 14.21875 -32.132812 18.210938 -34.609375 22.953125 -35.765625 C 24.242188 -36.097656 25.46875 -36.265625 26.625 -36.265625 C 29.738281 -36.265625 32.378906 -35.179688 34.546875 -33.015625 C 35.222656 -32.273438 35.425781 -31.566406 35.15625 -30.890625 C 34.882812 -30.210938 34.304688 -29.941406 33.421875 -30.078125 C 32.679688 -32.515625 31.054688 -33.734375 28.546875 -33.734375 C 25.628906 -33.734375 22.039062 -31.429688 17.78125 -26.828125 C 15.34375 -24.109375 13.070312 -20.921875 10.96875 -17.265625 C 8.332031 -12.867188 7.015625 -9.347656 7.015625 -6.703125 C 7.015625 -4.066406 7.859375 -2.75 9.546875 -2.75 C 13.609375 -2.75 18.925781 -8.976562 25.5 -21.4375 C 26.789062 -23.9375 27.875 -25.644531 28.75 -26.5625 C 29.632812 -27.476562 30.753906 -27.9375 32.109375 -27.9375 C 32.378906 -27.9375 33.070312 -27.832031 34.1875 -27.625 C 35.300781 -27.425781 36.128906 -27.394531 36.671875 -27.53125 Z M 36.671875 -27.53125 "/></g></g></g><g fill="#85644c" fill-opacity="1"><g transform="translate(332.023649, 332.400221)"><g><path d="M 36.46875 -33.328125 C 28.132812 -18.691406 23.96875 -9.140625 23.96875 -4.671875 C 23.96875 -2.910156 24.613281 -2.03125 25.90625 -2.03125 C 29.363281 -2.03125 34.003906 -7.890625 39.828125 -19.609375 C 40.234375 -20.554688 40.640625 -20.925781 41.046875 -20.71875 C 41.453125 -20.519531 41.65625 -20.25 41.65625 -19.90625 C 41.65625 -19.570312 41.519531 -19.164062 41.25 -18.6875 C 37.65625 -11.445312 34.625 -6.453125 32.15625 -3.703125 C 29.6875 -0.960938 27.210938 0.40625 24.734375 0.40625 C 22.265625 0.40625 20.382812 -0.539062 19.09375 -2.4375 C 18.414062 -3.320312 18.078125 -4.523438 18.078125 -6.046875 C 18.078125 -7.566406 18.414062 -9.410156 19.09375 -11.578125 C 19.769531 -13.742188 21.632812 -17.265625 24.6875 -22.140625 C 25.4375 -23.359375 25.8125 -24.320312 25.8125 -25.03125 C 25.8125 -25.75 25.234375 -26.109375 24.078125 -26.109375 C 22.921875 -26.109375 20.71875 -24.582031 17.46875 -21.53125 C 12.59375 -17.0625 7.890625 -10.359375 3.359375 -1.421875 C 2.953125 -0.742188 2.492188 -0.316406 1.984375 -0.140625 C 1.472656 0.0234375 0.472656 0.140625 -1.015625 0.203125 C -2.503906 0.273438 -3.488281 0.445312 -3.96875 0.71875 C -2.882812 -1.457031 -0.75 -5.894531 2.4375 -12.59375 C 8.125 -24.445312 11.847656 -31.222656 13.609375 -32.921875 C 14.421875 -33.734375 15.539062 -34.140625 16.96875 -34.140625 C 17.238281 -34.140625 17.929688 -34.035156 19.046875 -33.828125 C 20.160156 -33.628906 20.988281 -33.597656 21.53125 -33.734375 C 19.03125 -32.378906 14.9375 -26.007812 9.25 -14.625 C 12.425781 -18.550781 15.316406 -21.679688 17.921875 -24.015625 C 20.535156 -26.359375 23.671875 -28.53125 27.328125 -30.53125 C 30.984375 -32.53125 33.660156 -33.53125 35.359375 -33.53125 C 35.765625 -33.53125 36.132812 -33.460938 36.46875 -33.328125 Z M 36.46875 -33.328125 "/></g></g></g><g fill="#85644c" fill-opacity="1"><g transform="translate(366.056719, 332.400221)"><g><path d="M 24.484375 -23.359375 C 26.859375 -26.210938 28.046875 -28.617188 28.046875 -30.578125 C 28.046875 -32.546875 27.234375 -33.53125 25.609375 -33.53125 C 22.421875 -33.53125 18.796875 -30.613281 14.734375 -24.78125 C 13.441406 -22.957031 12.1875 -20.554688 10.96875 -17.578125 C 9.75 -14.597656 9.140625 -11.90625 9.140625 -9.5 C 9.140625 -7.09375 9.628906 -5.144531 10.609375 -3.65625 C 11.597656 -2.164062 13.125 -1.421875 15.1875 -1.421875 C 17.25 -1.421875 19.160156 -1.910156 20.921875 -2.890625 C 22.679688 -3.878906 24.359375 -5.4375 25.953125 -7.5625 C 27.546875 -9.695312 28.75 -11.472656 29.5625 -12.890625 C 30.375 -14.316406 31.492188 -16.453125 32.921875 -19.296875 C 33.390625 -20.242188 33.789062 -20.632812 34.125 -20.46875 C 34.46875 -20.300781 34.640625 -20.0625 34.640625 -19.75 C 34.640625 -19.445312 34.179688 -18.332031 33.265625 -16.40625 C 32.359375 -14.476562 31.445312 -12.664062 30.53125 -10.96875 C 29.613281 -9.28125 28.3125 -7.382812 26.625 -5.28125 C 23.570312 -1.488281 19.40625 0.40625 14.125 0.40625 C 10.332031 0.40625 7.601562 -0.523438 5.9375 -2.390625 C 4.28125 -4.253906 3.453125 -6.40625 3.453125 -8.84375 C 3.453125 -11.820312 4.179688 -15.070312 5.640625 -18.59375 C 7.097656 -22.113281 8.773438 -25.160156 10.671875 -27.734375 C 14.597656 -33.085938 19.132812 -35.765625 24.28125 -35.765625 C 26.789062 -35.765625 28.601562 -35.171875 29.71875 -33.984375 C 30.832031 -32.796875 31.390625 -31.425781 31.390625 -29.875 C 31.390625 -27.570312 30.441406 -25.601562 28.546875 -23.96875 C 27.597656 -23.09375 26.800781 -22.65625 26.15625 -22.65625 C 25.507812 -22.65625 24.953125 -22.890625 24.484375 -23.359375 Z M 24.484375 -23.359375 "/></g></g></g><g fill="#85644c" fill-opacity="1"><g transform="translate(392.470436, 332.400221)"><g><path d="M 19.703125 -39.515625 C 18.753906 -38.703125 17.703125 -38.296875 16.546875 -38.296875 C 15.398438 -38.296875 14.488281 -38.703125 13.8125 -39.515625 C 13.132812 -40.328125 12.863281 -41.3125 13 -42.46875 C 13.207031 -43.613281 13.785156 -44.59375 14.734375 -45.40625 C 15.679688 -46.21875 16.726562 -46.625 17.875 -46.625 C 19.03125 -46.625 19.960938 -46.21875 20.671875 -45.40625 C 21.378906 -44.59375 21.628906 -43.609375 21.421875 -42.453125 C 21.222656 -41.304688 20.648438 -40.328125 19.703125 -39.515625 Z M 9.75 -2.234375 C 11.039062 -2.234375 12.394531 -2.878906 13.8125 -4.171875 C 16.320312 -6.671875 19.503906 -11.78125 23.359375 -19.5 C 23.835938 -20.519531 24.3125 -20.828125 24.78125 -20.421875 C 24.914062 -20.285156 24.984375 -20.0625 24.984375 -19.75 C 24.984375 -19.445312 24.710938 -18.703125 24.171875 -17.515625 C 23.628906 -16.335938 23.140625 -15.273438 22.703125 -14.328125 C 22.265625 -13.378906 21.414062 -11.835938 20.15625 -9.703125 C 18.90625 -7.566406 17.773438 -5.925781 16.765625 -4.78125 C 13.984375 -1.59375 11.359375 0 8.890625 0 C 6.421875 0 4.644531 -0.742188 3.5625 -2.234375 C 2.476562 -3.722656 1.9375 -5.378906 1.9375 -7.203125 C 1.9375 -9.035156 2.375 -11.035156 3.25 -13.203125 L 9.75 -29.765625 C 9.882812 -30.171875 9.953125 -30.710938 9.953125 -31.390625 C 9.953125 -32.066406 9.546875 -32.945312 8.734375 -34.03125 L 14.328125 -34.140625 C 15.878906 -34.140625 16.789062 -33.847656 17.0625 -33.265625 C 17.332031 -32.691406 17.128906 -31.796875 16.453125 -30.578125 L 8.328125 -11.578125 C 7.179688 -9.078125 6.609375 -6.945312 6.609375 -5.1875 C 6.609375 -3.21875 7.65625 -2.234375 9.75 -2.234375 Z M 9.75 -2.234375 "/></g></g></g><g fill="#85644c" fill-opacity="1"><g transform="translate(410.147316, 332.400221)"><g><path d="M 14.53125 -1.9375 C 15.414062 -1.800781 16.023438 -1.734375 16.359375 -1.734375 C 19.066406 -1.734375 21.742188 -3.320312 24.390625 -6.5 C 25.816406 -8.257812 28.359375 -12.695312 32.015625 -19.8125 C 32.148438 -20.144531 32.382812 -20.3125 32.71875 -20.3125 C 33.332031 -20.382812 33.640625 -20.148438 33.640625 -19.609375 C 33.640625 -19.472656 33.484375 -19.082031 33.171875 -18.4375 C 32.867188 -17.789062 32.582031 -17.144531 32.3125 -16.5 C 32.039062 -15.863281 31.597656 -14.9375 30.984375 -13.71875 C 30.378906 -12.5 29.859375 -11.515625 29.421875 -10.765625 C 28.984375 -10.023438 28.425781 -9.113281 27.75 -8.03125 C 27.070312 -6.945312 26.394531 -6.097656 25.71875 -5.484375 L 23.578125 -3.25 C 22.421875 -2.101562 21.066406 -1.289062 19.515625 -0.8125 C 17.003906 0 14.566406 0.0664062 12.203125 -0.609375 C 10.640625 0.0664062 9.25 0.40625 8.03125 0.40625 C 3.226562 0.40625 0.316406 -1.488281 -0.703125 -5.28125 C -0.910156 -6.164062 -1.015625 -7.234375 -1.015625 -8.484375 C -1.015625 -9.734375 -0.59375 -10.929688 0.25 -12.078125 C 1.101562 -13.234375 2.003906 -13.847656 2.953125 -13.921875 C 6.410156 -20.484375 9.359375 -26.410156 11.796875 -31.703125 C 14.503906 -37.453125 17.648438 -40.328125 21.234375 -40.328125 C 22.179688 -40.328125 23.113281 -40.109375 24.03125 -39.671875 C 24.945312 -39.234375 25.285156 -38.742188 25.046875 -38.203125 C 24.804688 -37.660156 24.3125 -37.554688 23.5625 -37.890625 C 22.820312 -38.234375 22.179688 -38.40625 21.640625 -38.40625 C 21.097656 -38.40625 20.625 -38.300781 20.21875 -38.09375 C 17.914062 -37.007812 16.765625 -34.675781 16.765625 -31.09375 C 16.765625 -29.195312 17.035156 -27.632812 17.578125 -26.40625 C 18.117188 -25.1875 18.726562 -23.867188 19.40625 -22.453125 C 20.96875 -18.929688 21.75 -16.050781 21.75 -13.8125 C 21.75 -11.582031 21.035156 -9.382812 19.609375 -7.21875 C 18.191406 -5.050781 16.5 -3.289062 14.53125 -1.9375 Z M 11.078125 -2.640625 C 14.054688 -4.941406 15.546875 -8.664062 15.546875 -13.8125 C 15.546875 -15.914062 15.304688 -18.796875 14.828125 -22.453125 C 14.359375 -26.109375 14.125 -28.578125 14.125 -29.859375 C 14.125 -31.148438 14.160156 -32.035156 14.234375 -32.515625 C 9.085938 -22.210938 5.90625 -15.945312 4.6875 -13.71875 C 6.101562 -13.71875 6.8125 -12.703125 6.8125 -10.671875 C 6.8125 -6.671875 8.234375 -3.992188 11.078125 -2.640625 Z M 3.46875 -5.390625 C 3.46875 -4.984375 3.5 -4.539062 3.5625 -4.0625 C 4.101562 -2.238281 5.359375 -1.328125 7.328125 -1.328125 C 8.140625 -1.328125 8.816406 -1.460938 9.359375 -1.734375 C 6.847656 -3.285156 5.492188 -5.820312 5.296875 -9.34375 C 4.078125 -8.125 3.46875 -6.804688 3.46875 -5.390625 Z M 3.46875 -5.390625 "/></g></g></g><g fill="#85644c" fill-opacity="1"><g transform="translate(436.15468, 332.400221)"><g><path d="M 24.484375 -23.359375 C 26.859375 -26.210938 28.046875 -28.617188 28.046875 -30.578125 C 28.046875 -32.546875 27.234375 -33.53125 25.609375 -33.53125 C 22.421875 -33.53125 18.796875 -30.613281 14.734375 -24.78125 C 13.441406 -22.957031 12.1875 -20.554688 10.96875 -17.578125 C 9.75 -14.597656 9.140625 -11.90625 9.140625 -9.5 C 9.140625 -7.09375 9.628906 -5.144531 10.609375 -3.65625 C 11.597656 -2.164062 13.125 -1.421875 15.1875 -1.421875 C 17.25 -1.421875 19.160156 -1.910156 20.921875 -2.890625 C 22.679688 -3.878906 24.359375 -5.4375 25.953125 -7.5625 C 27.546875 -9.695312 28.75 -11.472656 29.5625 -12.890625 C 30.375 -14.316406 31.492188 -16.453125 32.921875 -19.296875 C 33.390625 -20.242188 33.789062 -20.632812 34.125 -20.46875 C 34.46875 -20.300781 34.640625 -20.0625 34.640625 -19.75 C 34.640625 -19.445312 34.179688 -18.332031 33.265625 -16.40625 C 32.359375 -14.476562 31.445312 -12.664062 30.53125 -10.96875 C 29.613281 -9.28125 28.3125 -7.382812 26.625 -5.28125 C 23.570312 -1.488281 19.40625 0.40625 14.125 0.40625 C 10.332031 0.40625 7.601562 -0.523438 5.9375 -2.390625 C 4.28125 -4.253906 3.453125 -6.40625 3.453125 -8.84375 C 3.453125 -11.820312 4.179688 -15.070312 5.640625 -18.59375 C 7.097656 -22.113281 8.773438 -25.160156 10.671875 -27.734375 C 14.597656 -33.085938 19.132812 -35.765625 24.28125 -35.765625 C 26.789062 -35.765625 28.601562 -35.171875 29.71875 -33.984375 C 30.832031 -32.796875 31.390625 -31.425781 31.390625 -29.875 C 31.390625 -27.570312 30.441406 -25.601562 28.546875 -23.96875 C 27.597656 -23.09375 26.800781 -22.65625 26.15625 -22.65625 C 25.507812 -22.65625 24.953125 -22.890625 24.484375 -23.359375 Z M 24.484375 -23.359375 "/></g></g></g><g fill="#85644c" fill-opacity="1"><g transform="translate(462.568398, 332.400221)"><g><path d="M 24.28125 -35.5625 C 29.226562 -35.5625 31.703125 -32.445312 31.703125 -26.21875 C 31.703125 -23.363281 30.957031 -20.3125 29.46875 -17.0625 C 27.570312 -12.664062 24.722656 -8.671875 20.921875 -5.078125 C 21.804688 -3.390625 23.398438 -2.546875 25.703125 -2.546875 C 27.535156 -2.546875 29.265625 -3.457031 30.890625 -5.28125 C 32.921875 -7.382812 34.375 -9.226562 35.25 -10.8125 C 36.132812 -12.40625 36.78125 -13.570312 37.1875 -14.3125 C 37.59375 -15.0625 38.113281 -16.128906 38.75 -17.515625 C 39.394531 -18.910156 39.785156 -19.757812 39.921875 -20.0625 C 40.054688 -20.363281 40.296875 -20.515625 40.640625 -20.515625 C 41.316406 -20.585938 41.65625 -20.351562 41.65625 -19.8125 C 41.65625 -19.601562 41.585938 -19.363281 41.453125 -19.09375 L 40.84375 -17.671875 C 40.4375 -16.722656 40.128906 -16.046875 39.921875 -15.640625 C 39.722656 -15.234375 39.367188 -14.503906 38.859375 -13.453125 C 38.347656 -12.410156 37.90625 -11.582031 37.53125 -10.96875 C 37.164062 -10.363281 36.660156 -9.550781 36.015625 -8.53125 C 35.367188 -7.519531 34.789062 -6.707031 34.28125 -6.09375 C 33.78125 -5.488281 33.15625 -4.8125 32.40625 -4.0625 C 31.664062 -3.320312 30.957031 -2.75 30.28125 -2.34375 C 28.582031 -1.320312 26.988281 -0.8125 25.5 -0.8125 C 22.71875 -0.8125 20.550781 -1.691406 19 -3.453125 C 15.882812 -1.148438 13.003906 0 10.359375 0 C 5.421875 0 2.953125 -3.113281 2.953125 -9.34375 C 2.953125 -12.1875 3.695312 -15.234375 5.1875 -18.484375 C 7.21875 -23.234375 10.078125 -27.265625 13.765625 -30.578125 C 17.453125 -33.898438 20.957031 -35.5625 24.28125 -35.5625 Z M 25.390625 -32.40625 C 23.566406 -32.40625 21.398438 -31.1875 18.890625 -28.75 C 16.390625 -26.3125 14.15625 -22.992188 12.1875 -18.796875 C 9.820312 -13.921875 8.640625 -9.925781 8.640625 -6.8125 C 8.640625 -3.695312 9.820312 -2.140625 12.1875 -2.140625 C 13.882812 -2.140625 15.78125 -3.050781 17.875 -4.875 C 16.789062 -6.4375 16.25 -8.097656 16.25 -9.859375 C 16.382812 -12.765625 17.570312 -14.21875 19.8125 -14.21875 C 20.6875 -14.21875 21.410156 -13.910156 21.984375 -13.296875 C 22.566406 -12.691406 22.859375 -12.132812 22.859375 -11.625 C 22.859375 -11.125 22.789062 -10.601562 22.65625 -10.0625 C 23.800781 -11.75 25.125 -14.148438 26.625 -17.265625 C 28.3125 -20.722656 29.15625 -24.109375 29.15625 -27.421875 C 29.15625 -30.742188 27.898438 -32.40625 25.390625 -32.40625 Z M 25.390625 -32.40625 "/></g></g></g><g fill="#85644c" fill-opacity="1"><g transform="translate(496.601468, 332.400221)"><g/></g></g><g fill="#85644c" fill-opacity="1"><g transform="translate(522.913611, 332.400221)"><g><path d="M 34.03125 -40.4375 L 40.84375 -40.640625 C 43.6875 -40.640625 45.582031 -40.03125 46.53125 -38.8125 C 47 -38.269531 47.234375 -37.726562 47.234375 -37.1875 C 47.234375 -36.644531 47.066406 -36.171875 46.734375 -35.765625 C 45.921875 -34.742188 44.394531 -34.234375 42.15625 -34.234375 C 38.300781 -34.234375 34.882812 -35.722656 31.90625 -38.703125 C 24.3125 -37.554688 18.550781 -33.53125 14.625 -26.625 C 12.125 -22.144531 10.875 -17.773438 10.875 -13.515625 C 10.875 -11.140625 11.242188 -8.800781 11.984375 -6.5 C 14.222656 0 19.066406 3.25 26.515625 3.25 C 33.148438 3.25 38.90625 1.015625 43.78125 -3.453125 C 48.664062 -7.921875 51.109375 -12.359375 51.109375 -16.765625 C 51.109375 -18.859375 50.207031 -20.597656 48.40625 -21.984375 C 46.613281 -23.378906 44.71875 -24.191406 42.71875 -24.421875 C 40.71875 -24.660156 39.023438 -24.78125 37.640625 -24.78125 C 36.253906 -24.78125 34.457031 -24.628906 32.25 -24.328125 C 30.050781 -24.023438 27.867188 -23.128906 25.703125 -21.640625 C 23.128906 -19.878906 21.84375 -17.539062 21.84375 -14.625 C 21.84375 -11.71875 24.113281 -9.078125 28.65625 -6.703125 C 29.332031 -6.296875 29.617188 -5.769531 29.515625 -5.125 C 29.410156 -4.488281 29.125 -4.304688 28.65625 -4.578125 C 24.382812 -6.878906 21.367188 -9.484375 19.609375 -12.390625 C 18.390625 -14.285156 17.78125 -15.875 17.78125 -17.15625 C 17.78125 -18.445312 17.945312 -19.5 18.28125 -20.3125 C 19.09375 -22.6875 21.125 -24.6875 24.375 -26.3125 C 27.632812 -27.9375 31.769531 -28.75 36.78125 -28.75 L 54.765625 -28.75 C 58.285156 -28.75 62.617188 -29.9375 67.765625 -32.3125 C 70.265625 -33.457031 72.09375 -34.8125 73.25 -36.375 C 73.789062 -37.1875 74.0625 -38.046875 74.0625 -38.953125 C 74.0625 -39.867188 73.859375 -40.664062 73.453125 -41.34375 C 73.046875 -42.019531 72.875 -42.492188 72.9375 -42.765625 C 73.007812 -43.035156 73.195312 -43.171875 73.5 -43.171875 C 73.800781 -43.171875 74.054688 -43.003906 74.265625 -42.671875 C 75.210938 -41.046875 75.6875 -39.503906 75.6875 -38.046875 C 75.6875 -36.585938 75.242188 -35.25 74.359375 -34.03125 C 72.671875 -31.457031 69.796875 -29.390625 65.734375 -27.828125 C 61.671875 -26.273438 57.472656 -25.5 53.140625 -25.5 C 53.003906 -25.5 52.832031 -25.5 52.625 -25.5 C 55.195312 -23.394531 56.484375 -20.71875 56.484375 -17.46875 C 56.484375 -12.9375 53.84375 -8.265625 48.5625 -3.453125 C 46.050781 -1.078125 42.832031 0.851562 38.90625 2.34375 C 34.976562 3.832031 30.847656 4.578125 26.515625 4.578125 C 16.015625 4.578125 8.597656 1.523438 4.265625 -4.578125 C 2.097656 -7.617188 1.015625 -10.5625 1.015625 -13.40625 C 1.015625 -16.25 1.457031 -18.890625 2.34375 -21.328125 C 4.707031 -27.765625 9.476562 -32.742188 16.65625 -36.265625 C 20.789062 -38.296875 25.429688 -39.582031 30.578125 -40.125 C 28.679688 -42.769531 27.75 -46.085938 27.78125 -50.078125 C 27.820312 -54.078125 29.566406 -57.835938 33.015625 -61.359375 C 36.472656 -64.878906 40.453125 -67.4375 44.953125 -69.03125 C 49.460938 -70.625 53.847656 -71.421875 58.109375 -71.421875 C 61.628906 -71.421875 64.625 -70.707031 67.09375 -69.28125 C 69.570312 -67.863281 70.8125 -65.597656 70.8125 -62.484375 C 70.8125 -60.515625 70.203125 -58.769531 68.984375 -57.25 C 67.765625 -55.726562 66.390625 -54.96875 64.859375 -54.96875 C 63.335938 -54.96875 62.117188 -55.421875 61.203125 -56.328125 C 60.296875 -57.242188 59.84375 -58.378906 59.84375 -59.734375 C 59.84375 -61.085938 60.296875 -62.203125 61.203125 -63.078125 C 62.117188 -63.960938 63.1875 -64.40625 64.40625 -64.40625 C 65.21875 -64.40625 65.992188 -64.21875 66.734375 -63.84375 C 67.484375 -63.476562 67.925781 -63.054688 68.0625 -62.578125 C 68.132812 -62.984375 68.171875 -63.390625 68.171875 -63.796875 C 68.171875 -65.285156 67.5625 -66.4375 66.34375 -67.25 C 65.050781 -68.195312 63.117188 -68.671875 60.546875 -68.671875 C 57.972656 -68.671875 54.957031 -67.976562 51.5 -66.59375 C 48.050781 -65.207031 44.800781 -63.191406 41.75 -60.546875 C 38.707031 -57.910156 36.304688 -54.660156 34.546875 -50.796875 C 33.597656 -48.628906 33.125 -46.695312 33.125 -45 C 33.125 -43.3125 33.425781 -41.789062 34.03125 -40.4375 Z M 45.515625 -37.28125 C 45.515625 -38.5 43.007812 -39.109375 38 -39.109375 C 36.976562 -39.109375 35.925781 -39.078125 34.84375 -39.015625 C 36.46875 -36.984375 38.648438 -35.96875 41.390625 -35.96875 C 44.140625 -35.96875 45.515625 -36.40625 45.515625 -37.28125 Z M 45.515625 -37.28125 "/></g></g></g><g fill="#85644c" fill-opacity="1"><g transform="translate(584.477911, 332.400221)"><g/></g></g><g fill="#85644c" fill-opacity="1"><g transform="translate(610.790054, 332.400221)"><g><path d="M 43.78125 -36.375 C 43.78125 -41.039062 41.582031 -43.375 37.1875 -43.375 C 36.570312 -43.375 35.820312 -43.320312 34.9375 -43.21875 C 34.0625 -43.125 33.457031 -43.347656 33.125 -43.890625 C 32.582031 -44.628906 33.460938 -45.132812 35.765625 -45.40625 C 36.578125 -45.539062 37.390625 -45.609375 38.203125 -45.609375 C 42.128906 -45.609375 44.800781 -43.914062 46.21875 -40.53125 C 46.832031 -39.113281 47.140625 -37.300781 47.140625 -35.09375 C 47.140625 -32.894531 46.191406 -30.140625 44.296875 -26.828125 C 40.972656 -20.796875 35.757812 -16.289062 28.65625 -13.3125 C 26.28125 -12.289062 23.820312 -11.78125 21.28125 -11.78125 C 18.738281 -11.78125 16.113281 -12.425781 13.40625 -13.71875 C 8.394531 -16.082031 4.910156 -20.046875 2.953125 -25.609375 C 2.203125 -27.773438 1.828125 -30.5 1.828125 -33.78125 C 1.828125 -37.0625 2.742188 -41.207031 4.578125 -46.21875 C 8.773438 -56.039062 15.679688 -64.40625 25.296875 -71.3125 C 35.585938 -78.769531 45.207031 -82.5 54.15625 -82.5 C 61.738281 -82.5 66.816406 -79.445312 69.390625 -73.34375 C 70.535156 -70.707031 71.109375 -67.523438 71.109375 -63.796875 C 71.109375 -62.578125 71.039062 -61.328125 70.90625 -60.046875 C 70.226562 -54.148438 68.46875 -47.410156 65.625 -39.828125 C 65.15625 -38.535156 64.921875 -37.671875 64.921875 -37.234375 C 64.921875 -36.796875 65.019531 -36.578125 65.21875 -36.578125 C 65.5625 -36.503906 66.140625 -37.210938 66.953125 -38.703125 C 71.960938 -47.847656 77.484375 -56.046875 83.515625 -63.296875 C 85.472656 -65.660156 87.84375 -67.585938 90.625 -69.078125 C 93.664062 -70.703125 96.390625 -71.515625 98.796875 -71.515625 C 101.203125 -71.515625 103.097656 -70.632812 104.484375 -68.875 C 105.878906 -67.113281 106.578125 -64.78125 106.578125 -61.875 C 106.578125 -55.03125 103.898438 -43.617188 98.546875 -27.640625 C 97.460938 -24.453125 96.785156 -22.414062 96.515625 -21.53125 C 102.003906 -30.132812 108.894531 -39.597656 117.1875 -49.921875 C 125.488281 -60.253906 132.851562 -66.367188 139.28125 -68.265625 C 140.4375 -68.609375 141.453125 -68.78125 142.328125 -68.78125 C 144.898438 -68.78125 146.5625 -67.492188 147.3125 -64.921875 C 147.582031 -64.035156 147.71875 -63.019531 147.71875 -61.875 C 147.71875 -58.414062 146.363281 -53.976562 143.65625 -48.5625 C 138.101562 -37.457031 134.3125 -28.617188 132.28125 -22.046875 C 129.5 -13.378906 128.109375 -7.453125 128.109375 -4.265625 C 128.109375 -1.078125 128.414062 1.5625 129.03125 3.65625 C 130.25 7.851562 133.460938 9.953125 138.671875 9.953125 C 138.941406 9.953125 139.5 9.9375 140.34375 9.90625 C 141.195312 9.875 141.671875 10.023438 141.765625 10.359375 C 141.867188 10.703125 141.632812 11.007812 141.0625 11.28125 C 140.488281 11.550781 139.910156 11.6875 139.328125 11.6875 C 138.753906 11.6875 138.300781 11.648438 137.96875 11.578125 C 127.257812 10.492188 121.90625 5.007812 121.90625 -4.875 C 121.90625 -8.46875 122.632812 -12.546875 124.09375 -17.109375 C 125.550781 -21.679688 126.789062 -25.191406 127.8125 -27.640625 C 129.4375 -31.566406 132.851562 -39.25 138.0625 -50.6875 C 139.894531 -54.957031 140.8125 -58.207031 140.8125 -60.4375 C 140.8125 -62.675781 139.863281 -63.796875 137.96875 -63.796875 C 135.320312 -63.796875 131.222656 -61.085938 125.671875 -55.671875 C 122.828125 -52.828125 119.742188 -49.351562 116.421875 -45.25 C 113.109375 -41.15625 108.195312 -33.976562 101.6875 -23.71875 C 95.1875 -13.457031 91.054688 -6.226562 89.296875 -2.03125 C 87.742188 1.625 85.679688 3.453125 83.109375 3.453125 C 81.273438 3.453125 80.191406 2.8125 79.859375 1.53125 C 79.648438 0.988281 79.644531 0.5625 79.84375 0.25 C 80.050781 -0.0507812 80.695312 -1.179688 81.78125 -3.140625 C 82.863281 -5.109375 83.976562 -7.175781 85.125 -9.34375 C 86.28125 -11.507812 87.65625 -14.453125 89.25 -18.171875 C 90.84375 -21.898438 92.316406 -25.695312 93.671875 -29.5625 C 96.921875 -39.113281 99.117188 -48.9375 100.265625 -59.03125 C 100.398438 -60.175781 100.46875 -61.613281 100.46875 -63.34375 C 100.46875 -65.070312 100.007812 -66.441406 99.09375 -67.453125 C 98.1875 -68.472656 97.222656 -68.984375 96.203125 -68.984375 C 92.890625 -68.984375 89.234375 -66.476562 85.234375 -61.46875 C 79.816406 -54.757812 75.109375 -48.171875 71.109375 -41.703125 C 67.117188 -35.234375 64.054688 -29.796875 61.921875 -25.390625 C 59.785156 -20.992188 57.3125 -15.695312 54.5 -9.5 C 51.6875 -3.300781 50.195312 0 50.03125 0.40625 C 49.863281 0.8125 49.625 1.316406 49.3125 1.921875 C 49.007812 2.535156 48.757812 3.113281 48.5625 3.65625 C 47.675781 5.625 45.78125 6.609375 42.875 6.609375 C 41.175781 6.609375 40.257812 6.066406 40.125 4.984375 C 40.125 4.773438 40.160156 4.535156 40.234375 4.265625 C 44.703125 -2.640625 49.644531 -13.101562 55.0625 -27.125 C 61.96875 -44.875 65.421875 -57.8125 65.421875 -65.9375 C 65.421875 -75.625 61.425781 -80.46875 53.4375 -80.46875 C 48.289062 -80.46875 41.804688 -77.992188 33.984375 -73.046875 C 26.160156 -68.097656 19.675781 -61.765625 14.53125 -54.046875 C 12.5 -50.992188 10.972656 -48.046875 9.953125 -45.203125 C 8.191406 -39.992188 7.3125 -35.863281 7.3125 -32.8125 C 7.3125 -24.070312 10.222656 -18.316406 16.046875 -15.546875 C 18.078125 -14.523438 20.144531 -14.015625 22.25 -14.015625 C 29.5625 -14.015625 35.554688 -17.976562 40.234375 -25.90625 C 42.597656 -29.90625 43.78125 -33.394531 43.78125 -36.375 Z M 43.78125 -36.375 "/></g></g></g><g fill="#85644c" fill-opacity="1"><g transform="translate(745.804853, 332.400221)"><g><path d="M 36.671875 -27.53125 C 35.453125 -26.3125 33.722656 -23.550781 31.484375 -19.25 C 29.253906 -14.945312 27.921875 -11.726562 27.484375 -9.59375 C 27.046875 -7.46875 26.828125 -5.742188 26.828125 -4.421875 C 26.828125 -3.097656 27.332031 -2.4375 28.34375 -2.4375 C 29.632812 -2.4375 31.226562 -3.625 33.125 -6 C 35.894531 -9.445312 38.632812 -13.945312 41.34375 -19.5 C 41.613281 -20.113281 41.921875 -20.453125 42.265625 -20.515625 C 42.804688 -20.722656 43.078125 -20.519531 43.078125 -19.90625 C 43.078125 -19.570312 42.972656 -19.164062 42.765625 -18.6875 C 36.535156 -6.09375 31.289062 0.203125 27.03125 0.203125 C 25.0625 0.203125 23.46875 -0.742188 22.25 -2.640625 C 21.632812 -3.660156 21.328125 -5.015625 21.328125 -6.703125 C 21.328125 -8.398438 21.664062 -10.46875 22.34375 -12.90625 C 16.925781 -4.164062 12.253906 0.203125 8.328125 0.203125 C 7.242188 0.203125 6.265625 -0.132812 5.390625 -0.8125 C 3.359375 -2.238281 2.34375 -4.675781 2.34375 -8.125 C 2.34375 -14.757812 5.21875 -21.5 10.96875 -28.34375 C 14.21875 -32.132812 18.210938 -34.609375 22.953125 -35.765625 C 24.242188 -36.097656 25.46875 -36.265625 26.625 -36.265625 C 29.738281 -36.265625 32.378906 -35.179688 34.546875 -33.015625 C 35.222656 -32.273438 35.425781 -31.566406 35.15625 -30.890625 C 34.882812 -30.210938 34.304688 -29.941406 33.421875 -30.078125 C 32.679688 -32.515625 31.054688 -33.734375 28.546875 -33.734375 C 25.628906 -33.734375 22.039062 -31.429688 17.78125 -26.828125 C 15.34375 -24.109375 13.070312 -20.921875 10.96875 -17.265625 C 8.332031 -12.867188 7.015625 -9.347656 7.015625 -6.703125 C 7.015625 -4.066406 7.859375 -2.75 9.546875 -2.75 C 13.609375 -2.75 18.925781 -8.976562 25.5 -21.4375 C 26.789062 -23.9375 27.875 -25.644531 28.75 -26.5625 C 29.632812 -27.476562 30.753906 -27.9375 32.109375 -27.9375 C 32.378906 -27.9375 33.070312 -27.832031 34.1875 -27.625 C 35.300781 -27.425781 36.128906 -27.394531 36.671875 -27.53125 Z M 36.671875 -27.53125 "/></g></g></g><g fill="#85644c" fill-opacity="1"><g transform="translate(781.361819, 332.400221)"><g><path d="M 19.515625 -40.734375 C 19.515625 -37.691406 17.582031 -34.816406 13.71875 -32.109375 C 15.070312 -32.035156 16.882812 -32 19.15625 -32 C 21.425781 -32 24.289062 -32.171875 27.75 -32.515625 C 27.882812 -32.304688 27.953125 -31.757812 27.953125 -30.875 C 27.953125 -30 27.539062 -28.695312 26.71875 -26.96875 C 25.90625 -25.238281 25.175781 -23.75 24.53125 -22.5 C 23.894531 -21.25 23.285156 -20.0625 22.703125 -18.9375 C 22.128906 -17.820312 21.488281 -16.453125 20.78125 -14.828125 C 20.070312 -13.203125 19.476562 -11.710938 19 -10.359375 C 17.3125 -5.210938 17.582031 -2.640625 19.8125 -2.640625 C 22.65625 -2.640625 26.859375 -8.296875 32.421875 -19.609375 C 32.890625 -20.484375 33.273438 -20.816406 33.578125 -20.609375 C 33.890625 -20.410156 34.046875 -20.160156 34.046875 -19.859375 C 34.046875 -19.554688 33.601562 -18.503906 32.71875 -16.703125 C 31.84375 -14.910156 30.894531 -13.066406 29.875 -11.171875 C 28.863281 -9.273438 27.269531 -7.078125 25.09375 -4.578125 C 22.519531 -1.453125 20.050781 0.109375 17.6875 0.109375 C 15.039062 0.109375 13.210938 -1.484375 12.203125 -4.671875 C 11.992188 -5.285156 11.890625 -6.203125 11.890625 -7.421875 C 11.890625 -8.640625 12.28125 -10.265625 13.0625 -12.296875 C 13.84375 -14.328125 15.078125 -16.796875 16.765625 -19.703125 C 18.460938 -22.617188 19.410156 -24.332031 19.609375 -24.84375 C 19.816406 -25.351562 19.921875 -25.84375 19.921875 -26.3125 C 19.921875 -28.414062 17.210938 -29.535156 11.796875 -29.671875 L 10.578125 -26.421875 C 6.304688 -15.242188 2.207031 -7.757812 -1.71875 -3.96875 C -2.394531 -3.351562 -2.734375 -3.554688 -2.734375 -4.578125 C -2.734375 -4.773438 -2.664062 -5.007812 -2.53125 -5.28125 C 1.257812 -10.289062 4.539062 -16.21875 7.3125 -23.0625 C 10.09375 -29.90625 12.023438 -36.40625 13.109375 -42.5625 C 13.515625 -44.664062 14.460938 -45.71875 15.953125 -45.71875 C 17.441406 -45.71875 18.523438 -44.769531 19.203125 -42.875 C 19.410156 -42.257812 19.515625 -41.546875 19.515625 -40.734375 Z M 19.515625 -40.734375 "/></g></g></g><g fill="#85644c" fill-opacity="1"><g transform="translate(807.775536, 332.400221)"><g><path d="M 16.09375 -4.71875 C 15.113281 -3.601562 13.878906 -2.535156 12.390625 -1.515625 C 10.898438 -0.503906 9.207031 0 7.3125 0 C 5.414062 0 3.890625 -0.742188 2.734375 -2.234375 C 1.585938 -3.722656 1.015625 -5.46875 1.015625 -7.46875 C 1.015625 -9.46875 1.523438 -11.378906 2.546875 -13.203125 L 11.375 -30.078125 C 12.664062 -32.578125 13.515625 -34.015625 13.921875 -34.390625 C 14.328125 -34.765625 15.304688 -34.953125 16.859375 -34.953125 L 22.046875 -34.953125 C 21.910156 -34.816406 21.570312 -34.546875 21.03125 -34.140625 C 19.8125 -33.328125 18.894531 -32.378906 18.28125 -31.296875 C 13.070312 -22.828125 9.550781 -16.253906 7.71875 -11.578125 C 6.5 -8.941406 5.890625 -6.773438 5.890625 -5.078125 C 5.890625 -3.179688 6.972656 -2.234375 9.140625 -2.234375 L 13.109375 -4.171875 C 15.816406 -6.804688 19 -11.914062 22.65625 -19.5 C 23.195312 -20.519531 23.671875 -20.84375 24.078125 -20.46875 C 24.484375 -20.09375 24.328125 -19.175781 23.609375 -17.71875 C 22.898438 -16.269531 22.34375 -15.140625 21.9375 -14.328125 C 21.53125 -13.515625 20.703125 -11.988281 19.453125 -9.75 C 18.203125 -7.519531 17.082031 -5.84375 16.09375 -4.71875 Z M 19.5 -42.15625 C 19.4375 -42.15625 19.316406 -42.207031 19.140625 -42.3125 C 18.972656 -42.414062 18.890625 -42.582031 18.890625 -42.8125 C 18.890625 -43.050781 18.957031 -43.269531 19.09375 -43.46875 C 19.226562 -43.675781 20.191406 -44.457031 21.984375 -45.8125 C 23.785156 -47.164062 25.734375 -48.570312 27.828125 -50.03125 C 29.929688 -51.488281 31.457031 -52.570312 32.40625 -53.28125 C 33.351562 -54 34.285156 -54.359375 35.203125 -54.359375 C 36.117188 -54.359375 36.929688 -54.1875 37.640625 -53.84375 C 38.347656 -53.507812 38.703125 -53.085938 38.703125 -52.578125 C 38.703125 -52.066406 38.601562 -51.609375 38.40625 -51.203125 C 38.0625 -50.390625 35.007812 -48.675781 29.25 -46.0625 C 23.5 -43.457031 20.25 -42.15625 19.5 -42.15625 Z M 19.5 -42.15625 "/></g></g></g><g fill="#85644c" fill-opacity="1"><g transform="translate(824.842858, 332.400221)"><g><path d="M 36.671875 -27.53125 C 35.453125 -26.3125 33.722656 -23.550781 31.484375 -19.25 C 29.253906 -14.945312 27.921875 -11.726562 27.484375 -9.59375 C 27.046875 -7.46875 26.828125 -5.742188 26.828125 -4.421875 C 26.828125 -3.097656 27.332031 -2.4375 28.34375 -2.4375 C 29.632812 -2.4375 31.226562 -3.625 33.125 -6 C 35.894531 -9.445312 38.632812 -13.945312 41.34375 -19.5 C 41.613281 -20.113281 41.921875 -20.453125 42.265625 -20.515625 C 42.804688 -20.722656 43.078125 -20.519531 43.078125 -19.90625 C 43.078125 -19.570312 42.972656 -19.164062 42.765625 -18.6875 C 36.535156 -6.09375 31.289062 0.203125 27.03125 0.203125 C 25.0625 0.203125 23.46875 -0.742188 22.25 -2.640625 C 21.632812 -3.660156 21.328125 -5.015625 21.328125 -6.703125 C 21.328125 -8.398438 21.664062 -10.46875 22.34375 -12.90625 C 16.925781 -4.164062 12.253906 0.203125 8.328125 0.203125 C 7.242188 0.203125 6.265625 -0.132812 5.390625 -0.8125 C 3.359375 -2.238281 2.34375 -4.675781 2.34375 -8.125 C 2.34375 -14.757812 5.21875 -21.5 10.96875 -28.34375 C 14.21875 -32.132812 18.210938 -34.609375 22.953125 -35.765625 C 24.242188 -36.097656 25.46875 -36.265625 26.625 -36.265625 C 29.738281 -36.265625 32.378906 -35.179688 34.546875 -33.015625 C 35.222656 -32.273438 35.425781 -31.566406 35.15625 -30.890625 C 34.882812 -30.210938 34.304688 -29.941406 33.421875 -30.078125 C 32.679688 -32.515625 31.054688 -33.734375 28.546875 -33.734375 C 25.628906 -33.734375 22.039062 -31.429688 17.78125 -26.828125 C 15.34375 -24.109375 13.070312 -20.921875 10.96875 -17.265625 C 8.332031 -12.867188 7.015625 -9.347656 7.015625 -6.703125 C 7.015625 -4.066406 7.859375 -2.75 9.546875 -2.75 C 13.609375 -2.75 18.925781 -8.976562 25.5 -21.4375 C 26.789062 -23.9375 27.875 -25.644531 28.75 -26.5625 C 29.632812 -27.476562 30.753906 -27.9375 32.109375 -27.9375 C 32.378906 -27.9375 33.070312 -27.832031 34.1875 -27.625 C 35.300781 -27.425781 36.128906 -27.394531 36.671875 -27.53125 Z M 36.671875 -27.53125 "/></g></g></g><g fill="#85644c" fill-opacity="1"><g transform="translate(360.532064, 201.910474)"><g><path d="M -2.984375 -19.703125 C -2.492188 -19.898438 -2.007812 -19.898438 -1.53125 -19.703125 C -1.050781 -19.503906 -0.710938 -19.160156 -0.515625 -18.671875 C -0.316406 -18.191406 -0.316406 -17.710938 -0.515625 -17.234375 C -0.710938 -16.753906 -1.054688 -16.414062 -1.546875 -16.21875 C -2.046875 -16.007812 -2.539062 -16.003906 -3.03125 -16.203125 C -3.519531 -16.398438 -3.863281 -16.738281 -4.0625 -17.21875 C -4.257812 -17.707031 -4.253906 -18.191406 -4.046875 -18.671875 C -3.835938 -19.148438 -3.484375 -19.492188 -2.984375 -19.703125 Z M 7.953125 2.8125 L 5.109375 3.96875 L -0.953125 -12.046875 L 0.90625 -12.8125 Z M 7.953125 2.8125 "/></g></g></g><g fill="#85644c" fill-opacity="1"><g transform="translate(370.210755, 197.65849)"><g><path d="M 15.625 -32.5625 L 24.078125 -8.453125 L 21.96875 -7.703125 L -0.390625 -21.828125 L 6.46875 -2.265625 L 3.921875 -1.375 L -4.53125 -25.484375 L -2.421875 -26.21875 L 19.953125 -12.109375 L 13.09375 -31.671875 Z M 15.625 -32.5625 "/></g></g></g><g fill="#85644c" fill-opacity="1"><g transform="translate(398.914485, 187.595941)"><g><path d="M 14.890625 -3.6875 C 12.441406 -3.039062 10.078125 -3 7.796875 -3.5625 C 5.515625 -4.132812 3.5625 -5.226562 1.9375 -6.84375 C 0.320312 -8.46875 -0.796875 -10.46875 -1.421875 -12.84375 C -2.046875 -15.21875 -2.050781 -17.503906 -1.4375 -19.703125 C -0.820312 -21.898438 0.332031 -23.804688 2.03125 -25.421875 C 3.738281 -27.046875 5.816406 -28.179688 8.265625 -28.828125 C 10.710938 -29.472656 13.0625 -29.507812 15.3125 -28.9375 C 17.5625 -28.375 19.5 -27.28125 21.125 -25.65625 C 22.757812 -24.039062 23.890625 -22.046875 24.515625 -19.671875 C 25.140625 -17.296875 25.140625 -15 24.515625 -12.78125 C 23.898438 -10.5625 22.753906 -8.648438 21.078125 -7.046875 C 19.398438 -5.453125 17.335938 -4.332031 14.890625 -3.6875 Z M 14.265625 -6.015625 C 16.210938 -6.523438 17.859375 -7.429688 19.203125 -8.734375 C 20.554688 -10.035156 21.472656 -11.582031 21.953125 -13.375 C 22.441406 -15.175781 22.429688 -17.046875 21.921875 -18.984375 C 21.410156 -20.910156 20.5 -22.535156 19.1875 -23.859375 C 17.882812 -25.191406 16.328125 -26.09375 14.515625 -26.5625 C 12.703125 -27.03125 10.820312 -27.007812 8.875 -26.5 C 6.914062 -25.976562 5.257812 -25.066406 3.90625 -23.765625 C 2.550781 -22.460938 1.625 -20.910156 1.125 -19.109375 C 0.632812 -17.304688 0.644531 -15.441406 1.15625 -13.515625 C 1.664062 -11.578125 2.578125 -9.945312 3.890625 -8.625 C 5.210938 -7.300781 6.78125 -6.40625 8.59375 -5.9375 C 10.414062 -5.46875 12.304688 -5.492188 14.265625 -6.015625 Z M 14.265625 -6.015625 "/></g></g></g><g fill="#85644c" fill-opacity="1"><g transform="translate(429.39163, 179.749967)"><g><path d="M 11.0625 -1.859375 C 9.195312 -1.503906 7.351562 -1.460938 5.53125 -1.734375 C 3.707031 -2.015625 2.234375 -2.5625 1.109375 -3.375 L 1.765625 -5.609375 C 2.835938 -4.867188 4.179688 -4.359375 5.796875 -4.078125 C 7.410156 -3.804688 9.019531 -3.820312 10.625 -4.125 C 12.875 -4.550781 14.476562 -5.28125 15.4375 -6.3125 C 16.40625 -7.34375 16.769531 -8.519531 16.53125 -9.84375 C 16.332031 -10.84375 15.875 -11.582031 15.15625 -12.0625 C 14.4375 -12.550781 13.601562 -12.875 12.65625 -13.03125 C 11.707031 -13.1875 10.410156 -13.304688 8.765625 -13.390625 C 6.785156 -13.515625 5.191406 -13.691406 3.984375 -13.921875 C 2.773438 -14.148438 1.679688 -14.644531 0.703125 -15.40625 C -0.265625 -16.164062 -0.894531 -17.320312 -1.1875 -18.875 C -1.425781 -20.144531 -1.304688 -21.359375 -0.828125 -22.515625 C -0.359375 -23.679688 0.503906 -24.703125 1.765625 -25.578125 C 3.035156 -26.460938 4.703125 -27.097656 6.765625 -27.484375 C 8.203125 -27.753906 9.644531 -27.820312 11.09375 -27.6875 C 12.539062 -27.5625 13.832031 -27.25 14.96875 -26.75 L 14.46875 -24.46875 C 13.289062 -24.957031 12.066406 -25.257812 10.796875 -25.375 C 9.535156 -25.5 8.332031 -25.453125 7.1875 -25.234375 C 4.988281 -24.828125 3.410156 -24.09375 2.453125 -23.03125 C 1.503906 -21.96875 1.160156 -20.765625 1.421875 -19.421875 C 1.609375 -18.421875 2.0625 -17.671875 2.78125 -17.171875 C 3.507812 -16.679688 4.363281 -16.363281 5.34375 -16.21875 C 6.320312 -16.070312 7.628906 -15.957031 9.265625 -15.875 C 11.191406 -15.75 12.765625 -15.578125 13.984375 -15.359375 C 15.210938 -15.140625 16.300781 -14.65625 17.25 -13.90625 C 18.207031 -13.15625 18.832031 -12.007812 19.125 -10.46875 C 19.363281 -9.207031 19.238281 -7.988281 18.75 -6.8125 C 18.269531 -5.644531 17.378906 -4.625 16.078125 -3.75 C 14.785156 -2.875 13.113281 -2.242188 11.0625 -1.859375 Z M 11.0625 -1.859375 "/></g></g></g><g fill="#85644c" fill-opacity="1"><g transform="translate(452.639727, 175.534687)"><g/></g></g><g fill="#85644c" fill-opacity="1"><g transform="translate(463.199131, 173.845246)"><g><path d="M 15.203125 -1.1875 C 12.691406 -0.957031 10.367188 -1.304688 8.234375 -2.234375 C 6.109375 -3.160156 4.375 -4.554688 3.03125 -6.421875 C 1.695312 -8.285156 0.914062 -10.441406 0.6875 -12.890625 C 0.457031 -15.335938 0.828125 -17.601562 1.796875 -19.6875 C 2.773438 -21.769531 4.226562 -23.460938 6.15625 -24.765625 C 8.09375 -26.066406 10.320312 -26.835938 12.84375 -27.078125 C 14.726562 -27.242188 16.5 -27.085938 18.15625 -26.609375 C 19.820312 -26.128906 21.265625 -25.335938 22.484375 -24.234375 L 20.953125 -22.359375 C 18.773438 -24.191406 16.171875 -24.96875 13.140625 -24.6875 C 11.140625 -24.5 9.351562 -23.867188 7.78125 -22.796875 C 6.21875 -21.722656 5.046875 -20.34375 4.265625 -18.65625 C 3.484375 -16.96875 3.179688 -15.128906 3.359375 -13.140625 C 3.546875 -11.148438 4.179688 -9.398438 5.265625 -7.890625 C 6.347656 -6.390625 7.753906 -5.25 9.484375 -4.46875 C 11.222656 -3.695312 13.09375 -3.40625 15.09375 -3.59375 C 18.15625 -3.875 20.570312 -5.128906 22.34375 -7.359375 L 24.203125 -5.8125 C 23.203125 -4.5 21.925781 -3.441406 20.375 -2.640625 C 18.820312 -1.847656 17.097656 -1.363281 15.203125 -1.1875 Z M 15.203125 -1.1875 "/></g></g></g><g fill="#85644c" fill-opacity="1"><g transform="translate(490.191859, 171.367405)"><g><path d="M 20.03125 -7.28125 L 5.796875 -6.96875 L 2.890625 -0.0625 L 0.078125 0 L 11.171875 -25.8125 L 13.84375 -25.875 L 26.09375 -0.59375 L 23.25 -0.53125 Z M 19 -9.453125 L 12.546875 -23.03125 L 6.734375 -9.171875 Z M 19 -9.453125 "/></g></g></g><g fill="#85644c" fill-opacity="1"><g transform="translate(517.277028, 170.847013)"><g><path d="M 11.171875 0.703125 C 9.285156 0.617188 7.484375 0.238281 5.765625 -0.4375 C 4.054688 -1.125 2.753906 -1.988281 1.859375 -3.03125 L 3 -5.0625 C 3.875 -4.101562 5.066406 -3.300781 6.578125 -2.65625 C 8.085938 -2.019531 9.65625 -1.664062 11.28125 -1.59375 C 13.570312 -1.5 15.304688 -1.847656 16.484375 -2.640625 C 17.660156 -3.429688 18.273438 -4.5 18.328125 -5.84375 C 18.367188 -6.863281 18.09375 -7.6875 17.5 -8.3125 C 16.90625 -8.945312 16.164062 -9.445312 15.28125 -9.8125 C 14.394531 -10.175781 13.160156 -10.585938 11.578125 -11.046875 C 9.691406 -11.609375 8.179688 -12.140625 7.046875 -12.640625 C 5.921875 -13.140625 4.972656 -13.867188 4.203125 -14.828125 C 3.429688 -15.796875 3.078125 -17.070312 3.140625 -18.65625 C 3.203125 -19.945312 3.59375 -21.101562 4.3125 -22.125 C 5.03125 -23.15625 6.109375 -23.953125 7.546875 -24.515625 C 8.984375 -25.078125 10.75 -25.316406 12.84375 -25.234375 C 14.300781 -25.171875 15.71875 -24.910156 17.09375 -24.453125 C 18.476562 -23.992188 19.664062 -23.390625 20.65625 -22.640625 L 19.65625 -20.546875 C 18.613281 -21.285156 17.488281 -21.859375 16.28125 -22.265625 C 15.082031 -22.671875 13.898438 -22.898438 12.734375 -22.953125 C 10.503906 -23.046875 8.804688 -22.679688 7.640625 -21.859375 C 6.472656 -21.046875 5.863281 -19.957031 5.8125 -18.59375 C 5.757812 -17.570312 6.03125 -16.738281 6.625 -16.09375 C 7.21875 -15.445312 7.972656 -14.941406 8.890625 -14.578125 C 9.816406 -14.210938 11.0625 -13.800781 12.625 -13.34375 C 14.476562 -12.789062 15.972656 -12.265625 17.109375 -11.765625 C 18.242188 -11.273438 19.191406 -10.554688 19.953125 -9.609375 C 20.722656 -8.660156 21.070312 -7.410156 21 -5.859375 C 20.945312 -4.566406 20.550781 -3.40625 19.8125 -2.375 C 19.070312 -1.351562 17.96875 -0.5625 16.5 0 C 15.039062 0.550781 13.265625 0.785156 11.171875 0.703125 Z M 11.171875 0.703125 "/></g></g></g><g fill="#85644c" fill-opacity="1"><g transform="translate(540.628495, 171.816565)"><g><path d="M 20.796875 -4.609375 L 6.65625 -6.140625 L 2.875 0.3125 L 0.078125 0.015625 L 14.453125 -24.125 L 17.109375 -23.828125 L 25.9375 2.8125 L 23.109375 2.515625 Z M 20.0625 -6.890625 L 15.4375 -21.1875 L 7.859375 -8.21875 Z M 20.0625 -6.890625 "/></g></g></g><g fill="#85644c" fill-opacity="1"><g transform="translate(567.395235, 174.576635)"><g><path d="M 34.953125 -19.328125 L 30.15625 5.765625 L 27.609375 5.28125 L 31.453125 -14.796875 L 18.34375 0.203125 L 17.109375 -0.03125 L 10.453125 -18.703125 L 6.625 1.265625 L 4.078125 0.78125 L 8.875 -24.3125 L 11.078125 -23.890625 L 18.421875 -3.203125 L 32.765625 -19.734375 Z M 34.953125 -19.328125 "/></g></g></g><g fill="#85644c" fill-opacity="1"><g transform="translate(602.254732, 181.371562)"><g><path d="M 14.6875 4.375 C 12.25 3.6875 10.191406 2.519531 8.515625 0.875 C 6.847656 -0.769531 5.722656 -2.695312 5.140625 -4.90625 C 4.566406 -7.125 4.617188 -9.414062 5.296875 -11.78125 C 5.960938 -14.144531 7.117188 -16.117188 8.765625 -17.703125 C 10.421875 -19.285156 12.390625 -20.335938 14.671875 -20.859375 C 16.960938 -21.390625 19.328125 -21.3125 21.765625 -20.625 C 24.203125 -19.9375 26.242188 -18.773438 27.890625 -17.140625 C 29.535156 -15.515625 30.648438 -13.585938 31.234375 -11.359375 C 31.828125 -9.140625 31.789062 -6.847656 31.125 -4.484375 C 30.445312 -2.117188 29.273438 -0.140625 27.609375 1.453125 C 25.953125 3.046875 23.992188 4.101562 21.734375 4.625 C 19.472656 5.144531 17.125 5.0625 14.6875 4.375 Z M 15.34375 2.0625 C 17.289062 2.613281 19.171875 2.671875 20.984375 2.234375 C 22.804688 1.804688 24.378906 0.941406 25.703125 -0.359375 C 27.035156 -1.671875 27.976562 -3.289062 28.53125 -5.21875 C 29.070312 -7.132812 29.113281 -8.992188 28.65625 -10.796875 C 28.207031 -12.609375 27.320312 -14.175781 26 -15.5 C 24.6875 -16.820312 23.054688 -17.757812 21.109375 -18.3125 C 19.160156 -18.863281 17.269531 -18.921875 15.4375 -18.484375 C 13.613281 -18.054688 12.03125 -17.191406 10.6875 -15.890625 C 9.351562 -14.585938 8.414062 -12.976562 7.875 -11.0625 C 7.320312 -9.132812 7.273438 -7.265625 7.734375 -5.453125 C 8.203125 -3.640625 9.097656 -2.070312 10.421875 -0.75 C 11.753906 0.570312 13.394531 1.507812 15.34375 2.0625 Z M 15.34375 2.0625 "/></g></g></g><g fill="#85644c" fill-opacity="1"><g transform="translate(632.489185, 190.106103)"><g><path d="M 10.453125 4.015625 C 8.671875 3.367188 7.066406 2.460938 5.640625 1.296875 C 4.210938 0.128906 3.222656 -1.082031 2.671875 -2.34375 L 4.375 -3.9375 C 4.925781 -2.757812 5.828125 -1.632812 7.078125 -0.5625 C 8.328125 0.5 9.710938 1.304688 11.234375 1.859375 C 13.390625 2.628906 15.144531 2.8125 16.5 2.40625 C 17.863281 2.007812 18.773438 1.179688 19.234375 -0.078125 C 19.578125 -1.035156 19.5625 -1.90625 19.1875 -2.6875 C 18.8125 -3.476562 18.253906 -4.175781 17.515625 -4.78125 C 16.785156 -5.394531 15.734375 -6.160156 14.359375 -7.078125 C 12.722656 -8.179688 11.441406 -9.140625 10.515625 -9.953125 C 9.585938 -10.765625 8.894531 -11.742188 8.4375 -12.890625 C 7.988281 -14.046875 8.035156 -15.367188 8.578125 -16.859375 C 9.015625 -18.066406 9.726562 -19.050781 10.71875 -19.8125 C 11.71875 -20.582031 12.988281 -21.023438 14.53125 -21.140625 C 16.070312 -21.253906 17.828125 -20.957031 19.796875 -20.25 C 21.171875 -19.75 22.445312 -19.070312 23.625 -18.21875 C 24.8125 -17.363281 25.765625 -16.429688 26.484375 -15.421875 L 24.90625 -13.71875 C 24.132812 -14.738281 23.234375 -15.617188 22.203125 -16.359375 C 21.179688 -17.109375 20.117188 -17.6875 19.015625 -18.09375 C 16.910156 -18.851562 15.179688 -19.015625 13.828125 -18.578125 C 12.472656 -18.148438 11.5625 -17.289062 11.09375 -16 C 10.75 -15.039062 10.765625 -14.164062 11.140625 -13.375 C 11.515625 -12.582031 12.082031 -11.875 12.84375 -11.25 C 13.613281 -10.625 14.679688 -9.859375 16.046875 -8.953125 C 17.640625 -7.878906 18.90625 -6.9375 19.84375 -6.125 C 20.78125 -5.3125 21.472656 -4.335938 21.921875 -3.203125 C 22.367188 -2.066406 22.328125 -0.765625 21.796875 0.703125 C 21.359375 1.910156 20.632812 2.894531 19.625 3.65625 C 18.613281 4.414062 17.320312 4.84375 15.75 4.9375 C 14.1875 5.03125 12.421875 4.722656 10.453125 4.015625 Z M 10.453125 4.015625 "/></g></g></g><g fill="#85644c" fill-opacity="1"><g transform="translate(654.653932, 198.292524)"><g><path d="M 12.703125 -22.390625 L 15.546875 -21.234375 L 8.21875 -4.90625 L 6.359375 -5.671875 Z M 4.3125 1.984375 C 3.8125 1.773438 3.457031 1.425781 3.25 0.9375 C 3.050781 0.445312 3.050781 -0.0351562 3.25 -0.515625 C 3.445312 -1.003906 3.78125 -1.34375 4.25 -1.53125 C 4.726562 -1.726562 5.226562 -1.71875 5.75 -1.5 C 6.238281 -1.300781 6.582031 -0.96875 6.78125 -0.5 C 6.988281 -0.03125 6.992188 0.445312 6.796875 0.9375 C 6.597656 1.414062 6.253906 1.757812 5.765625 1.96875 C 5.285156 2.175781 4.800781 2.179688 4.3125 1.984375 Z M 4.3125 1.984375 "/></g></g></g><g fill="#85644c" fill-opacity="1"><g transform="translate(368.251145, 433.626827)"><g><path d="M 8.421875 0.203125 C 7.023438 0.203125 5.785156 -0.148438 4.703125 -0.859375 C 3.617188 -1.578125 2.765625 -2.617188 2.140625 -3.984375 C 1.515625 -5.347656 1.203125 -6.960938 1.203125 -8.828125 C 1.203125 -10.691406 1.515625 -12.300781 2.140625 -13.65625 C 2.765625 -15.019531 3.617188 -16.054688 4.703125 -16.765625 C 5.785156 -17.484375 7.023438 -17.84375 8.421875 -17.84375 C 9.796875 -17.84375 11.023438 -17.484375 12.109375 -16.765625 C 13.191406 -16.054688 14.039062 -15.019531 14.65625 -13.65625 C 15.28125 -12.300781 15.59375 -10.691406 15.59375 -8.828125 C 15.59375 -6.960938 15.28125 -5.347656 14.65625 -3.984375 C 14.039062 -2.617188 13.191406 -1.578125 12.109375 -0.859375 C 11.023438 -0.148438 9.796875 0.203125 8.421875 0.203125 Z M 8.421875 -2.046875 C 9.828125 -2.046875 10.953125 -2.625 11.796875 -3.78125 C 12.648438 -4.9375 13.078125 -6.617188 13.078125 -8.828125 C 13.078125 -11.023438 12.648438 -12.703125 11.796875 -13.859375 C 10.953125 -15.015625 9.828125 -15.59375 8.421875 -15.59375 C 6.992188 -15.59375 5.851562 -15.015625 5 -13.859375 C 4.15625 -12.703125 3.734375 -11.023438 3.734375 -8.828125 C 3.734375 -6.617188 4.15625 -4.9375 5 -3.78125 C 5.851562 -2.625 6.992188 -2.046875 8.421875 -2.046875 Z M 8.421875 -2.046875 "/></g></g></g><g fill="#85644c" fill-opacity="1"><g transform="translate(386.272984, 433.626827)"><g><path d="M 8.828125 -10.71875 C 9.984375 -10.71875 11.019531 -10.5 11.9375 -10.0625 C 12.851562 -9.625 13.570312 -8.992188 14.09375 -8.171875 C 14.613281 -7.359375 14.875 -6.425781 14.875 -5.375 C 14.875 -4.257812 14.597656 -3.28125 14.046875 -2.4375 C 13.503906 -1.601562 12.757812 -0.953125 11.8125 -0.484375 C 10.863281 -0.0234375 9.800781 0.203125 8.625 0.203125 C 6.25 0.203125 4.414062 -0.5625 3.125 -2.09375 C 1.84375 -3.625 1.203125 -5.789062 1.203125 -8.59375 C 1.203125 -10.5625 1.550781 -12.238281 2.25 -13.625 C 2.945312 -15.007812 3.921875 -16.054688 5.171875 -16.765625 C 6.429688 -17.484375 7.890625 -17.84375 9.546875 -17.84375 C 10.410156 -17.84375 11.21875 -17.753906 11.96875 -17.578125 C 12.726562 -17.398438 13.382812 -17.144531 13.9375 -16.8125 L 12.984375 -14.84375 C 12.140625 -15.394531 11.015625 -15.671875 9.609375 -15.671875 C 7.773438 -15.671875 6.335938 -15.101562 5.296875 -13.96875 C 4.253906 -12.84375 3.734375 -11.191406 3.734375 -9.015625 C 3.734375 -8.753906 3.738281 -8.546875 3.75 -8.390625 C 4.257812 -9.148438 4.953125 -9.726562 5.828125 -10.125 C 6.710938 -10.519531 7.710938 -10.71875 8.828125 -10.71875 Z M 8.515625 -1.84375 C 9.671875 -1.84375 10.609375 -2.148438 11.328125 -2.765625 C 12.054688 -3.390625 12.421875 -4.222656 12.421875 -5.265625 C 12.421875 -6.304688 12.054688 -7.132812 11.328125 -7.75 C 10.597656 -8.363281 9.617188 -8.671875 8.390625 -8.671875 C 7.597656 -8.671875 6.894531 -8.519531 6.28125 -8.21875 C 5.675781 -7.914062 5.195312 -7.503906 4.84375 -6.984375 C 4.5 -6.460938 4.328125 -5.882812 4.328125 -5.25 C 4.328125 -4.625 4.488281 -4.050781 4.8125 -3.53125 C 5.144531 -3.019531 5.625 -2.609375 6.25 -2.296875 C 6.882812 -1.992188 7.640625 -1.84375 8.515625 -1.84375 Z M 8.515625 -1.84375 "/></g></g></g><g fill="#85644c" fill-opacity="1"><g transform="translate(403.034563, 433.626827)"><g/></g></g><g fill="#85644c" fill-opacity="1"><g transform="translate(411.024741, 433.626827)"><g><path d="M 2.640625 -17.640625 L 10.078125 -17.640625 C 11.941406 -17.640625 13.597656 -17.269531 15.046875 -16.53125 C 16.492188 -15.789062 17.613281 -14.753906 18.40625 -13.421875 C 19.207031 -12.085938 19.609375 -10.554688 19.609375 -8.828125 C 19.609375 -7.085938 19.207031 -5.550781 18.40625 -4.21875 C 17.613281 -2.882812 16.492188 -1.847656 15.046875 -1.109375 C 13.597656 -0.367188 11.941406 0 10.078125 0 L 2.640625 0 Z M 9.9375 -2.1875 C 11.363281 -2.1875 12.617188 -2.460938 13.703125 -3.015625 C 14.785156 -3.578125 15.617188 -4.359375 16.203125 -5.359375 C 16.796875 -6.359375 17.09375 -7.515625 17.09375 -8.828125 C 17.09375 -10.128906 16.796875 -11.28125 16.203125 -12.28125 C 15.617188 -13.28125 14.785156 -14.054688 13.703125 -14.609375 C 12.617188 -15.171875 11.363281 -15.453125 9.9375 -15.453125 L 5.171875 -15.453125 L 5.171875 -2.1875 Z M 9.9375 -2.1875 "/></g></g></g><g fill="#85644c" fill-opacity="1"><g transform="translate(433.054201, 433.626827)"><g><path d="M 15.453125 -2.1875 L 15.453125 0 L 2.640625 0 L 2.640625 -17.640625 L 15.09375 -17.640625 L 15.09375 -15.453125 L 5.171875 -15.453125 L 5.171875 -10.03125 L 14.015625 -10.03125 L 14.015625 -7.890625 L 5.171875 -7.890625 L 5.171875 -2.1875 Z M 15.453125 -2.1875 "/></g></g></g><g fill="#85644c" fill-opacity="1"><g transform="translate(451.151656, 433.626827)"><g/></g></g><g fill="#85644c" fill-opacity="1"><g transform="translate(459.141835, 433.626827)"><g><path d="M 13.890625 -4.40625 L 4.515625 -4.40625 L 2.578125 0 L -0.03125 0 L 7.96875 -17.640625 L 10.453125 -17.640625 L 18.46875 0 L 15.828125 0 Z M 13 -6.421875 L 9.203125 -15.078125 L 5.390625 -6.421875 Z M 13 -6.421875 "/></g></g></g><g fill="#85644c" fill-opacity="1"><g transform="translate(478.802014, 433.626827)"><g><path d="M 14.515625 -9.15625 C 15.535156 -8.863281 16.335938 -8.34375 16.921875 -7.59375 C 17.515625 -6.851562 17.8125 -5.910156 17.8125 -4.765625 C 17.8125 -3.234375 17.234375 -2.054688 16.078125 -1.234375 C 14.929688 -0.410156 13.257812 0 11.0625 0 L 2.640625 0 L 2.640625 -17.640625 L 10.5625 -17.640625 C 12.570312 -17.640625 14.128906 -17.234375 15.234375 -16.421875 C 16.335938 -15.617188 16.890625 -14.503906 16.890625 -13.078125 C 16.890625 -12.148438 16.671875 -11.347656 16.234375 -10.671875 C 15.804688 -10.003906 15.234375 -9.5 14.515625 -9.15625 Z M 5.171875 -15.59375 L 5.171875 -9.953125 L 10.328125 -9.953125 C 11.628906 -9.953125 12.625 -10.191406 13.3125 -10.671875 C 14.007812 -11.148438 14.359375 -11.851562 14.359375 -12.78125 C 14.359375 -13.707031 14.007812 -14.40625 13.3125 -14.875 C 12.625 -15.351562 11.628906 -15.59375 10.328125 -15.59375 Z M 10.96875 -2.046875 C 12.394531 -2.046875 13.46875 -2.28125 14.1875 -2.75 C 14.90625 -3.21875 15.265625 -3.957031 15.265625 -4.96875 C 15.265625 -6.925781 13.832031 -7.90625 10.96875 -7.90625 L 5.171875 -7.90625 L 5.171875 -2.046875 Z M 10.96875 -2.046875 "/></g></g></g><g fill="#85644c" fill-opacity="1"><g transform="translate(499.092318, 433.626827)"><g><path d="M 14.4375 0 L 10.640625 -5.421875 C 10.171875 -5.390625 9.800781 -5.375 9.53125 -5.375 L 5.171875 -5.375 L 5.171875 0 L 2.640625 0 L 2.640625 -17.640625 L 9.53125 -17.640625 C 11.8125 -17.640625 13.609375 -17.09375 14.921875 -16 C 16.234375 -14.90625 16.890625 -13.40625 16.890625 -11.5 C 16.890625 -10.132812 16.550781 -8.972656 15.875 -8.015625 C 15.207031 -7.054688 14.25 -6.359375 13 -5.921875 L 17.1875 0 Z M 9.453125 -7.515625 C 11.046875 -7.515625 12.257812 -7.859375 13.09375 -8.546875 C 13.9375 -9.234375 14.359375 -10.21875 14.359375 -11.5 C 14.359375 -12.769531 13.9375 -13.742188 13.09375 -14.421875 C 12.257812 -15.109375 11.046875 -15.453125 9.453125 -15.453125 L 5.171875 -15.453125 L 5.171875 -7.515625 Z M 9.453125 -7.515625 "/></g></g></g><g fill="#85644c" fill-opacity="1"><g transform="translate(518.626469, 433.626827)"><g><path d="M 2.640625 -17.640625 L 5.171875 -17.640625 L 5.171875 0 L 2.640625 0 Z M 2.640625 -17.640625 "/></g></g></g><g fill="#85644c" fill-opacity="1"><g transform="translate(527.650056, 433.626827)"><g><path d="M 2.640625 -17.640625 L 5.171875 -17.640625 L 5.171875 -2.1875 L 14.71875 -2.1875 L 14.71875 0 L 2.640625 0 Z M 2.640625 -17.640625 "/></g></g></g><g fill="#85644c" fill-opacity="1"><g transform="translate(543.831918, 433.626827)"><g/></g></g><g fill="#85644c" fill-opacity="1"><g transform="translate(551.822096, 433.626827)"><g><path d="M 2.640625 -17.640625 L 10.078125 -17.640625 C 11.941406 -17.640625 13.597656 -17.269531 15.046875 -16.53125 C 16.492188 -15.789062 17.613281 -14.753906 18.40625 -13.421875 C 19.207031 -12.085938 19.609375 -10.554688 19.609375 -8.828125 C 19.609375 -7.085938 19.207031 -5.550781 18.40625 -4.21875 C 17.613281 -2.882812 16.492188 -1.847656 15.046875 -1.109375 C 13.597656 -0.367188 11.941406 0 10.078125 0 L 2.640625 0 Z M 9.9375 -2.1875 C 11.363281 -2.1875 12.617188 -2.460938 13.703125 -3.015625 C 14.785156 -3.578125 15.617188 -4.359375 16.203125 -5.359375 C 16.796875 -6.359375 17.09375 -7.515625 17.09375 -8.828125 C 17.09375 -10.128906 16.796875 -11.28125 16.203125 -12.28125 C 15.617188 -13.28125 14.785156 -14.054688 13.703125 -14.609375 C 12.617188 -15.171875 11.363281 -15.453125 9.9375 -15.453125 L 5.171875 -15.453125 L 5.171875 -2.1875 Z M 9.9375 -2.1875 "/></g></g></g><g fill="#85644c" fill-opacity="1"><g transform="translate(573.851559, 433.626827)"><g><path d="M 15.453125 -2.1875 L 15.453125 0 L 2.640625 0 L 2.640625 -17.640625 L 15.09375 -17.640625 L 15.09375 -15.453125 L 5.171875 -15.453125 L 5.171875 -10.03125 L 14.015625 -10.03125 L 14.015625 -7.890625 L 5.171875 -7.890625 L 5.171875 -2.1875 Z M 15.453125 -2.1875 "/></g></g></g><g fill="#85644c" fill-opacity="1"><g transform="translate(591.94902, 433.626827)"><g/></g></g><g fill="#85644c" fill-opacity="1"><g transform="translate(599.939198, 433.626827)"><g><path d="M 13.609375 -2.1875 L 13.609375 0 L 0.9375 0 L 0.9375 -1.71875 L 8.109375 -8.640625 C 8.984375 -9.484375 9.570312 -10.210938 9.875 -10.828125 C 10.175781 -11.441406 10.328125 -12.054688 10.328125 -12.671875 C 10.328125 -13.597656 10.003906 -14.316406 9.359375 -14.828125 C 8.710938 -15.335938 7.785156 -15.59375 6.578125 -15.59375 C 4.628906 -15.59375 3.125 -14.957031 2.0625 -13.6875 L 0.359375 -15.171875 C 1.046875 -16.015625 1.945312 -16.671875 3.0625 -17.140625 C 4.175781 -17.609375 5.425781 -17.84375 6.8125 -17.84375 C 8.65625 -17.84375 10.125 -17.398438 11.21875 -16.515625 C 12.3125 -15.640625 12.859375 -14.441406 12.859375 -12.921875 C 12.859375 -11.984375 12.65625 -11.09375 12.25 -10.25 C 11.84375 -9.414062 11.078125 -8.460938 9.953125 -7.390625 L 4.5625 -2.1875 Z M 13.609375 -2.1875 "/></g></g></g><g fill="#85644c" fill-opacity="1"><g transform="translate(615.616962, 433.626827)"><g><path d="M 8.421875 0.203125 C 7.023438 0.203125 5.785156 -0.148438 4.703125 -0.859375 C 3.617188 -1.578125 2.765625 -2.617188 2.140625 -3.984375 C 1.515625 -5.347656 1.203125 -6.960938 1.203125 -8.828125 C 1.203125 -10.691406 1.515625 -12.300781 2.140625 -13.65625 C 2.765625 -15.019531 3.617188 -16.054688 4.703125 -16.765625 C 5.785156 -17.484375 7.023438 -17.84375 8.421875 -17.84375 C 9.796875 -17.84375 11.023438 -17.484375 12.109375 -16.765625 C 13.191406 -16.054688 14.039062 -15.019531 14.65625 -13.65625 C 15.28125 -12.300781 15.59375 -10.691406 15.59375 -8.828125 C 15.59375 -6.960938 15.28125 -5.347656 14.65625 -3.984375 C 14.039062 -2.617188 13.191406 -1.578125 12.109375 -0.859375 C 11.023438 -0.148438 9.796875 0.203125 8.421875 0.203125 Z M 8.421875 -2.046875 C 9.828125 -2.046875 10.953125 -2.625 11.796875 -3.78125 C 12.648438 -4.9375 13.078125 -6.617188 13.078125 -8.828125 C 13.078125 -11.023438 12.648438 -12.703125 11.796875 -13.859375 C 10.953125 -15.015625 9.828125 -15.59375 8.421875 -15.59375 C 6.992188 -15.59375 5.851562 -15.015625 5 -13.859375 C 4.15625 -12.703125 3.734375 -11.023438 3.734375 -8.828125 C 3.734375 -6.617188 4.15625 -4.9375 5 -3.78125 C 5.851562 -2.625 6.992188 -2.046875 8.421875 -2.046875 Z M 8.421875 -2.046875 "/></g></g></g><g fill="#85644c" fill-opacity="1"><g transform="translate(633.638809, 433.626827)"><g><path d="M 13.609375 -2.1875 L 13.609375 0 L 0.9375 0 L 0.9375 -1.71875 L 8.109375 -8.640625 C 8.984375 -9.484375 9.570312 -10.210938 9.875 -10.828125 C 10.175781 -11.441406 10.328125 -12.054688 10.328125 -12.671875 C 10.328125 -13.597656 10.003906 -14.316406 9.359375 -14.828125 C 8.710938 -15.335938 7.785156 -15.59375 6.578125 -15.59375 C 4.628906 -15.59375 3.125 -14.957031 2.0625 -13.6875 L 0.359375 -15.171875 C 1.046875 -16.015625 1.945312 -16.671875 3.0625 -17.140625 C 4.175781 -17.609375 5.425781 -17.84375 6.8125 -17.84375 C 8.65625 -17.84375 10.125 -17.398438 11.21875 -16.515625 C 12.3125 -15.640625 12.859375 -14.441406 12.859375 -12.921875 C 12.859375 -11.984375 12.65625 -11.09375 12.25 -10.25 C 11.84375 -9.414062 11.078125 -8.460938 9.953125 -7.390625 L 4.5625 -2.1875 Z M 13.609375 -2.1875 "/></g></g></g><g fill="#85644c" fill-opacity="1"><g transform="translate(649.316573, 433.626827)"><g><path d="M 6.25 -10.609375 C 8.769531 -10.609375 10.617188 -10.132812 11.796875 -9.1875 C 12.984375 -8.238281 13.578125 -6.941406 13.578125 -5.296875 C 13.578125 -4.253906 13.328125 -3.316406 12.828125 -2.484375 C 12.335938 -1.648438 11.59375 -0.992188 10.59375 -0.515625 C 9.59375 -0.0351562 8.363281 0.203125 6.90625 0.203125 C 5.664062 0.203125 4.460938 0.015625 3.296875 -0.359375 C 2.140625 -0.742188 1.179688 -1.269531 0.421875 -1.9375 L 1.59375 -3.9375 C 2.195312 -3.363281 2.96875 -2.90625 3.90625 -2.5625 C 4.84375 -2.21875 5.832031 -2.046875 6.875 -2.046875 C 8.207031 -2.046875 9.238281 -2.328125 9.96875 -2.890625 C 10.695312 -3.453125 11.0625 -4.21875 11.0625 -5.1875 C 11.0625 -6.25 10.65625 -7.050781 9.84375 -7.59375 C 9.039062 -8.144531 7.664062 -8.421875 5.71875 -8.421875 L 1.71875 -8.421875 L 2.640625 -17.640625 L 12.609375 -17.640625 L 12.609375 -15.453125 L 4.765625 -15.453125 L 4.28125 -10.609375 Z M 6.25 -10.609375 "/></g></g></g></svg>